<?xml version="1.0" encoding="UTF-8" standalone="no"?>
<!DOCTYPE svg PUBLIC "-//W3C//DTD SVG 1.1//EN"
 "http://www.w3.org/Graphics/SVG/1.1/DTD/svg11.dtd">
<!-- Generated by graphviz version 13.1.2 (0)
 -->
<!-- Title: TaskDependencies Pages: 1 -->
<svg width="5192pt" height="771pt"
 viewBox="4.00 4.00 5188.00 768.00" xmlns="http://www.w3.org/2000/svg" xmlns:xlink="http://www.w3.org/1999/xlink">
<g id="graph0" class="graph" transform="scale(1 1) rotate(0) translate(7.6 763.6)">
<title>TaskDependencies</title>
<!-- mt_041 -->
<g id="node1" class="node">
<title>mt_041</title>
<path fill="#1e40af" stroke="#1e3a8a" stroke-width="2" d="M114.46,-666C114.46,-666 15.33,-666 15.33,-666 9.33,-666 3.33,-660 3.33,-654 3.33,-654 3.33,-642 3.33,-642 3.33,-636 9.33,-630 15.33,-630 15.33,-630 114.46,-630 114.46,-630 120.46,-630 126.46,-636 126.46,-642 126.46,-642 126.46,-654 126.46,-654 126.46,-660 120.46,-666 114.46,-666"/>
<text xml:space="preserve" text-anchor="middle" x="64.9" y="-650.4" font-family="Arial" font-size="8.00">mt#041</text>
<text xml:space="preserve" text-anchor="middle" x="64.9" y="-640.8" font-family="Arial" font-size="8.00">Write Test Suite for Cursor Ru</text>
</g>
<!-- mt_067 -->
<g id="node2" class="node">
<title>mt_067</title>
<path fill="#15803d" stroke="#166534" stroke-width="2" d="M117.79,-756C117.79,-756 12,-756 12,-756 6,-756 0,-750 0,-744 0,-744 0,-732 0,-732 0,-726 6,-720 12,-720 12,-720 117.79,-720 117.79,-720 123.79,-720 129.79,-726 129.79,-732 129.79,-732 129.79,-744 129.79,-744 129.79,-750 123.79,-756 117.79,-756"/>
<text xml:space="preserve" text-anchor="middle" x="64.9" y="-740.4" font-family="Arial" font-size="8.00">mt#067</text>
<text xml:space="preserve" text-anchor="middle" x="64.9" y="-730.8" font-family="Arial" font-size="8.00">Refactor `minsky&#45;workflow.mdc`</text>
</g>
<!-- mt_067&#45;&gt;mt_041 -->
<g id="edge1" class="edge">
<title>mt_067&#45;&gt;mt_041</title>
<path fill="none" stroke="#374151" stroke-width="2" d="M64.9,-719.19C64.9,-707.03 64.9,-690.66 64.9,-676.79"/>
<polygon fill="#374151" stroke="#374151" stroke-width="2" points="67.35,-676.81 64.9,-669.81 62.45,-676.81 67.35,-676.81"/>
</g>
<!-- mt_045 -->
<g id="node3" class="node">
<title>mt_045</title>
<path fill="#1e40af" stroke="#1e3a8a" stroke-width="2" d="M271.6,-666C271.6,-666 174.2,-666 174.2,-666 168.2,-666 162.2,-660 162.2,-654 162.2,-654 162.2,-642 162.2,-642 162.2,-636 168.2,-630 174.2,-630 174.2,-630 271.6,-630 271.6,-630 277.6,-630 283.6,-636 283.6,-642 283.6,-642 283.6,-654 283.6,-654 283.6,-660 277.6,-666 271.6,-666"/>
<text xml:space="preserve" text-anchor="middle" x="222.9" y="-650.4" font-family="Arial" font-size="8.00">mt#045</text>
<text xml:space="preserve" text-anchor="middle" x="222.9" y="-640.8" font-family="Arial" font-size="8.00">Setup Documentation Tooling</text>
</g>
<!-- mt_030 -->
<g id="node4" class="node">
<title>mt_030</title>
<path fill="#15803d" stroke="#166534" stroke-width="2" d="M363.27,-756C363.27,-756 260.53,-756 260.53,-756 254.53,-756 248.53,-750 248.53,-744 248.53,-744 248.53,-732 248.53,-732 248.53,-726 254.53,-720 260.53,-720 260.53,-720 363.27,-720 363.27,-720 369.27,-720 375.27,-726 375.27,-732 375.27,-732 375.27,-744 375.27,-744 375.27,-750 369.27,-756 363.27,-756"/>
<text xml:space="preserve" text-anchor="middle" x="311.9" y="-740.4" font-family="Arial" font-size="8.00">mt#030</text>
<text xml:space="preserve" text-anchor="middle" x="311.9" y="-730.8" font-family="Arial" font-size="8.00">Setup Project Tooling and Auto</text>
</g>
<!-- mt_030&#45;&gt;mt_045 -->
<g id="edge2" class="edge">
<title>mt_030&#45;&gt;mt_045</title>
<path fill="none" stroke="#374151" stroke-width="2" d="M293.89,-719.19C280.62,-706.07 262.41,-688.07 247.75,-673.58"/>
<polygon fill="#374151" stroke="#374151" stroke-width="2" points="249.73,-672.09 243.03,-668.91 246.29,-675.57 249.73,-672.09"/>
</g>
<!-- mt_046 -->
<g id="node5" class="node">
<title>mt_046</title>
<path fill="#1e40af" stroke="#1e3a8a" stroke-width="2" d="M456.16,-666C456.16,-666 331.63,-666 331.63,-666 325.63,-666 319.63,-660 319.63,-654 319.63,-654 319.63,-642 319.63,-642 319.63,-636 325.63,-630 331.63,-630 331.63,-630 456.16,-630 456.16,-630 462.16,-630 468.16,-636 468.16,-642 468.16,-642 468.16,-654 468.16,-654 468.16,-660 462.16,-666 456.16,-666"/>
<text xml:space="preserve" text-anchor="middle" x="393.9" y="-650.4" font-family="Arial" font-size="8.00">mt#046</text>
<text xml:space="preserve" text-anchor="middle" x="393.9" y="-640.8" font-family="Arial" font-size="8.00">Document Dependency Management</text>
</g>
<!-- mt_030&#45;&gt;mt_046 -->
<g id="edge3" class="edge">
<title>mt_030&#45;&gt;mt_046</title>
<path fill="none" stroke="#374151" stroke-width="2" d="M328.49,-719.19C340.61,-706.19 357.19,-688.39 370.63,-673.97"/>
<polygon fill="#374151" stroke="#374151" stroke-width="2" points="372.28,-675.79 375.26,-669 368.7,-672.45 372.28,-675.79"/>
</g>
<!-- mt_090 -->
<g id="node6" class="node">
<title>mt_090</title>
<path fill="#1e40af" stroke="#1e3a8a" stroke-width="2" d="M617.8,-666C617.8,-666 515.99,-666 515.99,-666 509.99,-666 503.99,-660 503.99,-654 503.99,-654 503.99,-642 503.99,-642 503.99,-636 509.99,-630 515.99,-630 515.99,-630 617.8,-630 617.8,-630 623.8,-630 629.8,-636 629.8,-642 629.8,-642 629.8,-654 629.8,-654 629.8,-660 623.8,-666 617.8,-666"/>
<text xml:space="preserve" text-anchor="middle" x="566.9" y="-650.4" font-family="Arial" font-size="8.00">mt#090</text>
<text xml:space="preserve" text-anchor="middle" x="566.9" y="-640.8" font-family="Arial" font-size="8.00">Prepare for Future Non&#45;Filesys</text>
</g>
<!-- mt_080 -->
<g id="node7" class="node">
<title>mt_080</title>
<path fill="#15803d" stroke="#166534" stroke-width="2" d="M623.14,-756C623.14,-756 510.65,-756 510.65,-756 504.65,-756 498.65,-750 498.65,-744 498.65,-744 498.65,-732 498.65,-732 498.65,-726 504.65,-720 510.65,-720 510.65,-720 623.14,-720 623.14,-720 629.14,-720 635.14,-726 635.14,-732 635.14,-732 635.14,-744 635.14,-744 635.14,-750 629.14,-756 623.14,-756"/>
<text xml:space="preserve" text-anchor="middle" x="566.9" y="-740.4" font-family="Arial" font-size="8.00">mt#080</text>
<text xml:space="preserve" text-anchor="middle" x="566.9" y="-730.8" font-family="Arial" font-size="8.00">Review Workspace and Repositor</text>
</g>
<!-- mt_080&#45;&gt;mt_090 -->
<g id="edge4" class="edge">
<title>mt_080&#45;&gt;mt_090</title>
<path fill="none" stroke="#374151" stroke-width="2" d="M566.9,-719.19C566.9,-707.03 566.9,-690.66 566.9,-676.79"/>
<polygon fill="#374151" stroke="#374151" stroke-width="2" points="569.35,-676.81 566.9,-669.81 564.45,-676.81 569.35,-676.81"/>
</g>
<!-- mt_162 -->
<g id="node8" class="node">
<title>mt_162</title>
<path fill="#1e40af" stroke="#1e3a8a" stroke-width="2" d="M1695.38,-666C1695.38,-666 1578.42,-666 1578.42,-666 1572.42,-666 1566.42,-660 1566.42,-654 1566.42,-654 1566.42,-642 1566.42,-642 1566.42,-636 1572.42,-630 1578.42,-630 1578.42,-630 1695.38,-630 1695.38,-630 1701.38,-630 1707.38,-636 1707.38,-642 1707.38,-642 1707.38,-654 1707.38,-654 1707.38,-660 1701.38,-666 1695.38,-666"/>
<text xml:space="preserve" text-anchor="middle" x="1636.9" y="-650.4" font-family="Arial" font-size="8.00">mt#162</text>
<text xml:space="preserve" text-anchor="middle" x="1636.9" y="-640.8" font-family="Arial" font-size="8.00">Research and Design Comprehens</text>
</g>
<!-- mt_202 -->
<g id="node12" class="node">
<title>mt_202</title>
<path fill="#1e40af" stroke="#1e3a8a" stroke-width="2" d="M1239.83,-486C1239.83,-486 1133.97,-486 1133.97,-486 1127.97,-486 1121.97,-480 1121.97,-474 1121.97,-474 1121.97,-462 1121.97,-462 1121.97,-456 1127.97,-450 1133.97,-450 1133.97,-450 1239.83,-450 1239.83,-450 1245.83,-450 1251.83,-456 1251.83,-462 1251.83,-462 1251.83,-474 1251.83,-474 1251.83,-480 1245.83,-486 1239.83,-486"/>
<text xml:space="preserve" text-anchor="middle" x="1186.9" y="-470.4" font-family="Arial" font-size="8.00">mt#202</text>
<text xml:space="preserve" text-anchor="middle" x="1186.9" y="-460.8" font-family="Arial" font-size="8.00">Rule Suggestion Evaluation and</text>
</g>
<!-- mt_162&#45;&gt;mt_202 -->
<g id="edge10" class="edge">
<title>mt_162&#45;&gt;mt_202</title>
<path fill="none" stroke="#374151" stroke-width="2" d="M1640.99,-629.15C1645.27,-605.44 1648.57,-563.79 1625.9,-540 1570.69,-482.08 1348.67,-500.03 1269.9,-486 1267.43,-485.56 1264.92,-485.1 1262.38,-484.63"/>
<polygon fill="#374151" stroke="#374151" stroke-width="2" points="1262.84,-482.23 1255.51,-483.33 1261.93,-487.04 1262.84,-482.23"/>
</g>
<!-- mt_250 -->
<g id="node13" class="node">
<title>mt_250</title>
<path fill="#1e40af" stroke="#1e3a8a" stroke-width="2" d="M1423.82,-576C1423.82,-576 1317.98,-576 1317.98,-576 1311.98,-576 1305.98,-570 1305.98,-564 1305.98,-564 1305.98,-552 1305.98,-552 1305.98,-546 1311.98,-540 1317.98,-540 1317.98,-540 1423.82,-540 1423.82,-540 1429.82,-540 1435.82,-546 1435.82,-552 1435.82,-552 1435.82,-564 1435.82,-564 1435.82,-570 1429.82,-576 1423.82,-576"/>
<text xml:space="preserve" text-anchor="middle" x="1370.9" y="-560.4" font-family="Arial" font-size="8.00">mt#250</text>
<text xml:space="preserve" text-anchor="middle" x="1370.9" y="-550.8" font-family="Arial" font-size="8.00">Investigate and Implement Sess</text>
</g>
<!-- mt_162&#45;&gt;mt_250 -->
<g id="edge29" class="edge">
<title>mt_162&#45;&gt;mt_250</title>
<path fill="none" stroke="#374151" stroke-width="2" d="M1582.75,-629.09C1539.78,-614.87 1479.62,-594.97 1434.38,-580"/>
<polygon fill="#374151" stroke="#374151" stroke-width="2" points="1435.26,-577.71 1427.84,-577.84 1433.72,-582.36 1435.26,-577.71"/>
</g>
<!-- mt_249 -->
<g id="node9" class="node">
<title>mt_249</title>
<path fill="#15803d" stroke="#166534" stroke-width="2" d="M1563.71,-756C1563.71,-756 1460.09,-756 1460.09,-756 1454.09,-756 1448.09,-750 1448.09,-744 1448.09,-744 1448.09,-732 1448.09,-732 1448.09,-726 1454.09,-720 1460.09,-720 1460.09,-720 1563.71,-720 1563.71,-720 1569.71,-720 1575.71,-726 1575.71,-732 1575.71,-732 1575.71,-744 1575.71,-744 1575.71,-750 1569.71,-756 1563.71,-756"/>
<text xml:space="preserve" text-anchor="middle" x="1511.9" y="-740.4" font-family="Arial" font-size="8.00">mt#249</text>
<text xml:space="preserve" text-anchor="middle" x="1511.9" y="-730.8" font-family="Arial" font-size="8.00">Investigate and Improve Sessio</text>
</g>
<!-- mt_249&#45;&gt;mt_162 -->
<g id="edge5" class="edge">
<title>mt_249&#45;&gt;mt_162</title>
<path fill="none" stroke="#374151" stroke-width="2" d="M1537.19,-719.19C1556.34,-705.71 1582.81,-687.08 1603.66,-672.4"/>
<polygon fill="#374151" stroke="#374151" stroke-width="2" points="1604.85,-674.56 1609.16,-668.52 1602.03,-670.55 1604.85,-674.56"/>
</g>
<!-- mt_249&#45;&gt;mt_250 -->
<g id="edge30" class="edge">
<title>mt_249&#45;&gt;mt_250</title>
<path fill="none" stroke="#374151" stroke-width="2" d="M1509.26,-719.07C1505.18,-696.39 1495.54,-657.02 1474.9,-630 1459.68,-610.09 1437.24,-593.77 1417.1,-581.82"/>
<polygon fill="#374151" stroke="#374151" stroke-width="2" points="1418.55,-579.83 1411.26,-578.48 1416.12,-584.08 1418.55,-579.83"/>
</g>
<!-- mt_354 -->
<g id="node57" class="node">
<title>mt_354</title>
<path fill="#1e40af" stroke="#1e3a8a" stroke-width="2" d="M1113.59,-666C1113.59,-666 1004.2,-666 1004.2,-666 998.2,-666 992.2,-660 992.2,-654 992.2,-654 992.2,-642 992.2,-642 992.2,-636 998.2,-630 1004.2,-630 1004.2,-630 1113.59,-630 1113.59,-630 1119.59,-630 1125.59,-636 1125.59,-642 1125.59,-642 1125.59,-654 1125.59,-654 1125.59,-660 1119.59,-666 1113.59,-666"/>
<text xml:space="preserve" text-anchor="middle" x="1058.9" y="-650.4" font-family="Arial" font-size="8.00">mt#354</text>
<text xml:space="preserve" text-anchor="middle" x="1058.9" y="-640.8" font-family="Arial" font-size="8.00">Implement Session Reapply Tool</text>
</g>
<!-- mt_249&#45;&gt;mt_354 -->
<g id="edge61" class="edge">
<title>mt_249&#45;&gt;mt_354</title>
<path fill="none" stroke="#374151" stroke-width="2" d="M1447.39,-724.69C1373.89,-710.64 1250.2,-686.89 1143.9,-666 1141.29,-665.49 1138.63,-664.96 1135.95,-664.44"/>
<polygon fill="#374151" stroke="#374151" stroke-width="2" points="1136.48,-662.04 1129.13,-663.09 1135.53,-666.85 1136.48,-662.04"/>
</g>
<!-- mt_175 -->
<g id="node10" class="node">
<title>mt_175</title>
<path fill="#1e40af" stroke="#1e3a8a" stroke-width="2" d="M709.49,-576C709.49,-576 594.31,-576 594.31,-576 588.31,-576 582.31,-570 582.31,-564 582.31,-564 582.31,-552 582.31,-552 582.31,-546 588.31,-540 594.31,-540 594.31,-540 709.49,-540 709.49,-540 715.49,-540 721.49,-546 721.49,-552 721.49,-552 721.49,-564 721.49,-564 721.49,-570 715.49,-576 709.49,-576"/>
<text xml:space="preserve" text-anchor="middle" x="651.9" y="-560.4" font-family="Arial" font-size="8.00">mt#175</text>
<text xml:space="preserve" text-anchor="middle" x="651.9" y="-550.8" font-family="Arial" font-size="8.00">Add AI&#45;powered task management</text>
</g>
<!-- mt_237 -->
<g id="node20" class="node">
<title>mt_237</title>
<path fill="#1e40af" stroke="#1e3a8a" stroke-width="2" d="M585.36,-486C585.36,-486 480.44,-486 480.44,-486 474.44,-486 468.44,-480 468.44,-474 468.44,-474 468.44,-462 468.44,-462 468.44,-456 474.44,-450 480.44,-450 480.44,-450 585.36,-450 585.36,-450 591.36,-450 597.36,-456 597.36,-462 597.36,-462 597.36,-474 597.36,-474 597.36,-480 591.36,-486 585.36,-486"/>
<text xml:space="preserve" text-anchor="middle" x="532.9" y="-470.4" font-family="Arial" font-size="8.00">mt#237</text>
<text xml:space="preserve" text-anchor="middle" x="532.9" y="-460.8" font-family="Arial" font-size="8.00">Implement Hierarchical Task Sy</text>
</g>
<!-- mt_175&#45;&gt;mt_237 -->
<g id="edge15" class="edge">
<title>mt_175&#45;&gt;mt_237</title>
<path fill="none" stroke="#374151" stroke-width="2" d="M627.82,-539.19C609.67,-525.77 584.61,-507.24 564.8,-492.59"/>
<polygon fill="#374151" stroke="#374151" stroke-width="2" points="566.46,-490.77 559.38,-488.58 563.55,-494.71 566.46,-490.77"/>
</g>
<!-- mt_239 -->
<g id="node21" class="node">
<title>mt_239</title>
<path fill="#1e40af" stroke="#1e3a8a" stroke-width="2" d="M659.37,-396C659.37,-396 546.42,-396 546.42,-396 540.42,-396 534.42,-390 534.42,-384 534.42,-384 534.42,-372 534.42,-372 534.42,-366 540.42,-360 546.42,-360 546.42,-360 659.37,-360 659.37,-360 665.37,-360 671.37,-366 671.37,-372 671.37,-372 671.37,-384 671.37,-384 671.37,-390 665.37,-396 659.37,-396"/>
<text xml:space="preserve" text-anchor="middle" x="602.9" y="-380.4" font-family="Arial" font-size="8.00">mt#239</text>
<text xml:space="preserve" text-anchor="middle" x="602.9" y="-370.8" font-family="Arial" font-size="8.00">Phase 2: Implement Task Depend</text>
</g>
<!-- mt_175&#45;&gt;mt_239 -->
<g id="edge18" class="edge">
<title>mt_175&#45;&gt;mt_239</title>
<path fill="none" stroke="#374151" stroke-width="2" d="M647.02,-539.28C638.46,-508.18 620.66,-443.54 610.48,-406.56"/>
<polygon fill="#374151" stroke="#374151" stroke-width="2" points="612.85,-405.93 608.63,-399.83 608.13,-407.23 612.85,-405.93"/>
</g>
<!-- mt_240 -->
<g id="node23" class="node">
<title>mt_240</title>
<path fill="#1e40af" stroke="#1e3a8a" stroke-width="2" d="M494.5,-306C494.5,-306 383.3,-306 383.3,-306 377.3,-306 371.3,-300 371.3,-294 371.3,-294 371.3,-282 371.3,-282 371.3,-276 377.3,-270 383.3,-270 383.3,-270 494.5,-270 494.5,-270 500.5,-270 506.5,-276 506.5,-282 506.5,-282 506.5,-294 506.5,-294 506.5,-300 500.5,-306 494.5,-306"/>
<text xml:space="preserve" text-anchor="middle" x="438.9" y="-290.4" font-family="Arial" font-size="8.00">mt#240</text>
<text xml:space="preserve" text-anchor="middle" x="438.9" y="-280.8" font-family="Arial" font-size="8.00">Phase 3: Enhanced Planning/Exe</text>
</g>
<!-- mt_175&#45;&gt;mt_240 -->
<g id="edge22" class="edge">
<title>mt_175&#45;&gt;mt_240</title>
<path fill="none" stroke="#374151" stroke-width="2" d="M581.5,-545.1C504.89,-527.72 387.72,-486.94 345.9,-396 339.21,-381.46 338.8,-374.34 345.9,-360 355.97,-339.63 375,-323.51 393.23,-311.81"/>
<polygon fill="#374151" stroke="#374151" stroke-width="2" points="394.24,-314.06 398.94,-308.32 391.69,-309.88 394.24,-314.06"/>
</g>
<!-- mt_243 -->
<g id="node25" class="node">
<title>mt_243</title>
<path fill="#1e40af" stroke="#1e3a8a" stroke-width="2" d="M655.38,-216C655.38,-216 550.42,-216 550.42,-216 544.42,-216 538.42,-210 538.42,-204 538.42,-204 538.42,-192 538.42,-192 538.42,-186 544.42,-180 550.42,-180 550.42,-180 655.38,-180 655.38,-180 661.38,-180 667.38,-186 667.38,-192 667.38,-192 667.38,-204 667.38,-204 667.38,-210 661.38,-216 655.38,-216"/>
<text xml:space="preserve" text-anchor="middle" x="602.9" y="-200.4" font-family="Arial" font-size="8.00">mt#243</text>
<text xml:space="preserve" text-anchor="middle" x="602.9" y="-190.8" font-family="Arial" font-size="8.00">Advanced Visualization and Dat</text>
</g>
<!-- mt_175&#45;&gt;mt_243 -->
<g id="edge28" class="edge">
<title>mt_175&#45;&gt;mt_243</title>
<path fill="none" stroke="#374151" stroke-width="2" d="M675.97,-539.02C735.31,-492.5 879,-365.21 810.9,-270 780.85,-227.99 724.41,-210.55 677.91,-203.45"/>
<polygon fill="#374151" stroke="#374151" stroke-width="2" points="678.41,-201.05 671.14,-202.51 677.74,-205.9 678.41,-201.05"/>
</g>
<!-- mt_361 -->
<g id="node34" class="node">
<title>mt_361</title>
<path fill="#1e40af" stroke="#1e3a8a" stroke-width="2" d="M781.26,-306C781.26,-306 670.53,-306 670.53,-306 664.53,-306 658.53,-300 658.53,-294 658.53,-294 658.53,-282 658.53,-282 658.53,-276 664.53,-270 670.53,-270 670.53,-270 781.26,-270 781.26,-270 787.26,-270 793.26,-276 793.26,-282 793.26,-282 793.26,-294 793.26,-294 793.26,-300 787.26,-306 781.26,-306"/>
<text xml:space="preserve" text-anchor="middle" x="725.9" y="-290.4" font-family="Arial" font-size="8.00">mt#361</text>
<text xml:space="preserve" text-anchor="middle" x="725.9" y="-280.8" font-family="Arial" font-size="8.00">Explore Automated Session Sync</text>
</g>
<!-- mt_175&#45;&gt;mt_361 -->
<g id="edge38" class="edge">
<title>mt_175&#45;&gt;mt_361</title>
<path fill="none" stroke="#374151" stroke-width="2" d="M656.75,-539.42C669.37,-493.7 703.29,-370.87 718.43,-316.06"/>
<polygon fill="#374151" stroke="#374151" stroke-width="2" points="720.72,-316.97 720.22,-309.57 715.99,-315.66 720.72,-316.97"/>
</g>
<!-- mt_160 -->
<g id="node11" class="node">
<title>mt_160</title>
<path fill="#15803d" stroke="#166534" stroke-width="2" d="M786.15,-666C786.15,-666 677.64,-666 677.64,-666 671.64,-666 665.64,-660 665.64,-654 665.64,-654 665.64,-642 665.64,-642 665.64,-636 671.64,-630 677.64,-630 677.64,-630 786.15,-630 786.15,-630 792.15,-630 798.15,-636 798.15,-642 798.15,-642 798.15,-654 798.15,-654 798.15,-660 792.15,-666 786.15,-666"/>
<text xml:space="preserve" text-anchor="middle" x="731.9" y="-650.4" font-family="Arial" font-size="8.00">mt#160</text>
<text xml:space="preserve" text-anchor="middle" x="731.9" y="-640.8" font-family="Arial" font-size="8.00">Add AI Completion Backend with</text>
</g>
<!-- mt_160&#45;&gt;mt_175 -->
<g id="edge6" class="edge">
<title>mt_160&#45;&gt;mt_175</title>
<path fill="none" stroke="#374151" stroke-width="2" d="M715.71,-629.19C703.89,-616.19 687.71,-598.39 674.6,-583.97"/>
<polygon fill="#374151" stroke="#374151" stroke-width="2" points="676.62,-582.55 670.1,-579.02 672.99,-585.85 676.62,-582.55"/>
</g>
<!-- mt_160&#45;&gt;mt_202 -->
<g id="edge9" class="edge">
<title>mt_160&#45;&gt;mt_202</title>
<path fill="none" stroke="#374151" stroke-width="2" d="M740.21,-629.32C752.62,-605.01 778.39,-561.79 813.9,-540 925.63,-471.42 975.23,-511.15 1103.9,-486 1106.45,-485.5 1109.04,-484.99 1111.66,-484.47"/>
<polygon fill="#374151" stroke="#374151" stroke-width="2" points="1111.87,-486.93 1118.26,-483.16 1110.91,-482.12 1111.87,-486.93"/>
</g>
<!-- mt_254 -->
<g id="node35" class="node">
<title>mt_254</title>
<path fill="#1e40af" stroke="#1e3a8a" stroke-width="2" d="M1257.79,-576C1257.79,-576 1152,-576 1152,-576 1146,-576 1140,-570 1140,-564 1140,-564 1140,-552 1140,-552 1140,-546 1146,-540 1152,-540 1152,-540 1257.79,-540 1257.79,-540 1263.79,-540 1269.79,-546 1269.79,-552 1269.79,-552 1269.79,-564 1269.79,-564 1269.79,-570 1263.79,-576 1257.79,-576"/>
<text xml:space="preserve" text-anchor="middle" x="1204.9" y="-560.4" font-family="Arial" font-size="8.00">mt#254</text>
<text xml:space="preserve" text-anchor="middle" x="1204.9" y="-550.8" font-family="Arial" font-size="8.00">Implement Commit History Simil</text>
</g>
<!-- mt_160&#45;&gt;mt_254 -->
<g id="edge41" class="edge">
<title>mt_160&#45;&gt;mt_254</title>
<path fill="none" stroke="#374151" stroke-width="2" d="M798.81,-633.34C804.59,-632.19 810.34,-631.07 815.9,-630 924.67,-609.07 1050.85,-586.32 1129.3,-572.36"/>
<polygon fill="#374151" stroke="#374151" stroke-width="2" points="1129.65,-574.78 1136.11,-571.14 1128.79,-569.96 1129.65,-574.78"/>
</g>
<!-- mt_321 -->
<g id="node48" class="node">
<title>mt_321</title>
<path fill="#1e40af" stroke="#1e3a8a" stroke-width="2" d="M945.81,-576C945.81,-576 843.98,-576 843.98,-576 837.98,-576 831.98,-570 831.98,-564 831.98,-564 831.98,-552 831.98,-552 831.98,-546 837.98,-540 843.98,-540 843.98,-540 945.81,-540 945.81,-540 951.81,-540 957.81,-546 957.81,-552 957.81,-552 957.81,-564 957.81,-564 957.81,-570 951.81,-576 945.81,-576"/>
<text xml:space="preserve" text-anchor="middle" x="894.9" y="-560.4" font-family="Arial" font-size="8.00">mt#321</text>
<text xml:space="preserve" text-anchor="middle" x="894.9" y="-550.8" font-family="Arial" font-size="8.00">AI&#45;Powered Project Analysis fo</text>
</g>
<!-- mt_160&#45;&gt;mt_321 -->
<g id="edge55" class="edge">
<title>mt_160&#45;&gt;mt_321</title>
<path fill="none" stroke="#374151" stroke-width="2" d="M764.88,-629.19C790.32,-615.46 825.66,-596.38 853.08,-581.58"/>
<polygon fill="#374151" stroke="#374151" stroke-width="2" points="854.02,-583.85 859.02,-578.37 851.69,-579.54 854.02,-583.85"/>
</g>
<!-- mt_441 -->
<g id="node63" class="node">
<title>mt_441</title>
<path fill="#1e40af" stroke="#1e3a8a" stroke-width="2" d="M1386.26,-396C1386.26,-396 1267.53,-396 1267.53,-396 1261.53,-396 1255.53,-390 1255.53,-384 1255.53,-384 1255.53,-372 1255.53,-372 1255.53,-366 1261.53,-360 1267.53,-360 1267.53,-360 1386.26,-360 1386.26,-360 1392.26,-360 1398.26,-366 1398.26,-372 1398.26,-372 1398.26,-384 1398.26,-384 1398.26,-390 1392.26,-396 1386.26,-396"/>
<text xml:space="preserve" text-anchor="middle" x="1326.9" y="-380.4" font-family="Arial" font-size="8.00">mt#441</text>
<text xml:space="preserve" text-anchor="middle" x="1326.9" y="-370.8" font-family="Arial" font-size="8.00">Implement MCP&#45;Based Subagent S</text>
</g>
<!-- mt_202&#45;&gt;mt_441 -->
<g id="edge67" class="edge">
<title>mt_202&#45;&gt;mt_441</title>
<path fill="none" stroke="#374151" stroke-width="2" d="M1215.23,-449.19C1236.86,-435.59 1266.84,-416.75 1290.29,-402.01"/>
<polygon fill="#374151" stroke="#374151" stroke-width="2" points="1291.42,-404.19 1296.04,-398.39 1288.81,-400.04 1291.42,-404.19"/>
</g>
<!-- mt_442 -->
<g id="node66" class="node">
<title>mt_442</title>
<path fill="#1e40af" stroke="#1e3a8a" stroke-width="2" d="M1507.81,-306C1507.81,-306 1397.99,-306 1397.99,-306 1391.99,-306 1385.99,-300 1385.99,-294 1385.99,-294 1385.99,-282 1385.99,-282 1385.99,-276 1391.99,-270 1397.99,-270 1397.99,-270 1507.81,-270 1507.81,-270 1513.81,-270 1519.81,-276 1519.81,-282 1519.81,-282 1519.81,-294 1519.81,-294 1519.81,-300 1513.81,-306 1507.81,-306"/>
<text xml:space="preserve" text-anchor="middle" x="1452.9" y="-290.4" font-family="Arial" font-size="8.00">mt#442</text>
<text xml:space="preserve" text-anchor="middle" x="1452.9" y="-280.8" font-family="Arial" font-size="8.00">Implement Task Routing System </text>
</g>
<!-- mt_202&#45;&gt;mt_442 -->
<g id="edge73" class="edge">
<title>mt_202&#45;&gt;mt_442</title>
<path fill="none" stroke="#374151" stroke-width="2" d="M1190.77,-449.2C1196.81,-425.54 1210.73,-383.95 1237.9,-360 1276.22,-326.22 1331.04,-308.44 1375.74,-299.12"/>
<polygon fill="#374151" stroke="#374151" stroke-width="2" points="1376.04,-301.56 1382.43,-297.79 1375.09,-296.75 1376.04,-301.56"/>
</g>
<!-- mt_250&#45;&gt;mt_202 -->
<g id="edge7" class="edge">
<title>mt_250&#45;&gt;mt_202</title>
<path fill="none" stroke="#374151" stroke-width="2" d="M1333.66,-539.19C1304.7,-525.34 1264.36,-506.05 1233.3,-491.19"/>
<polygon fill="#374151" stroke="#374151" stroke-width="2" points="1234.49,-489.05 1227.12,-488.24 1232.38,-493.47 1234.49,-489.05"/>
</g>
<!-- mt_182 -->
<g id="node14" class="node">
<title>mt_182</title>
<path fill="#15803d" stroke="#166534" stroke-width="2" d="M1595.49,-576C1595.49,-576 1484.3,-576 1484.3,-576 1478.3,-576 1472.3,-570 1472.3,-564 1472.3,-564 1472.3,-552 1472.3,-552 1472.3,-546 1478.3,-540 1484.3,-540 1484.3,-540 1595.49,-540 1595.49,-540 1601.49,-540 1607.49,-546 1607.49,-552 1607.49,-552 1607.49,-564 1607.49,-564 1607.49,-570 1601.49,-576 1595.49,-576"/>
<text xml:space="preserve" text-anchor="middle" x="1539.9" y="-560.4" font-family="Arial" font-size="8.00">mt#182</text>
<text xml:space="preserve" text-anchor="middle" x="1539.9" y="-550.8" font-family="Arial" font-size="8.00">Add AI&#45;Powered Rule Suggestion</text>
</g>
<!-- mt_182&#45;&gt;mt_202 -->
<g id="edge8" class="edge">
<title>mt_182&#45;&gt;mt_202</title>
<path fill="none" stroke="#374151" stroke-width="2" d="M1471.42,-539.93C1411.47,-524.98 1324.5,-503.3 1262.52,-487.85"/>
<polygon fill="#374151" stroke="#374151" stroke-width="2" points="1263.12,-485.48 1255.73,-486.16 1261.93,-490.23 1263.12,-485.48"/>
</g>
<!-- mt_232 -->
<g id="node15" class="node">
<title>mt_232</title>
<path fill="#1e40af" stroke="#1e3a8a" stroke-width="2" d="M2269.92,-666C2269.92,-666 2169.88,-666 2169.88,-666 2163.88,-666 2157.88,-660 2157.88,-654 2157.88,-654 2157.88,-642 2157.88,-642 2157.88,-636 2163.88,-630 2169.88,-630 2169.88,-630 2269.92,-630 2269.92,-630 2275.92,-630 2281.92,-636 2281.92,-642 2281.92,-642 2281.92,-654 2281.92,-654 2281.92,-660 2275.92,-666 2269.92,-666"/>
<text xml:space="preserve" text-anchor="middle" x="2219.9" y="-650.4" font-family="Arial" font-size="8.00">mt#232</text>
<text xml:space="preserve" text-anchor="middle" x="2219.9" y="-640.8" font-family="Arial" font-size="8.00">Improve session PR conflict re</text>
</g>
<!-- mt_231 -->
<g id="node16" class="node">
<title>mt_231</title>
<path fill="#15803d" stroke="#166534" stroke-width="2" d="M2271.7,-756C2271.7,-756 2168.1,-756 2168.1,-756 2162.1,-756 2156.1,-750 2156.1,-744 2156.1,-744 2156.1,-732 2156.1,-732 2156.1,-726 2162.1,-720 2168.1,-720 2168.1,-720 2271.7,-720 2271.7,-720 2277.7,-720 2283.7,-726 2283.7,-732 2283.7,-732 2283.7,-744 2283.7,-744 2283.7,-750 2277.7,-756 2271.7,-756"/>
<text xml:space="preserve" text-anchor="middle" x="2219.9" y="-740.4" font-family="Arial" font-size="8.00">mt#231</text>
<text xml:space="preserve" text-anchor="middle" x="2219.9" y="-730.8" font-family="Arial" font-size="8.00">Implement session PR refresh f</text>
</g>
<!-- mt_231&#45;&gt;mt_232 -->
<g id="edge11" class="edge">
<title>mt_231&#45;&gt;mt_232</title>
<path fill="none" stroke="#374151" stroke-width="2" d="M2219.9,-719.19C2219.9,-707.03 2219.9,-690.66 2219.9,-676.79"/>
<polygon fill="#374151" stroke="#374151" stroke-width="2" points="2222.35,-676.81 2219.9,-669.81 2217.45,-676.81 2222.35,-676.81"/>
</g>
<!-- mt_233 -->
<g id="node17" class="node">
<title>mt_233</title>
<path fill="#1e40af" stroke="#1e3a8a" stroke-width="2" d="M2434.48,-666C2434.48,-666 2331.31,-666 2331.31,-666 2325.31,-666 2319.31,-660 2319.31,-654 2319.31,-654 2319.31,-642 2319.31,-642 2319.31,-636 2325.31,-630 2331.31,-630 2331.31,-630 2434.48,-630 2434.48,-630 2440.48,-630 2446.48,-636 2446.48,-642 2446.48,-642 2446.48,-654 2446.48,-654 2446.48,-660 2440.48,-666 2434.48,-666"/>
<text xml:space="preserve" text-anchor="middle" x="2382.9" y="-650.4" font-family="Arial" font-size="8.00">mt#233</text>
<text xml:space="preserve" text-anchor="middle" x="2382.9" y="-640.8" font-family="Arial" font-size="8.00">Setup semantic&#45;release with co</text>
</g>
<!-- mt_234 -->
<g id="node19" class="node">
<title>mt_234</title>
<path fill="#1e40af" stroke="#1e3a8a" stroke-width="2" d="M2495.26,-576C2495.26,-576 2388.54,-576 2388.54,-576 2382.54,-576 2376.54,-570 2376.54,-564 2376.54,-564 2376.54,-552 2376.54,-552 2376.54,-546 2382.54,-540 2388.54,-540 2388.54,-540 2495.26,-540 2495.26,-540 2501.26,-540 2507.26,-546 2507.26,-552 2507.26,-552 2507.26,-564 2507.26,-564 2507.26,-570 2501.26,-576 2495.26,-576"/>
<text xml:space="preserve" text-anchor="middle" x="2441.9" y="-560.4" font-family="Arial" font-size="8.00">mt#234</text>
<text xml:space="preserve" text-anchor="middle" x="2441.9" y="-550.8" font-family="Arial" font-size="8.00">Implement Dagger CI Pipeline w</text>
</g>
<!-- mt_233&#45;&gt;mt_234 -->
<g id="edge14" class="edge">
<title>mt_233&#45;&gt;mt_234</title>
<path fill="none" stroke="#374151" stroke-width="2" d="M2394.84,-629.19C2403.39,-616.43 2415.05,-599.04 2424.62,-584.77"/>
<polygon fill="#374151" stroke="#374151" stroke-width="2" points="2426.43,-586.47 2428.29,-579.3 2422.36,-583.75 2426.43,-586.47"/>
</g>
<!-- mt_164 -->
<g id="node18" class="node">
<title>mt_164</title>
<path fill="#15803d" stroke="#166534" stroke-width="2" d="M2436.59,-756C2436.59,-756 2331.2,-756 2331.2,-756 2325.2,-756 2319.2,-750 2319.2,-744 2319.2,-744 2319.2,-732 2319.2,-732 2319.2,-726 2325.2,-720 2331.2,-720 2331.2,-720 2436.59,-720 2436.59,-720 2442.59,-720 2448.59,-726 2448.59,-732 2448.59,-732 2448.59,-744 2448.59,-744 2448.59,-750 2442.59,-756 2436.59,-756"/>
<text xml:space="preserve" text-anchor="middle" x="2383.9" y="-740.4" font-family="Arial" font-size="8.00">mt#164</text>
<text xml:space="preserve" text-anchor="middle" x="2383.9" y="-730.8" font-family="Arial" font-size="8.00">Add Bun Binary Builds and GitH</text>
</g>
<!-- mt_164&#45;&gt;mt_233 -->
<g id="edge12" class="edge">
<title>mt_164&#45;&gt;mt_233</title>
<path fill="none" stroke="#374151" stroke-width="2" d="M2383.69,-719.19C2383.56,-707.03 2383.37,-690.66 2383.21,-676.79"/>
<polygon fill="#374151" stroke="#374151" stroke-width="2" points="2385.66,-676.78 2383.13,-669.81 2380.76,-676.84 2385.66,-676.78"/>
</g>
<!-- mt_164&#45;&gt;mt_234 -->
<g id="edge13" class="edge">
<title>mt_164&#45;&gt;mt_234</title>
<path fill="none" stroke="#374151" stroke-width="2" d="M2414.91,-719.27C2433.17,-706.93 2454.63,-688.65 2464.9,-666 2476.63,-640.11 2466.79,-607.93 2456.59,-585.66"/>
<polygon fill="#374151" stroke="#374151" stroke-width="2" points="2458.85,-584.71 2453.58,-579.49 2454.45,-586.85 2458.85,-584.71"/>
</g>
<!-- mt_237&#45;&gt;mt_239 -->
<g id="edge16" class="edge">
<title>mt_237&#45;&gt;mt_239</title>
<path fill="none" stroke="#374151" stroke-width="2" d="M535.96,-449.19C543.58,-436.19 557.33,-418.39 570.72,-403.97"/>
<polygon fill="#374151" stroke="#374151" stroke-width="2" points="572.46,-405.7 575.56,-398.96 568.94,-402.3 572.46,-405.7"/>
</g>
<!-- mt_237&#45;&gt;mt_240 -->
<g id="edge19" class="edge">
<title>mt_237&#45;&gt;mt_240</title>
<path fill="none" stroke="#374151" stroke-width="2" d="M467.45,-461.13C423.54,-453.49 369.66,-436.01 342.9,-396 323.1,-366.41 355.8,-333.46 388.72,-312.05"/>
<polygon fill="#374151" stroke="#374151" stroke-width="2" points="389.84,-314.24 394.49,-308.46 387.25,-310.07 389.84,-314.24"/>
</g>
<!-- mt_237&#45;&gt;mt_243 -->
<g id="edge24" class="edge">
<title>mt_237&#45;&gt;mt_243</title>
<path fill="none" stroke="#374151" stroke-width="2" d="M467.68,-460.79C425.33,-452.99 373.11,-435.44 345.9,-396 331.28,-374.81 326.81,-301.88 352.9,-270 375.12,-242.85 462.6,-222.48 527.85,-210.68"/>
<polygon fill="#374151" stroke="#374151" stroke-width="2" points="528.27,-213.09 534.73,-209.46 527.41,-208.27 528.27,-213.09"/>
</g>
<!-- mt_237&#45;&gt;mt_441 -->
<g id="edge68" class="edge">
<title>mt_237&#45;&gt;mt_441</title>
<path fill="none" stroke="#374151" stroke-width="2" d="M598.21,-459.76C742.19,-443.8 1086.62,-405.63 1244.85,-388.09"/>
<polygon fill="#374151" stroke="#374151" stroke-width="2" points="1244.85,-390.56 1251.54,-387.35 1244.31,-385.69 1244.85,-390.56"/>
</g>
<!-- mt_237&#45;&gt;mt_442 -->
<g id="edge77" class="edge">
<title>mt_237&#45;&gt;mt_442</title>
<path fill="none" stroke="#374151" stroke-width="2" d="M598.32,-454.34C763.61,-422.36 1197.43,-338.43 1375.21,-304.03"/>
<polygon fill="#374151" stroke="#374151" stroke-width="2" points="1375.63,-306.44 1382.04,-302.71 1374.7,-301.63 1375.63,-306.44"/>
</g>
<!-- mt_239&#45;&gt;mt_237 -->
<g id="edge91" class="edge">
<title>mt_239&#45;&gt;mt_237</title>
<path fill="none" stroke="#374151" stroke-width="2" d="M599.84,-396.78C592.24,-409.78 578.49,-427.57 565.1,-442"/>
<polygon fill="#374151" stroke="#374151" stroke-width="2" points="563.36,-440.27 560.26,-447.01 566.88,-443.68 563.36,-440.27"/>
</g>
<!-- mt_239&#45;&gt;mt_240 -->
<g id="edge21" class="edge">
<title>mt_239&#45;&gt;mt_240</title>
<path fill="none" stroke="#374151" stroke-width="2" d="M569.71,-359.19C544.12,-345.46 508.56,-326.38 480.97,-311.58"/>
<polygon fill="#374151" stroke="#374151" stroke-width="2" points="482.31,-309.51 474.98,-308.36 479.99,-313.83 482.31,-309.51"/>
</g>
<!-- mt_239&#45;&gt;mt_243 -->
<g id="edge26" class="edge">
<title>mt_239&#45;&gt;mt_243</title>
<path fill="none" stroke="#374151" stroke-width="2" d="M602.9,-359.28C602.9,-328.18 602.9,-263.54 602.9,-226.56"/>
<polygon fill="#374151" stroke="#374151" stroke-width="2" points="605.35,-226.94 602.9,-219.94 600.45,-226.94 605.35,-226.94"/>
</g>
<!-- mt_239&#45;&gt;mt_361 -->
<g id="edge37" class="edge">
<title>mt_239&#45;&gt;mt_361</title>
<path fill="none" stroke="#374151" stroke-width="2" d="M627.79,-359.19C646.54,-345.77 672.44,-327.24 692.92,-312.59"/>
<polygon fill="#374151" stroke="#374151" stroke-width="2" points="694.31,-314.61 698.58,-308.54 691.46,-310.62 694.31,-314.61"/>
</g>
<!-- mt_238 -->
<g id="node22" class="node">
<title>mt_238</title>
<path fill="#15803d" stroke="#166534" stroke-width="2" d="M1073.93,-486C1073.93,-486 965.87,-486 965.87,-486 959.87,-486 953.87,-480 953.87,-474 953.87,-474 953.87,-462 953.87,-462 953.87,-456 959.87,-450 965.87,-450 965.87,-450 1073.93,-450 1073.93,-450 1079.93,-450 1085.93,-456 1085.93,-462 1085.93,-462 1085.93,-474 1085.93,-474 1085.93,-480 1079.93,-486 1073.93,-486"/>
<text xml:space="preserve" text-anchor="middle" x="1019.9" y="-470.4" font-family="Arial" font-size="8.00">mt#238</text>
<text xml:space="preserve" text-anchor="middle" x="1019.9" y="-460.8" font-family="Arial" font-size="8.00">Phase 1: Implement Basic Subta</text>
</g>
<!-- mt_238&#45;&gt;mt_239 -->
<g id="edge17" class="edge">
<title>mt_238&#45;&gt;mt_239</title>
<path fill="none" stroke="#374151" stroke-width="2" d="M952.9,-452.86C878.9,-437.24 759.86,-412.12 681.51,-395.59"/>
<polygon fill="#374151" stroke="#374151" stroke-width="2" points="682.48,-393.29 675.12,-394.24 681.46,-398.08 682.48,-393.29"/>
</g>
<!-- mt_238&#45;&gt;mt_240 -->
<g id="edge20" class="edge">
<title>mt_238&#45;&gt;mt_240</title>
<path fill="none" stroke="#374151" stroke-width="2" d="M966.48,-449.08C901.2,-427.33 787.28,-389.86 688.9,-360 630.39,-342.24 563.77,-323.39 514.02,-309.58"/>
<polygon fill="#374151" stroke="#374151" stroke-width="2" points="514.94,-307.29 507.54,-307.78 513.63,-312.01 514.94,-307.29"/>
</g>
<!-- mt_238&#45;&gt;mt_243 -->
<g id="edge25" class="edge">
<title>mt_238&#45;&gt;mt_243</title>
<path fill="none" stroke="#374151" stroke-width="2" d="M1021.77,-449.27C1024.79,-410.65 1025.98,-318.53 975.9,-270 934.36,-229.76 774.52,-211.32 678.07,-203.71"/>
<polygon fill="#374151" stroke="#374151" stroke-width="2" points="678.55,-201.29 671.38,-203.2 678.17,-206.18 678.55,-201.29"/>
</g>
<!-- mt_238&#45;&gt;mt_441 -->
<g id="edge69" class="edge">
<title>mt_238&#45;&gt;mt_441</title>
<path fill="none" stroke="#374151" stroke-width="2" d="M1082.39,-449.09C1132.32,-434.77 1202.35,-414.7 1254.67,-399.7"/>
<polygon fill="#374151" stroke="#374151" stroke-width="2" points="1255.26,-402.08 1261.31,-397.8 1253.91,-397.37 1255.26,-402.08"/>
</g>
<!-- mt_238&#45;&gt;mt_442 -->
<g id="edge75" class="edge">
<title>mt_238&#45;&gt;mt_442</title>
<path fill="none" stroke="#374151" stroke-width="2" d="M1045.6,-449.01C1079.88,-425.71 1143.07,-385.12 1201.9,-360 1258.24,-335.94 1325.13,-317.48 1375.68,-305.42"/>
<polygon fill="#374151" stroke="#374151" stroke-width="2" points="1376.04,-307.86 1382.3,-303.87 1374.92,-303.09 1376.04,-307.86"/>
</g>
<!-- mt_240&#45;&gt;mt_237 -->
<g id="edge92" class="edge">
<title>mt_240&#45;&gt;mt_237</title>
<path fill="none" stroke="#374151" stroke-width="2" d="M422.88,-306.86C397.72,-327.85 357.42,-363.9 378.9,-396 397.37,-423.62 428.77,-440.5 458.55,-450.82"/>
<polygon fill="#374151" stroke="#374151" stroke-width="2" points="457.44,-453.04 464.85,-452.88 458.96,-448.38 457.44,-453.04"/>
</g>
<!-- mt_240&#45;&gt;mt_243 -->
<g id="edge27" class="edge">
<title>mt_240&#45;&gt;mt_243</title>
<path fill="none" stroke="#374151" stroke-width="2" d="M472.08,-269.19C497.67,-255.46 533.24,-236.38 560.82,-221.58"/>
<polygon fill="#374151" stroke="#374151" stroke-width="2" points="561.8,-223.83 566.81,-218.36 559.48,-219.51 561.8,-223.83"/>
</g>
<!-- mt_004 -->
<g id="node24" class="node">
<title>mt_004</title>
<path fill="#15803d" stroke="#166534" stroke-width="2" d="M486.91,-396C486.91,-396 390.88,-396 390.88,-396 384.88,-396 378.88,-390 378.88,-384 378.88,-384 378.88,-372 378.88,-372 378.88,-366 384.88,-360 390.88,-360 390.88,-360 486.91,-360 486.91,-360 492.91,-360 498.91,-366 498.91,-372 498.91,-372 498.91,-384 498.91,-384 498.91,-390 492.91,-396 486.91,-396"/>
<text xml:space="preserve" text-anchor="middle" x="438.9" y="-380.4" font-family="Arial" font-size="8.00">mt#004</text>
<text xml:space="preserve" text-anchor="middle" x="438.9" y="-370.8" font-family="Arial" font-size="8.00">Add `&#45;&#45;task` Option to `sessio</text>
</g>
<!-- mt_004&#45;&gt;mt_240 -->
<g id="edge23" class="edge">
<title>mt_004&#45;&gt;mt_240</title>
<path fill="none" stroke="#374151" stroke-width="2" d="M438.9,-359.19C438.9,-347.03 438.9,-330.66 438.9,-316.79"/>
<polygon fill="#374151" stroke="#374151" stroke-width="2" points="441.35,-316.81 438.9,-309.81 436.45,-316.81 441.35,-316.81"/>
</g>
<!-- mt_179 -->
<g id="node26" class="node">
<title>mt_179</title>
<path fill="#1e40af" stroke="#1e3a8a" stroke-width="2" d="M1282.15,-666C1282.15,-666 1173.64,-666 1173.64,-666 1167.64,-666 1161.64,-660 1161.64,-654 1161.64,-654 1161.64,-642 1161.64,-642 1161.64,-636 1167.64,-630 1173.64,-630 1173.64,-630 1282.15,-630 1282.15,-630 1288.15,-630 1294.15,-636 1294.15,-642 1294.15,-642 1294.15,-654 1294.15,-654 1294.15,-660 1288.15,-666 1282.15,-666"/>
<text xml:space="preserve" text-anchor="middle" x="1227.9" y="-650.4" font-family="Arial" font-size="8.00">mt#179</text>
<text xml:space="preserve" text-anchor="middle" x="1227.9" y="-640.8" font-family="Arial" font-size="8.00">Investigate Embeddings/RAG for</text>
</g>
<!-- mt_179&#45;&gt;mt_250 -->
<g id="edge31" class="edge">
<title>mt_179&#45;&gt;mt_250</title>
<path fill="none" stroke="#374151" stroke-width="2" d="M1256.83,-629.19C1278.93,-615.59 1309.55,-596.75 1333.51,-582.01"/>
<polygon fill="#374151" stroke="#374151" stroke-width="2" points="1334.75,-584.12 1339.42,-578.37 1332.18,-579.95 1334.75,-584.12"/>
</g>
<!-- mt_179&#45;&gt;mt_254 -->
<g id="edge39" class="edge">
<title>mt_179&#45;&gt;mt_254</title>
<path fill="none" stroke="#374151" stroke-width="2" d="M1223.24,-629.19C1220.03,-616.91 1215.7,-600.34 1212.05,-586.38"/>
<polygon fill="#374151" stroke="#374151" stroke-width="2" points="1214.45,-585.86 1210.31,-579.71 1209.71,-587.1 1214.45,-585.86"/>
</g>
<!-- mt_158 -->
<g id="node27" class="node">
<title>mt_158</title>
<path fill="#15803d" stroke="#166534" stroke-width="2" d="M1866.03,-666C1866.03,-666 1755.76,-666 1755.76,-666 1749.76,-666 1743.76,-660 1743.76,-654 1743.76,-654 1743.76,-642 1743.76,-642 1743.76,-636 1749.76,-630 1755.76,-630 1755.76,-630 1866.03,-630 1866.03,-630 1872.03,-630 1878.03,-636 1878.03,-642 1878.03,-642 1878.03,-654 1878.03,-654 1878.03,-660 1872.03,-666 1866.03,-666"/>
<text xml:space="preserve" text-anchor="middle" x="1810.9" y="-650.4" font-family="Arial" font-size="8.00">mt#158</text>
<text xml:space="preserve" text-anchor="middle" x="1810.9" y="-640.8" font-family="Arial" font-size="8.00">Implement Session&#45;Aware Versio</text>
</g>
<!-- mt_158&#45;&gt;mt_250 -->
<g id="edge32" class="edge">
<title>mt_158&#45;&gt;mt_250</title>
<path fill="none" stroke="#374151" stroke-width="2" d="M1742.95,-633.53C1655.44,-616.18 1508.17,-586.96 1453.9,-576 1451.35,-575.49 1448.76,-574.96 1446.14,-574.43"/>
<polygon fill="#374151" stroke="#374151" stroke-width="2" points="1446.9,-572.08 1439.55,-573.09 1445.92,-576.89 1446.9,-572.08"/>
</g>
<!-- mt_293 -->
<g id="node47" class="node">
<title>mt_293</title>
<path fill="#1e40af" stroke="#1e3a8a" stroke-width="2" d="M2031.37,-576C2031.37,-576 1930.42,-576 1930.42,-576 1924.42,-576 1918.42,-570 1918.42,-564 1918.42,-564 1918.42,-552 1918.42,-552 1918.42,-546 1924.42,-540 1930.42,-540 1930.42,-540 2031.37,-540 2031.37,-540 2037.37,-540 2043.37,-546 2043.37,-552 2043.37,-552 2043.37,-564 2043.37,-564 2043.37,-570 2037.37,-576 2031.37,-576"/>
<text xml:space="preserve" text-anchor="middle" x="1980.9" y="-560.4" font-family="Arial" font-size="8.00">mt#293</text>
<text xml:space="preserve" text-anchor="middle" x="1980.9" y="-550.8" font-family="Arial" font-size="8.00">Add session chat interface con</text>
</g>
<!-- mt_158&#45;&gt;mt_293 -->
<g id="edge53" class="edge">
<title>mt_158&#45;&gt;mt_293</title>
<path fill="none" stroke="#374151" stroke-width="2" d="M1845.3,-629.19C1871.94,-615.4 1909.01,-596.21 1937.65,-581.38"/>
<polygon fill="#374151" stroke="#374151" stroke-width="2" points="1938.48,-583.72 1943.57,-578.32 1936.22,-579.37 1938.48,-583.72"/>
</g>
<!-- mt_349 -->
<g id="node54" class="node">
<title>mt_349</title>
<path fill="#1e40af" stroke="#1e3a8a" stroke-width="2" d="M1831.8,-486C1831.8,-486 1729.99,-486 1729.99,-486 1723.99,-486 1717.99,-480 1717.99,-474 1717.99,-474 1717.99,-462 1717.99,-462 1717.99,-456 1723.99,-450 1729.99,-450 1729.99,-450 1831.8,-450 1831.8,-450 1837.8,-450 1843.8,-456 1843.8,-462 1843.8,-462 1843.8,-474 1843.8,-474 1843.8,-480 1837.8,-486 1831.8,-486"/>
<text xml:space="preserve" text-anchor="middle" x="1780.9" y="-470.4" font-family="Arial" font-size="8.00">mt#349</text>
<text xml:space="preserve" text-anchor="middle" x="1780.9" y="-460.8" font-family="Arial" font-size="8.00">Analyze Cursor Chat History to</text>
</g>
<!-- mt_158&#45;&gt;mt_349 -->
<g id="edge59" class="edge">
<title>mt_158&#45;&gt;mt_349</title>
<path fill="none" stroke="#374151" stroke-width="2" d="M1807.91,-629.28C1802.67,-598.18 1791.77,-533.54 1785.54,-496.56"/>
<polygon fill="#374151" stroke="#374151" stroke-width="2" points="1788,-496.39 1784.42,-489.9 1783.17,-497.21 1788,-496.39"/>
</g>
<!-- mt_251 -->
<g id="node28" class="node">
<title>mt_251</title>
<path fill="#1e40af" stroke="#1e3a8a" stroke-width="2" d="M2030.48,-756C2030.48,-756 1931.31,-756 1931.31,-756 1925.31,-756 1919.31,-750 1919.31,-744 1919.31,-744 1919.31,-732 1919.31,-732 1919.31,-726 1925.31,-720 1931.31,-720 1931.31,-720 2030.48,-720 2030.48,-720 2036.48,-720 2042.48,-726 2042.48,-732 2042.48,-732 2042.48,-744 2042.48,-744 2042.48,-750 2036.48,-756 2030.48,-756"/>
<text xml:space="preserve" text-anchor="middle" x="1980.9" y="-740.4" font-family="Arial" font-size="8.00">mt#251</text>
<text xml:space="preserve" text-anchor="middle" x="1980.9" y="-730.8" font-family="Arial" font-size="8.00">Add Mobile/Voice Interface for</text>
</g>
<!-- mt_252 -->
<g id="node29" class="node">
<title>mt_252</title>
<path fill="#1e40af" stroke="#1e3a8a" stroke-width="2" d="M2036.26,-666C2036.26,-666 1925.53,-666 1925.53,-666 1919.53,-666 1913.53,-660 1913.53,-654 1913.53,-654 1913.53,-642 1913.53,-642 1913.53,-636 1919.53,-630 1925.53,-630 1925.53,-630 2036.26,-630 2036.26,-630 2042.26,-630 2048.26,-636 2048.26,-642 2048.26,-642 2048.26,-654 2048.26,-654 2048.26,-660 2042.26,-666 2036.26,-666"/>
<text xml:space="preserve" text-anchor="middle" x="1980.9" y="-650.4" font-family="Arial" font-size="8.00">mt#252</text>
<text xml:space="preserve" text-anchor="middle" x="1980.9" y="-640.8" font-family="Arial" font-size="8.00">Design and implement task mana</text>
</g>
<!-- mt_251&#45;&gt;mt_252 -->
<g id="edge82" class="edge">
<title>mt_251&#45;&gt;mt_252</title>
<path fill="none" stroke="#374151" stroke-width="2" d="M1969.8,-719.19C1967.22,-706.91 1966.72,-690.34 1968.29,-676.38"/>
<polygon fill="#374151" stroke="#374151" stroke-width="2" points="1970.66,-677.07 1969.33,-669.77 1965.82,-676.3 1970.66,-677.07"/>
</g>
<!-- mt_251&#45;&gt;mt_293 -->
<g id="edge52" class="edge">
<title>mt_251&#45;&gt;mt_293</title>
<path fill="none" stroke="#374151" stroke-width="2" d="M2014.27,-719.07C2033.22,-706.87 2055.23,-688.82 2065.9,-666 2072.67,-651.51 2072.67,-644.49 2065.9,-630 2056.73,-610.39 2039.18,-594.3 2022.41,-582.42"/>
<polygon fill="#374151" stroke="#374151" stroke-width="2" points="2023.95,-580.51 2016.78,-578.63 2021.21,-584.57 2023.95,-580.51"/>
</g>
<!-- mt_252&#45;&gt;mt_251 -->
<g id="edge33" class="edge">
<title>mt_252&#45;&gt;mt_251</title>
<path fill="none" stroke="#374151" stroke-width="2" d="M1991.99,-666.78C1994.57,-679.06 1995.08,-695.63 1993.5,-709.59"/>
<polygon fill="#374151" stroke="#374151" stroke-width="2" points="1991.13,-708.91 1992.46,-716.2 1995.97,-709.67 1991.13,-708.91"/>
</g>
<!-- mt_252&#45;&gt;mt_293 -->
<g id="edge51" class="edge">
<title>mt_252&#45;&gt;mt_293</title>
<path fill="none" stroke="#374151" stroke-width="2" d="M1980.9,-629.19C1980.9,-617.03 1980.9,-600.66 1980.9,-586.79"/>
<polygon fill="#374151" stroke="#374151" stroke-width="2" points="1983.35,-586.81 1980.9,-579.81 1978.45,-586.81 1983.35,-586.81"/>
</g>
<!-- mt_279 -->
<g id="node30" class="node">
<title>mt_279</title>
<path fill="#1e40af" stroke="#1e3a8a" stroke-width="2" d="M1722.81,-126C1722.81,-126 1620.98,-126 1620.98,-126 1614.98,-126 1608.98,-120 1608.98,-114 1608.98,-114 1608.98,-102 1608.98,-102 1608.98,-96 1614.98,-90 1620.98,-90 1620.98,-90 1722.81,-90 1722.81,-90 1728.81,-90 1734.81,-96 1734.81,-102 1734.81,-102 1734.81,-114 1734.81,-114 1734.81,-120 1728.81,-126 1722.81,-126"/>
<text xml:space="preserve" text-anchor="middle" x="1671.9" y="-110.4" font-family="Arial" font-size="8.00">mt#279</text>
<text xml:space="preserve" text-anchor="middle" x="1671.9" y="-100.8" font-family="Arial" font-size="8.00">Implement multi&#45;layered agent </text>
</g>
<!-- mt_327 -->
<g id="node73" class="node">
<title>mt_327</title>
<path fill="#1e40af" stroke="#1e3a8a" stroke-width="2" d="M1884.71,-36C1884.71,-36 1785.09,-36 1785.09,-36 1779.09,-36 1773.09,-30 1773.09,-24 1773.09,-24 1773.09,-12 1773.09,-12 1773.09,-6 1779.09,0 1785.09,0 1785.09,0 1884.71,0 1884.71,0 1890.71,0 1896.71,-6 1896.71,-12 1896.71,-12 1896.71,-24 1896.71,-24 1896.71,-30 1890.71,-36 1884.71,-36"/>
<text xml:space="preserve" text-anchor="middle" x="1834.9" y="-20.4" font-family="Arial" font-size="8.00">mt#327</text>
<text xml:space="preserve" text-anchor="middle" x="1834.9" y="-10.8" font-family="Arial" font-size="8.00">Analyze and architect general </text>
</g>
<!-- mt_279&#45;&gt;mt_327 -->
<g id="edge86" class="edge">
<title>mt_279&#45;&gt;mt_327</title>
<path fill="none" stroke="#374151" stroke-width="2" d="M1704.88,-89.19C1730.32,-75.46 1765.66,-56.38 1793.08,-41.58"/>
<polygon fill="#374151" stroke="#374151" stroke-width="2" points="1794.02,-43.85 1799.02,-38.37 1791.69,-39.54 1794.02,-43.85"/>
</g>
<!-- mt_258 -->
<g id="node31" class="node">
<title>mt_258</title>
<path fill="#1e40af" stroke="#1e3a8a" stroke-width="2" d="M1904.7,-306C1904.7,-306 1805.09,-306 1805.09,-306 1799.09,-306 1793.09,-300 1793.09,-294 1793.09,-294 1793.09,-282 1793.09,-282 1793.09,-276 1799.09,-270 1805.09,-270 1805.09,-270 1904.7,-270 1904.7,-270 1910.7,-270 1916.7,-276 1916.7,-282 1916.7,-282 1916.7,-294 1916.7,-294 1916.7,-300 1910.7,-306 1904.7,-306"/>
<text xml:space="preserve" text-anchor="middle" x="1854.9" y="-290.4" font-family="Arial" font-size="8.00">mt#258</text>
<text xml:space="preserve" text-anchor="middle" x="1854.9" y="-280.8" font-family="Arial" font-size="8.00">Design multi&#45;agent cybernetic </text>
</g>
<!-- mt_258&#45;&gt;mt_279 -->
<g id="edge34" class="edge">
<title>mt_258&#45;&gt;mt_279</title>
<path fill="none" stroke="#374151" stroke-width="2" d="M1823.65,-269.18C1802.15,-256.07 1773.65,-236.93 1751.9,-216 1726.26,-191.33 1702.62,-157.8 1687.79,-134.9"/>
<polygon fill="#374151" stroke="#374151" stroke-width="2" points="1690.01,-133.82 1684.18,-129.23 1685.88,-136.45 1690.01,-133.82"/>
</g>
<!-- mt_284 -->
<g id="node32" class="node">
<title>mt_284</title>
<path fill="#1e40af" stroke="#1e3a8a" stroke-width="2" d="M1888.03,-216C1888.03,-216 1781.76,-216 1781.76,-216 1775.76,-216 1769.76,-210 1769.76,-204 1769.76,-204 1769.76,-192 1769.76,-192 1769.76,-186 1775.76,-180 1781.76,-180 1781.76,-180 1888.03,-180 1888.03,-180 1894.03,-180 1900.03,-186 1900.03,-192 1900.03,-192 1900.03,-204 1900.03,-204 1900.03,-210 1894.03,-216 1888.03,-216"/>
<text xml:space="preserve" text-anchor="middle" x="1834.9" y="-200.4" font-family="Arial" font-size="8.00">mt#284</text>
<text xml:space="preserve" text-anchor="middle" x="1834.9" y="-190.8" font-family="Arial" font-size="8.00">Integrate Task Graph System wi</text>
</g>
<!-- mt_258&#45;&gt;mt_284 -->
<g id="edge36" class="edge">
<title>mt_258&#45;&gt;mt_284</title>
<path fill="none" stroke="#374151" stroke-width="2" d="M1850.85,-269.19C1848.06,-256.91 1844.29,-240.34 1841.12,-226.38"/>
<polygon fill="#374151" stroke="#374151" stroke-width="2" points="1843.55,-226.02 1839.61,-219.73 1838.77,-227.1 1843.55,-226.02"/>
</g>
<!-- mt_258&#45;&gt;mt_327 -->
<g id="edge85" class="edge">
<title>mt_258&#45;&gt;mt_327</title>
<path fill="none" stroke="#374151" stroke-width="2" d="M1877.57,-269.2C1892.15,-256.23 1909.82,-237.26 1917.9,-216 1925.18,-196.81 1933.6,-126.04 1916.9,-90 1907.91,-70.62 1890.79,-54.47 1874.5,-42.5"/>
<polygon fill="#374151" stroke="#374151" stroke-width="2" points="1876.23,-40.72 1869.09,-38.7 1873.41,-44.73 1876.23,-40.72"/>
</g>
<!-- mt_468 -->
<g id="node74" class="node">
<title>mt_468</title>
<path fill="#1e40af" stroke="#1e3a8a" stroke-width="2" d="M2124.25,-216C2124.25,-216 2021.54,-216 2021.54,-216 2015.54,-216 2009.54,-210 2009.54,-204 2009.54,-204 2009.54,-192 2009.54,-192 2009.54,-186 2015.54,-180 2021.54,-180 2021.54,-180 2124.25,-180 2124.25,-180 2130.25,-180 2136.25,-186 2136.25,-192 2136.25,-192 2136.25,-204 2136.25,-204 2136.25,-210 2130.25,-216 2124.25,-216"/>
<text xml:space="preserve" text-anchor="middle" x="2072.9" y="-200.4" font-family="Arial" font-size="8.00">mt#468</text>
<text xml:space="preserve" text-anchor="middle" x="2072.9" y="-190.8" font-family="Arial" font-size="8.00">Implement Tool Call Supervisio</text>
</g>
<!-- mt_258&#45;&gt;mt_468 -->
<g id="edge88" class="edge">
<title>mt_258&#45;&gt;mt_468</title>
<path fill="none" stroke="#374151" stroke-width="2" d="M1899.27,-269.09C1934.05,-255.05 1982.56,-235.47 2019.46,-220.57"/>
<polygon fill="#374151" stroke="#374151" stroke-width="2" points="2020.2,-222.91 2025.77,-218.02 2018.37,-218.37 2020.2,-222.91"/>
</g>
<!-- mt_260 -->
<g id="node33" class="node">
<title>mt_260</title>
<path fill="#1e40af" stroke="#1e3a8a" stroke-width="2" d="M1887.36,-126C1887.36,-126 1782.43,-126 1782.43,-126 1776.43,-126 1770.43,-120 1770.43,-114 1770.43,-114 1770.43,-102 1770.43,-102 1770.43,-96 1776.43,-90 1782.43,-90 1782.43,-90 1887.36,-90 1887.36,-90 1893.36,-90 1899.36,-96 1899.36,-102 1899.36,-102 1899.36,-114 1899.36,-114 1899.36,-120 1893.36,-126 1887.36,-126"/>
<text xml:space="preserve" text-anchor="middle" x="1834.9" y="-110.4" font-family="Arial" font-size="8.00">mt#260</text>
<text xml:space="preserve" text-anchor="middle" x="1834.9" y="-100.8" font-family="Arial" font-size="8.00">Implement prompt templates for</text>
</g>
<!-- mt_284&#45;&gt;mt_260 -->
<g id="edge45" class="edge">
<title>mt_284&#45;&gt;mt_260</title>
<path fill="none" stroke="#374151" stroke-width="2" d="M1823.8,-179.19C1821.22,-166.91 1820.72,-150.34 1822.29,-136.38"/>
<polygon fill="#374151" stroke="#374151" stroke-width="2" points="1824.66,-137.07 1823.33,-129.77 1819.82,-136.3 1824.66,-137.07"/>
</g>
<!-- mt_260&#45;&gt;mt_284 -->
<g id="edge35" class="edge">
<title>mt_260&#45;&gt;mt_284</title>
<path fill="none" stroke="#374151" stroke-width="2" d="M1845.99,-126.78C1848.57,-139.06 1849.08,-155.63 1847.5,-169.59"/>
<polygon fill="#374151" stroke="#374151" stroke-width="2" points="1845.13,-168.91 1846.46,-176.2 1849.97,-169.67 1845.13,-168.91"/>
</g>
<!-- mt_260&#45;&gt;mt_327 -->
<g id="edge87" class="edge">
<title>mt_260&#45;&gt;mt_327</title>
<path fill="none" stroke="#374151" stroke-width="2" d="M1834.9,-89.19C1834.9,-77.03 1834.9,-60.66 1834.9,-46.79"/>
<polygon fill="#374151" stroke="#374151" stroke-width="2" points="1837.35,-46.81 1834.9,-39.81 1832.45,-46.81 1837.35,-46.81"/>
</g>
<!-- mt_253 -->
<g id="node36" class="node">
<title>mt_253</title>
<path fill="#15803d" stroke="#166534" stroke-width="2" d="M1445.24,-666C1445.24,-666 1342.55,-666 1342.55,-666 1336.55,-666 1330.55,-660 1330.55,-654 1330.55,-654 1330.55,-642 1330.55,-642 1330.55,-636 1336.55,-630 1342.55,-630 1342.55,-630 1445.24,-630 1445.24,-630 1451.24,-630 1457.24,-636 1457.24,-642 1457.24,-642 1457.24,-654 1457.24,-654 1457.24,-660 1451.24,-666 1445.24,-666"/>
<text xml:space="preserve" text-anchor="middle" x="1393.9" y="-650.4" font-family="Arial" font-size="8.00">mt#253</text>
<text xml:space="preserve" text-anchor="middle" x="1393.9" y="-640.8" font-family="Arial" font-size="8.00">Implement Task Similarity Sear</text>
</g>
<!-- mt_253&#45;&gt;mt_254 -->
<g id="edge40" class="edge">
<title>mt_253&#45;&gt;mt_254</title>
<path fill="none" stroke="#374151" stroke-width="2" d="M1355.65,-629.19C1325.78,-615.28 1284.11,-595.88 1252.15,-581"/>
<polygon fill="#374151" stroke="#374151" stroke-width="2" points="1253.53,-578.94 1246.15,-578.21 1251.47,-583.39 1253.53,-578.94"/>
</g>
<!-- mt_253&#45;&gt;mt_442 -->
<g id="edge79" class="edge">
<title>mt_253&#45;&gt;mt_442</title>
<path fill="none" stroke="#374151" stroke-width="2" d="M1457.99,-636.13C1519.44,-624.25 1605.76,-603.22 1625.9,-576 1659.2,-530.98 1648.25,-501.34 1625.9,-450 1598.93,-388.06 1535.08,-339.19 1492.95,-312.21"/>
<polygon fill="#374151" stroke="#374151" stroke-width="2" points="1494.37,-310.2 1487.14,-308.55 1491.76,-314.35 1494.37,-310.2"/>
</g>
<!-- mt_273 -->
<g id="node37" class="node">
<title>mt_273</title>
<path fill="#1e40af" stroke="#1e3a8a" stroke-width="2" d="M2787.26,-666C2787.26,-666 2672.54,-666 2672.54,-666 2666.54,-666 2660.54,-660 2660.54,-654 2660.54,-654 2660.54,-642 2660.54,-642 2660.54,-636 2666.54,-630 2672.54,-630 2672.54,-630 2787.26,-630 2787.26,-630 2793.26,-630 2799.26,-636 2799.26,-642 2799.26,-642 2799.26,-654 2799.26,-654 2799.26,-660 2793.26,-666 2787.26,-666"/>
<text xml:space="preserve" text-anchor="middle" x="2729.9" y="-650.4" font-family="Arial" font-size="8.00">mt#273</text>
<text xml:space="preserve" text-anchor="middle" x="2729.9" y="-640.8" font-family="Arial" font-size="8.00">Implement AI&#45;Powered PR Conten</text>
</g>
<!-- mt_203 -->
<g id="node38" class="node">
<title>mt_203</title>
<path fill="#15803d" stroke="#166534" stroke-width="2" d="M2615.48,-756C2615.48,-756 2496.32,-756 2496.32,-756 2490.32,-756 2484.32,-750 2484.32,-744 2484.32,-744 2484.32,-732 2484.32,-732 2484.32,-726 2490.32,-720 2496.32,-720 2496.32,-720 2615.48,-720 2615.48,-720 2621.48,-720 2627.48,-726 2627.48,-732 2627.48,-732 2627.48,-744 2627.48,-744 2627.48,-750 2621.48,-756 2615.48,-756"/>
<text xml:space="preserve" text-anchor="middle" x="2555.9" y="-740.4" font-family="Arial" font-size="8.00">mt#203</text>
<text xml:space="preserve" text-anchor="middle" x="2555.9" y="-730.8" font-family="Arial" font-size="8.00">Improve Session PR Command Out</text>
</g>
<!-- mt_203&#45;&gt;mt_273 -->
<g id="edge42" class="edge">
<title>mt_203&#45;&gt;mt_273</title>
<path fill="none" stroke="#374151" stroke-width="2" d="M2591.11,-719.19C2618.38,-705.4 2656.32,-686.21 2685.64,-671.38"/>
<polygon fill="#374151" stroke="#374151" stroke-width="2" points="2686.6,-673.64 2691.74,-668.3 2684.39,-669.27 2686.6,-673.64"/>
</g>
<!-- mt_010 -->
<g id="node39" class="node">
<title>mt_010</title>
<path fill="#15803d" stroke="#166534" stroke-width="2" d="M2784.15,-756C2784.15,-756 2675.64,-756 2675.64,-756 2669.64,-756 2663.64,-750 2663.64,-744 2663.64,-744 2663.64,-732 2663.64,-732 2663.64,-726 2669.64,-720 2675.64,-720 2675.64,-720 2784.15,-720 2784.15,-720 2790.15,-720 2796.15,-726 2796.15,-732 2796.15,-732 2796.15,-744 2796.15,-744 2796.15,-750 2790.15,-756 2784.15,-756"/>
<text xml:space="preserve" text-anchor="middle" x="2729.9" y="-740.4" font-family="Arial" font-size="8.00">mt#010</text>
<text xml:space="preserve" text-anchor="middle" x="2729.9" y="-730.8" font-family="Arial" font-size="8.00">~~Enhance `git pr` Command to </text>
</g>
<!-- mt_010&#45;&gt;mt_273 -->
<g id="edge43" class="edge">
<title>mt_010&#45;&gt;mt_273</title>
<path fill="none" stroke="#374151" stroke-width="2" d="M2729.9,-719.19C2729.9,-707.03 2729.9,-690.66 2729.9,-676.79"/>
<polygon fill="#374151" stroke="#374151" stroke-width="2" points="2732.35,-676.81 2729.9,-669.81 2727.45,-676.81 2732.35,-676.81"/>
</g>
<!-- mt_025 -->
<g id="node40" class="node">
<title>mt_025</title>
<path fill="#15803d" stroke="#166534" stroke-width="2" d="M2961.59,-756C2961.59,-756 2844.2,-756 2844.2,-756 2838.2,-756 2832.2,-750 2832.2,-744 2832.2,-744 2832.2,-732 2832.2,-732 2832.2,-726 2838.2,-720 2844.2,-720 2844.2,-720 2961.59,-720 2961.59,-720 2967.59,-720 2973.59,-726 2973.59,-732 2973.59,-732 2973.59,-744 2973.59,-744 2973.59,-750 2967.59,-756 2961.59,-756"/>
<text xml:space="preserve" text-anchor="middle" x="2902.9" y="-740.4" font-family="Arial" font-size="8.00">mt#025</text>
<text xml:space="preserve" text-anchor="middle" x="2902.9" y="-730.8" font-family="Arial" font-size="8.00">Add PR Merging Commands for Se</text>
</g>
<!-- mt_025&#45;&gt;mt_273 -->
<g id="edge44" class="edge">
<title>mt_025&#45;&gt;mt_273</title>
<path fill="none" stroke="#374151" stroke-width="2" d="M2867.89,-719.19C2840.78,-705.4 2803.05,-686.21 2773.9,-671.38"/>
<polygon fill="#374151" stroke="#374151" stroke-width="2" points="2775.2,-669.29 2767.85,-668.3 2772.98,-673.66 2775.2,-669.29"/>
</g>
<!-- mt_277 -->
<g id="node44" class="node">
<title>mt_277</title>
<path fill="#1e40af" stroke="#1e3a8a" stroke-width="2" d="M3129.47,-666C3129.47,-666 3018.32,-666 3018.32,-666 3012.32,-666 3006.32,-660 3006.32,-654 3006.32,-654 3006.32,-642 3006.32,-642 3006.32,-636 3012.32,-630 3018.32,-630 3018.32,-630 3129.47,-630 3129.47,-630 3135.47,-630 3141.47,-636 3141.47,-642 3141.47,-642 3141.47,-654 3141.47,-654 3141.47,-660 3135.47,-666 3129.47,-666"/>
<text xml:space="preserve" text-anchor="middle" x="3073.9" y="-650.4" font-family="Arial" font-size="8.00">mt#277</text>
<text xml:space="preserve" text-anchor="middle" x="3073.9" y="-640.8" font-family="Arial" font-size="8.00">Implement Stacked PR Workflow </text>
</g>
<!-- mt_025&#45;&gt;mt_277 -->
<g id="edge50" class="edge">
<title>mt_025&#45;&gt;mt_277</title>
<path fill="none" stroke="#374151" stroke-width="2" d="M2937.5,-719.19C2964.3,-705.4 3001.58,-686.21 3030.4,-671.38"/>
<polygon fill="#374151" stroke="#374151" stroke-width="2" points="3031.26,-673.7 3036.36,-668.32 3029.01,-669.34 3031.26,-673.7"/>
</g>
<!-- mt_262 -->
<g id="node41" class="node">
<title>mt_262</title>
<path fill="#1e40af" stroke="#1e3a8a" stroke-width="2" d="M3457.26,-666C3457.26,-666 3358.53,-666 3358.53,-666 3352.53,-666 3346.53,-660 3346.53,-654 3346.53,-654 3346.53,-642 3346.53,-642 3346.53,-636 3352.53,-630 3358.53,-630 3358.53,-630 3457.26,-630 3457.26,-630 3463.26,-630 3469.26,-636 3469.26,-642 3469.26,-642 3469.26,-654 3469.26,-654 3469.26,-660 3463.26,-666 3457.26,-666"/>
<text xml:space="preserve" text-anchor="middle" x="3407.9" y="-650.4" font-family="Arial" font-size="8.00">mt#262</text>
<text xml:space="preserve" text-anchor="middle" x="3407.9" y="-640.8" font-family="Arial" font-size="8.00">Explore consolidating ESLint r</text>
</g>
<!-- mt_178 -->
<g id="node42" class="node">
<title>mt_178</title>
<path fill="#15803d" stroke="#166534" stroke-width="2" d="M3464.03,-756C3464.03,-756 3357.76,-756 3357.76,-756 3351.76,-756 3345.76,-750 3345.76,-744 3345.76,-744 3345.76,-732 3345.76,-732 3345.76,-726 3351.76,-720 3357.76,-720 3357.76,-720 3464.03,-720 3464.03,-720 3470.03,-720 3476.03,-726 3476.03,-732 3476.03,-732 3476.03,-744 3476.03,-744 3476.03,-750 3470.03,-756 3464.03,-756"/>
<text xml:space="preserve" text-anchor="middle" x="3410.9" y="-740.4" font-family="Arial" font-size="8.00">mt#178</text>
<text xml:space="preserve" text-anchor="middle" x="3410.9" y="-730.8" font-family="Arial" font-size="8.00">Establish Codemod Best Practic</text>
</g>
<!-- mt_178&#45;&gt;mt_262 -->
<g id="edge46" class="edge">
<title>mt_178&#45;&gt;mt_262</title>
<path fill="none" stroke="#374151" stroke-width="2" d="M3410.29,-719.19C3409.87,-707.03 3409.32,-690.66 3408.84,-676.79"/>
<polygon fill="#374151" stroke="#374151" stroke-width="2" points="3411.29,-676.72 3408.61,-669.81 3406.4,-676.89 3411.29,-676.72"/>
</g>
<!-- mt_268 -->
<g id="node43" class="node">
<title>mt_268</title>
<path fill="#1e40af" stroke="#1e3a8a" stroke-width="2" d="M3638.36,-666C3638.36,-666 3517.43,-666 3517.43,-666 3511.43,-666 3505.43,-660 3505.43,-654 3505.43,-654 3505.43,-642 3505.43,-642 3505.43,-636 3511.43,-630 3517.43,-630 3517.43,-630 3638.36,-630 3638.36,-630 3644.36,-630 3650.36,-636 3650.36,-642 3650.36,-642 3650.36,-654 3650.36,-654 3650.36,-660 3644.36,-666 3638.36,-666"/>
<text xml:space="preserve" text-anchor="middle" x="3577.9" y="-650.4" font-family="Arial" font-size="8.00">mt#268</text>
<text xml:space="preserve" text-anchor="middle" x="3577.9" y="-640.8" font-family="Arial" font-size="8.00">Complete AST&#45;Only Codemod Fram</text>
</g>
<!-- mt_178&#45;&gt;mt_268 -->
<g id="edge47" class="edge">
<title>mt_178&#45;&gt;mt_268</title>
<path fill="none" stroke="#374151" stroke-width="2" d="M3444.69,-719.19C3470.75,-705.46 3506.96,-686.38 3535.05,-671.58"/>
<polygon fill="#374151" stroke="#374151" stroke-width="2" points="3536.14,-673.77 3541.19,-668.34 3533.85,-669.44 3536.14,-673.77"/>
</g>
<!-- mt_144 -->
<g id="node45" class="node">
<title>mt_144</title>
<path fill="#15803d" stroke="#166534" stroke-width="2" d="M3126.59,-756C3126.59,-756 3021.21,-756 3021.21,-756 3015.21,-756 3009.21,-750 3009.21,-744 3009.21,-744 3009.21,-732 3009.21,-732 3009.21,-726 3015.21,-720 3021.21,-720 3021.21,-720 3126.59,-720 3126.59,-720 3132.59,-720 3138.59,-726 3138.59,-732 3138.59,-732 3138.59,-744 3138.59,-744 3138.59,-750 3132.59,-756 3126.59,-756"/>
<text xml:space="preserve" text-anchor="middle" x="3073.9" y="-740.4" font-family="Arial" font-size="8.00">mt#144</text>
<text xml:space="preserve" text-anchor="middle" x="3073.9" y="-730.8" font-family="Arial" font-size="8.00">Fix Session PR and Git Prepare</text>
</g>
<!-- mt_144&#45;&gt;mt_277 -->
<g id="edge48" class="edge">
<title>mt_144&#45;&gt;mt_277</title>
<path fill="none" stroke="#374151" stroke-width="2" d="M3073.9,-719.19C3073.9,-707.03 3073.9,-690.66 3073.9,-676.79"/>
<polygon fill="#374151" stroke="#374151" stroke-width="2" points="3076.35,-676.81 3073.9,-669.81 3071.45,-676.81 3076.35,-676.81"/>
</g>
<!-- mt_174 -->
<g id="node46" class="node">
<title>mt_174</title>
<path fill="#15803d" stroke="#166534" stroke-width="2" d="M3297.69,-756C3297.69,-756 3186.1,-756 3186.1,-756 3180.1,-756 3174.1,-750 3174.1,-744 3174.1,-744 3174.1,-732 3174.1,-732 3174.1,-726 3180.1,-720 3186.1,-720 3186.1,-720 3297.69,-720 3297.69,-720 3303.69,-720 3309.69,-726 3309.69,-732 3309.69,-732 3309.69,-744 3309.69,-744 3309.69,-750 3303.69,-756 3297.69,-756"/>
<text xml:space="preserve" text-anchor="middle" x="3241.9" y="-740.4" font-family="Arial" font-size="8.00">mt#174</text>
<text xml:space="preserve" text-anchor="middle" x="3241.9" y="-730.8" font-family="Arial" font-size="8.00">Review Session PR Workflow Arc</text>
</g>
<!-- mt_174&#45;&gt;mt_277 -->
<g id="edge49" class="edge">
<title>mt_174&#45;&gt;mt_277</title>
<path fill="none" stroke="#374151" stroke-width="2" d="M3207.9,-719.19C3181.68,-705.46 3145.26,-686.38 3117,-671.58"/>
<polygon fill="#374151" stroke="#374151" stroke-width="2" points="3118.15,-669.41 3110.81,-668.34 3115.88,-673.76 3118.15,-669.41"/>
</g>
<!-- mt_307 -->
<g id="node49" class="node">
<title>mt_307</title>
<path fill="#15803d" stroke="#166534" stroke-width="2" d="M943.82,-666C943.82,-666 845.98,-666 845.98,-666 839.98,-666 833.98,-660 833.98,-654 833.98,-654 833.98,-642 833.98,-642 833.98,-636 839.98,-630 845.98,-630 845.98,-630 943.82,-630 943.82,-630 949.82,-630 955.82,-636 955.82,-642 955.82,-642 955.82,-654 955.82,-654 955.82,-660 949.82,-666 943.82,-666"/>
<text xml:space="preserve" text-anchor="middle" x="894.9" y="-650.4" font-family="Arial" font-size="8.00">mt#307</text>
<text xml:space="preserve" text-anchor="middle" x="894.9" y="-640.8" font-family="Arial" font-size="8.00">Explore adding session lint co</text>
</g>
<!-- mt_307&#45;&gt;mt_321 -->
<g id="edge54" class="edge">
<title>mt_307&#45;&gt;mt_321</title>
<path fill="none" stroke="#374151" stroke-width="2" d="M894.9,-629.19C894.9,-617.03 894.9,-600.66 894.9,-586.79"/>
<polygon fill="#374151" stroke="#374151" stroke-width="2" points="897.35,-586.81 894.9,-579.81 892.45,-586.81 897.35,-586.81"/>
</g>
<!-- mt_324 -->
<g id="node50" class="node">
<title>mt_324</title>
<path fill="#1e40af" stroke="#1e3a8a" stroke-width="2" d="M3803.59,-666C3803.59,-666 3698.21,-666 3698.21,-666 3692.21,-666 3686.21,-660 3686.21,-654 3686.21,-654 3686.21,-642 3686.21,-642 3686.21,-636 3692.21,-630 3698.21,-630 3698.21,-630 3803.59,-630 3803.59,-630 3809.59,-630 3815.59,-636 3815.59,-642 3815.59,-642 3815.59,-654 3815.59,-654 3815.59,-660 3809.59,-666 3803.59,-666"/>
<text xml:space="preserve" text-anchor="middle" x="3750.9" y="-650.4" font-family="Arial" font-size="8.00">mt#324</text>
<text xml:space="preserve" text-anchor="middle" x="3750.9" y="-640.8" font-family="Arial" font-size="8.00">Add MCP Client Registration Fu</text>
</g>
<!-- mt_047 -->
<g id="node51" class="node">
<title>mt_047</title>
<path fill="#15803d" stroke="#166534" stroke-width="2" d="M3635.91,-756C3635.91,-756 3527.88,-756 3527.88,-756 3521.88,-756 3515.88,-750 3515.88,-744 3515.88,-744 3515.88,-732 3515.88,-732 3515.88,-726 3521.88,-720 3527.88,-720 3527.88,-720 3635.91,-720 3635.91,-720 3641.91,-720 3647.91,-726 3647.91,-732 3647.91,-732 3647.91,-744 3647.91,-744 3647.91,-750 3641.91,-756 3635.91,-756"/>
<text xml:space="preserve" text-anchor="middle" x="3581.9" y="-740.4" font-family="Arial" font-size="8.00">mt#047</text>
<text xml:space="preserve" text-anchor="middle" x="3581.9" y="-730.8" font-family="Arial" font-size="8.00">Configure MCP Server in Minsky</text>
</g>
<!-- mt_047&#45;&gt;mt_324 -->
<g id="edge56" class="edge">
<title>mt_047&#45;&gt;mt_324</title>
<path fill="none" stroke="#374151" stroke-width="2" d="M3616.1,-719.19C3642.58,-705.4 3679.43,-686.21 3707.91,-671.38"/>
<polygon fill="#374151" stroke="#374151" stroke-width="2" points="3708.7,-673.74 3713.77,-668.33 3706.43,-669.39 3708.7,-673.74"/>
</g>
<!-- mt_282 -->
<g id="node52" class="node">
<title>mt_282</title>
<path fill="#15803d" stroke="#166534" stroke-width="2" d="M3806.24,-756C3806.24,-756 3695.55,-756 3695.55,-756 3689.55,-756 3683.55,-750 3683.55,-744 3683.55,-744 3683.55,-732 3683.55,-732 3683.55,-726 3689.55,-720 3695.55,-720 3695.55,-720 3806.24,-720 3806.24,-720 3812.24,-720 3818.24,-726 3818.24,-732 3818.24,-732 3818.24,-744 3818.24,-744 3818.24,-750 3812.24,-756 3806.24,-756"/>
<text xml:space="preserve" text-anchor="middle" x="3750.9" y="-740.4" font-family="Arial" font-size="8.00">mt#282</text>
<text xml:space="preserve" text-anchor="middle" x="3750.9" y="-730.8" font-family="Arial" font-size="8.00">Port MCP Server from FastMCP t</text>
</g>
<!-- mt_282&#45;&gt;mt_324 -->
<g id="edge57" class="edge">
<title>mt_282&#45;&gt;mt_324</title>
<path fill="none" stroke="#374151" stroke-width="2" d="M3750.9,-719.19C3750.9,-707.03 3750.9,-690.66 3750.9,-676.79"/>
<polygon fill="#374151" stroke="#374151" stroke-width="2" points="3753.35,-676.81 3750.9,-669.81 3748.45,-676.81 3753.35,-676.81"/>
</g>
<!-- mt_286 -->
<g id="node53" class="node">
<title>mt_286</title>
<path fill="#15803d" stroke="#166534" stroke-width="2" d="M3972.03,-756C3972.03,-756 3865.77,-756 3865.77,-756 3859.77,-756 3853.77,-750 3853.77,-744 3853.77,-744 3853.77,-732 3853.77,-732 3853.77,-726 3859.77,-720 3865.77,-720 3865.77,-720 3972.03,-720 3972.03,-720 3978.03,-720 3984.03,-726 3984.03,-732 3984.03,-732 3984.03,-744 3984.03,-744 3984.03,-750 3978.03,-756 3972.03,-756"/>
<text xml:space="preserve" text-anchor="middle" x="3918.9" y="-740.4" font-family="Arial" font-size="8.00">mt#286</text>
<text xml:space="preserve" text-anchor="middle" x="3918.9" y="-730.8" font-family="Arial" font-size="8.00">Fix MCP Server and CLI Issues </text>
</g>
<!-- mt_286&#45;&gt;mt_324 -->
<g id="edge58" class="edge">
<title>mt_286&#45;&gt;mt_324</title>
<path fill="none" stroke="#374151" stroke-width="2" d="M3884.9,-719.19C3858.68,-705.46 3822.26,-686.38 3794,-671.58"/>
<polygon fill="#374151" stroke="#374151" stroke-width="2" points="3795.15,-669.41 3787.81,-668.34 3792.88,-673.76 3795.15,-669.41"/>
</g>
<!-- mt_349&#45;&gt;mt_441 -->
<g id="edge65" class="edge">
<title>mt_349&#45;&gt;mt_441</title>
<path fill="none" stroke="#374151" stroke-width="2" d="M1717.29,-454.67C1636.61,-439.03 1497.35,-412.04 1408.8,-394.88"/>
<polygon fill="#374151" stroke="#374151" stroke-width="2" points="1409.37,-392.49 1402.03,-393.56 1408.44,-397.3 1409.37,-392.49"/>
</g>
<!-- mt_349&#45;&gt;mt_442 -->
<g id="edge72" class="edge">
<title>mt_349&#45;&gt;mt_442</title>
<path fill="none" stroke="#374151" stroke-width="2" d="M1770.49,-449.05C1755.76,-425.22 1726.62,-383.44 1690.9,-360 1642.48,-328.23 1579.36,-310.26 1530.3,-300.34"/>
<polygon fill="#374151" stroke="#374151" stroke-width="2" points="1530.99,-297.98 1523.65,-299.05 1530.05,-302.79 1530.99,-297.98"/>
</g>
<!-- mt_350 -->
<g id="node55" class="node">
<title>mt_350</title>
<path fill="#1e40af" stroke="#1e3a8a" stroke-width="2" d="M4141.14,-666C4141.14,-666 4028.65,-666 4028.65,-666 4022.65,-666 4016.65,-660 4016.65,-654 4016.65,-654 4016.65,-642 4016.65,-642 4016.65,-636 4022.65,-630 4028.65,-630 4028.65,-630 4141.14,-630 4141.14,-630 4147.14,-630 4153.14,-636 4153.14,-642 4153.14,-642 4153.14,-654 4153.14,-654 4153.14,-660 4147.14,-666 4141.14,-666"/>
<text xml:space="preserve" text-anchor="middle" x="4084.9" y="-650.4" font-family="Arial" font-size="8.00">mt#350</text>
<text xml:space="preserve" text-anchor="middle" x="4084.9" y="-640.8" font-family="Arial" font-size="8.00">Explore Active Sessions Comman</text>
</g>
<!-- mt_229 -->
<g id="node56" class="node">
<title>mt_229</title>
<path fill="#15803d" stroke="#166534" stroke-width="2" d="M4137.59,-756C4137.59,-756 4032.2,-756 4032.2,-756 4026.2,-756 4020.2,-750 4020.2,-744 4020.2,-744 4020.2,-732 4020.2,-732 4020.2,-726 4026.2,-720 4032.2,-720 4032.2,-720 4137.59,-720 4137.59,-720 4143.59,-720 4149.59,-726 4149.59,-732 4149.59,-732 4149.59,-744 4149.59,-744 4149.59,-750 4143.59,-756 4137.59,-756"/>
<text xml:space="preserve" text-anchor="middle" x="4084.9" y="-740.4" font-family="Arial" font-size="8.00">mt#229</text>
<text xml:space="preserve" text-anchor="middle" x="4084.9" y="-730.8" font-family="Arial" font-size="8.00">Evaluate mandatory task&#45;sessio</text>
</g>
<!-- mt_229&#45;&gt;mt_350 -->
<g id="edge60" class="edge">
<title>mt_229&#45;&gt;mt_350</title>
<path fill="none" stroke="#374151" stroke-width="2" d="M4084.9,-719.19C4084.9,-707.03 4084.9,-690.66 4084.9,-676.79"/>
<polygon fill="#374151" stroke="#374151" stroke-width="2" points="4087.35,-676.81 4084.9,-669.81 4082.45,-676.81 4087.35,-676.81"/>
</g>
<!-- mt_363 -->
<g id="node58" class="node">
<title>mt_363</title>
<path fill="#1e40af" stroke="#1e3a8a" stroke-width="2" d="M4390.7,-666C4390.7,-666 4283.09,-666 4283.09,-666 4277.09,-666 4271.09,-660 4271.09,-654 4271.09,-654 4271.09,-642 4271.09,-642 4271.09,-636 4277.09,-630 4283.09,-630 4283.09,-630 4390.7,-630 4390.7,-630 4396.7,-630 4402.7,-636 4402.7,-642 4402.7,-642 4402.7,-654 4402.7,-654 4402.7,-660 4396.7,-666 4390.7,-666"/>
<text xml:space="preserve" text-anchor="middle" x="4336.9" y="-650.4" font-family="Arial" font-size="8.00">mt#363</text>
<text xml:space="preserve" text-anchor="middle" x="4336.9" y="-640.8" font-family="Arial" font-size="8.00">Implement Linear Backend for M</text>
</g>
<!-- mt_356 -->
<g id="node59" class="node">
<title>mt_356</title>
<path fill="#15803d" stroke="#166534" stroke-width="2" d="M4306.58,-756C4306.58,-756 4197.21,-756 4197.21,-756 4191.21,-756 4185.21,-750 4185.21,-744 4185.21,-744 4185.21,-732 4185.21,-732 4185.21,-726 4191.21,-720 4197.21,-720 4197.21,-720 4306.58,-720 4306.58,-720 4312.58,-720 4318.58,-726 4318.58,-732 4318.58,-732 4318.58,-744 4318.58,-744 4318.58,-750 4312.58,-756 4306.58,-756"/>
<text xml:space="preserve" text-anchor="middle" x="4251.9" y="-740.4" font-family="Arial" font-size="8.00">mt#356</text>
<text xml:space="preserve" text-anchor="middle" x="4251.9" y="-730.8" font-family="Arial" font-size="8.00">Implement Multi&#45;Backend Task S</text>
</g>
<!-- mt_356&#45;&gt;mt_363 -->
<g id="edge62" class="edge">
<title>mt_356&#45;&gt;mt_363</title>
<path fill="none" stroke="#374151" stroke-width="2" d="M4269.1,-719.19C4281.66,-706.19 4298.85,-688.39 4312.78,-673.97"/>
<polygon fill="#374151" stroke="#374151" stroke-width="2" points="4314.52,-675.7 4317.62,-668.96 4310.99,-672.29 4314.52,-675.7"/>
</g>
<!-- mt_357 -->
<g id="node60" class="node">
<title>mt_357</title>
<path fill="#15803d" stroke="#166534" stroke-width="2" d="M4471.37,-756C4471.37,-756 4366.42,-756 4366.42,-756 4360.42,-756 4354.42,-750 4354.42,-744 4354.42,-744 4354.42,-732 4354.42,-732 4354.42,-726 4360.42,-720 4366.42,-720 4366.42,-720 4471.37,-720 4471.37,-720 4477.37,-720 4483.37,-726 4483.37,-732 4483.37,-732 4483.37,-744 4483.37,-744 4483.37,-750 4477.37,-756 4471.37,-756"/>
<text xml:space="preserve" text-anchor="middle" x="4418.9" y="-740.4" font-family="Arial" font-size="8.00">mt#357</text>
<text xml:space="preserve" text-anchor="middle" x="4418.9" y="-730.8" font-family="Arial" font-size="8.00">Integrate GitHub Issues Backen</text>
</g>
<!-- mt_357&#45;&gt;mt_363 -->
<g id="edge63" class="edge">
<title>mt_357&#45;&gt;mt_363</title>
<path fill="none" stroke="#374151" stroke-width="2" d="M4402.3,-719.19C4390.19,-706.19 4373.6,-688.39 4360.17,-673.97"/>
<polygon fill="#374151" stroke="#374151" stroke-width="2" points="4362.09,-672.45 4355.53,-669 4358.51,-675.79 4362.09,-672.45"/>
</g>
<!-- mt_398 -->
<g id="node61" class="node">
<title>mt_398</title>
<path fill="#1e40af" stroke="#1e3a8a" stroke-width="2" d="M4639.8,-666C4639.8,-666 4537.99,-666 4537.99,-666 4531.99,-666 4525.99,-660 4525.99,-654 4525.99,-654 4525.99,-642 4525.99,-642 4525.99,-636 4531.99,-630 4537.99,-630 4537.99,-630 4639.8,-630 4639.8,-630 4645.8,-630 4651.8,-636 4651.8,-642 4651.8,-642 4651.8,-654 4651.8,-654 4651.8,-660 4645.8,-666 4639.8,-666"/>
<text xml:space="preserve" text-anchor="middle" x="4588.9" y="-650.4" font-family="Arial" font-size="8.00">mt#398</text>
<text xml:space="preserve" text-anchor="middle" x="4588.9" y="-640.8" font-family="Arial" font-size="8.00">Improve test mock filesystem a</text>
</g>
<!-- mt_176 -->
<g id="node62" class="node">
<title>mt_176</title>
<path fill="#15803d" stroke="#166534" stroke-width="2" d="M4646.49,-756C4646.49,-756 4531.31,-756 4531.31,-756 4525.31,-756 4519.31,-750 4519.31,-744 4519.31,-744 4519.31,-732 4519.31,-732 4519.31,-726 4525.31,-720 4531.31,-720 4531.31,-720 4646.49,-720 4646.49,-720 4652.49,-720 4658.49,-726 4658.49,-732 4658.49,-732 4658.49,-744 4658.49,-744 4658.49,-750 4652.49,-756 4646.49,-756"/>
<text xml:space="preserve" text-anchor="middle" x="4588.9" y="-740.4" font-family="Arial" font-size="8.00">mt#176</text>
<text xml:space="preserve" text-anchor="middle" x="4588.9" y="-730.8" font-family="Arial" font-size="8.00">Comprehensive Session Database</text>
</g>
<!-- mt_176&#45;&gt;mt_398 -->
<g id="edge64" class="edge">
<title>mt_176&#45;&gt;mt_398</title>
<path fill="none" stroke="#374151" stroke-width="2" d="M4588.9,-719.19C4588.9,-707.03 4588.9,-690.66 4588.9,-676.79"/>
<polygon fill="#374151" stroke="#374151" stroke-width="2" points="4591.35,-676.81 4588.9,-669.81 4586.45,-676.81 4591.35,-676.81"/>
</g>
<!-- mt_441&#45;&gt;mt_442 -->
<g id="edge71" class="edge">
<title>mt_441&#45;&gt;mt_442</title>
<path fill="none" stroke="#374151" stroke-width="2" d="M1352.39,-359.19C1371.69,-345.71 1398.37,-327.08 1419.39,-312.4"/>
<polygon fill="#374151" stroke="#374151" stroke-width="2" points="1420.62,-314.53 1424.95,-308.51 1417.81,-310.51 1420.62,-314.53"/>
</g>
<!-- mt_256 -->
<g id="node64" class="node">
<title>mt_256</title>
<path fill="#15803d" stroke="#166534" stroke-width="2" d="M1411.47,-486C1411.47,-486 1300.32,-486 1300.32,-486 1294.32,-486 1288.32,-480 1288.32,-474 1288.32,-474 1288.32,-462 1288.32,-462 1288.32,-456 1294.32,-450 1300.32,-450 1300.32,-450 1411.47,-450 1411.47,-450 1417.47,-450 1423.47,-456 1423.47,-462 1423.47,-462 1423.47,-474 1423.47,-474 1423.47,-480 1417.47,-486 1411.47,-486"/>
<text xml:space="preserve" text-anchor="middle" x="1355.9" y="-470.4" font-family="Arial" font-size="8.00">mt#256</text>
<text xml:space="preserve" text-anchor="middle" x="1355.9" y="-460.8" font-family="Arial" font-size="8.00">Implement Context&#45;Aware Tool M</text>
</g>
<!-- mt_256&#45;&gt;mt_441 -->
<g id="edge66" class="edge">
<title>mt_256&#45;&gt;mt_441</title>
<path fill="none" stroke="#374151" stroke-width="2" d="M1350.03,-449.19C1345.94,-436.79 1340.41,-420.02 1335.79,-405.98"/>
<polygon fill="#374151" stroke="#374151" stroke-width="2" points="1338.22,-405.54 1333.7,-399.66 1333.57,-407.07 1338.22,-405.54"/>
</g>
<!-- mt_256&#45;&gt;mt_442 -->
<g id="edge76" class="edge">
<title>mt_256&#45;&gt;mt_442</title>
<path fill="none" stroke="#374151" stroke-width="2" d="M1374.25,-449.15C1387.34,-435.58 1404.56,-415.92 1415.9,-396 1430.31,-370.67 1440.44,-338.78 1446.41,-316.43"/>
<polygon fill="#374151" stroke="#374151" stroke-width="2" points="1448.74,-317.21 1448.11,-309.82 1444,-315.99 1448.74,-317.21"/>
</g>
<!-- mt_082 -->
<g id="node65" class="node">
<title>mt_082</title>
<path fill="#15803d" stroke="#166534" stroke-width="2" d="M1595.93,-486C1595.93,-486 1471.86,-486 1471.86,-486 1465.86,-486 1459.86,-480 1459.86,-474 1459.86,-474 1459.86,-462 1459.86,-462 1459.86,-456 1465.86,-450 1471.86,-450 1471.86,-450 1595.93,-450 1595.93,-450 1601.93,-450 1607.93,-456 1607.93,-462 1607.93,-462 1607.93,-474 1607.93,-474 1607.93,-480 1601.93,-486 1595.93,-486"/>
<text xml:space="preserve" text-anchor="middle" x="1533.9" y="-470.4" font-family="Arial" font-size="8.00">mt#082</text>
<text xml:space="preserve" text-anchor="middle" x="1533.9" y="-460.8" font-family="Arial" font-size="8.00">Add Context Management Command</text>
</g>
<!-- mt_082&#45;&gt;mt_441 -->
<g id="edge70" class="edge">
<title>mt_082&#45;&gt;mt_441</title>
<path fill="none" stroke="#374151" stroke-width="2" d="M1491.76,-449.09C1458.88,-435.11 1413.07,-415.63 1378.08,-400.76"/>
<polygon fill="#374151" stroke="#374151" stroke-width="2" points="1379.16,-398.56 1371.76,-398.07 1377.25,-403.07 1379.16,-398.56"/>
</g>
<!-- mt_082&#45;&gt;mt_442 -->
<g id="edge74" class="edge">
<title>mt_082&#45;&gt;mt_442</title>
<path fill="none" stroke="#374151" stroke-width="2" d="M1525.83,-449.28C1511.56,-417.91 1481.76,-352.43 1465.01,-315.62"/>
<polygon fill="#374151" stroke="#374151" stroke-width="2" points="1467.43,-315.02 1462.3,-309.67 1462.97,-317.05 1467.43,-315.02"/>
</g>
<!-- mt_235 -->
<g id="node67" class="node">
<title>mt_235</title>
<path fill="#15803d" stroke="#166534" stroke-width="2" d="M1906.26,-396C1906.26,-396 1803.53,-396 1803.53,-396 1797.53,-396 1791.53,-390 1791.53,-384 1791.53,-384 1791.53,-372 1791.53,-372 1791.53,-366 1797.53,-360 1803.53,-360 1803.53,-360 1906.26,-360 1906.26,-360 1912.26,-360 1918.26,-366 1918.26,-372 1918.26,-372 1918.26,-384 1918.26,-384 1918.26,-390 1912.26,-396 1906.26,-396"/>
<text xml:space="preserve" text-anchor="middle" x="1854.9" y="-380.4" font-family="Arial" font-size="8.00">mt#235</text>
<text xml:space="preserve" text-anchor="middle" x="1854.9" y="-370.8" font-family="Arial" font-size="8.00">Add metadata support to tasks </text>
</g>
<!-- mt_235&#45;&gt;mt_258 -->
<g id="edge83" class="edge">
<title>mt_235&#45;&gt;mt_258</title>
<path fill="none" stroke="#374151" stroke-width="2" d="M1854.9,-359.19C1854.9,-347.03 1854.9,-330.66 1854.9,-316.79"/>
<polygon fill="#374151" stroke="#374151" stroke-width="2" points="1857.35,-316.81 1854.9,-309.81 1852.45,-316.81 1857.35,-316.81"/>
</g>
<!-- mt_235&#45;&gt;mt_442 -->
<g id="edge78" class="edge">
<title>mt_235&#45;&gt;mt_442</title>
<path fill="none" stroke="#374151" stroke-width="2" d="M1790.75,-362.96C1719.86,-347.44 1605.7,-322.45 1530,-305.88"/>
<polygon fill="#374151" stroke="#374151" stroke-width="2" points="1530.82,-303.55 1523.46,-304.45 1529.77,-308.34 1530.82,-303.55"/>
</g>
<!-- mt_190 -->
<g id="node68" class="node">
<title>mt_190</title>
<path fill="#1e40af" stroke="#1e3a8a" stroke-width="2" d="M4901.37,-666C4901.37,-666 4792.42,-666 4792.42,-666 4786.42,-666 4780.42,-660 4780.42,-654 4780.42,-654 4780.42,-642 4780.42,-642 4780.42,-636 4786.42,-630 4792.42,-630 4792.42,-630 4901.37,-630 4901.37,-630 4907.37,-630 4913.37,-636 4913.37,-642 4913.37,-642 4913.37,-654 4913.37,-654 4913.37,-660 4907.37,-666 4901.37,-666"/>
<text xml:space="preserve" text-anchor="middle" x="4846.9" y="-650.4" font-family="Arial" font-size="8.00">mt#190</text>
<text xml:space="preserve" text-anchor="middle" x="4846.9" y="-640.8" font-family="Arial" font-size="8.00">Design Containerized Session W</text>
</g>
<!-- mt_150 -->
<g id="node69" class="node">
<title>mt_150</title>
<path fill="#15803d" stroke="#166534" stroke-width="2" d="M4813.71,-756C4813.71,-756 4706.08,-756 4706.08,-756 4700.08,-756 4694.08,-750 4694.08,-744 4694.08,-744 4694.08,-732 4694.08,-732 4694.08,-726 4700.08,-720 4706.08,-720 4706.08,-720 4813.71,-720 4813.71,-720 4819.71,-720 4825.71,-726 4825.71,-732 4825.71,-732 4825.71,-744 4825.71,-744 4825.71,-750 4819.71,-756 4813.71,-756"/>
<text xml:space="preserve" text-anchor="middle" x="4759.9" y="-740.4" font-family="Arial" font-size="8.00">mt#150</text>
<text xml:space="preserve" text-anchor="middle" x="4759.9" y="-730.8" font-family="Arial" font-size="8.00">Add &#45;&#45;body&#45;path Option and Req</text>
</g>
<!-- mt_150&#45;&gt;mt_190 -->
<g id="edge80" class="edge">
<title>mt_150&#45;&gt;mt_190</title>
<path fill="none" stroke="#374151" stroke-width="2" d="M4777.5,-719.19C4790.47,-706.07 4808.28,-688.07 4822.6,-673.58"/>
<polygon fill="#374151" stroke="#374151" stroke-width="2" points="4824.01,-675.63 4827.19,-668.93 4820.53,-672.19 4824.01,-675.63"/>
</g>
<!-- mt_049 -->
<g id="node70" class="node">
<title>mt_049</title>
<path fill="#15803d" stroke="#166534" stroke-width="2" d="M4991.59,-756C4991.59,-756 4874.2,-756 4874.2,-756 4868.2,-756 4862.2,-750 4862.2,-744 4862.2,-744 4862.2,-732 4862.2,-732 4862.2,-726 4868.2,-720 4874.2,-720 4874.2,-720 4991.59,-720 4991.59,-720 4997.59,-720 5003.59,-726 5003.59,-732 5003.59,-732 5003.59,-744 5003.59,-744 5003.59,-750 4997.59,-756 4991.59,-756"/>
<text xml:space="preserve" text-anchor="middle" x="4932.9" y="-740.4" font-family="Arial" font-size="8.00">mt#049</text>
<text xml:space="preserve" text-anchor="middle" x="4932.9" y="-730.8" font-family="Arial" font-size="8.00">Implement Session&#45;Scoped MCP S</text>
</g>
<!-- mt_049&#45;&gt;mt_190 -->
<g id="edge81" class="edge">
<title>mt_049&#45;&gt;mt_190</title>
<path fill="none" stroke="#374151" stroke-width="2" d="M4915.49,-719.19C4902.67,-706.07 4885.07,-688.07 4870.91,-673.58"/>
<polygon fill="#374151" stroke="#374151" stroke-width="2" points="4873.03,-672.24 4866.39,-668.95 4869.53,-675.67 4873.03,-672.24"/>
</g>
<!-- mt_302 -->
<g id="node71" class="node">
<title>mt_302</title>
<path fill="#1e40af" stroke="#1e3a8a" stroke-width="2" d="M5162.37,-666C5162.37,-666 5053.42,-666 5053.42,-666 5047.42,-666 5041.42,-660 5041.42,-654 5041.42,-654 5041.42,-642 5041.42,-642 5041.42,-636 5047.42,-630 5053.42,-630 5053.42,-630 5162.37,-630 5162.37,-630 5168.37,-630 5174.37,-636 5174.37,-642 5174.37,-642 5174.37,-654 5174.37,-654 5174.37,-660 5168.37,-666 5162.37,-666"/>
<text xml:space="preserve" text-anchor="middle" x="5107.9" y="-650.4" font-family="Arial" font-size="8.00">mt#302</text>
<text xml:space="preserve" text-anchor="middle" x="5107.9" y="-640.8" font-family="Arial" font-size="8.00">Explore Exposing Rules and Doc</text>
</g>
<!-- mt_289 -->
<g id="node72" class="node">
<title>mt_289</title>
<path fill="#15803d" stroke="#166534" stroke-width="2" d="M5164.37,-756C5164.37,-756 5051.43,-756 5051.43,-756 5045.43,-756 5039.43,-750 5039.43,-744 5039.43,-744 5039.43,-732 5039.43,-732 5039.43,-726 5045.43,-720 5051.43,-720 5051.43,-720 5164.37,-720 5164.37,-720 5170.37,-720 5176.37,-726 5176.37,-732 5176.37,-732 5176.37,-744 5176.37,-744 5176.37,-750 5170.37,-756 5164.37,-756"/>
<text xml:space="preserve" text-anchor="middle" x="5107.9" y="-740.4" font-family="Arial" font-size="8.00">mt#289</text>
<text xml:space="preserve" text-anchor="middle" x="5107.9" y="-730.8" font-family="Arial" font-size="8.00">Implement Template&#45;Based Rules</text>
</g>
<!-- mt_289&#45;&gt;mt_302 -->
<g id="edge84" class="edge">
<title>mt_289&#45;&gt;mt_302</title>
<path fill="none" stroke="#374151" stroke-width="2" d="M5107.9,-719.19C5107.9,-707.03 5107.9,-690.66 5107.9,-676.79"/>
<polygon fill="#374151" stroke="#374151" stroke-width="2" points="5110.35,-676.81 5107.9,-669.81 5105.45,-676.81 5110.35,-676.81"/>
</g>
<!-- mt_454 -->
<g id="node75" class="node">
<title>mt_454</title>
<path fill="#1e40af" stroke="#1e3a8a" stroke-width="2" d="M2102.46,-306C2102.46,-306 2003.34,-306 2003.34,-306 1997.34,-306 1991.34,-300 1991.34,-294 1991.34,-294 1991.34,-282 1991.34,-282 1991.34,-276 1997.34,-270 2003.34,-270 2003.34,-270 2102.46,-270 2102.46,-270 2108.46,-270 2114.46,-276 2114.46,-282 2114.46,-282 2114.46,-294 2114.46,-294 2114.46,-300 2108.46,-306 2102.46,-306"/>
<text xml:space="preserve" text-anchor="middle" x="2052.9" y="-290.4" font-family="Arial" font-size="8.00">mt#454</text>
<text xml:space="preserve" text-anchor="middle" x="2052.9" y="-280.8" font-family="Arial" font-size="8.00">Investigate &#39;seek human input&#39;</text>
</g>
<!-- mt_454&#45;&gt;mt_468 -->
<g id="edge89" class="edge">
<title>mt_454&#45;&gt;mt_468</title>
<path fill="none" stroke="#374151" stroke-width="2" d="M2056.94,-269.19C2059.74,-256.91 2063.5,-240.34 2066.67,-226.38"/>
<polygon fill="#374151" stroke="#374151" stroke-width="2" points="2069.02,-227.1 2068.18,-219.73 2064.24,-226.02 2069.02,-227.1"/>
</g>
<!-- mt_326 -->
<g id="node76" class="node">
<title>mt_326</title>
<path fill="#1e40af" stroke="#1e3a8a" stroke-width="2" d="M2275.82,-306C2275.82,-306 2161.97,-306 2161.97,-306 2155.97,-306 2149.97,-300 2149.97,-294 2149.97,-294 2149.97,-282 2149.97,-282 2149.97,-276 2155.97,-270 2161.97,-270 2161.97,-270 2275.82,-270 2275.82,-270 2281.82,-270 2287.82,-276 2287.82,-282 2287.82,-282 2287.82,-294 2287.82,-294 2287.82,-300 2281.82,-306 2275.82,-306"/>
<text xml:space="preserve" text-anchor="middle" x="2218.9" y="-290.4" font-family="Arial" font-size="8.00">mt#326</text>
<text xml:space="preserve" text-anchor="middle" x="2218.9" y="-280.8" font-family="Arial" font-size="8.00">Explore embedding Outerbase DB</text>
</g>
<!-- mt_326&#45;&gt;mt_468 -->
<g id="edge90" class="edge">
<title>mt_326&#45;&gt;mt_468</title>
<path fill="none" stroke="#374151" stroke-width="2" d="M2189.35,-269.19C2166.77,-255.58 2135.46,-236.71 2110.99,-221.96"/>
<polygon fill="#374151" stroke="#374151" stroke-width="2" points="2112.5,-220.01 2105.24,-218.5 2109.97,-224.21 2112.5,-220.01"/>
</g>
</g>
</svg>
