<?xml version="1.0" encoding="UTF-8" standalone="no"?>
<!DOCTYPE svg PUBLIC "-//W3C//DTD SVG 1.1//EN"
 "http://www.w3.org/Graphics/SVG/1.1/DTD/svg11.dtd">
<!-- Generated by graphviz version 13.1.2 (0)
 -->
<!-- Title: TaskDependencies Pages: 1 -->
<svg width="6129pt" height="764pt"
 viewBox="0.00 0.00 6129.00 764.00" xmlns="http://www.w3.org/2000/svg" xmlns:xlink="http://www.w3.org/1999/xlink">
<g id="graph0" class="graph" transform="scale(1 1) rotate(0) translate(4 760)">
<title>TaskDependencies</title>
<!-- mt_041 -->
<g id="node1" class="node">
<title>mt_041</title>
<path fill="#e2e8f0" stroke="#64748b" stroke-width="2" d="M142.08,-666C142.08,-666 16.16,-666 16.16,-666 10.16,-666 4.16,-660 4.16,-654 4.16,-654 4.16,-642 4.16,-642 4.16,-636 10.16,-630 16.16,-630 16.16,-630 142.08,-630 142.08,-630 148.08,-630 154.08,-636 154.08,-642 154.08,-642 154.08,-654 154.08,-654 154.08,-660 148.08,-666 142.08,-666"/>
<text xml:space="preserve" text-anchor="middle" x="79.12" y="-651" font-family="Arial" font-size="10.00">mt#041</text>
<text xml:space="preserve" text-anchor="middle" x="79.12" y="-639" font-family="Arial" font-size="10.00">Write Test Suite for Cursor Ru</text>
</g>
<!-- mt_067 -->
<g id="node2" class="node">
<title>mt_067</title>
<path fill="#34d399" stroke="#059669" stroke-width="2" d="M146.24,-756C146.24,-756 12,-756 12,-756 6,-756 0,-750 0,-744 0,-744 0,-732 0,-732 0,-726 6,-720 12,-720 12,-720 146.24,-720 146.24,-720 152.24,-720 158.24,-726 158.24,-732 158.24,-732 158.24,-744 158.24,-744 158.24,-750 152.24,-756 146.24,-756"/>
<text xml:space="preserve" text-anchor="middle" x="79.12" y="-741" font-family="Arial" font-size="10.00">mt#067</text>
<text xml:space="preserve" text-anchor="middle" x="79.12" y="-729" font-family="Arial" font-size="10.00">Refactor `minsky&#45;workflow.mdc`</text>
</g>
<!-- mt_067&#45;&gt;mt_041 -->
<g id="edge1" class="edge">
<title>mt_067&#45;&gt;mt_041</title>
<path fill="none" stroke="#4a5568" stroke-width="2" d="M79.12,-719.19C79.12,-706.79 79.12,-690.02 79.12,-675.98"/>
<polygon fill="#4a5568" stroke="#4a5568" stroke-width="2" points="81.92,-677.81 79.12,-669.81 76.32,-677.81 81.92,-677.81"/>
</g>
<!-- mt_045 -->
<g id="node3" class="node">
<title>mt_045</title>
<path fill="#e2e8f0" stroke="#64748b" stroke-width="2" d="M325.99,-666C325.99,-666 202.25,-666 202.25,-666 196.25,-666 190.25,-660 190.25,-654 190.25,-654 190.25,-642 190.25,-642 190.25,-636 196.25,-630 202.25,-630 202.25,-630 325.99,-630 325.99,-630 331.99,-630 337.99,-636 337.99,-642 337.99,-642 337.99,-654 337.99,-654 337.99,-660 331.99,-666 325.99,-666"/>
<text xml:space="preserve" text-anchor="middle" x="264.12" y="-651" font-family="Arial" font-size="10.00">mt#045</text>
<text xml:space="preserve" text-anchor="middle" x="264.12" y="-639" font-family="Arial" font-size="10.00">Setup Documentation Tooling</text>
</g>
<!-- mt_030 -->
<g id="node4" class="node">
<title>mt_030</title>
<path fill="#34d399" stroke="#059669" stroke-width="2" d="M433.33,-756C433.33,-756 302.91,-756 302.91,-756 296.91,-756 290.91,-750 290.91,-744 290.91,-744 290.91,-732 290.91,-732 290.91,-726 296.91,-720 302.91,-720 302.91,-720 433.33,-720 433.33,-720 439.33,-720 445.33,-726 445.33,-732 445.33,-732 445.33,-744 445.33,-744 445.33,-750 439.33,-756 433.33,-756"/>
<text xml:space="preserve" text-anchor="middle" x="368.12" y="-741" font-family="Arial" font-size="10.00">mt#030</text>
<text xml:space="preserve" text-anchor="middle" x="368.12" y="-729" font-family="Arial" font-size="10.00">Setup Project Tooling and Auto</text>
</g>
<!-- mt_030&#45;&gt;mt_045 -->
<g id="edge2" class="edge">
<title>mt_030&#45;&gt;mt_045</title>
<path fill="none" stroke="#4a5568" stroke-width="2" d="M347.07,-719.19C331.29,-705.83 309.51,-687.41 292.23,-672.79"/>
<polygon fill="#4a5568" stroke="#4a5568" stroke-width="2" points="295.36,-671.77 287.45,-668.74 291.74,-676.04 295.36,-671.77"/>
</g>
<!-- mt_046 -->
<g id="node5" class="node">
<title>mt_046</title>
<path fill="#e2e8f0" stroke="#64748b" stroke-width="2" d="M543.95,-666C543.95,-666 386.29,-666 386.29,-666 380.29,-666 374.29,-660 374.29,-654 374.29,-654 374.29,-642 374.29,-642 374.29,-636 380.29,-630 386.29,-630 386.29,-630 543.95,-630 543.95,-630 549.95,-630 555.95,-636 555.95,-642 555.95,-642 555.95,-654 555.95,-654 555.95,-660 549.95,-666 543.95,-666"/>
<text xml:space="preserve" text-anchor="middle" x="465.12" y="-651" font-family="Arial" font-size="10.00">mt#046</text>
<text xml:space="preserve" text-anchor="middle" x="465.12" y="-639" font-family="Arial" font-size="10.00">Document Dependency Management</text>
</g>
<!-- mt_030&#45;&gt;mt_046 -->
<g id="edge3" class="edge">
<title>mt_030&#45;&gt;mt_046</title>
<path fill="none" stroke="#4a5568" stroke-width="2" d="M387.75,-719.19C402.48,-705.83 422.78,-687.41 438.9,-672.79"/>
<polygon fill="#4a5568" stroke="#4a5568" stroke-width="2" points="439.23,-676.26 443.28,-668.82 435.47,-672.12 439.23,-676.26"/>
</g>
<!-- mt_090 -->
<g id="node6" class="node">
<title>mt_090</title>
<path fill="#e2e8f0" stroke="#64748b" stroke-width="2" d="M732.76,-666C732.76,-666 603.49,-666 603.49,-666 597.49,-666 591.49,-660 591.49,-654 591.49,-654 591.49,-642 591.49,-642 591.49,-636 597.49,-630 603.49,-630 603.49,-630 732.76,-630 732.76,-630 738.76,-630 744.76,-636 744.76,-642 744.76,-642 744.76,-654 744.76,-654 744.76,-660 738.76,-666 732.76,-666"/>
<text xml:space="preserve" text-anchor="middle" x="668.12" y="-651" font-family="Arial" font-size="10.00">mt#090</text>
<text xml:space="preserve" text-anchor="middle" x="668.12" y="-639" font-family="Arial" font-size="10.00">Prepare for Future Non&#45;Filesys</text>
</g>
<!-- mt_080 -->
<g id="node7" class="node">
<title>mt_080</title>
<path fill="#34d399" stroke="#059669" stroke-width="2" d="M739.43,-756C739.43,-756 596.81,-756 596.81,-756 590.81,-756 584.81,-750 584.81,-744 584.81,-744 584.81,-732 584.81,-732 584.81,-726 590.81,-720 596.81,-720 596.81,-720 739.43,-720 739.43,-720 745.43,-720 751.43,-726 751.43,-732 751.43,-732 751.43,-744 751.43,-744 751.43,-750 745.43,-756 739.43,-756"/>
<text xml:space="preserve" text-anchor="middle" x="668.12" y="-741" font-family="Arial" font-size="10.00">mt#080</text>
<text xml:space="preserve" text-anchor="middle" x="668.12" y="-729" font-family="Arial" font-size="10.00">Review Workspace and Repositor</text>
</g>
<!-- mt_080&#45;&gt;mt_090 -->
<g id="edge4" class="edge">
<title>mt_080&#45;&gt;mt_090</title>
<path fill="none" stroke="#4a5568" stroke-width="2" d="M668.12,-719.19C668.12,-706.79 668.12,-690.02 668.12,-675.98"/>
<polygon fill="#4a5568" stroke="#4a5568" stroke-width="2" points="670.92,-677.81 668.12,-669.81 665.32,-677.81 670.92,-677.81"/>
</g>
<!-- mt_162 -->
<g id="node8" class="node">
<title>mt_162</title>
<path fill="#e2e8f0" stroke="#64748b" stroke-width="2" d="M2184.22,-666C2184.22,-666 2036.02,-666 2036.02,-666 2030.02,-666 2024.02,-660 2024.02,-654 2024.02,-654 2024.02,-642 2024.02,-642 2024.02,-636 2030.02,-630 2036.02,-630 2036.02,-630 2184.22,-630 2184.22,-630 2190.22,-630 2196.22,-636 2196.22,-642 2196.22,-642 2196.22,-654 2196.22,-654 2196.22,-660 2190.22,-666 2184.22,-666"/>
<text xml:space="preserve" text-anchor="middle" x="2110.12" y="-651" font-family="Arial" font-size="10.00">mt#162</text>
<text xml:space="preserve" text-anchor="middle" x="2110.12" y="-639" font-family="Arial" font-size="10.00">Research and Design Comprehens</text>
</g>
<!-- mt_202 -->
<g id="node12" class="node">
<title>mt_202</title>
<path fill="#e2e8f0" stroke="#64748b" stroke-width="2" d="M1762.28,-486C1762.28,-486 1627.96,-486 1627.96,-486 1621.96,-486 1615.96,-480 1615.96,-474 1615.96,-474 1615.96,-462 1615.96,-462 1615.96,-456 1621.96,-450 1627.96,-450 1627.96,-450 1762.28,-450 1762.28,-450 1768.28,-450 1774.28,-456 1774.28,-462 1774.28,-462 1774.28,-474 1774.28,-474 1774.28,-480 1768.28,-486 1762.28,-486"/>
<text xml:space="preserve" text-anchor="middle" x="1695.12" y="-471" font-family="Arial" font-size="10.00">mt#202</text>
<text xml:space="preserve" text-anchor="middle" x="1695.12" y="-459" font-family="Arial" font-size="10.00">Rule Suggestion Evaluation and</text>
</g>
<!-- mt_162&#45;&gt;mt_202 -->
<g id="edge10" class="edge">
<title>mt_162&#45;&gt;mt_202</title>
<path fill="none" stroke="#4a5568" stroke-width="2" d="M2089.3,-629.31C2060.63,-605.78 2006.55,-564.33 1954.12,-540 1900.06,-514.92 1835.41,-497.18 1784.23,-485.71"/>
<polygon fill="#4a5568" stroke="#4a5568" stroke-width="2" points="1786.53,-483.35 1778.12,-484.36 1785.33,-488.82 1786.53,-483.35"/>
</g>
<!-- mt_250 -->
<g id="node13" class="node">
<title>mt_250</title>
<path fill="#e2e8f0" stroke="#64748b" stroke-width="2" d="M1924.27,-576C1924.27,-576 1789.97,-576 1789.97,-576 1783.97,-576 1777.97,-570 1777.97,-564 1777.97,-564 1777.97,-552 1777.97,-552 1777.97,-546 1783.97,-540 1789.97,-540 1789.97,-540 1924.27,-540 1924.27,-540 1930.27,-540 1936.27,-546 1936.27,-552 1936.27,-552 1936.27,-564 1936.27,-564 1936.27,-570 1930.27,-576 1924.27,-576"/>
<text xml:space="preserve" text-anchor="middle" x="1857.12" y="-561" font-family="Arial" font-size="10.00">mt#250</text>
<text xml:space="preserve" text-anchor="middle" x="1857.12" y="-549" font-family="Arial" font-size="10.00">Investigate and Implement Sess</text>
</g>
<!-- mt_162&#45;&gt;mt_250 -->
<g id="edge29" class="edge">
<title>mt_162&#45;&gt;mt_250</title>
<path fill="none" stroke="#4a5568" stroke-width="2" d="M2058.62,-629.09C2017.75,-614.87 1960.53,-594.97 1917.51,-580"/>
<polygon fill="#4a5568" stroke="#4a5568" stroke-width="2" points="1919.89,-577.87 1911.41,-577.88 1918.05,-583.16 1919.89,-577.87"/>
</g>
<!-- mt_249 -->
<g id="node9" class="node">
<title>mt_249</title>
<path fill="#34d399" stroke="#059669" stroke-width="2" d="M2034.88,-756C2034.88,-756 1903.36,-756 1903.36,-756 1897.36,-756 1891.36,-750 1891.36,-744 1891.36,-744 1891.36,-732 1891.36,-732 1891.36,-726 1897.36,-720 1903.36,-720 1903.36,-720 2034.88,-720 2034.88,-720 2040.88,-720 2046.88,-726 2046.88,-732 2046.88,-732 2046.88,-744 2046.88,-744 2046.88,-750 2040.88,-756 2034.88,-756"/>
<text xml:space="preserve" text-anchor="middle" x="1969.12" y="-741" font-family="Arial" font-size="10.00">mt#249</text>
<text xml:space="preserve" text-anchor="middle" x="1969.12" y="-729" font-family="Arial" font-size="10.00">Investigate and Improve Sessio</text>
</g>
<!-- mt_249&#45;&gt;mt_162 -->
<g id="edge5" class="edge">
<title>mt_249&#45;&gt;mt_162</title>
<path fill="none" stroke="#4a5568" stroke-width="2" d="M1997.65,-719.19C2019.54,-705.53 2049.9,-686.58 2073.56,-671.82"/>
<polygon fill="#4a5568" stroke="#4a5568" stroke-width="2" points="2073.76,-675 2079.06,-668.38 2070.79,-670.24 2073.76,-675"/>
</g>
<!-- mt_249&#45;&gt;mt_250 -->
<g id="edge30" class="edge">
<title>mt_249&#45;&gt;mt_250</title>
<path fill="none" stroke="#4a5568" stroke-width="2" d="M1965.7,-719.18C1960.85,-696.95 1950.45,-658.41 1932.12,-630 1920.51,-612 1903.41,-595.34 1888.46,-582.69"/>
<polygon fill="#4a5568" stroke="#4a5568" stroke-width="2" points="1891.62,-581.67 1883.67,-578.74 1888.06,-585.99 1891.62,-581.67"/>
</g>
<!-- mt_354 -->
<g id="node57" class="node">
<title>mt_354</title>
<path fill="#e2e8f0" stroke="#64748b" stroke-width="2" d="M1504.49,-666C1504.49,-666 1365.75,-666 1365.75,-666 1359.75,-666 1353.75,-660 1353.75,-654 1353.75,-654 1353.75,-642 1353.75,-642 1353.75,-636 1359.75,-630 1365.75,-630 1365.75,-630 1504.49,-630 1504.49,-630 1510.49,-630 1516.49,-636 1516.49,-642 1516.49,-642 1516.49,-654 1516.49,-654 1516.49,-660 1510.49,-666 1504.49,-666"/>
<text xml:space="preserve" text-anchor="middle" x="1435.12" y="-651" font-family="Arial" font-size="10.00">mt#354</text>
<text xml:space="preserve" text-anchor="middle" x="1435.12" y="-639" font-family="Arial" font-size="10.00">Implement Session Reapply Tool</text>
</g>
<!-- mt_249&#45;&gt;mt_354 -->
<g id="edge61" class="edge">
<title>mt_249&#45;&gt;mt_354</title>
<path fill="none" stroke="#4a5568" stroke-width="2" d="M1890.5,-724.37C1803.36,-710.32 1658.64,-686.85 1534.12,-666 1531.63,-665.58 1529.1,-665.16 1526.55,-664.73"/>
<polygon fill="#4a5568" stroke="#4a5568" stroke-width="2" points="1528.56,-662.23 1520.21,-663.66 1527.63,-667.75 1528.56,-662.23"/>
</g>
<!-- mt_175 -->
<g id="node10" class="node">
<title>mt_175</title>
<path fill="#e2e8f0" stroke="#64748b" stroke-width="2" d="M478.11,-576C478.11,-576 332.13,-576 332.13,-576 326.13,-576 320.13,-570 320.13,-564 320.13,-564 320.13,-552 320.13,-552 320.13,-546 326.13,-540 332.13,-540 332.13,-540 478.11,-540 478.11,-540 484.11,-540 490.11,-546 490.11,-552 490.11,-552 490.11,-564 490.11,-564 490.11,-570 484.11,-576 478.11,-576"/>
<text xml:space="preserve" text-anchor="middle" x="405.12" y="-561" font-family="Arial" font-size="10.00">mt#175</text>
<text xml:space="preserve" text-anchor="middle" x="405.12" y="-549" font-family="Arial" font-size="10.00">Add AI&#45;powered task management</text>
</g>
<!-- mt_237 -->
<g id="node20" class="node">
<title>mt_237</title>
<path fill="#e2e8f0" stroke="#64748b" stroke-width="2" d="M471.7,-486C471.7,-486 338.54,-486 338.54,-486 332.54,-486 326.54,-480 326.54,-474 326.54,-474 326.54,-462 326.54,-462 326.54,-456 332.54,-450 338.54,-450 338.54,-450 471.7,-450 471.7,-450 477.7,-450 483.7,-456 483.7,-462 483.7,-462 483.7,-474 483.7,-474 483.7,-480 477.7,-486 471.7,-486"/>
<text xml:space="preserve" text-anchor="middle" x="405.12" y="-471" font-family="Arial" font-size="10.00">mt#237</text>
<text xml:space="preserve" text-anchor="middle" x="405.12" y="-459" font-family="Arial" font-size="10.00">Implement Hierarchical Task Sy</text>
</g>
<!-- mt_175&#45;&gt;mt_237 -->
<g id="edge15" class="edge">
<title>mt_175&#45;&gt;mt_237</title>
<path fill="none" stroke="#4a5568" stroke-width="2" d="M405.12,-539.19C405.12,-526.79 405.12,-510.02 405.12,-495.98"/>
<polygon fill="#4a5568" stroke="#4a5568" stroke-width="2" points="407.92,-497.81 405.12,-489.81 402.32,-497.81 407.92,-497.81"/>
</g>
<!-- mt_239 -->
<g id="node21" class="node">
<title>mt_239</title>
<path fill="#e2e8f0" stroke="#64748b" stroke-width="2" d="M481.72,-396C481.72,-396 338.52,-396 338.52,-396 332.52,-396 326.52,-390 326.52,-384 326.52,-384 326.52,-372 326.52,-372 326.52,-366 332.52,-360 338.52,-360 338.52,-360 481.72,-360 481.72,-360 487.72,-360 493.72,-366 493.72,-372 493.72,-372 493.72,-384 493.72,-384 493.72,-390 487.72,-396 481.72,-396"/>
<text xml:space="preserve" text-anchor="middle" x="410.12" y="-381" font-family="Arial" font-size="10.00">mt#239</text>
<text xml:space="preserve" text-anchor="middle" x="410.12" y="-369" font-family="Arial" font-size="10.00">Phase 2: Implement Task Depend</text>
</g>
<!-- mt_175&#45;&gt;mt_239 -->
<g id="edge18" class="edge">
<title>mt_175&#45;&gt;mt_239</title>
<path fill="none" stroke="#4a5568" stroke-width="2" d="M271.12,-467C267.58,-434.68 294.67,-413.71 325.85,-400.37"/>
<polygon fill="#4a5568" stroke="#4a5568" stroke-width="2" points="325.1,-403.69 331.48,-398.11 323.01,-398.5 325.1,-403.69"/>
</g>
<!-- mt_240 -->
<g id="node23" class="node">
<title>mt_240</title>
<path fill="#e2e8f0" stroke="#64748b" stroke-width="2" d="M713.62,-306C713.62,-306 572.62,-306 572.62,-306 566.62,-306 560.62,-300 560.62,-294 560.62,-294 560.62,-282 560.62,-282 560.62,-276 566.62,-270 572.62,-270 572.62,-270 713.62,-270 713.62,-270 719.62,-270 725.62,-276 725.62,-282 725.62,-282 725.62,-294 725.62,-294 725.62,-300 719.62,-306 713.62,-306"/>
<text xml:space="preserve" text-anchor="middle" x="643.12" y="-291" font-family="Arial" font-size="10.00">mt#240</text>
<text xml:space="preserve" text-anchor="middle" x="643.12" y="-279" font-family="Arial" font-size="10.00">Phase 3: Enhanced Planning/Exe</text>
</g>
<!-- mt_175&#45;&gt;mt_240 -->
<g id="edge22" class="edge">
<title>mt_175&#45;&gt;mt_240</title>
<path fill="none" stroke="#4a5568" stroke-width="2" d="M271.12,-467C269.37,-448.99 291.09,-456.12 308.12,-450 396.39,-418.3 428.58,-438.63 512.12,-396 554.2,-374.53 595.13,-337.79 619.73,-313.45"/>
<polygon fill="#4a5568" stroke="#4a5568" stroke-width="2" points="620.42,-316.72 624.09,-309.08 616.46,-312.77 620.42,-316.72"/>
</g>
<!-- mt_243 -->
<g id="node25" class="node">
<title>mt_243</title>
<path fill="#e2e8f0" stroke="#64748b" stroke-width="2" d="M636.72,-216C636.72,-216 503.52,-216 503.52,-216 497.52,-216 491.52,-210 491.52,-204 491.52,-204 491.52,-192 491.52,-192 491.52,-186 497.52,-180 503.52,-180 503.52,-180 636.72,-180 636.72,-180 642.72,-180 648.72,-186 648.72,-192 648.72,-192 648.72,-204 648.72,-204 648.72,-210 642.72,-216 636.72,-216"/>
<text xml:space="preserve" text-anchor="middle" x="570.12" y="-201" font-family="Arial" font-size="10.00">mt#243</text>
<text xml:space="preserve" text-anchor="middle" x="570.12" y="-189" font-family="Arial" font-size="10.00">Advanced Visualization and Dat</text>
</g>
<!-- mt_175&#45;&gt;mt_243 -->
<g id="edge28" class="edge">
<title>mt_175&#45;&gt;mt_243</title>
<path fill="none" stroke="#4a5568" stroke-width="2" d="M271.12,-467C265.84,-416.17 221.68,-423.81 197.12,-379"/>
<path fill="none" stroke="#4a5568" stroke-width="2" d="M339.74,-539.11C307.52,-525.92 274.76,-504.02 271.12,-469"/>
<path fill="none" stroke="#4a5568" stroke-width="2" d="M197.12,-377C133.94,-261.71 352.28,-220.27 481.52,-206.02"/>
<polygon fill="#4a5568" stroke="#4a5568" stroke-width="2" points="480,-209 487.65,-205.37 479.4,-203.44 480,-209"/>
</g>
<!-- mt_361 -->
<g id="node34" class="node">
<title>mt_361</title>
<path fill="#e2e8f0" stroke="#64748b" stroke-width="2" d="M413.33,-306C413.33,-306 272.91,-306 272.91,-306 266.91,-306 260.91,-300 260.91,-294 260.91,-294 260.91,-282 260.91,-282 260.91,-276 266.91,-270 272.91,-270 272.91,-270 413.33,-270 413.33,-270 419.33,-270 425.33,-276 425.33,-282 425.33,-282 425.33,-294 425.33,-294 425.33,-300 419.33,-306 413.33,-306"/>
<text xml:space="preserve" text-anchor="middle" x="343.12" y="-291" font-family="Arial" font-size="10.00">mt#361</text>
<text xml:space="preserve" text-anchor="middle" x="343.12" y="-279" font-family="Arial" font-size="10.00">Explore Automated Session Sync</text>
</g>
<!-- mt_175&#45;&gt;mt_361 -->
<g id="edge38" class="edge">
<title>mt_175&#45;&gt;mt_361</title>
<path fill="none" stroke="#4a5568" stroke-width="2" d="M271.12,-467C264.81,-409.33 300.36,-347.8 323.77,-314.31"/>
<polygon fill="#4a5568" stroke="#4a5568" stroke-width="2" points="324.99,-317.41 327.37,-309.28 320.44,-314.15 324.99,-317.41"/>
</g>
<!-- mt_160 -->
<g id="node11" class="node">
<title>mt_160</title>
<path fill="#34d399" stroke="#059669" stroke-width="2" d="M1120.94,-666C1120.94,-666 983.3,-666 983.3,-666 977.3,-666 971.3,-660 971.3,-654 971.3,-654 971.3,-642 971.3,-642 971.3,-636 977.3,-630 983.3,-630 983.3,-630 1120.94,-630 1120.94,-630 1126.94,-630 1132.94,-636 1132.94,-642 1132.94,-642 1132.94,-654 1132.94,-654 1132.94,-660 1126.94,-666 1120.94,-666"/>
<text xml:space="preserve" text-anchor="middle" x="1052.12" y="-651" font-family="Arial" font-size="10.00">mt#160</text>
<text xml:space="preserve" text-anchor="middle" x="1052.12" y="-639" font-family="Arial" font-size="10.00">Add AI Completion Backend with</text>
</g>
<!-- mt_160&#45;&gt;mt_175 -->
<g id="edge6" class="edge">
<title>mt_160&#45;&gt;mt_175</title>
<path fill="none" stroke="#4a5568" stroke-width="2" d="M970.32,-632.68C964.5,-631.75 958.73,-630.84 953.12,-630 794.57,-606.13 609.48,-583.16 500.07,-570.1"/>
<polygon fill="#4a5568" stroke="#4a5568" stroke-width="2" points="501.98,-567.51 493.71,-569.34 501.32,-573.07 501.98,-567.51"/>
</g>
<!-- mt_160&#45;&gt;mt_202 -->
<g id="edge9" class="edge">
<title>mt_160&#45;&gt;mt_202</title>
<path fill="none" stroke="#4a5568" stroke-width="2" d="M1048.12,-629.37C1043.87,-605.51 1040.6,-563.27 1064.12,-540 1148.92,-456.12 1479.97,-502.31 1598.12,-486 1600.61,-485.66 1603.14,-485.29 1605.69,-484.92"/>
<polygon fill="#4a5568" stroke="#4a5568" stroke-width="2" points="1604.52,-487.93 1612.01,-483.96 1603.68,-482.39 1604.52,-487.93"/>
</g>
<!-- mt_254 -->
<g id="node35" class="node">
<title>mt_254</title>
<path fill="#e2e8f0" stroke="#64748b" stroke-width="2" d="M1228.24,-576C1228.24,-576 1094,-576 1094,-576 1088,-576 1082,-570 1082,-564 1082,-564 1082,-552 1082,-552 1082,-546 1088,-540 1094,-540 1094,-540 1228.24,-540 1228.24,-540 1234.24,-540 1240.24,-546 1240.24,-552 1240.24,-552 1240.24,-564 1240.24,-564 1240.24,-570 1234.24,-576 1228.24,-576"/>
<text xml:space="preserve" text-anchor="middle" x="1161.12" y="-561" font-family="Arial" font-size="10.00">mt#254</text>
<text xml:space="preserve" text-anchor="middle" x="1161.12" y="-549" font-family="Arial" font-size="10.00">Implement Commit History Simil</text>
</g>
<!-- mt_160&#45;&gt;mt_254 -->
<g id="edge41" class="edge">
<title>mt_160&#45;&gt;mt_254</title>
<path fill="none" stroke="#4a5568" stroke-width="2" d="M1074.18,-629.19C1090.87,-615.71 1113.95,-597.08 1132.14,-582.4"/>
<polygon fill="#4a5568" stroke="#4a5568" stroke-width="2" points="1132.27,-585.89 1136.74,-578.68 1128.76,-581.53 1132.27,-585.89"/>
</g>
<!-- mt_321 -->
<g id="node48" class="node">
<title>mt_321</title>
<path fill="#e2e8f0" stroke="#64748b" stroke-width="2" d="M1417.76,-576C1417.76,-576 1288.48,-576 1288.48,-576 1282.48,-576 1276.48,-570 1276.48,-564 1276.48,-564 1276.48,-552 1276.48,-552 1276.48,-546 1282.48,-540 1288.48,-540 1288.48,-540 1417.76,-540 1417.76,-540 1423.76,-540 1429.76,-546 1429.76,-552 1429.76,-552 1429.76,-564 1429.76,-564 1429.76,-570 1423.76,-576 1417.76,-576"/>
<text xml:space="preserve" text-anchor="middle" x="1353.12" y="-561" font-family="Arial" font-size="10.00">mt#321</text>
<text xml:space="preserve" text-anchor="middle" x="1353.12" y="-549" font-family="Arial" font-size="10.00">AI&#45;Powered Project Analysis fo</text>
</g>
<!-- mt_160&#45;&gt;mt_321 -->
<g id="edge55" class="edge">
<title>mt_160&#45;&gt;mt_321</title>
<path fill="none" stroke="#4a5568" stroke-width="2" d="M1113.4,-629.09C1162.45,-614.75 1231.29,-594.62 1282.62,-579.61"/>
<polygon fill="#4a5568" stroke="#4a5568" stroke-width="2" points="1281.88,-582.75 1288.77,-577.81 1280.3,-577.37 1281.88,-582.75"/>
</g>
<!-- mt_441 -->
<g id="node63" class="node">
<title>mt_441</title>
<path fill="#e2e8f0" stroke="#64748b" stroke-width="2" d="M1355.33,-396C1355.33,-396 1204.91,-396 1204.91,-396 1198.91,-396 1192.91,-390 1192.91,-384 1192.91,-384 1192.91,-372 1192.91,-372 1192.91,-366 1198.91,-360 1204.91,-360 1204.91,-360 1355.33,-360 1355.33,-360 1361.33,-360 1367.33,-366 1367.33,-372 1367.33,-372 1367.33,-384 1367.33,-384 1367.33,-390 1361.33,-396 1355.33,-396"/>
<text xml:space="preserve" text-anchor="middle" x="1280.12" y="-381" font-family="Arial" font-size="10.00">mt#441</text>
<text xml:space="preserve" text-anchor="middle" x="1280.12" y="-369" font-family="Arial" font-size="10.00">Implement MCP&#45;Based Subagent S</text>
</g>
<!-- mt_202&#45;&gt;mt_441 -->
<g id="edge67" class="edge">
<title>mt_202&#45;&gt;mt_441</title>
<path fill="none" stroke="#4a5568" stroke-width="2" d="M1615.1,-450.03C1546.21,-435.42 1446.71,-414.33 1374.05,-398.92"/>
<polygon fill="#4a5568" stroke="#4a5568" stroke-width="2" points="1376.25,-396.52 1367.85,-397.6 1375.09,-402 1376.25,-396.52"/>
</g>
<!-- mt_442 -->
<g id="node66" class="node">
<title>mt_442</title>
<path fill="#e2e8f0" stroke="#64748b" stroke-width="2" d="M1423.76,-306C1423.76,-306 1284.48,-306 1284.48,-306 1278.48,-306 1272.48,-300 1272.48,-294 1272.48,-294 1272.48,-282 1272.48,-282 1272.48,-276 1278.48,-270 1284.48,-270 1284.48,-270 1423.76,-270 1423.76,-270 1429.76,-270 1435.76,-276 1435.76,-282 1435.76,-282 1435.76,-294 1435.76,-294 1435.76,-300 1429.76,-306 1423.76,-306"/>
<text xml:space="preserve" text-anchor="middle" x="1354.12" y="-291" font-family="Arial" font-size="10.00">mt#442</text>
<text xml:space="preserve" text-anchor="middle" x="1354.12" y="-279" font-family="Arial" font-size="10.00">Implement Task Routing System </text>
</g>
<!-- mt_202&#45;&gt;mt_442 -->
<g id="edge73" class="edge">
<title>mt_202&#45;&gt;mt_442</title>
<path fill="none" stroke="#4a5568" stroke-width="2" d="M1630.53,-449.08C1575.51,-432.2 1503.17,-405.61 1489.12,-379"/>
</g>
<!-- mt_250&#45;&gt;mt_202 -->
<g id="edge7" class="edge">
<title>mt_250&#45;&gt;mt_202</title>
<path fill="none" stroke="#4a5568" stroke-width="2" d="M1824.34,-539.19C1798.95,-525.4 1763.63,-506.21 1736.33,-491.38"/>
<polygon fill="#4a5568" stroke="#4a5568" stroke-width="2" points="1739.16,-489.74 1730.79,-488.38 1736.49,-494.66 1739.16,-489.74"/>
</g>
<!-- mt_182 -->
<g id="node14" class="node">
<title>mt_182</title>
<path fill="#34d399" stroke="#059669" stroke-width="2" d="M1729.61,-576C1729.61,-576 1588.63,-576 1588.63,-576 1582.63,-576 1576.63,-570 1576.63,-564 1576.63,-564 1576.63,-552 1576.63,-552 1576.63,-546 1582.63,-540 1588.63,-540 1588.63,-540 1729.61,-540 1729.61,-540 1735.61,-540 1741.61,-546 1741.61,-552 1741.61,-552 1741.61,-564 1741.61,-564 1741.61,-570 1735.61,-576 1729.61,-576"/>
<text xml:space="preserve" text-anchor="middle" x="1659.12" y="-561" font-family="Arial" font-size="10.00">mt#182</text>
<text xml:space="preserve" text-anchor="middle" x="1659.12" y="-549" font-family="Arial" font-size="10.00">Add AI&#45;Powered Rule Suggestion</text>
</g>
<!-- mt_182&#45;&gt;mt_202 -->
<g id="edge8" class="edge">
<title>mt_182&#45;&gt;mt_202</title>
<path fill="none" stroke="#4a5568" stroke-width="2" d="M1666.41,-539.19C1671.53,-526.67 1678.47,-509.69 1684.25,-495.57"/>
<polygon fill="#4a5568" stroke="#4a5568" stroke-width="2" points="1686.26,-498.05 1686.7,-489.58 1681.08,-495.93 1686.26,-498.05"/>
</g>
<!-- mt_232 -->
<g id="node15" class="node">
<title>mt_232</title>
<path fill="#e2e8f0" stroke="#64748b" stroke-width="2" d="M2645.65,-666C2645.65,-666 2518.6,-666 2518.6,-666 2512.6,-666 2506.6,-660 2506.6,-654 2506.6,-654 2506.6,-642 2506.6,-642 2506.6,-636 2512.6,-630 2518.6,-630 2518.6,-630 2645.65,-630 2645.65,-630 2651.65,-630 2657.65,-636 2657.65,-642 2657.65,-642 2657.65,-654 2657.65,-654 2657.65,-660 2651.65,-666 2645.65,-666"/>
<text xml:space="preserve" text-anchor="middle" x="2582.12" y="-651" font-family="Arial" font-size="10.00">mt#232</text>
<text xml:space="preserve" text-anchor="middle" x="2582.12" y="-639" font-family="Arial" font-size="10.00">Improve session PR conflict re</text>
</g>
<!-- mt_231 -->
<g id="node16" class="node">
<title>mt_231</title>
<path fill="#34d399" stroke="#059669" stroke-width="2" d="M2647.87,-756C2647.87,-756 2516.37,-756 2516.37,-756 2510.37,-756 2504.37,-750 2504.37,-744 2504.37,-744 2504.37,-732 2504.37,-732 2504.37,-726 2510.37,-720 2516.37,-720 2516.37,-720 2647.87,-720 2647.87,-720 2653.87,-720 2659.87,-726 2659.87,-732 2659.87,-732 2659.87,-744 2659.87,-744 2659.87,-750 2653.87,-756 2647.87,-756"/>
<text xml:space="preserve" text-anchor="middle" x="2582.12" y="-741" font-family="Arial" font-size="10.00">mt#231</text>
<text xml:space="preserve" text-anchor="middle" x="2582.12" y="-729" font-family="Arial" font-size="10.00">Implement session PR refresh f</text>
</g>
<!-- mt_231&#45;&gt;mt_232 -->
<g id="edge11" class="edge">
<title>mt_231&#45;&gt;mt_232</title>
<path fill="none" stroke="#4a5568" stroke-width="2" d="M2582.12,-719.19C2582.12,-706.79 2582.12,-690.02 2582.12,-675.98"/>
<polygon fill="#4a5568" stroke="#4a5568" stroke-width="2" points="2584.92,-677.81 2582.12,-669.81 2579.32,-677.81 2584.92,-677.81"/>
</g>
<!-- mt_233 -->
<g id="node17" class="node">
<title>mt_233</title>
<path fill="#e2e8f0" stroke="#64748b" stroke-width="2" d="M2870.6,-666C2870.6,-666 2739.64,-666 2739.64,-666 2733.64,-666 2727.64,-660 2727.64,-654 2727.64,-654 2727.64,-642 2727.64,-642 2727.64,-636 2733.64,-630 2739.64,-630 2739.64,-630 2870.6,-630 2870.6,-630 2876.6,-630 2882.6,-636 2882.6,-642 2882.6,-642 2882.6,-654 2882.6,-654 2882.6,-660 2876.6,-666 2870.6,-666"/>
<text xml:space="preserve" text-anchor="middle" x="2805.12" y="-651" font-family="Arial" font-size="10.00">mt#233</text>
<text xml:space="preserve" text-anchor="middle" x="2805.12" y="-639" font-family="Arial" font-size="10.00">Setup semantic&#45;release with co</text>
</g>
<!-- mt_234 -->
<g id="node19" class="node">
<title>mt_234</title>
<path fill="#e2e8f0" stroke="#64748b" stroke-width="2" d="M2938.82,-576C2938.82,-576 2803.42,-576 2803.42,-576 2797.42,-576 2791.42,-570 2791.42,-564 2791.42,-564 2791.42,-552 2791.42,-552 2791.42,-546 2797.42,-540 2803.42,-540 2803.42,-540 2938.82,-540 2938.82,-540 2944.82,-540 2950.82,-546 2950.82,-552 2950.82,-552 2950.82,-564 2950.82,-564 2950.82,-570 2944.82,-576 2938.82,-576"/>
<text xml:space="preserve" text-anchor="middle" x="2871.12" y="-561" font-family="Arial" font-size="10.00">mt#234</text>
<text xml:space="preserve" text-anchor="middle" x="2871.12" y="-549" font-family="Arial" font-size="10.00">Implement Dagger CI Pipeline w</text>
</g>
<!-- mt_233&#45;&gt;mt_234 -->
<g id="edge14" class="edge">
<title>mt_233&#45;&gt;mt_234</title>
<path fill="none" stroke="#4a5568" stroke-width="2" d="M2818.48,-629.19C2828.14,-616.31 2841.33,-598.72 2852.09,-584.37"/>
<polygon fill="#4a5568" stroke="#4a5568" stroke-width="2" points="2853.41,-587.28 2855.97,-579.2 2848.93,-583.92 2853.41,-587.28"/>
</g>
<!-- mt_164 -->
<g id="node18" class="node">
<title>mt_164</title>
<path fill="#34d399" stroke="#059669" stroke-width="2" d="M2905.99,-756C2905.99,-756 2772.25,-756 2772.25,-756 2766.25,-756 2760.25,-750 2760.25,-744 2760.25,-744 2760.25,-732 2760.25,-732 2760.25,-726 2766.25,-720 2772.25,-720 2772.25,-720 2905.99,-720 2905.99,-720 2911.99,-720 2917.99,-726 2917.99,-732 2917.99,-732 2917.99,-744 2917.99,-744 2917.99,-750 2911.99,-756 2905.99,-756"/>
<text xml:space="preserve" text-anchor="middle" x="2839.12" y="-741" font-family="Arial" font-size="10.00">mt#164</text>
<text xml:space="preserve" text-anchor="middle" x="2839.12" y="-729" font-family="Arial" font-size="10.00">Add Bun Binary Builds and GitH</text>
</g>
<!-- mt_164&#45;&gt;mt_233 -->
<g id="edge12" class="edge">
<title>mt_164&#45;&gt;mt_233</title>
<path fill="none" stroke="#4a5568" stroke-width="2" d="M2832.24,-719.19C2827.4,-706.67 2820.84,-689.69 2815.39,-675.57"/>
<polygon fill="#4a5568" stroke="#4a5568" stroke-width="2" points="2818.58,-676.06 2813.08,-669.61 2813.35,-678.08 2818.58,-676.06"/>
</g>
<!-- mt_164&#45;&gt;mt_234 -->
<g id="edge13" class="edge">
<title>mt_164&#45;&gt;mt_234</title>
<path fill="none" stroke="#4a5568" stroke-width="2" d="M2861.09,-719.06C2875.21,-706.02 2892.33,-687.03 2900.12,-666 2910.16,-638.92 2898.46,-606.81 2887.06,-584.88"/>
<polygon fill="#4a5568" stroke="#4a5568" stroke-width="2" points="2890.34,-585.05 2884.04,-579.38 2885.43,-587.74 2890.34,-585.05"/>
</g>
<!-- mt_237&#45;&gt;mt_239 -->
<g id="edge16" class="edge">
<title>mt_237&#45;&gt;mt_239</title>
<path fill="none" stroke="#4a5568" stroke-width="2" d="M406.66,-439.99C407.27,-429.24 407.97,-416.89 408.58,-406.13"/>
<polygon fill="#4a5568" stroke="#4a5568" stroke-width="2" points="403.96,-438.02 406.3,-446.17 409.55,-438.34 403.96,-438.02"/>
<polygon fill="#4a5568" stroke="#4a5568" stroke-width="2" points="411.28,-407.95 408.94,-399.8 405.69,-407.63 411.28,-407.95"/>
</g>
<!-- mt_237&#45;&gt;mt_240 -->
<g id="edge19" class="edge">
<title>mt_237&#45;&gt;mt_240</title>
<path fill="none" stroke="#4a5568" stroke-width="2" d="M493.98,-462.22C590.05,-454.98 734.05,-437.38 768.12,-396 795.93,-362.23 745.74,-330.58 700.92,-310.59"/>
<polygon fill="#4a5568" stroke="#4a5568" stroke-width="2" points="495.34,-459.32 487.57,-462.69 495.75,-464.9 495.34,-459.32"/>
<polygon fill="#4a5568" stroke="#4a5568" stroke-width="2" points="703.57,-308.69 695.12,-308.08 701.35,-313.83 703.57,-308.69"/>
</g>
<!-- mt_237&#45;&gt;mt_243 -->
<g id="edge24" class="edge">
<title>mt_237&#45;&gt;mt_243</title>
<path fill="none" stroke="#4a5568" stroke-width="2" d="M340.09,-449.08C284.66,-432.2 211.7,-405.61 197.12,-379"/>
</g>
<!-- mt_237&#45;&gt;mt_441 -->
<g id="edge68" class="edge">
<title>mt_237&#45;&gt;mt_441</title>
<path fill="none" stroke="#4a5568" stroke-width="2" d="M484.31,-459.04C644.8,-442.9 1007.92,-406.38 1182.63,-388.8"/>
<polygon fill="#4a5568" stroke="#4a5568" stroke-width="2" points="1181.39,-391.74 1189.07,-388.16 1180.83,-386.17 1181.39,-391.74"/>
</g>
<!-- mt_237&#45;&gt;mt_442 -->
<g id="edge77" class="edge">
<title>mt_237&#45;&gt;mt_442</title>
<path fill="none" stroke="#4a5568" stroke-width="2" d="M484.58,-465.98C594.17,-462 795.99,-445.31 953.12,-379"/>
<path fill="none" stroke="#4a5568" stroke-width="2" d="M953.12,-377C1054.39,-334.26 1179.17,-311.08 1262.39,-299.4"/>
<polygon fill="#4a5568" stroke="#4a5568" stroke-width="2" points="1261.03,-302.42 1268.57,-298.55 1260.26,-296.87 1261.03,-302.42"/>
</g>
<!-- mt_239&#45;&gt;mt_240 -->
<g id="edge21" class="edge">
<title>mt_239&#45;&gt;mt_240</title>
<path fill="none" stroke="#4a5568" stroke-width="2" d="M457.55,-359.09C495.03,-344.93 547.44,-325.14 587.01,-310.19"/>
<polygon fill="#4a5568" stroke="#4a5568" stroke-width="2" points="586.43,-313.4 592.92,-307.96 584.45,-308.17 586.43,-313.4"/>
</g>
<!-- mt_239&#45;&gt;mt_243 -->
<g id="edge26" class="edge">
<title>mt_239&#45;&gt;mt_243</title>
<path fill="none" stroke="#4a5568" stroke-width="2" d="M426.05,-359.28C454.72,-327.38 515.1,-260.21 547.86,-223.77"/>
<polygon fill="#4a5568" stroke="#4a5568" stroke-width="2" points="548.73,-226.98 552,-219.16 544.57,-223.24 548.73,-226.98"/>
</g>
<!-- mt_239&#45;&gt;mt_361 -->
<g id="edge37" class="edge">
<title>mt_239&#45;&gt;mt_361</title>
<path fill="none" stroke="#4a5568" stroke-width="2" d="M396.56,-359.19C386.66,-346.19 373.11,-328.39 362.13,-313.97"/>
<polygon fill="#4a5568" stroke="#4a5568" stroke-width="2" points="365.57,-313.86 358.49,-309.19 361.11,-317.25 365.57,-313.86"/>
</g>
<!-- mt_238 -->
<g id="node22" class="node">
<title>mt_238</title>
<path fill="#34d399" stroke="#059669" stroke-width="2" d="M885.66,-486C885.66,-486 748.58,-486 748.58,-486 742.58,-486 736.58,-480 736.58,-474 736.58,-474 736.58,-462 736.58,-462 736.58,-456 742.58,-450 748.58,-450 748.58,-450 885.66,-450 885.66,-450 891.66,-450 897.66,-456 897.66,-462 897.66,-462 897.66,-474 897.66,-474 897.66,-480 891.66,-486 885.66,-486"/>
<text xml:space="preserve" text-anchor="middle" x="817.12" y="-471" font-family="Arial" font-size="10.00">mt#238</text>
<text xml:space="preserve" text-anchor="middle" x="817.12" y="-459" font-family="Arial" font-size="10.00">Phase 1: Implement Basic Subta</text>
</g>
<!-- mt_238&#45;&gt;mt_239 -->
<g id="edge17" class="edge">
<title>mt_238&#45;&gt;mt_239</title>
<path fill="none" stroke="#4a5568" stroke-width="2" d="M735.74,-449.4C668.22,-434.8 572.24,-414.05 501.98,-398.86"/>
<polygon fill="#4a5568" stroke="#4a5568" stroke-width="2" points="504.48,-396.54 496.07,-397.58 503.3,-402.01 504.48,-396.54"/>
</g>
<!-- mt_238&#45;&gt;mt_240 -->
<g id="edge20" class="edge">
<title>mt_238&#45;&gt;mt_240</title>
<path fill="none" stroke="#4a5568" stroke-width="2" d="M841.72,-449.12C860.89,-432.82 883.59,-407.05 879.12,-379"/>
<path fill="none" stroke="#4a5568" stroke-width="2" d="M879.12,-377C874.14,-345.76 799.4,-321.72 735.34,-306.72"/>
<polygon fill="#4a5568" stroke="#4a5568" stroke-width="2" points="737.76,-304.4 729.33,-305.34 736.51,-309.86 737.76,-304.4"/>
</g>
<!-- mt_238&#45;&gt;mt_243 -->
<g id="edge25" class="edge">
<title>mt_238&#45;&gt;mt_243</title>
<path fill="none" stroke="#4a5568" stroke-width="2" d="M879.12,-377C863.38,-278.19 744.37,-233.2 658.74,-213.45"/>
<polygon fill="#4a5568" stroke="#4a5568" stroke-width="2" points="660.9,-211.07 652.48,-212.05 659.68,-216.53 660.9,-211.07"/>
</g>
<!-- mt_238&#45;&gt;mt_441 -->
<g id="edge69" class="edge">
<title>mt_238&#45;&gt;mt_441</title>
<path fill="none" stroke="#4a5568" stroke-width="2" d="M898.56,-451.52C977.85,-436.45 1098.39,-413.54 1182.71,-397.51"/>
<polygon fill="#4a5568" stroke="#4a5568" stroke-width="2" points="1181.72,-400.55 1189.06,-396.31 1180.68,-395.05 1181.72,-400.55"/>
</g>
<!-- mt_238&#45;&gt;mt_442 -->
<g id="edge75" class="edge">
<title>mt_238&#45;&gt;mt_442</title>
<path fill="none" stroke="#4a5568" stroke-width="2" d="M839.31,-449.11C865.16,-429.15 909.85,-397.26 953.12,-379"/>
</g>
<!-- mt_240&#45;&gt;mt_243 -->
<g id="edge27" class="edge">
<title>mt_240&#45;&gt;mt_243</title>
<path fill="none" stroke="#4a5568" stroke-width="2" d="M628.35,-269.19C617.56,-256.19 602.8,-238.39 590.84,-223.97"/>
<polygon fill="#4a5568" stroke="#4a5568" stroke-width="2" points="594.07,-223.48 586.8,-219.11 589.76,-227.06 594.07,-223.48"/>
</g>
<!-- mt_004 -->
<g id="node24" class="node">
<title>mt_004</title>
<path fill="#34d399" stroke="#059669" stroke-width="2" d="M738.14,-396C738.14,-396 616.1,-396 616.1,-396 610.1,-396 604.1,-390 604.1,-384 604.1,-384 604.1,-372 604.1,-372 604.1,-366 610.1,-360 616.1,-360 616.1,-360 738.14,-360 738.14,-360 744.14,-360 750.14,-366 750.14,-372 750.14,-372 750.14,-384 750.14,-384 750.14,-390 744.14,-396 738.14,-396"/>
<text xml:space="preserve" text-anchor="middle" x="677.12" y="-381" font-family="Arial" font-size="10.00">mt#004</text>
<text xml:space="preserve" text-anchor="middle" x="677.12" y="-369" font-family="Arial" font-size="10.00">Add `&#45;&#45;task` Option to `sessio</text>
</g>
<!-- mt_004&#45;&gt;mt_240 -->
<g id="edge23" class="edge">
<title>mt_004&#45;&gt;mt_240</title>
<path fill="none" stroke="#4a5568" stroke-width="2" d="M670.24,-359.19C665.4,-346.67 658.84,-329.69 653.39,-315.57"/>
<polygon fill="#4a5568" stroke="#4a5568" stroke-width="2" points="656.58,-316.06 651.08,-309.61 651.35,-318.08 656.58,-316.06"/>
</g>
<!-- mt_179 -->
<g id="node26" class="node">
<title>mt_179</title>
<path fill="#e2e8f0" stroke="#64748b" stroke-width="2" d="M1701.94,-666C1701.94,-666 1564.31,-666 1564.31,-666 1558.31,-666 1552.31,-660 1552.31,-654 1552.31,-654 1552.31,-642 1552.31,-642 1552.31,-636 1558.31,-630 1564.31,-630 1564.31,-630 1701.94,-630 1701.94,-630 1707.94,-630 1713.94,-636 1713.94,-642 1713.94,-642 1713.94,-654 1713.94,-654 1713.94,-660 1707.94,-666 1701.94,-666"/>
<text xml:space="preserve" text-anchor="middle" x="1633.12" y="-651" font-family="Arial" font-size="10.00">mt#179</text>
<text xml:space="preserve" text-anchor="middle" x="1633.12" y="-639" font-family="Arial" font-size="10.00">Investigate Embeddings/RAG for</text>
</g>
<!-- mt_179&#45;&gt;mt_250 -->
<g id="edge31" class="edge">
<title>mt_179&#45;&gt;mt_250</title>
<path fill="none" stroke="#4a5568" stroke-width="2" d="M1678.72,-629.09C1714.75,-614.93 1765.14,-595.14 1803.18,-580.19"/>
<polygon fill="#4a5568" stroke="#4a5568" stroke-width="2" points="1802.35,-583.53 1808.77,-578 1800.3,-578.32 1802.35,-583.53"/>
</g>
<!-- mt_179&#45;&gt;mt_254 -->
<g id="edge39" class="edge">
<title>mt_179&#45;&gt;mt_254</title>
<path fill="none" stroke="#4a5568" stroke-width="2" d="M1551.44,-631.77C1467.43,-616.11 1336.96,-591.78 1250.31,-575.63"/>
<polygon fill="#4a5568" stroke="#4a5568" stroke-width="2" points="1252.37,-573.16 1243.99,-574.45 1251.34,-578.67 1252.37,-573.16"/>
</g>
<!-- mt_158 -->
<g id="node27" class="node">
<title>mt_158</title>
<path fill="#34d399" stroke="#059669" stroke-width="2" d="M1902.04,-666C1902.04,-666 1762.2,-666 1762.2,-666 1756.2,-666 1750.2,-660 1750.2,-654 1750.2,-654 1750.2,-642 1750.2,-642 1750.2,-636 1756.2,-630 1762.2,-630 1762.2,-630 1902.04,-630 1902.04,-630 1908.04,-630 1914.04,-636 1914.04,-642 1914.04,-642 1914.04,-654 1914.04,-654 1914.04,-660 1908.04,-666 1902.04,-666"/>
<text xml:space="preserve" text-anchor="middle" x="1832.12" y="-651" font-family="Arial" font-size="10.00">mt#158</text>
<text xml:space="preserve" text-anchor="middle" x="1832.12" y="-639" font-family="Arial" font-size="10.00">Implement Session&#45;Aware Versio</text>
</g>
<!-- mt_158&#45;&gt;mt_250 -->
<g id="edge32" class="edge">
<title>mt_158&#45;&gt;mt_250</title>
<path fill="none" stroke="#4a5568" stroke-width="2" d="M1837.18,-629.19C1840.74,-616.67 1845.56,-599.69 1849.57,-585.57"/>
<polygon fill="#4a5568" stroke="#4a5568" stroke-width="2" points="1851.75,-588.15 1851.24,-579.69 1846.36,-586.62 1851.75,-588.15"/>
</g>
<!-- mt_293 -->
<g id="node47" class="node">
<title>mt_293</title>
<path fill="#e2e8f0" stroke="#64748b" stroke-width="2" d="M2378.22,-576C2378.22,-576 2250.02,-576 2250.02,-576 2244.02,-576 2238.02,-570 2238.02,-564 2238.02,-564 2238.02,-552 2238.02,-552 2238.02,-546 2244.02,-540 2250.02,-540 2250.02,-540 2378.22,-540 2378.22,-540 2384.22,-540 2390.22,-546 2390.22,-552 2390.22,-552 2390.22,-564 2390.22,-564 2390.22,-570 2384.22,-576 2378.22,-576"/>
<text xml:space="preserve" text-anchor="middle" x="2314.12" y="-561" font-family="Arial" font-size="10.00">mt#293</text>
<text xml:space="preserve" text-anchor="middle" x="2314.12" y="-549" font-family="Arial" font-size="10.00">Add session chat interface con</text>
</g>
<!-- mt_158&#45;&gt;mt_293 -->
<g id="edge53" class="edge">
<title>mt_158&#45;&gt;mt_293</title>
<path fill="none" stroke="#4a5568" stroke-width="2" d="M1914.98,-631.87C2002.33,-615.93 2139.29,-590.92 2227.89,-574.74"/>
<polygon fill="#4a5568" stroke="#4a5568" stroke-width="2" points="2226.77,-577.79 2234.14,-573.6 2225.76,-572.29 2226.77,-577.79"/>
</g>
<!-- mt_349 -->
<g id="node54" class="node">
<title>mt_349</title>
<path fill="#e2e8f0" stroke="#64748b" stroke-width="2" d="M1149.76,-486C1149.76,-486 1020.49,-486 1020.49,-486 1014.49,-486 1008.49,-480 1008.49,-474 1008.49,-474 1008.49,-462 1008.49,-462 1008.49,-456 1014.49,-450 1020.49,-450 1020.49,-450 1149.76,-450 1149.76,-450 1155.76,-450 1161.76,-456 1161.76,-462 1161.76,-462 1161.76,-474 1161.76,-474 1161.76,-480 1155.76,-486 1149.76,-486"/>
<text xml:space="preserve" text-anchor="middle" x="1085.12" y="-471" font-family="Arial" font-size="10.00">mt#349</text>
<text xml:space="preserve" text-anchor="middle" x="1085.12" y="-459" font-family="Arial" font-size="10.00">Analyze Cursor Chat History to</text>
</g>
<!-- mt_158&#45;&gt;mt_349 -->
<g id="edge59" class="edge">
<title>mt_158&#45;&gt;mt_349</title>
<path fill="none" stroke="#4a5568" stroke-width="2" d="M1758.22,-629.04C1703.11,-615.34 1626.11,-595.56 1559.12,-576 1509.34,-561.47 1498.33,-553 1448.12,-540 1397.04,-526.77 1261.92,-501.26 1171.73,-484.7"/>
<polygon fill="#4a5568" stroke="#4a5568" stroke-width="2" points="1173.96,-482.26 1165.58,-483.57 1172.95,-487.77 1173.96,-482.26"/>
</g>
<!-- mt_251 -->
<g id="node28" class="node">
<title>mt_251</title>
<path fill="#e2e8f0" stroke="#64748b" stroke-width="2" d="M2416.1,-756C2416.1,-756 2290.14,-756 2290.14,-756 2284.14,-756 2278.14,-750 2278.14,-744 2278.14,-744 2278.14,-732 2278.14,-732 2278.14,-726 2284.14,-720 2290.14,-720 2290.14,-720 2416.1,-720 2416.1,-720 2422.1,-720 2428.1,-726 2428.1,-732 2428.1,-732 2428.1,-744 2428.1,-744 2428.1,-750 2422.1,-756 2416.1,-756"/>
<text xml:space="preserve" text-anchor="middle" x="2353.12" y="-741" font-family="Arial" font-size="10.00">mt#251</text>
<text xml:space="preserve" text-anchor="middle" x="2353.12" y="-729" font-family="Arial" font-size="10.00">Add Mobile/Voice Interface for</text>
</g>
<!-- mt_252 -->
<g id="node29" class="node">
<title>mt_252</title>
<path fill="#e2e8f0" stroke="#64748b" stroke-width="2" d="M2384.32,-666C2384.32,-666 2243.92,-666 2243.92,-666 2237.92,-666 2231.92,-660 2231.92,-654 2231.92,-654 2231.92,-642 2231.92,-642 2231.92,-636 2237.92,-630 2243.92,-630 2243.92,-630 2384.32,-630 2384.32,-630 2390.32,-630 2396.32,-636 2396.32,-642 2396.32,-642 2396.32,-654 2396.32,-654 2396.32,-660 2390.32,-666 2384.32,-666"/>
<text xml:space="preserve" text-anchor="middle" x="2314.12" y="-651" font-family="Arial" font-size="10.00">mt#252</text>
<text xml:space="preserve" text-anchor="middle" x="2314.12" y="-639" font-family="Arial" font-size="10.00">Design and implement task mana</text>
</g>
<!-- mt_251&#45;&gt;mt_252 -->
<g id="edge82" class="edge">
<title>mt_251&#45;&gt;mt_252</title>
<path fill="none" stroke="#4a5568" stroke-width="2" d="M2341.51,-710.8C2336.54,-699.59 2330.75,-686.53 2325.78,-675.31"/>
<polygon fill="#4a5568" stroke="#4a5568" stroke-width="2" points="2338.2,-710.24 2344,-716.42 2343.32,-707.98 2338.2,-710.24"/>
<polygon fill="#4a5568" stroke="#4a5568" stroke-width="2" points="2329.03,-675.73 2323.23,-669.55 2323.91,-678 2329.03,-675.73"/>
</g>
<!-- mt_251&#45;&gt;mt_293 -->
<g id="edge52" class="edge">
<title>mt_251&#45;&gt;mt_293</title>
<path fill="none" stroke="#4a5568" stroke-width="2" d="M2375.63,-719.08C2399.18,-698.03 2430.6,-661.92 2414.12,-630 2403.35,-609.14 2383.31,-593.08 2363.98,-581.55"/>
<polygon fill="#4a5568" stroke="#4a5568" stroke-width="2" points="2366.74,-579.9 2358.4,-578.39 2363.97,-584.77 2366.74,-579.9"/>
</g>
<!-- mt_252&#45;&gt;mt_293 -->
<g id="edge51" class="edge">
<title>mt_252&#45;&gt;mt_293</title>
<path fill="none" stroke="#4a5568" stroke-width="2" d="M2314.12,-629.19C2314.12,-616.79 2314.12,-600.02 2314.12,-585.98"/>
<polygon fill="#4a5568" stroke="#4a5568" stroke-width="2" points="2316.92,-587.81 2314.12,-579.81 2311.32,-587.81 2316.92,-587.81"/>
</g>
<!-- mt_279 -->
<g id="node30" class="node">
<title>mt_279</title>
<path fill="#e2e8f0" stroke="#64748b" stroke-width="2" d="M1589.76,-126C1589.76,-126 1460.48,-126 1460.48,-126 1454.48,-126 1448.48,-120 1448.48,-114 1448.48,-114 1448.48,-102 1448.48,-102 1448.48,-96 1454.48,-90 1460.48,-90 1460.48,-90 1589.76,-90 1589.76,-90 1595.76,-90 1601.76,-96 1601.76,-102 1601.76,-102 1601.76,-114 1601.76,-114 1601.76,-120 1595.76,-126 1589.76,-126"/>
<text xml:space="preserve" text-anchor="middle" x="1525.12" y="-111" font-family="Arial" font-size="10.00">mt#279</text>
<text xml:space="preserve" text-anchor="middle" x="1525.12" y="-99" font-family="Arial" font-size="10.00">Implement multi&#45;layered agent </text>
</g>
<!-- mt_327 -->
<g id="node73" class="node">
<title>mt_327</title>
<path fill="#e2e8f0" stroke="#64748b" stroke-width="2" d="M1588.38,-36C1588.38,-36 1461.86,-36 1461.86,-36 1455.86,-36 1449.86,-30 1449.86,-24 1449.86,-24 1449.86,-12 1449.86,-12 1449.86,-6 1455.86,0 1461.86,0 1461.86,0 1588.38,0 1588.38,0 1594.38,0 1600.38,-6 1600.38,-12 1600.38,-12 1600.38,-24 1600.38,-24 1600.38,-30 1594.38,-36 1588.38,-36"/>
<text xml:space="preserve" text-anchor="middle" x="1525.12" y="-21" font-family="Arial" font-size="10.00">mt#327</text>
<text xml:space="preserve" text-anchor="middle" x="1525.12" y="-9" font-family="Arial" font-size="10.00">Analyze and architect general </text>
</g>
<!-- mt_279&#45;&gt;mt_327 -->
<g id="edge86" class="edge">
<title>mt_279&#45;&gt;mt_327</title>
<path fill="none" stroke="#4a5568" stroke-width="2" d="M1525.12,-89.19C1525.12,-76.79 1525.12,-60.02 1525.12,-45.98"/>
<polygon fill="#4a5568" stroke="#4a5568" stroke-width="2" points="1527.92,-47.81 1525.12,-39.81 1522.32,-47.81 1527.92,-47.81"/>
</g>
<!-- mt_258 -->
<g id="node31" class="node">
<title>mt_258</title>
<path fill="#e2e8f0" stroke="#64748b" stroke-width="2" d="M1684.37,-306C1684.37,-306 1557.87,-306 1557.87,-306 1551.87,-306 1545.87,-300 1545.87,-294 1545.87,-294 1545.87,-282 1545.87,-282 1545.87,-276 1551.87,-270 1557.87,-270 1557.87,-270 1684.37,-270 1684.37,-270 1690.37,-270 1696.37,-276 1696.37,-282 1696.37,-282 1696.37,-294 1696.37,-294 1696.37,-300 1690.37,-306 1684.37,-306"/>
<text xml:space="preserve" text-anchor="middle" x="1621.12" y="-291" font-family="Arial" font-size="10.00">mt#258</text>
<text xml:space="preserve" text-anchor="middle" x="1621.12" y="-279" font-family="Arial" font-size="10.00">Design multi&#45;agent cybernetic </text>
</g>
<!-- mt_258&#45;&gt;mt_279 -->
<g id="edge34" class="edge">
<title>mt_258&#45;&gt;mt_279</title>
<path fill="none" stroke="#4a5568" stroke-width="2" d="M1393.12,-197C1384,-165.42 1412.07,-144.16 1444.64,-130.46"/>
<polygon fill="#4a5568" stroke="#4a5568" stroke-width="2" points="1444.23,-133.63 1450.64,-128.08 1442.17,-128.43 1444.23,-133.63"/>
</g>
<!-- mt_284 -->
<g id="node32" class="node">
<title>mt_284</title>
<path fill="#e2e8f0" stroke="#64748b" stroke-width="2" d="M1688.54,-216C1688.54,-216 1553.7,-216 1553.7,-216 1547.7,-216 1541.7,-210 1541.7,-204 1541.7,-204 1541.7,-192 1541.7,-192 1541.7,-186 1547.7,-180 1553.7,-180 1553.7,-180 1688.54,-180 1688.54,-180 1694.54,-180 1700.54,-186 1700.54,-192 1700.54,-192 1700.54,-204 1700.54,-204 1700.54,-210 1694.54,-216 1688.54,-216"/>
<text xml:space="preserve" text-anchor="middle" x="1621.12" y="-201" font-family="Arial" font-size="10.00">mt#284</text>
<text xml:space="preserve" text-anchor="middle" x="1621.12" y="-189" font-family="Arial" font-size="10.00">Integrate Task Graph System wi</text>
</g>
<!-- mt_258&#45;&gt;mt_284 -->
<g id="edge36" class="edge">
<title>mt_258&#45;&gt;mt_284</title>
<path fill="none" stroke="#4a5568" stroke-width="2" d="M1621.12,-269.19C1621.12,-256.79 1621.12,-240.02 1621.12,-225.98"/>
<polygon fill="#4a5568" stroke="#4a5568" stroke-width="2" points="1623.92,-227.81 1621.12,-219.81 1618.32,-227.81 1623.92,-227.81"/>
</g>
<!-- mt_258&#45;&gt;mt_327 -->
<g id="edge85" class="edge">
<title>mt_258&#45;&gt;mt_327</title>
<path fill="none" stroke="#4a5568" stroke-width="2" d="M1545,-285.65C1485.77,-279.78 1410.74,-260.05 1393.12,-199"/>
<path fill="none" stroke="#4a5568" stroke-width="2" d="M1393.12,-197C1379.16,-148.66 1400.44,-130.63 1430.12,-90 1444.36,-70.51 1465.49,-53.98 1484.2,-41.78"/>
<polygon fill="#4a5568" stroke="#4a5568" stroke-width="2" points="1484.22,-45.08 1489.49,-38.44 1481.23,-40.35 1484.22,-45.08"/>
</g>
<!-- mt_468 -->
<g id="node74" class="node">
<title>mt_468</title>
<path fill="#e2e8f0" stroke="#64748b" stroke-width="2" d="M1879.31,-216C1879.31,-216 1748.93,-216 1748.93,-216 1742.93,-216 1736.93,-210 1736.93,-204 1736.93,-204 1736.93,-192 1736.93,-192 1736.93,-186 1742.93,-180 1748.93,-180 1748.93,-180 1879.31,-180 1879.31,-180 1885.31,-180 1891.31,-186 1891.31,-192 1891.31,-192 1891.31,-204 1891.31,-204 1891.31,-210 1885.31,-216 1879.31,-216"/>
<text xml:space="preserve" text-anchor="middle" x="1814.12" y="-201" font-family="Arial" font-size="10.00">mt#468</text>
<text xml:space="preserve" text-anchor="middle" x="1814.12" y="-189" font-family="Arial" font-size="10.00">Implement Tool Call Supervisio</text>
</g>
<!-- mt_258&#45;&gt;mt_468 -->
<g id="edge88" class="edge">
<title>mt_258&#45;&gt;mt_468</title>
<path fill="none" stroke="#4a5568" stroke-width="2" d="M1660.18,-269.19C1690.81,-255.22 1733.6,-235.72 1766.29,-220.81"/>
<polygon fill="#4a5568" stroke="#4a5568" stroke-width="2" points="1765.92,-224.05 1772.04,-218.19 1763.6,-218.96 1765.92,-224.05"/>
</g>
<!-- mt_260 -->
<g id="node33" class="node">
<title>mt_260</title>
<path fill="#e2e8f0" stroke="#64748b" stroke-width="2" d="M1782.7,-126C1782.7,-126 1649.54,-126 1649.54,-126 1643.54,-126 1637.54,-120 1637.54,-114 1637.54,-114 1637.54,-102 1637.54,-102 1637.54,-96 1643.54,-90 1649.54,-90 1649.54,-90 1782.7,-90 1782.7,-90 1788.7,-90 1794.7,-96 1794.7,-102 1794.7,-102 1794.7,-114 1794.7,-114 1794.7,-120 1788.7,-126 1782.7,-126"/>
<text xml:space="preserve" text-anchor="middle" x="1716.12" y="-111" font-family="Arial" font-size="10.00">mt#260</text>
<text xml:space="preserve" text-anchor="middle" x="1716.12" y="-99" font-family="Arial" font-size="10.00">Implement prompt templates for</text>
</g>
<!-- mt_284&#45;&gt;mt_260 -->
<g id="edge45" class="edge">
<title>mt_284&#45;&gt;mt_260</title>
<path fill="none" stroke="#4a5568" stroke-width="2" d="M1647.26,-172.79C1660.64,-160.39 1676.89,-145.34 1690.24,-132.98"/>
<polygon fill="#4a5568" stroke="#4a5568" stroke-width="2" points="1646.53,-169.64 1642.57,-177.13 1650.34,-173.75 1646.53,-169.64"/>
<polygon fill="#4a5568" stroke="#4a5568" stroke-width="2" points="1690.74,-136.33 1694.7,-128.84 1686.93,-132.22 1690.74,-136.33"/>
</g>
<!-- mt_260&#45;&gt;mt_327 -->
<g id="edge87" class="edge">
<title>mt_260&#45;&gt;mt_327</title>
<path fill="none" stroke="#4a5568" stroke-width="2" d="M1677.47,-89.19C1647.15,-75.22 1604.81,-55.72 1572.46,-40.81"/>
<polygon fill="#4a5568" stroke="#4a5568" stroke-width="2" points="1575.23,-39 1566.79,-38.2 1572.89,-44.09 1575.23,-39"/>
</g>
<!-- mt_253 -->
<g id="node36" class="node">
<title>mt_253</title>
<path fill="#34d399" stroke="#059669" stroke-width="2" d="M923.31,-666C923.31,-666 792.94,-666 792.94,-666 786.94,-666 780.94,-660 780.94,-654 780.94,-654 780.94,-642 780.94,-642 780.94,-636 786.94,-630 792.94,-630 792.94,-630 923.31,-630 923.31,-630 929.31,-630 935.31,-636 935.31,-642 935.31,-642 935.31,-654 935.31,-654 935.31,-660 929.31,-666 923.31,-666"/>
<text xml:space="preserve" text-anchor="middle" x="858.12" y="-651" font-family="Arial" font-size="10.00">mt#253</text>
<text xml:space="preserve" text-anchor="middle" x="858.12" y="-639" font-family="Arial" font-size="10.00">Implement Task Similarity Sear</text>
</g>
<!-- mt_253&#45;&gt;mt_254 -->
<g id="edge40" class="edge">
<title>mt_253&#45;&gt;mt_254</title>
<path fill="none" stroke="#4a5568" stroke-width="2" d="M919.8,-629.09C969.18,-614.75 1038.48,-594.62 1090.16,-579.61"/>
<polygon fill="#4a5568" stroke="#4a5568" stroke-width="2" points="1089.46,-582.73 1096.36,-577.81 1087.9,-577.35 1089.46,-582.73"/>
</g>
<!-- mt_253&#45;&gt;mt_442 -->
<g id="edge79" class="edge">
<title>mt_253&#45;&gt;mt_442</title>
<path fill="none" stroke="#4a5568" stroke-width="2" d="M864.63,-629.16C875.44,-599.49 897.73,-538.11 916.12,-486 932.87,-438.55 906.76,-398.56 953.12,-379"/>
</g>
<!-- mt_273 -->
<g id="node37" class="node">
<title>mt_273</title>
<path fill="#e2e8f0" stroke="#64748b" stroke-width="2" d="M3317.82,-666C3317.82,-666 3172.42,-666 3172.42,-666 3166.42,-666 3160.42,-660 3160.42,-654 3160.42,-654 3160.42,-642 3160.42,-642 3160.42,-636 3166.42,-630 3172.42,-630 3172.42,-630 3317.82,-630 3317.82,-630 3323.82,-630 3329.82,-636 3329.82,-642 3329.82,-642 3329.82,-654 3329.82,-654 3329.82,-660 3323.82,-666 3317.82,-666"/>
<text xml:space="preserve" text-anchor="middle" x="3245.12" y="-651" font-family="Arial" font-size="10.00">mt#273</text>
<text xml:space="preserve" text-anchor="middle" x="3245.12" y="-639" font-family="Arial" font-size="10.00">Implement AI&#45;Powered PR Conten</text>
</g>
<!-- mt_203 -->
<g id="node38" class="node">
<title>mt_203</title>
<path fill="#34d399" stroke="#059669" stroke-width="2" d="M3116.6,-756C3116.6,-756 2965.65,-756 2965.65,-756 2959.65,-756 2953.65,-750 2953.65,-744 2953.65,-744 2953.65,-732 2953.65,-732 2953.65,-726 2959.65,-720 2965.65,-720 2965.65,-720 3116.6,-720 3116.6,-720 3122.6,-720 3128.6,-726 3128.6,-732 3128.6,-732 3128.6,-744 3128.6,-744 3128.6,-750 3122.6,-756 3116.6,-756"/>
<text xml:space="preserve" text-anchor="middle" x="3041.12" y="-741" font-family="Arial" font-size="10.00">mt#203</text>
<text xml:space="preserve" text-anchor="middle" x="3041.12" y="-729" font-family="Arial" font-size="10.00">Improve Session PR Command Out</text>
</g>
<!-- mt_203&#45;&gt;mt_273 -->
<g id="edge42" class="edge">
<title>mt_203&#45;&gt;mt_273</title>
<path fill="none" stroke="#4a5568" stroke-width="2" d="M3082.4,-719.19C3114.92,-705.16 3160.39,-685.55 3195,-670.62"/>
<polygon fill="#4a5568" stroke="#4a5568" stroke-width="2" points="3194.53,-673.87 3200.77,-668.13 3192.32,-668.73 3194.53,-673.87"/>
</g>
<!-- mt_010 -->
<g id="node39" class="node">
<title>mt_010</title>
<path fill="#34d399" stroke="#059669" stroke-width="2" d="M3313.94,-756C3313.94,-756 3176.31,-756 3176.31,-756 3170.31,-756 3164.31,-750 3164.31,-744 3164.31,-744 3164.31,-732 3164.31,-732 3164.31,-726 3170.31,-720 3176.31,-720 3176.31,-720 3313.94,-720 3313.94,-720 3319.94,-720 3325.94,-726 3325.94,-732 3325.94,-732 3325.94,-744 3325.94,-744 3325.94,-750 3319.94,-756 3313.94,-756"/>
<text xml:space="preserve" text-anchor="middle" x="3245.12" y="-741" font-family="Arial" font-size="10.00">mt#010</text>
<text xml:space="preserve" text-anchor="middle" x="3245.12" y="-729" font-family="Arial" font-size="10.00">~~Enhance `git pr` Command to </text>
</g>
<!-- mt_010&#45;&gt;mt_273 -->
<g id="edge43" class="edge">
<title>mt_010&#45;&gt;mt_273</title>
<path fill="none" stroke="#4a5568" stroke-width="2" d="M3245.12,-719.19C3245.12,-706.79 3245.12,-690.02 3245.12,-675.98"/>
<polygon fill="#4a5568" stroke="#4a5568" stroke-width="2" points="3247.92,-677.81 3245.12,-669.81 3242.32,-677.81 3247.92,-677.81"/>
</g>
<!-- mt_025 -->
<g id="node40" class="node">
<title>mt_025</title>
<path fill="#34d399" stroke="#059669" stroke-width="2" d="M3522.49,-756C3522.49,-756 3373.75,-756 3373.75,-756 3367.75,-756 3361.75,-750 3361.75,-744 3361.75,-744 3361.75,-732 3361.75,-732 3361.75,-726 3367.75,-720 3373.75,-720 3373.75,-720 3522.49,-720 3522.49,-720 3528.49,-720 3534.49,-726 3534.49,-732 3534.49,-732 3534.49,-744 3534.49,-744 3534.49,-750 3528.49,-756 3522.49,-756"/>
<text xml:space="preserve" text-anchor="middle" x="3448.12" y="-741" font-family="Arial" font-size="10.00">mt#025</text>
<text xml:space="preserve" text-anchor="middle" x="3448.12" y="-729" font-family="Arial" font-size="10.00">Add PR Merging Commands for Se</text>
</g>
<!-- mt_025&#45;&gt;mt_273 -->
<g id="edge44" class="edge">
<title>mt_025&#45;&gt;mt_273</title>
<path fill="none" stroke="#4a5568" stroke-width="2" d="M3407.04,-719.19C3374.68,-705.16 3329.43,-685.55 3295,-670.62"/>
<polygon fill="#4a5568" stroke="#4a5568" stroke-width="2" points="3297.72,-668.75 3289.26,-668.14 3295.49,-673.89 3297.72,-668.75"/>
</g>
<!-- mt_277 -->
<g id="node44" class="node">
<title>mt_277</title>
<path fill="#e2e8f0" stroke="#64748b" stroke-width="2" d="M3719.59,-666C3719.59,-666 3578.65,-666 3578.65,-666 3572.65,-666 3566.65,-660 3566.65,-654 3566.65,-654 3566.65,-642 3566.65,-642 3566.65,-636 3572.65,-630 3578.65,-630 3578.65,-630 3719.59,-630 3719.59,-630 3725.59,-630 3731.59,-636 3731.59,-642 3731.59,-642 3731.59,-654 3731.59,-654 3731.59,-660 3725.59,-666 3719.59,-666"/>
<text xml:space="preserve" text-anchor="middle" x="3649.12" y="-651" font-family="Arial" font-size="10.00">mt#277</text>
<text xml:space="preserve" text-anchor="middle" x="3649.12" y="-639" font-family="Arial" font-size="10.00">Implement Stacked PR Workflow </text>
</g>
<!-- mt_025&#45;&gt;mt_277 -->
<g id="edge50" class="edge">
<title>mt_025&#45;&gt;mt_277</title>
<path fill="none" stroke="#4a5568" stroke-width="2" d="M3488.8,-719.19C3520.84,-705.16 3565.64,-685.55 3599.74,-670.62"/>
<polygon fill="#4a5568" stroke="#4a5568" stroke-width="2" points="3599.18,-673.92 3605.39,-668.15 3596.94,-668.79 3599.18,-673.92"/>
</g>
<!-- mt_262 -->
<g id="node41" class="node">
<title>mt_262</title>
<path fill="#e2e8f0" stroke="#64748b" stroke-width="2" d="M4006.82,-666C4006.82,-666 3881.42,-666 3881.42,-666 3875.42,-666 3869.42,-660 3869.42,-654 3869.42,-654 3869.42,-642 3869.42,-642 3869.42,-636 3875.42,-630 3881.42,-630 3881.42,-630 4006.82,-630 4006.82,-630 4012.82,-630 4018.82,-636 4018.82,-642 4018.82,-642 4018.82,-654 4018.82,-654 4018.82,-660 4012.82,-666 4006.82,-666"/>
<text xml:space="preserve" text-anchor="middle" x="3944.12" y="-651" font-family="Arial" font-size="10.00">mt#262</text>
<text xml:space="preserve" text-anchor="middle" x="3944.12" y="-639" font-family="Arial" font-size="10.00">Explore consolidating ESLint r</text>
</g>
<!-- mt_178 -->
<g id="node42" class="node">
<title>mt_178</title>
<path fill="#34d399" stroke="#059669" stroke-width="2" d="M4112.54,-756C4112.54,-756 3977.7,-756 3977.7,-756 3971.7,-756 3965.7,-750 3965.7,-744 3965.7,-744 3965.7,-732 3965.7,-732 3965.7,-726 3971.7,-720 3977.7,-720 3977.7,-720 4112.54,-720 4112.54,-720 4118.54,-720 4124.54,-726 4124.54,-732 4124.54,-732 4124.54,-744 4124.54,-744 4124.54,-750 4118.54,-756 4112.54,-756"/>
<text xml:space="preserve" text-anchor="middle" x="4045.12" y="-741" font-family="Arial" font-size="10.00">mt#178</text>
<text xml:space="preserve" text-anchor="middle" x="4045.12" y="-729" font-family="Arial" font-size="10.00">Establish Codemod Best Practic</text>
</g>
<!-- mt_178&#45;&gt;mt_262 -->
<g id="edge46" class="edge">
<title>mt_178&#45;&gt;mt_262</title>
<path fill="none" stroke="#4a5568" stroke-width="2" d="M4024.68,-719.19C4009.35,-705.83 3988.2,-687.41 3971.42,-672.79"/>
<polygon fill="#4a5568" stroke="#4a5568" stroke-width="2" points="3974.68,-671.91 3966.81,-668.77 3971,-676.14 3974.68,-671.91"/>
</g>
<!-- mt_268 -->
<g id="node43" class="node">
<title>mt_268</title>
<path fill="#e2e8f0" stroke="#64748b" stroke-width="2" d="M4219.7,-666C4219.7,-666 4066.54,-666 4066.54,-666 4060.54,-666 4054.54,-660 4054.54,-654 4054.54,-654 4054.54,-642 4054.54,-642 4054.54,-636 4060.54,-630 4066.54,-630 4066.54,-630 4219.7,-630 4219.7,-630 4225.7,-630 4231.7,-636 4231.7,-642 4231.7,-642 4231.7,-654 4231.7,-654 4231.7,-660 4225.7,-666 4219.7,-666"/>
<text xml:space="preserve" text-anchor="middle" x="4143.12" y="-651" font-family="Arial" font-size="10.00">mt#268</text>
<text xml:space="preserve" text-anchor="middle" x="4143.12" y="-639" font-family="Arial" font-size="10.00">Complete AST&#45;Only Codemod Fram</text>
</g>
<!-- mt_178&#45;&gt;mt_268 -->
<g id="edge47" class="edge">
<title>mt_178&#45;&gt;mt_268</title>
<path fill="none" stroke="#4a5568" stroke-width="2" d="M4064.95,-719.19C4079.83,-705.83 4100.35,-687.41 4116.63,-672.79"/>
<polygon fill="#4a5568" stroke="#4a5568" stroke-width="2" points="4116.98,-676.23 4121.07,-668.8 4113.24,-672.07 4116.98,-676.23"/>
</g>
<!-- mt_144 -->
<g id="node45" class="node">
<title>mt_144</title>
<path fill="#34d399" stroke="#059669" stroke-width="2" d="M3715.98,-756C3715.98,-756 3582.26,-756 3582.26,-756 3576.26,-756 3570.26,-750 3570.26,-744 3570.26,-744 3570.26,-732 3570.26,-732 3570.26,-726 3576.26,-720 3582.26,-720 3582.26,-720 3715.98,-720 3715.98,-720 3721.98,-720 3727.98,-726 3727.98,-732 3727.98,-732 3727.98,-744 3727.98,-744 3727.98,-750 3721.98,-756 3715.98,-756"/>
<text xml:space="preserve" text-anchor="middle" x="3649.12" y="-741" font-family="Arial" font-size="10.00">mt#144</text>
<text xml:space="preserve" text-anchor="middle" x="3649.12" y="-729" font-family="Arial" font-size="10.00">Fix Session PR and Git Prepare</text>
</g>
<!-- mt_144&#45;&gt;mt_277 -->
<g id="edge48" class="edge">
<title>mt_144&#45;&gt;mt_277</title>
<path fill="none" stroke="#4a5568" stroke-width="2" d="M3649.12,-719.19C3649.12,-706.79 3649.12,-690.02 3649.12,-675.98"/>
<polygon fill="#4a5568" stroke="#4a5568" stroke-width="2" points="3651.92,-677.81 3649.12,-669.81 3646.32,-677.81 3651.92,-677.81"/>
</g>
<!-- mt_174 -->
<g id="node46" class="node">
<title>mt_174</title>
<path fill="#34d399" stroke="#059669" stroke-width="2" d="M3917.86,-756C3917.86,-756 3776.38,-756 3776.38,-756 3770.38,-756 3764.38,-750 3764.38,-744 3764.38,-744 3764.38,-732 3764.38,-732 3764.38,-726 3770.38,-720 3776.38,-720 3776.38,-720 3917.86,-720 3917.86,-720 3923.86,-720 3929.86,-726 3929.86,-732 3929.86,-732 3929.86,-744 3929.86,-744 3929.86,-750 3923.86,-756 3917.86,-756"/>
<text xml:space="preserve" text-anchor="middle" x="3847.12" y="-741" font-family="Arial" font-size="10.00">mt#174</text>
<text xml:space="preserve" text-anchor="middle" x="3847.12" y="-729" font-family="Arial" font-size="10.00">Review Session PR Workflow Arc</text>
</g>
<!-- mt_174&#45;&gt;mt_277 -->
<g id="edge49" class="edge">
<title>mt_174&#45;&gt;mt_277</title>
<path fill="none" stroke="#4a5568" stroke-width="2" d="M3807.05,-719.19C3775.49,-705.16 3731.36,-685.55 3697.77,-670.62"/>
<polygon fill="#4a5568" stroke="#4a5568" stroke-width="2" points="3700.68,-668.85 3692.23,-668.16 3698.41,-673.97 3700.68,-668.85"/>
</g>
<!-- mt_307 -->
<g id="node49" class="node">
<title>mt_307</title>
<path fill="#34d399" stroke="#059669" stroke-width="2" d="M1305.27,-666C1305.27,-666 1180.97,-666 1180.97,-666 1174.97,-666 1168.97,-660 1168.97,-654 1168.97,-654 1168.97,-642 1168.97,-642 1168.97,-636 1174.97,-630 1180.97,-630 1180.97,-630 1305.27,-630 1305.27,-630 1311.27,-630 1317.27,-636 1317.27,-642 1317.27,-642 1317.27,-654 1317.27,-654 1317.27,-660 1311.27,-666 1305.27,-666"/>
<text xml:space="preserve" text-anchor="middle" x="1243.12" y="-651" font-family="Arial" font-size="10.00">mt#307</text>
<text xml:space="preserve" text-anchor="middle" x="1243.12" y="-639" font-family="Arial" font-size="10.00">Explore adding session lint co</text>
</g>
<!-- mt_307&#45;&gt;mt_321 -->
<g id="edge54" class="edge">
<title>mt_307&#45;&gt;mt_321</title>
<path fill="none" stroke="#4a5568" stroke-width="2" d="M1265.38,-629.19C1282.23,-615.71 1305.52,-597.08 1323.87,-582.4"/>
<polygon fill="#4a5568" stroke="#4a5568" stroke-width="2" points="1324.03,-585.86 1328.53,-578.67 1320.53,-581.48 1324.03,-585.86"/>
</g>
<!-- mt_324 -->
<g id="node50" class="node">
<title>mt_324</title>
<path fill="#e2e8f0" stroke="#64748b" stroke-width="2" d="M4509.98,-666C4509.98,-666 4376.26,-666 4376.26,-666 4370.26,-666 4364.26,-660 4364.26,-654 4364.26,-654 4364.26,-642 4364.26,-642 4364.26,-636 4370.26,-630 4376.26,-630 4376.26,-630 4509.98,-630 4509.98,-630 4515.98,-630 4521.98,-636 4521.98,-642 4521.98,-642 4521.98,-654 4521.98,-654 4521.98,-660 4515.98,-666 4509.98,-666"/>
<text xml:space="preserve" text-anchor="middle" x="4443.12" y="-651" font-family="Arial" font-size="10.00">mt#324</text>
<text xml:space="preserve" text-anchor="middle" x="4443.12" y="-639" font-family="Arial" font-size="10.00">Add MCP Client Registration Fu</text>
</g>
<!-- mt_047 -->
<g id="node51" class="node">
<title>mt_047</title>
<path fill="#34d399" stroke="#059669" stroke-width="2" d="M4312.64,-756C4312.64,-756 4175.6,-756 4175.6,-756 4169.6,-756 4163.6,-750 4163.6,-744 4163.6,-744 4163.6,-732 4163.6,-732 4163.6,-726 4169.6,-720 4175.6,-720 4175.6,-720 4312.64,-720 4312.64,-720 4318.64,-720 4324.64,-726 4324.64,-732 4324.64,-732 4324.64,-744 4324.64,-744 4324.64,-750 4318.64,-756 4312.64,-756"/>
<text xml:space="preserve" text-anchor="middle" x="4244.12" y="-741" font-family="Arial" font-size="10.00">mt#047</text>
<text xml:space="preserve" text-anchor="middle" x="4244.12" y="-729" font-family="Arial" font-size="10.00">Configure MCP Server in Minsky</text>
</g>
<!-- mt_047&#45;&gt;mt_324 -->
<g id="edge56" class="edge">
<title>mt_047&#45;&gt;mt_324</title>
<path fill="none" stroke="#4a5568" stroke-width="2" d="M4284.39,-719.19C4316.11,-705.16 4360.47,-685.55 4394.23,-670.62"/>
<polygon fill="#4a5568" stroke="#4a5568" stroke-width="2" points="4393.62,-673.95 4399.8,-668.16 4391.35,-668.83 4393.62,-673.95"/>
</g>
<!-- mt_282 -->
<g id="node52" class="node">
<title>mt_282</title>
<path fill="#34d399" stroke="#059669" stroke-width="2" d="M4513.3,-756C4513.3,-756 4372.94,-756 4372.94,-756 4366.94,-756 4360.94,-750 4360.94,-744 4360.94,-744 4360.94,-732 4360.94,-732 4360.94,-726 4366.94,-720 4372.94,-720 4372.94,-720 4513.3,-720 4513.3,-720 4519.3,-720 4525.3,-726 4525.3,-732 4525.3,-732 4525.3,-744 4525.3,-744 4525.3,-750 4519.3,-756 4513.3,-756"/>
<text xml:space="preserve" text-anchor="middle" x="4443.12" y="-741" font-family="Arial" font-size="10.00">mt#282</text>
<text xml:space="preserve" text-anchor="middle" x="4443.12" y="-729" font-family="Arial" font-size="10.00">Port MCP Server from FastMCP t</text>
</g>
<!-- mt_282&#45;&gt;mt_324 -->
<g id="edge57" class="edge">
<title>mt_282&#45;&gt;mt_324</title>
<path fill="none" stroke="#4a5568" stroke-width="2" d="M4443.12,-719.19C4443.12,-706.79 4443.12,-690.02 4443.12,-675.98"/>
<polygon fill="#4a5568" stroke="#4a5568" stroke-width="2" points="4445.92,-677.81 4443.12,-669.81 4440.32,-677.81 4445.92,-677.81"/>
</g>
<!-- mt_286 -->
<g id="node53" class="node">
<title>mt_286</title>
<path fill="#34d399" stroke="#059669" stroke-width="2" d="M4708.53,-756C4708.53,-756 4573.71,-756 4573.71,-756 4567.71,-756 4561.71,-750 4561.71,-744 4561.71,-744 4561.71,-732 4561.71,-732 4561.71,-726 4567.71,-720 4573.71,-720 4573.71,-720 4708.53,-720 4708.53,-720 4714.53,-720 4720.53,-726 4720.53,-732 4720.53,-732 4720.53,-744 4720.53,-744 4720.53,-750 4714.53,-756 4708.53,-756"/>
<text xml:space="preserve" text-anchor="middle" x="4641.12" y="-741" font-family="Arial" font-size="10.00">mt#286</text>
<text xml:space="preserve" text-anchor="middle" x="4641.12" y="-729" font-family="Arial" font-size="10.00">Fix MCP Server and CLI Issues </text>
</g>
<!-- mt_286&#45;&gt;mt_324 -->
<g id="edge58" class="edge">
<title>mt_286&#45;&gt;mt_324</title>
<path fill="none" stroke="#4a5568" stroke-width="2" d="M4601.05,-719.19C4569.49,-705.16 4525.36,-685.55 4491.77,-670.62"/>
<polygon fill="#4a5568" stroke="#4a5568" stroke-width="2" points="4494.68,-668.85 4486.23,-668.16 4492.41,-673.97 4494.68,-668.85"/>
</g>
<!-- mt_349&#45;&gt;mt_441 -->
<g id="edge65" class="edge">
<title>mt_349&#45;&gt;mt_441</title>
<path fill="none" stroke="#4a5568" stroke-width="2" d="M1124.58,-449.19C1155.54,-435.22 1198.76,-415.72 1231.79,-400.81"/>
<polygon fill="#4a5568" stroke="#4a5568" stroke-width="2" points="1231.48,-404.02 1237.62,-398.18 1229.18,-398.92 1231.48,-404.02"/>
</g>
<!-- mt_349&#45;&gt;mt_442 -->
<g id="edge72" class="edge">
<title>mt_349&#45;&gt;mt_442</title>
<path fill="none" stroke="#4a5568" stroke-width="2" d="M1033.46,-449.15C980.24,-429.08 910.62,-396.94 953.12,-379"/>
</g>
<!-- mt_350 -->
<g id="node55" class="node">
<title>mt_350</title>
<path fill="#e2e8f0" stroke="#64748b" stroke-width="2" d="M4906.43,-666C4906.43,-666 4763.81,-666 4763.81,-666 4757.81,-666 4751.81,-660 4751.81,-654 4751.81,-654 4751.81,-642 4751.81,-642 4751.81,-636 4757.81,-630 4763.81,-630 4763.81,-630 4906.43,-630 4906.43,-630 4912.43,-630 4918.43,-636 4918.43,-642 4918.43,-642 4918.43,-654 4918.43,-654 4918.43,-660 4912.43,-666 4906.43,-666"/>
<text xml:space="preserve" text-anchor="middle" x="4835.12" y="-651" font-family="Arial" font-size="10.00">mt#350</text>
<text xml:space="preserve" text-anchor="middle" x="4835.12" y="-639" font-family="Arial" font-size="10.00">Explore Active Sessions Comman</text>
</g>
<!-- mt_229 -->
<g id="node56" class="node">
<title>mt_229</title>
<path fill="#34d399" stroke="#059669" stroke-width="2" d="M4901.99,-756C4901.99,-756 4768.25,-756 4768.25,-756 4762.25,-756 4756.25,-750 4756.25,-744 4756.25,-744 4756.25,-732 4756.25,-732 4756.25,-726 4762.25,-720 4768.25,-720 4768.25,-720 4901.99,-720 4901.99,-720 4907.99,-720 4913.99,-726 4913.99,-732 4913.99,-732 4913.99,-744 4913.99,-744 4913.99,-750 4907.99,-756 4901.99,-756"/>
<text xml:space="preserve" text-anchor="middle" x="4835.12" y="-741" font-family="Arial" font-size="10.00">mt#229</text>
<text xml:space="preserve" text-anchor="middle" x="4835.12" y="-729" font-family="Arial" font-size="10.00">Evaluate mandatory task&#45;sessio</text>
</g>
<!-- mt_229&#45;&gt;mt_350 -->
<g id="edge60" class="edge">
<title>mt_229&#45;&gt;mt_350</title>
<path fill="none" stroke="#4a5568" stroke-width="2" d="M4835.12,-719.19C4835.12,-706.79 4835.12,-690.02 4835.12,-675.98"/>
<polygon fill="#4a5568" stroke="#4a5568" stroke-width="2" points="4837.92,-677.81 4835.12,-669.81 4832.32,-677.81 4837.92,-677.81"/>
</g>
<!-- mt_363 -->
<g id="node58" class="node">
<title>mt_363</title>
<path fill="#e2e8f0" stroke="#64748b" stroke-width="2" d="M5199.38,-666C5199.38,-666 5062.86,-666 5062.86,-666 5056.86,-666 5050.86,-660 5050.86,-654 5050.86,-654 5050.86,-642 5050.86,-642 5050.86,-636 5056.86,-630 5062.86,-630 5062.86,-630 5199.38,-630 5199.38,-630 5205.38,-630 5211.38,-636 5211.38,-642 5211.38,-642 5211.38,-654 5211.38,-654 5211.38,-660 5205.38,-666 5199.38,-666"/>
<text xml:space="preserve" text-anchor="middle" x="5131.12" y="-651" font-family="Arial" font-size="10.00">mt#363</text>
<text xml:space="preserve" text-anchor="middle" x="5131.12" y="-639" font-family="Arial" font-size="10.00">Implement Linear Backend for M</text>
</g>
<!-- mt_356 -->
<g id="node59" class="node">
<title>mt_356</title>
<path fill="#34d399" stroke="#059669" stroke-width="2" d="M5100.48,-756C5100.48,-756 4961.76,-756 4961.76,-756 4955.76,-756 4949.76,-750 4949.76,-744 4949.76,-744 4949.76,-732 4949.76,-732 4949.76,-726 4955.76,-720 4961.76,-720 4961.76,-720 5100.48,-720 5100.48,-720 5106.48,-720 5112.48,-726 5112.48,-732 5112.48,-732 5112.48,-744 5112.48,-744 5112.48,-750 5106.48,-756 5100.48,-756"/>
<text xml:space="preserve" text-anchor="middle" x="5031.12" y="-741" font-family="Arial" font-size="10.00">mt#356</text>
<text xml:space="preserve" text-anchor="middle" x="5031.12" y="-729" font-family="Arial" font-size="10.00">Implement Multi&#45;Backend Task S</text>
</g>
<!-- mt_356&#45;&gt;mt_363 -->
<g id="edge62" class="edge">
<title>mt_356&#45;&gt;mt_363</title>
<path fill="none" stroke="#4a5568" stroke-width="2" d="M5051.36,-719.19C5066.54,-705.83 5087.47,-687.41 5104.09,-672.79"/>
<polygon fill="#4a5568" stroke="#4a5568" stroke-width="2" points="5104.49,-676.17 5108.64,-668.78 5100.79,-671.96 5104.49,-676.17"/>
</g>
<!-- mt_357 -->
<g id="node60" class="node">
<title>mt_357</title>
<path fill="#34d399" stroke="#059669" stroke-width="2" d="M5293.71,-756C5293.71,-756 5160.53,-756 5160.53,-756 5154.53,-756 5148.53,-750 5148.53,-744 5148.53,-744 5148.53,-732 5148.53,-732 5148.53,-726 5154.53,-720 5160.53,-720 5160.53,-720 5293.71,-720 5293.71,-720 5299.71,-720 5305.71,-726 5305.71,-732 5305.71,-732 5305.71,-744 5305.71,-744 5305.71,-750 5299.71,-756 5293.71,-756"/>
<text xml:space="preserve" text-anchor="middle" x="5227.12" y="-741" font-family="Arial" font-size="10.00">mt#357</text>
<text xml:space="preserve" text-anchor="middle" x="5227.12" y="-729" font-family="Arial" font-size="10.00">Integrate GitHub Issues Backen</text>
</g>
<!-- mt_357&#45;&gt;mt_363 -->
<g id="edge63" class="edge">
<title>mt_357&#45;&gt;mt_363</title>
<path fill="none" stroke="#4a5568" stroke-width="2" d="M5207.69,-719.19C5193.25,-705.95 5173.38,-687.74 5157.5,-673.18"/>
<polygon fill="#4a5568" stroke="#4a5568" stroke-width="2" points="5160.54,-672.17 5152.75,-668.83 5156.76,-676.3 5160.54,-672.17"/>
</g>
<!-- mt_398 -->
<g id="node61" class="node">
<title>mt_398</title>
<path fill="#e2e8f0" stroke="#64748b" stroke-width="2" d="M5491.75,-666C5491.75,-666 5362.49,-666 5362.49,-666 5356.49,-666 5350.49,-660 5350.49,-654 5350.49,-654 5350.49,-642 5350.49,-642 5350.49,-636 5356.49,-630 5362.49,-630 5362.49,-630 5491.75,-630 5491.75,-630 5497.75,-630 5503.75,-636 5503.75,-642 5503.75,-642 5503.75,-654 5503.75,-654 5503.75,-660 5497.75,-666 5491.75,-666"/>
<text xml:space="preserve" text-anchor="middle" x="5427.12" y="-651" font-family="Arial" font-size="10.00">mt#398</text>
<text xml:space="preserve" text-anchor="middle" x="5427.12" y="-639" font-family="Arial" font-size="10.00">Improve test mock filesystem a</text>
</g>
<!-- mt_176 -->
<g id="node62" class="node">
<title>mt_176</title>
<path fill="#34d399" stroke="#059669" stroke-width="2" d="M5500.11,-756C5500.11,-756 5354.13,-756 5354.13,-756 5348.13,-756 5342.13,-750 5342.13,-744 5342.13,-744 5342.13,-732 5342.13,-732 5342.13,-726 5348.13,-720 5354.13,-720 5354.13,-720 5500.11,-720 5500.11,-720 5506.11,-720 5512.11,-726 5512.11,-732 5512.11,-732 5512.11,-744 5512.11,-744 5512.11,-750 5506.11,-756 5500.11,-756"/>
<text xml:space="preserve" text-anchor="middle" x="5427.12" y="-741" font-family="Arial" font-size="10.00">mt#176</text>
<text xml:space="preserve" text-anchor="middle" x="5427.12" y="-729" font-family="Arial" font-size="10.00">Comprehensive Session Database</text>
</g>
<!-- mt_176&#45;&gt;mt_398 -->
<g id="edge64" class="edge">
<title>mt_176&#45;&gt;mt_398</title>
<path fill="none" stroke="#4a5568" stroke-width="2" d="M5427.12,-719.19C5427.12,-706.79 5427.12,-690.02 5427.12,-675.98"/>
<polygon fill="#4a5568" stroke="#4a5568" stroke-width="2" points="5429.92,-677.81 5427.12,-669.81 5424.32,-677.81 5429.92,-677.81"/>
</g>
<!-- mt_441&#45;&gt;mt_442 -->
<g id="edge71" class="edge">
<title>mt_441&#45;&gt;mt_442</title>
<path fill="none" stroke="#4a5568" stroke-width="2" d="M1295.1,-359.19C1306.03,-346.19 1321,-328.39 1333.12,-313.97"/>
<polygon fill="#4a5568" stroke="#4a5568" stroke-width="2" points="1334.21,-317.02 1337.22,-309.1 1329.93,-313.42 1334.21,-317.02"/>
</g>
<!-- mt_256 -->
<g id="node64" class="node">
<title>mt_256</title>
<path fill="#34d399" stroke="#059669" stroke-width="2" d="M1350.59,-486C1350.59,-486 1209.65,-486 1209.65,-486 1203.65,-486 1197.65,-480 1197.65,-474 1197.65,-474 1197.65,-462 1197.65,-462 1197.65,-456 1203.65,-450 1209.65,-450 1209.65,-450 1350.59,-450 1350.59,-450 1356.59,-450 1362.59,-456 1362.59,-462 1362.59,-462 1362.59,-474 1362.59,-474 1362.59,-480 1356.59,-486 1350.59,-486"/>
<text xml:space="preserve" text-anchor="middle" x="1280.12" y="-471" font-family="Arial" font-size="10.00">mt#256</text>
<text xml:space="preserve" text-anchor="middle" x="1280.12" y="-459" font-family="Arial" font-size="10.00">Implement Context&#45;Aware Tool M</text>
</g>
<!-- mt_256&#45;&gt;mt_441 -->
<g id="edge66" class="edge">
<title>mt_256&#45;&gt;mt_441</title>
<path fill="none" stroke="#4a5568" stroke-width="2" d="M1280.12,-449.19C1280.12,-436.79 1280.12,-420.02 1280.12,-405.98"/>
<polygon fill="#4a5568" stroke="#4a5568" stroke-width="2" points="1282.92,-407.81 1280.12,-399.81 1277.32,-407.81 1282.92,-407.81"/>
</g>
<!-- mt_256&#45;&gt;mt_442 -->
<g id="edge76" class="edge">
<title>mt_256&#45;&gt;mt_442</title>
<path fill="none" stroke="#4a5568" stroke-width="2" d="M1489.12,-377C1473.01,-346.49 1441.09,-324.95 1412.33,-310.82"/>
<polygon fill="#4a5568" stroke="#4a5568" stroke-width="2" points="1415.1,-309.03 1406.67,-308.15 1412.7,-314.1 1415.1,-309.03"/>
<path fill="none" stroke="#4a5568" stroke-width="2" d="M1359.64,-449.07C1424.51,-432.29 1503.3,-405.85 1489.12,-379"/>
</g>
<!-- mt_082 -->
<g id="node65" class="node">
<title>mt_082</title>
<path fill="#34d399" stroke="#059669" stroke-width="2" d="M1567.66,-486C1567.66,-486 1410.58,-486 1410.58,-486 1404.58,-486 1398.58,-480 1398.58,-474 1398.58,-474 1398.58,-462 1398.58,-462 1398.58,-456 1404.58,-450 1410.58,-450 1410.58,-450 1567.66,-450 1567.66,-450 1573.66,-450 1579.66,-456 1579.66,-462 1579.66,-462 1579.66,-474 1579.66,-474 1579.66,-480 1573.66,-486 1567.66,-486"/>
<text xml:space="preserve" text-anchor="middle" x="1489.12" y="-471" font-family="Arial" font-size="10.00">mt#082</text>
<text xml:space="preserve" text-anchor="middle" x="1489.12" y="-459" font-family="Arial" font-size="10.00">Add Context Management Command</text>
</g>
<!-- mt_082&#45;&gt;mt_441 -->
<g id="edge70" class="edge">
<title>mt_082&#45;&gt;mt_441</title>
<path fill="none" stroke="#4a5568" stroke-width="2" d="M1446.57,-449.09C1413.24,-435.05 1366.73,-415.47 1331.35,-400.57"/>
<polygon fill="#4a5568" stroke="#4a5568" stroke-width="2" points="1333.86,-398.59 1325.4,-398.06 1331.68,-403.75 1333.86,-398.59"/>
</g>
<!-- mt_082&#45;&gt;mt_442 -->
<g id="edge74" class="edge">
<title>mt_082&#45;&gt;mt_442</title>
<path fill="none" stroke="#4a5568" stroke-width="2" d="M1493.72,-449.32C1497.57,-430.68 1500.75,-401.02 1489.12,-379"/>
</g>
<!-- mt_235 -->
<g id="node67" class="node">
<title>mt_235</title>
<path fill="#34d399" stroke="#059669" stroke-width="2" d="M1686.33,-396C1686.33,-396 1555.91,-396 1555.91,-396 1549.91,-396 1543.91,-390 1543.91,-384 1543.91,-384 1543.91,-372 1543.91,-372 1543.91,-366 1549.91,-360 1555.91,-360 1555.91,-360 1686.33,-360 1686.33,-360 1692.33,-360 1698.33,-366 1698.33,-372 1698.33,-372 1698.33,-384 1698.33,-384 1698.33,-390 1692.33,-396 1686.33,-396"/>
<text xml:space="preserve" text-anchor="middle" x="1621.12" y="-381" font-family="Arial" font-size="10.00">mt#235</text>
<text xml:space="preserve" text-anchor="middle" x="1621.12" y="-369" font-family="Arial" font-size="10.00">Add metadata support to tasks </text>
</g>
<!-- mt_235&#45;&gt;mt_258 -->
<g id="edge83" class="edge">
<title>mt_235&#45;&gt;mt_258</title>
<path fill="none" stroke="#4a5568" stroke-width="2" d="M1621.12,-359.19C1621.12,-346.79 1621.12,-330.02 1621.12,-315.98"/>
<polygon fill="#4a5568" stroke="#4a5568" stroke-width="2" points="1623.92,-317.81 1621.12,-309.81 1618.32,-317.81 1623.92,-317.81"/>
</g>
<!-- mt_235&#45;&gt;mt_442 -->
<g id="edge78" class="edge">
<title>mt_235&#45;&gt;mt_442</title>
<path fill="none" stroke="#4a5568" stroke-width="2" d="M1566.77,-359.09C1523.46,-344.81 1462.75,-324.8 1417.28,-309.82"/>
<polygon fill="#4a5568" stroke="#4a5568" stroke-width="2" points="1419.75,-307.68 1411.27,-307.84 1417.99,-313 1419.75,-307.68"/>
</g>
<!-- mt_190 -->
<g id="node68" class="node">
<title>mt_190</title>
<path fill="#e2e8f0" stroke="#64748b" stroke-width="2" d="M5799.21,-666C5799.21,-666 5661.03,-666 5661.03,-666 5655.03,-666 5649.03,-660 5649.03,-654 5649.03,-654 5649.03,-642 5649.03,-642 5649.03,-636 5655.03,-630 5661.03,-630 5661.03,-630 5799.21,-630 5799.21,-630 5805.21,-630 5811.21,-636 5811.21,-642 5811.21,-642 5811.21,-654 5811.21,-654 5811.21,-660 5805.21,-666 5799.21,-666"/>
<text xml:space="preserve" text-anchor="middle" x="5730.12" y="-651" font-family="Arial" font-size="10.00">mt#190</text>
<text xml:space="preserve" text-anchor="middle" x="5730.12" y="-639" font-family="Arial" font-size="10.00">Design Containerized Session W</text>
</g>
<!-- mt_150 -->
<g id="node69" class="node">
<title>mt_150</title>
<path fill="#34d399" stroke="#059669" stroke-width="2" d="M5696.39,-756C5696.39,-756 5559.85,-756 5559.85,-756 5553.85,-756 5547.85,-750 5547.85,-744 5547.85,-744 5547.85,-732 5547.85,-732 5547.85,-726 5553.85,-720 5559.85,-720 5559.85,-720 5696.39,-720 5696.39,-720 5702.39,-720 5708.39,-726 5708.39,-732 5708.39,-732 5708.39,-744 5708.39,-744 5708.39,-750 5702.39,-756 5696.39,-756"/>
<text xml:space="preserve" text-anchor="middle" x="5628.12" y="-741" font-family="Arial" font-size="10.00">mt#150</text>
<text xml:space="preserve" text-anchor="middle" x="5628.12" y="-729" font-family="Arial" font-size="10.00">Add &#45;&#45;body&#45;path Option and Req</text>
</g>
<!-- mt_150&#45;&gt;mt_190 -->
<g id="edge80" class="edge">
<title>mt_150&#45;&gt;mt_190</title>
<path fill="none" stroke="#4a5568" stroke-width="2" d="M5648.76,-719.19C5664.25,-705.83 5685.6,-687.41 5702.55,-672.79"/>
<polygon fill="#4a5568" stroke="#4a5568" stroke-width="2" points="5702.99,-676.1 5707.22,-668.76 5699.33,-671.86 5702.99,-676.1"/>
</g>
<!-- mt_049 -->
<g id="node70" class="node">
<title>mt_049</title>
<path fill="#34d399" stroke="#059669" stroke-width="2" d="M5905.49,-756C5905.49,-756 5756.75,-756 5756.75,-756 5750.75,-756 5744.75,-750 5744.75,-744 5744.75,-744 5744.75,-732 5744.75,-732 5744.75,-726 5750.75,-720 5756.75,-720 5756.75,-720 5905.49,-720 5905.49,-720 5911.49,-720 5917.49,-726 5917.49,-732 5917.49,-732 5917.49,-744 5917.49,-744 5917.49,-750 5911.49,-756 5905.49,-756"/>
<text xml:space="preserve" text-anchor="middle" x="5831.12" y="-741" font-family="Arial" font-size="10.00">mt#049</text>
<text xml:space="preserve" text-anchor="middle" x="5831.12" y="-729" font-family="Arial" font-size="10.00">Implement Session&#45;Scoped MCP S</text>
</g>
<!-- mt_049&#45;&gt;mt_190 -->
<g id="edge81" class="edge">
<title>mt_049&#45;&gt;mt_190</title>
<path fill="none" stroke="#4a5568" stroke-width="2" d="M5810.68,-719.19C5795.35,-705.83 5774.2,-687.41 5757.42,-672.79"/>
<polygon fill="#4a5568" stroke="#4a5568" stroke-width="2" points="5760.68,-671.91 5752.81,-668.77 5757,-676.14 5760.68,-671.91"/>
</g>
<!-- mt_302 -->
<g id="node71" class="node">
<title>mt_302</title>
<path fill="#e2e8f0" stroke="#64748b" stroke-width="2" d="M6106.22,-666C6106.22,-666 5968.02,-666 5968.02,-666 5962.02,-666 5956.02,-660 5956.02,-654 5956.02,-654 5956.02,-642 5956.02,-642 5956.02,-636 5962.02,-630 5968.02,-630 5968.02,-630 6106.22,-630 6106.22,-630 6112.22,-630 6118.22,-636 6118.22,-642 6118.22,-642 6118.22,-654 6118.22,-654 6118.22,-660 6112.22,-666 6106.22,-666"/>
<text xml:space="preserve" text-anchor="middle" x="6037.12" y="-651" font-family="Arial" font-size="10.00">mt#302</text>
<text xml:space="preserve" text-anchor="middle" x="6037.12" y="-639" font-family="Arial" font-size="10.00">Explore Exposing Rules and Doc</text>
</g>
<!-- mt_289 -->
<g id="node72" class="node">
<title>mt_289</title>
<path fill="#34d399" stroke="#059669" stroke-width="2" d="M6108.71,-756C6108.71,-756 5965.53,-756 5965.53,-756 5959.53,-756 5953.53,-750 5953.53,-744 5953.53,-744 5953.53,-732 5953.53,-732 5953.53,-726 5959.53,-720 5965.53,-720 5965.53,-720 6108.71,-720 6108.71,-720 6114.71,-720 6120.71,-726 6120.71,-732 6120.71,-732 6120.71,-744 6120.71,-744 6120.71,-750 6114.71,-756 6108.71,-756"/>
<text xml:space="preserve" text-anchor="middle" x="6037.12" y="-741" font-family="Arial" font-size="10.00">mt#289</text>
<text xml:space="preserve" text-anchor="middle" x="6037.12" y="-729" font-family="Arial" font-size="10.00">Implement Template&#45;Based Rules</text>
</g>
<!-- mt_289&#45;&gt;mt_302 -->
<g id="edge84" class="edge">
<title>mt_289&#45;&gt;mt_302</title>
<path fill="none" stroke="#4a5568" stroke-width="2" d="M6037.12,-719.19C6037.12,-706.79 6037.12,-690.02 6037.12,-675.98"/>
<polygon fill="#4a5568" stroke="#4a5568" stroke-width="2" points="6039.92,-677.81 6037.12,-669.81 6034.32,-677.81 6039.92,-677.81"/>
</g>
<!-- mt_454 -->
<g id="node75" class="node">
<title>mt_454</title>
<path fill="#e2e8f0" stroke="#64748b" stroke-width="2" d="M1873.07,-306C1873.07,-306 1747.17,-306 1747.17,-306 1741.17,-306 1735.17,-300 1735.17,-294 1735.17,-294 1735.17,-282 1735.17,-282 1735.17,-276 1741.17,-270 1747.17,-270 1747.17,-270 1873.07,-270 1873.07,-270 1879.07,-270 1885.07,-276 1885.07,-282 1885.07,-282 1885.07,-294 1885.07,-294 1885.07,-300 1879.07,-306 1873.07,-306"/>
<text xml:space="preserve" text-anchor="middle" x="1810.12" y="-291" font-family="Arial" font-size="10.00">mt#454</text>
<text xml:space="preserve" text-anchor="middle" x="1810.12" y="-279" font-family="Arial" font-size="10.00">Investigate &#39;seek human input&#39;</text>
</g>
<!-- mt_454&#45;&gt;mt_468 -->
<g id="edge89" class="edge">
<title>mt_454&#45;&gt;mt_468</title>
<path fill="none" stroke="#4a5568" stroke-width="2" d="M1810.93,-269.19C1811.49,-256.79 1812.26,-240.02 1812.89,-225.98"/>
<polygon fill="#4a5568" stroke="#4a5568" stroke-width="2" points="1815.61,-227.92 1813.17,-219.81 1810.01,-227.67 1815.61,-227.92"/>
</g>
<!-- mt_326 -->
<g id="node76" class="node">
<title>mt_326</title>
<path fill="#e2e8f0" stroke="#64748b" stroke-width="2" d="M2077.28,-306C2077.28,-306 1932.97,-306 1932.97,-306 1926.97,-306 1920.97,-300 1920.97,-294 1920.97,-294 1920.97,-282 1920.97,-282 1920.97,-276 1926.97,-270 1932.97,-270 1932.97,-270 2077.28,-270 2077.28,-270 2083.28,-270 2089.28,-276 2089.28,-282 2089.28,-282 2089.28,-294 2089.28,-294 2089.28,-300 2083.28,-306 2077.28,-306"/>
<text xml:space="preserve" text-anchor="middle" x="2005.12" y="-291" font-family="Arial" font-size="10.00">mt#326</text>
<text xml:space="preserve" text-anchor="middle" x="2005.12" y="-279" font-family="Arial" font-size="10.00">Explore embedding Outerbase DB</text>
</g>
<!-- mt_326&#45;&gt;mt_468 -->
<g id="edge90" class="edge">
<title>mt_326&#45;&gt;mt_468</title>
<path fill="none" stroke="#4a5568" stroke-width="2" d="M1966.47,-269.19C1936.15,-255.22 1893.81,-235.72 1861.46,-220.81"/>
<polygon fill="#4a5568" stroke="#4a5568" stroke-width="2" points="1864.23,-219 1855.79,-218.2 1861.89,-224.09 1864.23,-219"/>
</g>
</g>
</svg>
