<?xml version="1.0" encoding="UTF-8" standalone="no"?>
<!DOCTYPE svg PUBLIC "-//W3C//DTD SVG 1.1//EN"
 "http://www.w3.org/Graphics/SVG/1.1/DTD/svg11.dtd">
<!-- Generated by graphviz version 13.1.2 (0)
 -->
<!-- Title: TaskDependencies Pages: 1 -->
<svg width="5642pt" height="973pt"
 viewBox="7.00 7.00 5635.00 966.00" xmlns="http://www.w3.org/2000/svg" xmlns:xlink="http://www.w3.org/1999/xlink">
<g id="graph0" class="graph" transform="scale(1 1) rotate(0) translate(11.2 961.6)">
<title>TaskDependencies</title>
<polygon fill="white" stroke="none" points="-4,4 -4,-954.4 5624.04,-954.4 5624.04,4 -4,4"/>
<!-- mt_041 -->
<g id="node1" class="node">
<title>mt_041</title>
<path fill="#f1f5f9" stroke="#64748b" stroke-width="2" d="M128.27,-838.8C128.27,-838.8 15.74,-838.8 15.74,-838.8 9.74,-838.8 3.74,-832.8 3.74,-826.8 3.74,-826.8 3.74,-793.2 3.74,-793.2 3.74,-787.2 9.74,-781.2 15.74,-781.2 15.74,-781.2 128.27,-781.2 128.27,-781.2 134.27,-781.2 140.27,-787.2 140.27,-793.2 140.27,-793.2 140.27,-826.8 140.27,-826.8 140.27,-832.8 134.27,-838.8 128.27,-838.8"/>
<text xml:space="preserve" text-anchor="middle" x="72.01" y="-812.7" font-family="Arial" font-size="9.00">mt#041</text>
<text xml:space="preserve" text-anchor="middle" x="72.01" y="-801.9" font-family="Arial" font-size="9.00">Write Test Suite for Cursor Ru</text>
</g>
<!-- mt_067 -->
<g id="node2" class="node">
<title>mt_067</title>
<path fill="#d1fae5" stroke="#059669" stroke-width="2" d="M132.02,-950.4C132.02,-950.4 12,-950.4 12,-950.4 6,-950.4 0,-944.4 0,-938.4 0,-938.4 0,-904.8 0,-904.8 0,-898.8 6,-892.8 12,-892.8 12,-892.8 132.02,-892.8 132.02,-892.8 138.02,-892.8 144.02,-898.8 144.02,-904.8 144.02,-904.8 144.02,-938.4 144.02,-938.4 144.02,-944.4 138.02,-950.4 132.02,-950.4"/>
<text xml:space="preserve" text-anchor="middle" x="72.01" y="-924.3" font-family="Arial" font-size="9.00">mt#067</text>
<text xml:space="preserve" text-anchor="middle" x="72.01" y="-913.5" font-family="Arial" font-size="9.00">Refactor `minsky&#45;workflow.mdc`</text>
</g>
<!-- mt_067&#45;&gt;mt_041 -->
<g id="edge1" class="edge">
<title>mt_067&#45;&gt;mt_041</title>
<path fill="none" stroke="#6b7280" d="M72.01,-891.8C72.01,-878.09 72.01,-861.54 72.01,-847"/>
<polygon fill="#6b7280" stroke="#6b7280" points="74.11,-847.12 72.01,-841.12 69.91,-847.12 74.11,-847.12"/>
</g>
<!-- mt_045 -->
<g id="node3" class="node">
<title>mt_045</title>
<path fill="#f1f5f9" stroke="#64748b" stroke-width="2" d="M299.3,-838.8C299.3,-838.8 188.72,-838.8 188.72,-838.8 182.72,-838.8 176.72,-832.8 176.72,-826.8 176.72,-826.8 176.72,-793.2 176.72,-793.2 176.72,-787.2 182.72,-781.2 188.72,-781.2 188.72,-781.2 299.3,-781.2 299.3,-781.2 305.3,-781.2 311.3,-787.2 311.3,-793.2 311.3,-793.2 311.3,-826.8 311.3,-826.8 311.3,-832.8 305.3,-838.8 299.3,-838.8"/>
<text xml:space="preserve" text-anchor="middle" x="244.01" y="-812.7" font-family="Arial" font-size="9.00">mt#045</text>
<text xml:space="preserve" text-anchor="middle" x="244.01" y="-801.9" font-family="Arial" font-size="9.00">Setup Documentation Tooling</text>
</g>
<!-- mt_030 -->
<g id="node4" class="node">
<title>mt_030</title>
<path fill="#d1fae5" stroke="#059669" stroke-width="2" d="M398.3,-950.4C398.3,-950.4 281.72,-950.4 281.72,-950.4 275.72,-950.4 269.72,-944.4 269.72,-938.4 269.72,-938.4 269.72,-904.8 269.72,-904.8 269.72,-898.8 275.72,-892.8 281.72,-892.8 281.72,-892.8 398.3,-892.8 398.3,-892.8 404.3,-892.8 410.3,-898.8 410.3,-904.8 410.3,-904.8 410.3,-938.4 410.3,-938.4 410.3,-944.4 404.3,-950.4 398.3,-950.4"/>
<text xml:space="preserve" text-anchor="middle" x="340.01" y="-924.3" font-family="Arial" font-size="9.00">mt#030</text>
<text xml:space="preserve" text-anchor="middle" x="340.01" y="-913.5" font-family="Arial" font-size="9.00">Setup Project Tooling and Auto</text>
</g>
<!-- mt_030&#45;&gt;mt_045 -->
<g id="edge2" class="edge">
<title>mt_030&#45;&gt;mt_045</title>
<path fill="none" stroke="#6b7280" d="M314.79,-891.8C302.22,-877.46 286.94,-860.01 273.8,-845.01"/>
<polygon fill="#6b7280" stroke="#6b7280" points="275.59,-843.87 270.06,-840.74 272.43,-846.64 275.59,-843.87"/>
</g>
<!-- mt_046 -->
<g id="node5" class="node">
<title>mt_046</title>
<path fill="#f1f5f9" stroke="#64748b" stroke-width="2" d="M500.55,-838.8C500.55,-838.8 359.46,-838.8 359.46,-838.8 353.46,-838.8 347.46,-832.8 347.46,-826.8 347.46,-826.8 347.46,-793.2 347.46,-793.2 347.46,-787.2 353.46,-781.2 359.46,-781.2 359.46,-781.2 500.55,-781.2 500.55,-781.2 506.55,-781.2 512.55,-787.2 512.55,-793.2 512.55,-793.2 512.55,-826.8 512.55,-826.8 512.55,-832.8 506.55,-838.8 500.55,-838.8"/>
<text xml:space="preserve" text-anchor="middle" x="430.01" y="-812.7" font-family="Arial" font-size="9.00">mt#046</text>
<text xml:space="preserve" text-anchor="middle" x="430.01" y="-801.9" font-family="Arial" font-size="9.00">Document Dependency Management</text>
</g>
<!-- mt_030&#45;&gt;mt_046 -->
<g id="edge3" class="edge">
<title>mt_030&#45;&gt;mt_046</title>
<path fill="none" stroke="#6b7280" d="M363.65,-891.8C375.33,-877.58 389.51,-860.32 401.76,-845.41"/>
<polygon fill="#6b7280" stroke="#6b7280" points="403.37,-846.74 405.56,-840.77 400.13,-844.08 403.37,-846.74"/>
</g>
<!-- mt_090 -->
<g id="node6" class="node">
<title>mt_090</title>
<path fill="#f1f5f9" stroke="#64748b" stroke-width="2" d="M675.78,-838.8C675.78,-838.8 560.24,-838.8 560.24,-838.8 554.24,-838.8 548.24,-832.8 548.24,-826.8 548.24,-826.8 548.24,-793.2 548.24,-793.2 548.24,-787.2 554.24,-781.2 560.24,-781.2 560.24,-781.2 675.78,-781.2 675.78,-781.2 681.78,-781.2 687.78,-787.2 687.78,-793.2 687.78,-793.2 687.78,-826.8 687.78,-826.8 687.78,-832.8 681.78,-838.8 675.78,-838.8"/>
<text xml:space="preserve" text-anchor="middle" x="618.01" y="-812.7" font-family="Arial" font-size="9.00">mt#090</text>
<text xml:space="preserve" text-anchor="middle" x="618.01" y="-801.9" font-family="Arial" font-size="9.00">Prepare for Future Non&#45;Filesys</text>
</g>
<!-- mt_080 -->
<g id="node7" class="node">
<title>mt_080</title>
<path fill="#d1fae5" stroke="#059669" stroke-width="2" d="M681.79,-950.4C681.79,-950.4 554.23,-950.4 554.23,-950.4 548.23,-950.4 542.23,-944.4 542.23,-938.4 542.23,-938.4 542.23,-904.8 542.23,-904.8 542.23,-898.8 548.23,-892.8 554.23,-892.8 554.23,-892.8 681.79,-892.8 681.79,-892.8 687.79,-892.8 693.79,-898.8 693.79,-904.8 693.79,-904.8 693.79,-938.4 693.79,-938.4 693.79,-944.4 687.79,-950.4 681.79,-950.4"/>
<text xml:space="preserve" text-anchor="middle" x="618.01" y="-924.3" font-family="Arial" font-size="9.00">mt#080</text>
<text xml:space="preserve" text-anchor="middle" x="618.01" y="-913.5" font-family="Arial" font-size="9.00">Review Workspace and Repositor</text>
</g>
<!-- mt_080&#45;&gt;mt_090 -->
<g id="edge4" class="edge">
<title>mt_080&#45;&gt;mt_090</title>
<path fill="none" stroke="#6b7280" d="M618.01,-891.8C618.01,-878.09 618.01,-861.54 618.01,-847"/>
<polygon fill="#6b7280" stroke="#6b7280" points="620.11,-847.12 618.01,-841.12 615.91,-847.12 620.11,-847.12"/>
</g>
<!-- mt_162 -->
<g id="node8" class="node">
<title>mt_162</title>
<path fill="#f1f5f9" stroke="#64748b" stroke-width="2" d="M1840.3,-838.8C1840.3,-838.8 1707.72,-838.8 1707.72,-838.8 1701.72,-838.8 1695.72,-832.8 1695.72,-826.8 1695.72,-826.8 1695.72,-793.2 1695.72,-793.2 1695.72,-787.2 1701.72,-781.2 1707.72,-781.2 1707.72,-781.2 1840.3,-781.2 1840.3,-781.2 1846.3,-781.2 1852.3,-787.2 1852.3,-793.2 1852.3,-793.2 1852.3,-826.8 1852.3,-826.8 1852.3,-832.8 1846.3,-838.8 1840.3,-838.8"/>
<text xml:space="preserve" text-anchor="middle" x="1774.01" y="-812.7" font-family="Arial" font-size="9.00">mt#162</text>
<text xml:space="preserve" text-anchor="middle" x="1774.01" y="-801.9" font-family="Arial" font-size="9.00">Research and Design Comprehens</text>
</g>
<!-- mt_202 -->
<g id="node12" class="node">
<title>mt_202</title>
<path fill="#f1f5f9" stroke="#64748b" stroke-width="2" d="M1351.05,-615.6C1351.05,-615.6 1230.96,-615.6 1230.96,-615.6 1224.96,-615.6 1218.96,-609.6 1218.96,-603.6 1218.96,-603.6 1218.96,-570 1218.96,-570 1218.96,-564 1224.96,-558 1230.96,-558 1230.96,-558 1351.05,-558 1351.05,-558 1357.05,-558 1363.05,-564 1363.05,-570 1363.05,-570 1363.05,-603.6 1363.05,-603.6 1363.05,-609.6 1357.05,-615.6 1351.05,-615.6"/>
<text xml:space="preserve" text-anchor="middle" x="1291.01" y="-589.5" font-family="Arial" font-size="9.00">mt#202</text>
<text xml:space="preserve" text-anchor="middle" x="1291.01" y="-578.7" font-family="Arial" font-size="9.00">Rule Suggestion Evaluation and</text>
</g>
<!-- mt_162&#45;&gt;mt_202 -->
<g id="edge10" class="edge">
<title>mt_162&#45;&gt;mt_202</title>
<path fill="none" stroke="#6b7280" d="M1782.09,-780.43C1789.04,-749.08 1794.16,-699.28 1767.01,-669.6 1708.54,-605.7 1465.55,-634.44 1381.01,-615.6 1377.78,-614.88 1374.5,-614.1 1371.19,-613.27"/>
<polygon fill="#6b7280" stroke="#6b7280" points="1371.73,-611.25 1365.4,-611.78 1370.68,-615.31 1371.73,-611.25"/>
</g>
<!-- mt_250 -->
<g id="node13" class="node">
<title>mt_250</title>
<path fill="#f1f5f9" stroke="#64748b" stroke-width="2" d="M1551.04,-727.2C1551.04,-727.2 1430.97,-727.2 1430.97,-727.2 1424.97,-727.2 1418.97,-721.2 1418.97,-715.2 1418.97,-715.2 1418.97,-681.6 1418.97,-681.6 1418.97,-675.6 1424.97,-669.6 1430.97,-669.6 1430.97,-669.6 1551.04,-669.6 1551.04,-669.6 1557.04,-669.6 1563.04,-675.6 1563.04,-681.6 1563.04,-681.6 1563.04,-715.2 1563.04,-715.2 1563.04,-721.2 1557.04,-727.2 1551.04,-727.2"/>
<text xml:space="preserve" text-anchor="middle" x="1491.01" y="-701.1" font-family="Arial" font-size="9.00">mt#250</text>
<text xml:space="preserve" text-anchor="middle" x="1491.01" y="-690.3" font-family="Arial" font-size="9.00">Investigate and Implement Sess</text>
</g>
<!-- mt_162&#45;&gt;mt_250 -->
<g id="edge29" class="edge">
<title>mt_162&#45;&gt;mt_250</title>
<path fill="none" stroke="#6b7280" d="M1699.65,-780.2C1660.02,-764.86 1611.24,-745.96 1570.82,-730.31"/>
<polygon fill="#6b7280" stroke="#6b7280" points="1571.65,-728.38 1565.3,-728.17 1570.14,-732.3 1571.65,-728.38"/>
</g>
<!-- mt_249 -->
<g id="node9" class="node">
<title>mt_249</title>
<path fill="#d1fae5" stroke="#059669" stroke-width="2" d="M1699.79,-950.4C1699.79,-950.4 1582.22,-950.4 1582.22,-950.4 1576.22,-950.4 1570.22,-944.4 1570.22,-938.4 1570.22,-938.4 1570.22,-904.8 1570.22,-904.8 1570.22,-898.8 1576.22,-892.8 1582.22,-892.8 1582.22,-892.8 1699.79,-892.8 1699.79,-892.8 1705.79,-892.8 1711.79,-898.8 1711.79,-904.8 1711.79,-904.8 1711.79,-938.4 1711.79,-938.4 1711.79,-944.4 1705.79,-950.4 1699.79,-950.4"/>
<text xml:space="preserve" text-anchor="middle" x="1641.01" y="-924.3" font-family="Arial" font-size="9.00">mt#249</text>
<text xml:space="preserve" text-anchor="middle" x="1641.01" y="-913.5" font-family="Arial" font-size="9.00">Investigate and Improve Sessio</text>
</g>
<!-- mt_249&#45;&gt;mt_162 -->
<g id="edge5" class="edge">
<title>mt_249&#45;&gt;mt_162</title>
<path fill="none" stroke="#6b7280" d="M1675.95,-891.8C1693.67,-877.2 1715.27,-859.4 1733.69,-844.22"/>
<polygon fill="#6b7280" stroke="#6b7280" points="1734.83,-846 1738.13,-840.57 1732.16,-842.76 1734.83,-846"/>
</g>
<!-- mt_249&#45;&gt;mt_250 -->
<g id="edge30" class="edge">
<title>mt_249&#45;&gt;mt_250</title>
<path fill="none" stroke="#6b7280" d="M1639.03,-891.82C1635.74,-861.87 1627.04,-814.74 1604.01,-781.2 1590.59,-761.66 1570.91,-745.11 1551.73,-732.11"/>
<polygon fill="#6b7280" stroke="#6b7280" points="1553.22,-730.58 1547.06,-729.02 1550.91,-734.08 1553.22,-730.58"/>
</g>
<!-- mt_354 -->
<g id="node57" class="node">
<title>mt_354</title>
<path fill="#f1f5f9" stroke="#64748b" stroke-width="2" d="M1214.04,-838.8C1214.04,-838.8 1089.98,-838.8 1089.98,-838.8 1083.98,-838.8 1077.98,-832.8 1077.98,-826.8 1077.98,-826.8 1077.98,-793.2 1077.98,-793.2 1077.98,-787.2 1083.98,-781.2 1089.98,-781.2 1089.98,-781.2 1214.04,-781.2 1214.04,-781.2 1220.04,-781.2 1226.04,-787.2 1226.04,-793.2 1226.04,-793.2 1226.04,-826.8 1226.04,-826.8 1226.04,-832.8 1220.04,-838.8 1214.04,-838.8"/>
<text xml:space="preserve" text-anchor="middle" x="1152.01" y="-812.7" font-family="Arial" font-size="9.00">mt#354</text>
<text xml:space="preserve" text-anchor="middle" x="1152.01" y="-801.9" font-family="Arial" font-size="9.00">Implement Session Reapply Tool</text>
</g>
<!-- mt_249&#45;&gt;mt_354 -->
<g id="edge61" class="edge">
<title>mt_249&#45;&gt;mt_354</title>
<path fill="none" stroke="#6b7280" d="M1569.57,-907.89C1489.75,-893.23 1356.9,-867.42 1244.01,-838.8 1240.7,-837.96 1237.32,-837.08 1233.92,-836.16"/>
<polygon fill="#6b7280" stroke="#6b7280" points="1234.72,-834.2 1228.37,-834.64 1233.61,-838.25 1234.72,-834.2"/>
</g>
<!-- mt_175 -->
<g id="node10" class="node">
<title>mt_175</title>
<path fill="#f1f5f9" stroke="#64748b" stroke-width="2" d="M784.3,-727.2C784.3,-727.2 653.72,-727.2 653.72,-727.2 647.72,-727.2 641.72,-721.2 641.72,-715.2 641.72,-715.2 641.72,-681.6 641.72,-681.6 641.72,-675.6 647.72,-669.6 653.72,-669.6 653.72,-669.6 784.3,-669.6 784.3,-669.6 790.3,-669.6 796.3,-675.6 796.3,-681.6 796.3,-681.6 796.3,-715.2 796.3,-715.2 796.3,-721.2 790.3,-727.2 784.3,-727.2"/>
<text xml:space="preserve" text-anchor="middle" x="719.01" y="-701.1" font-family="Arial" font-size="9.00">mt#175</text>
<text xml:space="preserve" text-anchor="middle" x="719.01" y="-690.3" font-family="Arial" font-size="9.00">Add AI&#45;powered task management</text>
</g>
<!-- mt_237 -->
<g id="node20" class="node">
<title>mt_237</title>
<path fill="#f1f5f9" stroke="#64748b" stroke-width="2" d="M668.53,-615.6C668.53,-615.6 549.49,-615.6 549.49,-615.6 543.49,-615.6 537.49,-609.6 537.49,-603.6 537.49,-603.6 537.49,-570 537.49,-570 537.49,-564 543.49,-558 549.49,-558 549.49,-558 668.53,-558 668.53,-558 674.53,-558 680.53,-564 680.53,-570 680.53,-570 680.53,-603.6 680.53,-603.6 680.53,-609.6 674.53,-615.6 668.53,-615.6"/>
<text xml:space="preserve" text-anchor="middle" x="609.01" y="-589.5" font-family="Arial" font-size="9.00">mt#237</text>
<text xml:space="preserve" text-anchor="middle" x="609.01" y="-578.7" font-family="Arial" font-size="9.00">Implement Hierarchical Task Sy</text>
</g>
<!-- mt_175&#45;&gt;mt_237 -->
<g id="edge15" class="edge">
<title>mt_175&#45;&gt;mt_237</title>
<path fill="none" stroke="#6b7280" d="M690.11,-668.6C675.58,-654.13 657.89,-636.51 642.75,-621.42"/>
<polygon fill="#6b7280" stroke="#6b7280" points="644.52,-620.22 638.79,-617.47 641.56,-623.19 644.52,-620.22"/>
</g>
<!-- mt_239 -->
<g id="node21" class="node">
<title>mt_239</title>
<path fill="#f1f5f9" stroke="#64748b" stroke-width="2" d="M747.04,-504C747.04,-504 618.97,-504 618.97,-504 612.97,-504 606.97,-498 606.97,-492 606.97,-492 606.97,-458.4 606.97,-458.4 606.97,-452.4 612.97,-446.4 618.97,-446.4 618.97,-446.4 747.04,-446.4 747.04,-446.4 753.04,-446.4 759.04,-452.4 759.04,-458.4 759.04,-458.4 759.04,-492 759.04,-492 759.04,-498 753.04,-504 747.04,-504"/>
<text xml:space="preserve" text-anchor="middle" x="683.01" y="-477.9" font-family="Arial" font-size="9.00">mt#239</text>
<text xml:space="preserve" text-anchor="middle" x="683.01" y="-467.1" font-family="Arial" font-size="9.00">Phase 2: Implement Task Depend</text>
</g>
<!-- mt_175&#45;&gt;mt_239 -->
<g id="edge18" class="edge">
<title>mt_175&#45;&gt;mt_239</title>
<path fill="none" stroke="#6b7280" d="M715.33,-668.77C711.61,-640.54 705.48,-596.21 699.01,-558 696.46,-542.93 693.29,-526.38 690.44,-512.13"/>
<polygon fill="#6b7280" stroke="#6b7280" points="692.53,-511.86 689.29,-506.39 688.41,-512.69 692.53,-511.86"/>
</g>
<!-- mt_240 -->
<g id="node23" class="node">
<title>mt_240</title>
<path fill="#f1f5f9" stroke="#64748b" stroke-width="2" d="M567.06,-392.4C567.06,-392.4 440.96,-392.4 440.96,-392.4 434.96,-392.4 428.96,-386.4 428.96,-380.4 428.96,-380.4 428.96,-346.8 428.96,-346.8 428.96,-340.8 434.96,-334.8 440.96,-334.8 440.96,-334.8 567.06,-334.8 567.06,-334.8 573.06,-334.8 579.06,-340.8 579.06,-346.8 579.06,-346.8 579.06,-380.4 579.06,-380.4 579.06,-386.4 573.06,-392.4 567.06,-392.4"/>
<text xml:space="preserve" text-anchor="middle" x="504.01" y="-366.3" font-family="Arial" font-size="9.00">mt#240</text>
<text xml:space="preserve" text-anchor="middle" x="504.01" y="-355.5" font-family="Arial" font-size="9.00">Phase 3: Enhanced Planning/Exe</text>
</g>
<!-- mt_175&#45;&gt;mt_240 -->
<g id="edge22" class="edge">
<title>mt_175&#45;&gt;mt_240</title>
<path fill="none" stroke="#6b7280" d="M640.83,-677.9C560.92,-653.01 442.79,-601.03 401.01,-504 390.88,-480.49 389.88,-469.45 401.01,-446.4 410.51,-426.72 427.3,-410.33 444.6,-397.51"/>
<polygon fill="#6b7280" stroke="#6b7280" points="445.59,-399.38 449.24,-394.18 443.14,-395.97 445.59,-399.38"/>
</g>
<!-- mt_243 -->
<g id="node25" class="node">
<title>mt_243</title>
<path fill="#f1f5f9" stroke="#64748b" stroke-width="2" d="M742.55,-280.8C742.55,-280.8 623.47,-280.8 623.47,-280.8 617.47,-280.8 611.47,-274.8 611.47,-268.8 611.47,-268.8 611.47,-235.2 611.47,-235.2 611.47,-229.2 617.47,-223.2 623.47,-223.2 623.47,-223.2 742.55,-223.2 742.55,-223.2 748.55,-223.2 754.55,-229.2 754.55,-235.2 754.55,-235.2 754.55,-268.8 754.55,-268.8 754.55,-274.8 748.55,-280.8 742.55,-280.8"/>
<text xml:space="preserve" text-anchor="middle" x="683.01" y="-254.7" font-family="Arial" font-size="9.00">mt#243</text>
<text xml:space="preserve" text-anchor="middle" x="683.01" y="-243.9" font-family="Arial" font-size="9.00">Advanced Visualization and Dat</text>
</g>
<!-- mt_175&#45;&gt;mt_243 -->
<g id="edge28" class="edge">
<title>mt_175&#45;&gt;mt_243</title>
<path fill="none" stroke="#6b7280" d="M754.69,-668.66C828.95,-605.37 986.71,-450.36 906.01,-334.8 873.88,-288.8 812.92,-268.59 762.84,-259.75"/>
<polygon fill="#6b7280" stroke="#6b7280" points="763.29,-257.7 757.03,-258.78 762.6,-261.84 763.29,-257.7"/>
</g>
<!-- mt_361 -->
<g id="node34" class="node">
<title>mt_361</title>
<path fill="#f1f5f9" stroke="#64748b" stroke-width="2" d="M875.79,-392.4C875.79,-392.4 750.22,-392.4 750.22,-392.4 744.22,-392.4 738.22,-386.4 738.22,-380.4 738.22,-380.4 738.22,-346.8 738.22,-346.8 738.22,-340.8 744.22,-334.8 750.22,-334.8 750.22,-334.8 875.79,-334.8 875.79,-334.8 881.79,-334.8 887.79,-340.8 887.79,-346.8 887.79,-346.8 887.79,-380.4 887.79,-380.4 887.79,-386.4 881.79,-392.4 875.79,-392.4"/>
<text xml:space="preserve" text-anchor="middle" x="813.01" y="-366.3" font-family="Arial" font-size="9.00">mt#361</text>
<text xml:space="preserve" text-anchor="middle" x="813.01" y="-355.5" font-family="Arial" font-size="9.00">Explore Automated Session Sync</text>
</g>
<!-- mt_175&#45;&gt;mt_361 -->
<g id="edge38" class="edge">
<title>mt_175&#45;&gt;mt_361</title>
<path fill="none" stroke="#6b7280" d="M728,-668.67C739.71,-630.98 760.62,-562.75 777.01,-504 786.78,-468.97 797.07,-428.73 804.14,-400.52"/>
<polygon fill="#6b7280" stroke="#6b7280" points="806.17,-401.05 805.59,-394.72 802.09,-400.03 806.17,-401.05"/>
</g>
<!-- mt_160 -->
<g id="node11" class="node">
<title>mt_160</title>
<path fill="#d1fae5" stroke="#059669" stroke-width="2" d="M858.54,-838.8C858.54,-838.8 735.47,-838.8 735.47,-838.8 729.47,-838.8 723.47,-832.8 723.47,-826.8 723.47,-826.8 723.47,-793.2 723.47,-793.2 723.47,-787.2 729.47,-781.2 735.47,-781.2 735.47,-781.2 858.54,-781.2 858.54,-781.2 864.54,-781.2 870.54,-787.2 870.54,-793.2 870.54,-793.2 870.54,-826.8 870.54,-826.8 870.54,-832.8 864.54,-838.8 858.54,-838.8"/>
<text xml:space="preserve" text-anchor="middle" x="797.01" y="-812.7" font-family="Arial" font-size="9.00">mt#160</text>
<text xml:space="preserve" text-anchor="middle" x="797.01" y="-801.9" font-family="Arial" font-size="9.00">Add AI Completion Backend with</text>
</g>
<!-- mt_160&#45;&gt;mt_175 -->
<g id="edge6" class="edge">
<title>mt_160&#45;&gt;mt_175</title>
<path fill="none" stroke="#6b7280" d="M776.51,-780.2C766.39,-765.98 754.11,-748.72 743.49,-733.81"/>
<polygon fill="#6b7280" stroke="#6b7280" points="745.43,-732.91 740.24,-729.24 742.01,-735.34 745.43,-732.91"/>
</g>
<!-- mt_160&#45;&gt;mt_202 -->
<g id="edge9" class="edge">
<title>mt_160&#45;&gt;mt_202</title>
<path fill="none" stroke="#6b7280" d="M807.49,-780.36C820.93,-747.97 847.44,-696.28 888.01,-669.6 1005.96,-592.04 1063.73,-648.5 1201.01,-615.6 1204.23,-614.83 1207.5,-614.01 1210.79,-613.14"/>
<polygon fill="#6b7280" stroke="#6b7280" points="1211.33,-615.18 1216.58,-611.59 1210.24,-611.12 1211.33,-615.18"/>
</g>
<!-- mt_254 -->
<g id="node35" class="node">
<title>mt_254</title>
<path fill="#f1f5f9" stroke="#64748b" stroke-width="2" d="M1371.02,-727.2C1371.02,-727.2 1251,-727.2 1251,-727.2 1245,-727.2 1239,-721.2 1239,-715.2 1239,-715.2 1239,-681.6 1239,-681.6 1239,-675.6 1245,-669.6 1251,-669.6 1251,-669.6 1371.02,-669.6 1371.02,-669.6 1377.02,-669.6 1383.02,-675.6 1383.02,-681.6 1383.02,-681.6 1383.02,-715.2 1383.02,-715.2 1383.02,-721.2 1377.02,-727.2 1371.02,-727.2"/>
<text xml:space="preserve" text-anchor="middle" x="1311.01" y="-701.1" font-family="Arial" font-size="9.00">mt#254</text>
<text xml:space="preserve" text-anchor="middle" x="1311.01" y="-690.3" font-family="Arial" font-size="9.00">Implement Commit History Simil</text>
</g>
<!-- mt_160&#45;&gt;mt_254 -->
<g id="edge41" class="edge">
<title>mt_160&#45;&gt;mt_254</title>
<path fill="none" stroke="#6b7280" d="M871.32,-785.6C876.95,-784.04 882.56,-782.56 888.01,-781.2 1006.32,-751.77 1145.46,-726.66 1230.94,-712.29"/>
<polygon fill="#6b7280" stroke="#6b7280" points="1231.21,-714.38 1236.78,-711.31 1230.52,-710.23 1231.21,-714.38"/>
</g>
<!-- mt_321 -->
<g id="node48" class="node">
<title>mt_321</title>
<path fill="#f1f5f9" stroke="#64748b" stroke-width="2" d="M1033.78,-727.2C1033.78,-727.2 918.23,-727.2 918.23,-727.2 912.23,-727.2 906.23,-721.2 906.23,-715.2 906.23,-715.2 906.23,-681.6 906.23,-681.6 906.23,-675.6 912.23,-669.6 918.23,-669.6 918.23,-669.6 1033.78,-669.6 1033.78,-669.6 1039.78,-669.6 1045.78,-675.6 1045.78,-681.6 1045.78,-681.6 1045.78,-715.2 1045.78,-715.2 1045.78,-721.2 1039.78,-727.2 1033.78,-727.2"/>
<text xml:space="preserve" text-anchor="middle" x="976.01" y="-701.1" font-family="Arial" font-size="9.00">mt#321</text>
<text xml:space="preserve" text-anchor="middle" x="976.01" y="-690.3" font-family="Arial" font-size="9.00">AI&#45;Powered Project Analysis fo</text>
</g>
<!-- mt_160&#45;&gt;mt_321 -->
<g id="edge55" class="edge">
<title>mt_160&#45;&gt;mt_321</title>
<path fill="none" stroke="#6b7280" d="M844.04,-780.2C868.2,-765.41 897.73,-747.33 922.73,-732.02"/>
<polygon fill="#6b7280" stroke="#6b7280" points="923.67,-733.91 927.69,-728.98 921.48,-730.33 923.67,-733.91"/>
</g>
<!-- mt_441 -->
<g id="node63" class="node">
<title>mt_441</title>
<path fill="#f1f5f9" stroke="#64748b" stroke-width="2" d="M1513.29,-504C1513.29,-504 1378.72,-504 1378.72,-504 1372.72,-504 1366.72,-498 1366.72,-492 1366.72,-492 1366.72,-458.4 1366.72,-458.4 1366.72,-452.4 1372.72,-446.4 1378.72,-446.4 1378.72,-446.4 1513.29,-446.4 1513.29,-446.4 1519.29,-446.4 1525.29,-452.4 1525.29,-458.4 1525.29,-458.4 1525.29,-492 1525.29,-492 1525.29,-498 1519.29,-504 1513.29,-504"/>
<text xml:space="preserve" text-anchor="middle" x="1446.01" y="-477.9" font-family="Arial" font-size="9.00">mt#441</text>
<text xml:space="preserve" text-anchor="middle" x="1446.01" y="-467.1" font-family="Arial" font-size="9.00">Implement MCP&#45;Based Subagent S</text>
</g>
<!-- mt_202&#45;&gt;mt_441 -->
<g id="edge67" class="edge">
<title>mt_202&#45;&gt;mt_441</title>
<path fill="none" stroke="#6b7280" d="M1331.73,-557C1352.48,-542.34 1377.79,-524.43 1399.32,-509.21"/>
<polygon fill="#6b7280" stroke="#6b7280" points="1400.36,-511.05 1404.05,-505.87 1397.94,-507.62 1400.36,-511.05"/>
</g>
<!-- mt_442 -->
<g id="node66" class="node">
<title>mt_442</title>
<path fill="#f1f5f9" stroke="#64748b" stroke-width="2" d="M1642.28,-392.4C1642.28,-392.4 1517.73,-392.4 1517.73,-392.4 1511.73,-392.4 1505.73,-386.4 1505.73,-380.4 1505.73,-380.4 1505.73,-346.8 1505.73,-346.8 1505.73,-340.8 1511.73,-334.8 1517.73,-334.8 1517.73,-334.8 1642.28,-334.8 1642.28,-334.8 1648.28,-334.8 1654.28,-340.8 1654.28,-346.8 1654.28,-346.8 1654.28,-380.4 1654.28,-380.4 1654.28,-386.4 1648.28,-392.4 1642.28,-392.4"/>
<text xml:space="preserve" text-anchor="middle" x="1580.01" y="-366.3" font-family="Arial" font-size="9.00">mt#442</text>
<text xml:space="preserve" text-anchor="middle" x="1580.01" y="-355.5" font-family="Arial" font-size="9.00">Implement Task Routing System </text>
</g>
<!-- mt_202&#45;&gt;mt_442 -->
<g id="edge73" class="edge">
<title>mt_202&#45;&gt;mt_442</title>
<path fill="none" stroke="#6b7280" d="M1295.82,-557.04C1302.5,-525.76 1317.52,-476.24 1349.01,-446.4 1389.56,-407.98 1449.27,-387.45 1497.83,-376.57"/>
<polygon fill="#6b7280" stroke="#6b7280" points="1498.01,-378.68 1503.43,-375.36 1497.12,-374.58 1498.01,-378.68"/>
</g>
<!-- mt_250&#45;&gt;mt_202 -->
<g id="edge7" class="edge">
<title>mt_250&#45;&gt;mt_202</title>
<path fill="none" stroke="#6b7280" d="M1438.46,-668.6C1411.24,-653.69 1377.91,-635.42 1349.83,-620.03"/>
<polygon fill="#6b7280" stroke="#6b7280" points="1351.15,-618.36 1344.88,-617.32 1349.13,-622.05 1351.15,-618.36"/>
</g>
<!-- mt_182 -->
<g id="node14" class="node">
<title>mt_182</title>
<path fill="#d1fae5" stroke="#059669" stroke-width="2" d="M1737.05,-727.2C1737.05,-727.2 1610.97,-727.2 1610.97,-727.2 1604.97,-727.2 1598.97,-721.2 1598.97,-715.2 1598.97,-715.2 1598.97,-681.6 1598.97,-681.6 1598.97,-675.6 1604.97,-669.6 1610.97,-669.6 1610.97,-669.6 1737.05,-669.6 1737.05,-669.6 1743.05,-669.6 1749.05,-675.6 1749.05,-681.6 1749.05,-681.6 1749.05,-715.2 1749.05,-715.2 1749.05,-721.2 1743.05,-727.2 1737.05,-727.2"/>
<text xml:space="preserve" text-anchor="middle" x="1674.01" y="-701.1" font-family="Arial" font-size="9.00">mt#182</text>
<text xml:space="preserve" text-anchor="middle" x="1674.01" y="-690.3" font-family="Arial" font-size="9.00">Add AI&#45;Powered Rule Suggestion</text>
</g>
<!-- mt_182&#45;&gt;mt_202 -->
<g id="edge8" class="edge">
<title>mt_182&#45;&gt;mt_202</title>
<path fill="none" stroke="#6b7280" d="M1598.18,-674.55C1592.37,-672.86 1586.6,-671.19 1581.01,-669.6 1492.45,-644.41 1469.45,-641.19 1381.01,-615.6 1377.65,-614.63 1374.23,-613.63 1370.77,-612.6"/>
<polygon fill="#6b7280" stroke="#6b7280" points="1371.44,-610.61 1365.09,-610.91 1370.24,-614.64 1371.44,-610.61"/>
</g>
<!-- mt_232 -->
<g id="node15" class="node">
<title>mt_232</title>
<path fill="#f1f5f9" stroke="#64748b" stroke-width="2" d="M2458.78,-838.8C2458.78,-838.8 2345.24,-838.8 2345.24,-838.8 2339.24,-838.8 2333.24,-832.8 2333.24,-826.8 2333.24,-826.8 2333.24,-793.2 2333.24,-793.2 2333.24,-787.2 2339.24,-781.2 2345.24,-781.2 2345.24,-781.2 2458.78,-781.2 2458.78,-781.2 2464.78,-781.2 2470.78,-787.2 2470.78,-793.2 2470.78,-793.2 2470.78,-826.8 2470.78,-826.8 2470.78,-832.8 2464.78,-838.8 2458.78,-838.8"/>
<text xml:space="preserve" text-anchor="middle" x="2402.01" y="-812.7" font-family="Arial" font-size="9.00">mt#232</text>
<text xml:space="preserve" text-anchor="middle" x="2402.01" y="-801.9" font-family="Arial" font-size="9.00">Improve session PR conflict re</text>
</g>
<!-- mt_231 -->
<g id="node16" class="node">
<title>mt_231</title>
<path fill="#d1fae5" stroke="#059669" stroke-width="2" d="M2460.78,-950.4C2460.78,-950.4 2343.23,-950.4 2343.23,-950.4 2337.23,-950.4 2331.23,-944.4 2331.23,-938.4 2331.23,-938.4 2331.23,-904.8 2331.23,-904.8 2331.23,-898.8 2337.23,-892.8 2343.23,-892.8 2343.23,-892.8 2460.78,-892.8 2460.78,-892.8 2466.78,-892.8 2472.78,-898.8 2472.78,-904.8 2472.78,-904.8 2472.78,-938.4 2472.78,-938.4 2472.78,-944.4 2466.78,-950.4 2460.78,-950.4"/>
<text xml:space="preserve" text-anchor="middle" x="2402.01" y="-924.3" font-family="Arial" font-size="9.00">mt#231</text>
<text xml:space="preserve" text-anchor="middle" x="2402.01" y="-913.5" font-family="Arial" font-size="9.00">Implement session PR refresh f</text>
</g>
<!-- mt_231&#45;&gt;mt_232 -->
<g id="edge11" class="edge">
<title>mt_231&#45;&gt;mt_232</title>
<path fill="none" stroke="#6b7280" d="M2402.01,-891.8C2402.01,-878.09 2402.01,-861.54 2402.01,-847"/>
<polygon fill="#6b7280" stroke="#6b7280" points="2404.11,-847.12 2402.01,-841.12 2399.91,-847.12 2404.11,-847.12"/>
</g>
<!-- mt_233 -->
<g id="node17" class="node">
<title>mt_233</title>
<path fill="#f1f5f9" stroke="#64748b" stroke-width="2" d="M2637.54,-838.8C2637.54,-838.8 2520.48,-838.8 2520.48,-838.8 2514.48,-838.8 2508.48,-832.8 2508.48,-826.8 2508.48,-826.8 2508.48,-793.2 2508.48,-793.2 2508.48,-787.2 2514.48,-781.2 2520.48,-781.2 2520.48,-781.2 2637.54,-781.2 2637.54,-781.2 2643.54,-781.2 2649.54,-787.2 2649.54,-793.2 2649.54,-793.2 2649.54,-826.8 2649.54,-826.8 2649.54,-832.8 2643.54,-838.8 2637.54,-838.8"/>
<text xml:space="preserve" text-anchor="middle" x="2579.01" y="-812.7" font-family="Arial" font-size="9.00">mt#233</text>
<text xml:space="preserve" text-anchor="middle" x="2579.01" y="-801.9" font-family="Arial" font-size="9.00">Setup semantic&#45;release with co</text>
</g>
<!-- mt_234 -->
<g id="node19" class="node">
<title>mt_234</title>
<path fill="#f1f5f9" stroke="#64748b" stroke-width="2" d="M2702.54,-727.2C2702.54,-727.2 2581.48,-727.2 2581.48,-727.2 2575.48,-727.2 2569.48,-721.2 2569.48,-715.2 2569.48,-715.2 2569.48,-681.6 2569.48,-681.6 2569.48,-675.6 2575.48,-669.6 2581.48,-669.6 2581.48,-669.6 2702.54,-669.6 2702.54,-669.6 2708.54,-669.6 2714.54,-675.6 2714.54,-681.6 2714.54,-681.6 2714.54,-715.2 2714.54,-715.2 2714.54,-721.2 2708.54,-727.2 2702.54,-727.2"/>
<text xml:space="preserve" text-anchor="middle" x="2642.01" y="-701.1" font-family="Arial" font-size="9.00">mt#234</text>
<text xml:space="preserve" text-anchor="middle" x="2642.01" y="-690.3" font-family="Arial" font-size="9.00">Implement Dagger CI Pipeline w</text>
</g>
<!-- mt_233&#45;&gt;mt_234 -->
<g id="edge14" class="edge">
<title>mt_233&#45;&gt;mt_234</title>
<path fill="none" stroke="#6b7280" d="M2595.56,-780.2C2603.66,-766.11 2613.48,-749.02 2622,-734.2"/>
<polygon fill="#6b7280" stroke="#6b7280" points="2623.64,-735.56 2624.81,-729.32 2620,-733.47 2623.64,-735.56"/>
</g>
<!-- mt_164 -->
<g id="node18" class="node">
<title>mt_164</title>
<path fill="#d1fae5" stroke="#059669" stroke-width="2" d="M2640.79,-950.4C2640.79,-950.4 2521.22,-950.4 2521.22,-950.4 2515.22,-950.4 2509.22,-944.4 2509.22,-938.4 2509.22,-938.4 2509.22,-904.8 2509.22,-904.8 2509.22,-898.8 2515.22,-892.8 2521.22,-892.8 2521.22,-892.8 2640.79,-892.8 2640.79,-892.8 2646.79,-892.8 2652.79,-898.8 2652.79,-904.8 2652.79,-904.8 2652.79,-938.4 2652.79,-938.4 2652.79,-944.4 2646.79,-950.4 2640.79,-950.4"/>
<text xml:space="preserve" text-anchor="middle" x="2581.01" y="-924.3" font-family="Arial" font-size="9.00">mt#164</text>
<text xml:space="preserve" text-anchor="middle" x="2581.01" y="-913.5" font-family="Arial" font-size="9.00">Add Bun Binary Builds and GitH</text>
</g>
<!-- mt_164&#45;&gt;mt_233 -->
<g id="edge12" class="edge">
<title>mt_164&#45;&gt;mt_233</title>
<path fill="none" stroke="#6b7280" d="M2580.48,-891.8C2580.23,-878.09 2579.93,-861.54 2579.67,-847"/>
<polygon fill="#6b7280" stroke="#6b7280" points="2581.77,-847.08 2579.56,-841.12 2577.57,-847.15 2581.77,-847.08"/>
</g>
<!-- mt_164&#45;&gt;mt_234 -->
<g id="edge13" class="edge">
<title>mt_164&#45;&gt;mt_234</title>
<path fill="none" stroke="#6b7280" d="M2624.33,-891.93C2641.31,-878.11 2658.88,-859.92 2668.01,-838.8 2682.53,-805.22 2671.43,-763.66 2659.57,-734.7"/>
<polygon fill="#6b7280" stroke="#6b7280" points="2661.58,-734.07 2657.3,-729.38 2657.72,-735.72 2661.58,-734.07"/>
</g>
<!-- mt_237&#45;&gt;mt_239 -->
<g id="edge16" class="edge">
<title>mt_237&#45;&gt;mt_239</title>
<path fill="none" stroke="#6b7280" d="M616.4,-557C624.29,-542.78 635.75,-525.52 647.15,-510.61"/>
<polygon fill="#6b7280" stroke="#6b7280" points="648.71,-512.02 650.74,-506 645.4,-509.44 648.71,-512.02"/>
</g>
<!-- mt_237&#45;&gt;mt_240 -->
<g id="edge19" class="edge">
<title>mt_237&#45;&gt;mt_240</title>
<path fill="none" stroke="#6b7280" d="M536.69,-578.02C488.77,-568.66 430.13,-548.25 401.01,-504 386.93,-482.62 390.99,-469.96 401.01,-446.4 409.08,-427.44 423.94,-410.74 440.09,-397.46"/>
<polygon fill="#6b7280" stroke="#6b7280" points="441.03,-399.4 444.43,-394.03 438.42,-396.11 441.03,-399.4"/>
</g>
<!-- mt_237&#45;&gt;mt_243 -->
<g id="edge24" class="edge">
<title>mt_237&#45;&gt;mt_243</title>
<path fill="none" stroke="#6b7280" d="M536.64,-577.94C489.46,-568.64 431.21,-548.33 401.01,-504 383.62,-478.48 392.81,-357.13 411.01,-334.8 457.21,-278.13 541.15,-259.66 603.61,-254.16"/>
<polygon fill="#6b7280" stroke="#6b7280" points="603.41,-256.28 609.22,-253.7 603.07,-252.1 603.41,-256.28"/>
</g>
<!-- mt_237&#45;&gt;mt_441 -->
<g id="edge68" class="edge">
<title>mt_237&#45;&gt;mt_441</title>
<path fill="none" stroke="#6b7280" d="M681.46,-576.31C835.05,-556.2 1192.85,-509.35 1358.71,-487.63"/>
<polygon fill="#6b7280" stroke="#6b7280" points="1358.8,-489.74 1364.48,-486.88 1358.25,-485.57 1358.8,-489.74"/>
</g>
<!-- mt_237&#45;&gt;mt_442 -->
<g id="edge77" class="edge">
<title>mt_237&#45;&gt;mt_442</title>
<path fill="none" stroke="#6b7280" d="M681.07,-568.63C793.2,-541.99 1016.29,-489.29 1206.01,-446.4 1306.34,-423.72 1422.04,-398.56 1497.87,-382.22"/>
<polygon fill="#6b7280" stroke="#6b7280" points="1498.18,-384.3 1503.6,-380.98 1497.29,-380.19 1498.18,-384.3"/>
</g>
<!-- mt_239&#45;&gt;mt_237 -->
<g id="edge91" class="edge">
<title>mt_239&#45;&gt;mt_237</title>
<path fill="none" stroke="#6b7280" d="M675.72,-504.8C667.87,-519 656.42,-536.26 645.03,-551.19"/>
<polygon fill="#6b7280" stroke="#6b7280" points="643.46,-549.79 641.43,-555.81 646.77,-552.37 643.46,-549.79"/>
</g>
<!-- mt_239&#45;&gt;mt_240 -->
<g id="edge21" class="edge">
<title>mt_239&#45;&gt;mt_240</title>
<path fill="none" stroke="#6b7280" d="M635.98,-445.4C611.82,-430.61 582.29,-412.53 557.29,-397.22"/>
<polygon fill="#6b7280" stroke="#6b7280" points="558.54,-395.53 552.33,-394.18 556.35,-399.11 558.54,-395.53"/>
</g>
<!-- mt_239&#45;&gt;mt_243 -->
<g id="edge26" class="edge">
<title>mt_239&#45;&gt;mt_243</title>
<path fill="none" stroke="#6b7280" d="M683.01,-445.73C683.01,-405.69 683.01,-332.75 683.01,-289"/>
<polygon fill="#6b7280" stroke="#6b7280" points="685.11,-289.22 683.01,-283.22 680.91,-289.22 685.11,-289.22"/>
</g>
<!-- mt_239&#45;&gt;mt_361 -->
<g id="edge37" class="edge">
<title>mt_239&#45;&gt;mt_361</title>
<path fill="none" stroke="#6b7280" d="M717.16,-445.4C734.48,-430.8 755.6,-413 773.6,-397.82"/>
<polygon fill="#6b7280" stroke="#6b7280" points="774.69,-399.65 777.92,-394.18 771.98,-396.44 774.69,-399.65"/>
</g>
<!-- mt_238 -->
<g id="node22" class="node">
<title>mt_238</title>
<path fill="#d1fae5" stroke="#059669" stroke-width="2" d="M1171.29,-615.6C1171.29,-615.6 1048.72,-615.6 1048.72,-615.6 1042.72,-615.6 1036.72,-609.6 1036.72,-603.6 1036.72,-603.6 1036.72,-570 1036.72,-570 1036.72,-564 1042.72,-558 1048.72,-558 1048.72,-558 1171.29,-558 1171.29,-558 1177.29,-558 1183.29,-564 1183.29,-570 1183.29,-570 1183.29,-603.6 1183.29,-603.6 1183.29,-609.6 1177.29,-615.6 1171.29,-615.6"/>
<text xml:space="preserve" text-anchor="middle" x="1110.01" y="-589.5" font-family="Arial" font-size="9.00">mt#238</text>
<text xml:space="preserve" text-anchor="middle" x="1110.01" y="-578.7" font-family="Arial" font-size="9.00">Phase 1: Implement Basic Subta</text>
</g>
<!-- mt_238&#45;&gt;mt_239 -->
<g id="edge17" class="edge">
<title>mt_238&#45;&gt;mt_239</title>
<path fill="none" stroke="#6b7280" d="M1036.12,-566.83C961.16,-547.59 845.32,-517.86 766.95,-497.74"/>
<polygon fill="#6b7280" stroke="#6b7280" points="767.75,-495.78 761.42,-496.33 766.71,-499.85 767.75,-495.78"/>
</g>
<!-- mt_238&#45;&gt;mt_240 -->
<g id="edge20" class="edge">
<title>mt_238&#45;&gt;mt_240</title>
<path fill="none" stroke="#6b7280" d="M1046.95,-557.06C980.56,-527.35 872.6,-480.62 777.01,-446.4 714.15,-423.9 641.71,-402.39 587.25,-387.08"/>
<polygon fill="#6b7280" stroke="#6b7280" points="587.82,-385.06 581.48,-385.46 586.69,-389.1 587.82,-385.06"/>
</g>
<!-- mt_238&#45;&gt;mt_243 -->
<g id="edge25" class="edge">
<title>mt_238&#45;&gt;mt_243</title>
<path fill="none" stroke="#6b7280" d="M1114.01,-557.22C1119.54,-505.36 1122.93,-395.53 1064.01,-334.8 1023.05,-292.58 861.93,-269.97 762.8,-259.82"/>
<polygon fill="#6b7280" stroke="#6b7280" points="763.16,-257.74 756.98,-259.23 762.74,-261.92 763.16,-257.74"/>
</g>
<!-- mt_238&#45;&gt;mt_441 -->
<g id="edge69" class="edge">
<title>mt_238&#45;&gt;mt_441</title>
<path fill="none" stroke="#6b7280" d="M1184.16,-561.61C1235.78,-544.78 1304.79,-522.26 1359.01,-504.58"/>
<polygon fill="#6b7280" stroke="#6b7280" points="1359.39,-506.66 1364.44,-502.81 1358.09,-502.67 1359.39,-506.66"/>
</g>
<!-- mt_238&#45;&gt;mt_442 -->
<g id="edge75" class="edge">
<title>mt_238&#45;&gt;mt_442</title>
<path fill="none" stroke="#6b7280" d="M1142.49,-557.18C1179.35,-526.01 1242.37,-476.6 1304.01,-446.4 1365.98,-416.03 1441.41,-394.63 1497.74,-381.35"/>
<polygon fill="#6b7280" stroke="#6b7280" points="1498.02,-383.44 1503.38,-380.03 1497.06,-379.35 1498.02,-383.44"/>
</g>
<!-- mt_240&#45;&gt;mt_237 -->
<g id="edge92" class="edge">
<title>mt_240&#45;&gt;mt_237</title>
<path fill="none" stroke="#6b7280" d="M478.6,-393.09C463.38,-407 445.99,-425.29 437.01,-446.4 426.99,-469.96 422.93,-482.62 437.01,-504 458.3,-536.34 495.35,-555.95 529.78,-567.82"/>
<polygon fill="#6b7280" stroke="#6b7280" points="528.83,-569.71 535.18,-569.61 530.15,-565.73 528.83,-569.71"/>
</g>
<!-- mt_240&#45;&gt;mt_243 -->
<g id="edge27" class="edge">
<title>mt_240&#45;&gt;mt_243</title>
<path fill="none" stroke="#6b7280" d="M551.04,-333.8C575.2,-319.01 604.73,-300.93 629.73,-285.62"/>
<polygon fill="#6b7280" stroke="#6b7280" points="630.67,-287.51 634.69,-282.58 628.48,-283.93 630.67,-287.51"/>
</g>
<!-- mt_004 -->
<g id="node24" class="node">
<title>mt_004</title>
<path fill="#d1fae5" stroke="#059669" stroke-width="2" d="M558.53,-504C558.53,-504 449.49,-504 449.49,-504 443.49,-504 437.49,-498 437.49,-492 437.49,-492 437.49,-458.4 437.49,-458.4 437.49,-452.4 443.49,-446.4 449.49,-446.4 449.49,-446.4 558.53,-446.4 558.53,-446.4 564.53,-446.4 570.53,-452.4 570.53,-458.4 570.53,-458.4 570.53,-492 570.53,-492 570.53,-498 564.53,-504 558.53,-504"/>
<text xml:space="preserve" text-anchor="middle" x="504.01" y="-477.9" font-family="Arial" font-size="9.00">mt#004</text>
<text xml:space="preserve" text-anchor="middle" x="504.01" y="-467.1" font-family="Arial" font-size="9.00">Add `&#45;&#45;task` Option to `sessio</text>
</g>
<!-- mt_004&#45;&gt;mt_240 -->
<g id="edge23" class="edge">
<title>mt_004&#45;&gt;mt_240</title>
<path fill="none" stroke="#6b7280" d="M504.01,-445.4C504.01,-431.69 504.01,-415.14 504.01,-400.6"/>
<polygon fill="#6b7280" stroke="#6b7280" points="506.11,-400.72 504.01,-394.72 501.91,-400.72 506.11,-400.72"/>
</g>
<!-- mt_179 -->
<g id="node26" class="node">
<title>mt_179</title>
<path fill="#f1f5f9" stroke="#64748b" stroke-width="2" d="M1397.54,-838.8C1397.54,-838.8 1274.48,-838.8 1274.48,-838.8 1268.48,-838.8 1262.48,-832.8 1262.48,-826.8 1262.48,-826.8 1262.48,-793.2 1262.48,-793.2 1262.48,-787.2 1268.48,-781.2 1274.48,-781.2 1274.48,-781.2 1397.54,-781.2 1397.54,-781.2 1403.54,-781.2 1409.54,-787.2 1409.54,-793.2 1409.54,-793.2 1409.54,-826.8 1409.54,-826.8 1409.54,-832.8 1403.54,-838.8 1397.54,-838.8"/>
<text xml:space="preserve" text-anchor="middle" x="1336.01" y="-812.7" font-family="Arial" font-size="9.00">mt#179</text>
<text xml:space="preserve" text-anchor="middle" x="1336.01" y="-801.9" font-family="Arial" font-size="9.00">Investigate Embeddings/RAG for</text>
</g>
<!-- mt_179&#45;&gt;mt_250 -->
<g id="edge31" class="edge">
<title>mt_179&#45;&gt;mt_250</title>
<path fill="none" stroke="#6b7280" d="M1376.73,-780.2C1397.48,-765.54 1422.79,-747.63 1444.32,-732.41"/>
<polygon fill="#6b7280" stroke="#6b7280" points="1445.36,-734.25 1449.05,-729.07 1442.94,-730.82 1445.36,-734.25"/>
</g>
<!-- mt_179&#45;&gt;mt_254 -->
<g id="edge39" class="edge">
<title>mt_179&#45;&gt;mt_254</title>
<path fill="none" stroke="#6b7280" d="M1329.44,-780.2C1326.28,-766.36 1322.47,-749.63 1319.13,-735"/>
<polygon fill="#6b7280" stroke="#6b7280" points="1321.25,-734.86 1317.87,-729.48 1317.16,-735.8 1321.25,-734.86"/>
</g>
<!-- mt_158 -->
<g id="node27" class="node">
<title>mt_158</title>
<path fill="#d1fae5" stroke="#059669" stroke-width="2" d="M2025.54,-838.8C2025.54,-838.8 1900.48,-838.8 1900.48,-838.8 1894.48,-838.8 1888.48,-832.8 1888.48,-826.8 1888.48,-826.8 1888.48,-793.2 1888.48,-793.2 1888.48,-787.2 1894.48,-781.2 1900.48,-781.2 1900.48,-781.2 2025.54,-781.2 2025.54,-781.2 2031.54,-781.2 2037.54,-787.2 2037.54,-793.2 2037.54,-793.2 2037.54,-826.8 2037.54,-826.8 2037.54,-832.8 2031.54,-838.8 2025.54,-838.8"/>
<text xml:space="preserve" text-anchor="middle" x="1963.01" y="-812.7" font-family="Arial" font-size="9.00">mt#158</text>
<text xml:space="preserve" text-anchor="middle" x="1963.01" y="-801.9" font-family="Arial" font-size="9.00">Implement Session&#45;Aware Versio</text>
</g>
<!-- mt_158&#45;&gt;mt_250 -->
<g id="edge32" class="edge">
<title>mt_158&#45;&gt;mt_250</title>
<path fill="none" stroke="#6b7280" d="M1887.56,-785.72C1881.64,-784.12 1875.74,-782.59 1870.01,-781.2 1743.01,-750.45 1707.86,-758.53 1581.01,-727.2 1577.8,-726.41 1574.53,-725.56 1571.24,-724.69"/>
<polygon fill="#6b7280" stroke="#6b7280" points="1571.8,-722.66 1565.46,-723.11 1570.7,-726.72 1571.8,-722.66"/>
</g>
<!-- mt_293 -->
<g id="node47" class="node">
<title>mt_293</title>
<path fill="#f1f5f9" stroke="#64748b" stroke-width="2" d="M2205.29,-727.2C2205.29,-727.2 2090.72,-727.2 2090.72,-727.2 2084.72,-727.2 2078.72,-721.2 2078.72,-715.2 2078.72,-715.2 2078.72,-681.6 2078.72,-681.6 2078.72,-675.6 2084.72,-669.6 2090.72,-669.6 2090.72,-669.6 2205.29,-669.6 2205.29,-669.6 2211.29,-669.6 2217.29,-675.6 2217.29,-681.6 2217.29,-681.6 2217.29,-715.2 2217.29,-715.2 2217.29,-721.2 2211.29,-727.2 2205.29,-727.2"/>
<text xml:space="preserve" text-anchor="middle" x="2148.01" y="-701.1" font-family="Arial" font-size="9.00">mt#293</text>
<text xml:space="preserve" text-anchor="middle" x="2148.01" y="-690.3" font-family="Arial" font-size="9.00">Add session chat interface con</text>
</g>
<!-- mt_158&#45;&gt;mt_293 -->
<g id="edge53" class="edge">
<title>mt_158&#45;&gt;mt_293</title>
<path fill="none" stroke="#6b7280" d="M2011.62,-780.2C2036.58,-765.41 2067.11,-747.33 2092.94,-732.02"/>
<polygon fill="#6b7280" stroke="#6b7280" points="2094.01,-733.83 2098.1,-728.97 2091.87,-730.22 2094.01,-733.83"/>
</g>
<!-- mt_349 -->
<g id="node54" class="node">
<title>mt_349</title>
<path fill="#f1f5f9" stroke="#64748b" stroke-width="2" d="M1986.78,-615.6C1986.78,-615.6 1871.24,-615.6 1871.24,-615.6 1865.24,-615.6 1859.24,-609.6 1859.24,-603.6 1859.24,-603.6 1859.24,-570 1859.24,-570 1859.24,-564 1865.24,-558 1871.24,-558 1871.24,-558 1986.78,-558 1986.78,-558 1992.78,-558 1998.78,-564 1998.78,-570 1998.78,-570 1998.78,-603.6 1998.78,-603.6 1998.78,-609.6 1992.78,-615.6 1986.78,-615.6"/>
<text xml:space="preserve" text-anchor="middle" x="1929.01" y="-589.5" font-family="Arial" font-size="9.00">mt#349</text>
<text xml:space="preserve" text-anchor="middle" x="1929.01" y="-578.7" font-family="Arial" font-size="9.00">Analyze Cursor Chat History to</text>
</g>
<!-- mt_158&#45;&gt;mt_349 -->
<g id="edge59" class="edge">
<title>mt_158&#45;&gt;mt_349</title>
<path fill="none" stroke="#6b7280" d="M1958.63,-780.53C1952.48,-740.49 1941.27,-667.55 1934.54,-623.8"/>
<polygon fill="#6b7280" stroke="#6b7280" points="1936.64,-623.61 1933.65,-618 1932.49,-624.25 1936.64,-623.61"/>
</g>
<!-- mt_251 -->
<g id="node28" class="node">
<title>mt_251</title>
<path fill="#f1f5f9" stroke="#64748b" stroke-width="2" d="M2204.29,-950.4C2204.29,-950.4 2091.73,-950.4 2091.73,-950.4 2085.73,-950.4 2079.73,-944.4 2079.73,-938.4 2079.73,-938.4 2079.73,-904.8 2079.73,-904.8 2079.73,-898.8 2085.73,-892.8 2091.73,-892.8 2091.73,-892.8 2204.29,-892.8 2204.29,-892.8 2210.29,-892.8 2216.29,-898.8 2216.29,-904.8 2216.29,-904.8 2216.29,-938.4 2216.29,-938.4 2216.29,-944.4 2210.29,-950.4 2204.29,-950.4"/>
<text xml:space="preserve" text-anchor="middle" x="2148.01" y="-924.3" font-family="Arial" font-size="9.00">mt#251</text>
<text xml:space="preserve" text-anchor="middle" x="2148.01" y="-913.5" font-family="Arial" font-size="9.00">Add Mobile/Voice Interface for</text>
</g>
<!-- mt_252 -->
<g id="node29" class="node">
<title>mt_252</title>
<path fill="#f1f5f9" stroke="#64748b" stroke-width="2" d="M2210.79,-838.8C2210.79,-838.8 2085.22,-838.8 2085.22,-838.8 2079.22,-838.8 2073.22,-832.8 2073.22,-826.8 2073.22,-826.8 2073.22,-793.2 2073.22,-793.2 2073.22,-787.2 2079.22,-781.2 2085.22,-781.2 2085.22,-781.2 2210.79,-781.2 2210.79,-781.2 2216.79,-781.2 2222.79,-787.2 2222.79,-793.2 2222.79,-793.2 2222.79,-826.8 2222.79,-826.8 2222.79,-832.8 2216.79,-838.8 2210.79,-838.8"/>
<text xml:space="preserve" text-anchor="middle" x="2148.01" y="-812.7" font-family="Arial" font-size="9.00">mt#252</text>
<text xml:space="preserve" text-anchor="middle" x="2148.01" y="-801.9" font-family="Arial" font-size="9.00">Design and implement task mana</text>
</g>
<!-- mt_251&#45;&gt;mt_252 -->
<g id="edge82" class="edge">
<title>mt_251&#45;&gt;mt_252</title>
<path fill="none" stroke="#6b7280" d="M2135.96,-891.8C2134.31,-878.09 2134.06,-861.54 2135.24,-847"/>
<polygon fill="#6b7280" stroke="#6b7280" points="2137.32,-847.29 2135.83,-841.11 2133.14,-846.87 2137.32,-847.29"/>
</g>
<!-- mt_251&#45;&gt;mt_293 -->
<g id="edge52" class="edge">
<title>mt_251&#45;&gt;mt_293</title>
<path fill="none" stroke="#6b7280" d="M2194.74,-892.16C2212.72,-878.49 2231.26,-860.35 2241.01,-838.8 2251.56,-815.47 2251.56,-804.53 2241.01,-781.2 2232.25,-761.84 2216.4,-745.23 2200.23,-732.14"/>
<polygon fill="#6b7280" stroke="#6b7280" points="2201.95,-730.83 2195.93,-728.78 2199.36,-734.13 2201.95,-730.83"/>
</g>
<!-- mt_252&#45;&gt;mt_251 -->
<g id="edge33" class="edge">
<title>mt_252&#45;&gt;mt_251</title>
<path fill="none" stroke="#6b7280" d="M2160.03,-839.6C2161.7,-853.3 2161.96,-869.84 2160.79,-884.4"/>
<polygon fill="#6b7280" stroke="#6b7280" points="2158.71,-884.12 2160.21,-890.3 2162.89,-884.54 2158.71,-884.12"/>
</g>
<!-- mt_252&#45;&gt;mt_293 -->
<g id="edge51" class="edge">
<title>mt_252&#45;&gt;mt_293</title>
<path fill="none" stroke="#6b7280" d="M2148.01,-780.2C2148.01,-766.49 2148.01,-749.94 2148.01,-735.4"/>
<polygon fill="#6b7280" stroke="#6b7280" points="2150.11,-735.52 2148.01,-729.52 2145.91,-735.52 2150.11,-735.52"/>
</g>
<!-- mt_279 -->
<g id="node30" class="node">
<title>mt_279</title>
<path fill="#f1f5f9" stroke="#64748b" stroke-width="2" d="M1863.79,-169.2C1863.79,-169.2 1748.23,-169.2 1748.23,-169.2 1742.23,-169.2 1736.23,-163.2 1736.23,-157.2 1736.23,-157.2 1736.23,-123.6 1736.23,-123.6 1736.23,-117.6 1742.23,-111.6 1748.23,-111.6 1748.23,-111.6 1863.79,-111.6 1863.79,-111.6 1869.79,-111.6 1875.79,-117.6 1875.79,-123.6 1875.79,-123.6 1875.79,-157.2 1875.79,-157.2 1875.79,-163.2 1869.79,-169.2 1863.79,-169.2"/>
<text xml:space="preserve" text-anchor="middle" x="1806.01" y="-143.1" font-family="Arial" font-size="9.00">mt#279</text>
<text xml:space="preserve" text-anchor="middle" x="1806.01" y="-132.3" font-family="Arial" font-size="9.00">Implement multi&#45;layered agent </text>
</g>
<!-- mt_327 -->
<g id="node73" class="node">
<title>mt_327</title>
<path fill="#f1f5f9" stroke="#64748b" stroke-width="2" d="M2039.55,-57.6C2039.55,-57.6 1926.47,-57.6 1926.47,-57.6 1920.47,-57.6 1914.47,-51.6 1914.47,-45.6 1914.47,-45.6 1914.47,-12 1914.47,-12 1914.47,-6 1920.47,0 1926.47,0 1926.47,0 2039.55,0 2039.55,0 2045.55,0 2051.55,-6 2051.55,-12 2051.55,-12 2051.55,-45.6 2051.55,-45.6 2051.55,-51.6 2045.55,-57.6 2039.55,-57.6"/>
<text xml:space="preserve" text-anchor="middle" x="1983.01" y="-31.5" font-family="Arial" font-size="9.00">mt#327</text>
<text xml:space="preserve" text-anchor="middle" x="1983.01" y="-20.7" font-family="Arial" font-size="9.00">Analyze and architect general </text>
</g>
<!-- mt_279&#45;&gt;mt_327 -->
<g id="edge86" class="edge">
<title>mt_279&#45;&gt;mt_327</title>
<path fill="none" stroke="#6b7280" d="M1852.51,-110.6C1876.4,-95.81 1905.61,-77.73 1930.33,-62.42"/>
<polygon fill="#6b7280" stroke="#6b7280" points="1931.23,-64.33 1935.22,-59.39 1929.01,-60.76 1931.23,-64.33"/>
</g>
<!-- mt_258 -->
<g id="node31" class="node">
<title>mt_258</title>
<path fill="#f1f5f9" stroke="#64748b" stroke-width="2" d="M2059.54,-392.4C2059.54,-392.4 1946.48,-392.4 1946.48,-392.4 1940.48,-392.4 1934.48,-386.4 1934.48,-380.4 1934.48,-380.4 1934.48,-346.8 1934.48,-346.8 1934.48,-340.8 1940.48,-334.8 1946.48,-334.8 1946.48,-334.8 2059.54,-334.8 2059.54,-334.8 2065.54,-334.8 2071.54,-340.8 2071.54,-346.8 2071.54,-346.8 2071.54,-380.4 2071.54,-380.4 2071.54,-386.4 2065.54,-392.4 2059.54,-392.4"/>
<text xml:space="preserve" text-anchor="middle" x="2003.01" y="-366.3" font-family="Arial" font-size="9.00">mt#258</text>
<text xml:space="preserve" text-anchor="middle" x="2003.01" y="-355.5" font-family="Arial" font-size="9.00">Design multi&#45;agent cybernetic </text>
</g>
<!-- mt_258&#45;&gt;mt_279 -->
<g id="edge34" class="edge">
<title>mt_258&#45;&gt;mt_279</title>
<path fill="none" stroke="#6b7280" d="M1956.54,-333.81C1935.64,-319.48 1911.56,-300.92 1893.01,-280.8 1863.8,-249.11 1838.77,-206.27 1823.15,-176.49"/>
<polygon fill="#6b7280" stroke="#6b7280" points="1825.09,-175.67 1820.47,-171.31 1821.36,-177.6 1825.09,-175.67"/>
</g>
<!-- mt_284 -->
<g id="node32" class="node">
<title>mt_284</title>
<path fill="#f1f5f9" stroke="#64748b" stroke-width="2" d="M2043.28,-280.8C2043.28,-280.8 1922.73,-280.8 1922.73,-280.8 1916.73,-280.8 1910.73,-274.8 1910.73,-268.8 1910.73,-268.8 1910.73,-235.2 1910.73,-235.2 1910.73,-229.2 1916.73,-223.2 1922.73,-223.2 1922.73,-223.2 2043.28,-223.2 2043.28,-223.2 2049.28,-223.2 2055.28,-229.2 2055.28,-235.2 2055.28,-235.2 2055.28,-268.8 2055.28,-268.8 2055.28,-274.8 2049.28,-280.8 2043.28,-280.8"/>
<text xml:space="preserve" text-anchor="middle" x="1983.01" y="-254.7" font-family="Arial" font-size="9.00">mt#284</text>
<text xml:space="preserve" text-anchor="middle" x="1983.01" y="-243.9" font-family="Arial" font-size="9.00">Integrate Task Graph System wi</text>
</g>
<!-- mt_258&#45;&gt;mt_284 -->
<g id="edge36" class="edge">
<title>mt_258&#45;&gt;mt_284</title>
<path fill="none" stroke="#6b7280" d="M1997.75,-333.8C1995.23,-319.96 1992.18,-303.23 1989.5,-288.6"/>
<polygon fill="#6b7280" stroke="#6b7280" points="1991.64,-288.62 1988.5,-283.09 1987.51,-289.37 1991.64,-288.62"/>
</g>
<!-- mt_258&#45;&gt;mt_327 -->
<g id="edge85" class="edge">
<title>mt_258&#45;&gt;mt_327</title>
<path fill="none" stroke="#6b7280" d="M2036.54,-333.84C2050.68,-319.52 2065.56,-300.96 2073.01,-280.8 2099.07,-210.26 2103.43,-180.37 2073.01,-111.6 2064.64,-92.68 2049.49,-76.27 2033.99,-63.2"/>
<polygon fill="#6b7280" stroke="#6b7280" points="2035.42,-61.66 2029.44,-59.5 2032.77,-64.92 2035.42,-61.66"/>
</g>
<!-- mt_468 -->
<g id="node74" class="node">
<title>mt_468</title>
<path fill="#f1f5f9" stroke="#64748b" stroke-width="2" d="M2293.28,-280.8C2293.28,-280.8 2176.73,-280.8 2176.73,-280.8 2170.73,-280.8 2164.73,-274.8 2164.73,-268.8 2164.73,-268.8 2164.73,-235.2 2164.73,-235.2 2164.73,-229.2 2170.73,-223.2 2176.73,-223.2 2176.73,-223.2 2293.28,-223.2 2293.28,-223.2 2299.28,-223.2 2305.28,-229.2 2305.28,-235.2 2305.28,-235.2 2305.28,-268.8 2305.28,-268.8 2305.28,-274.8 2299.28,-280.8 2293.28,-280.8"/>
<text xml:space="preserve" text-anchor="middle" x="2235.01" y="-254.7" font-family="Arial" font-size="9.00">mt#468</text>
<text xml:space="preserve" text-anchor="middle" x="2235.01" y="-243.9" font-family="Arial" font-size="9.00">Implement Tool Call Supervisio</text>
</g>
<!-- mt_258&#45;&gt;mt_468 -->
<g id="edge88" class="edge">
<title>mt_258&#45;&gt;mt_468</title>
<path fill="none" stroke="#6b7280" d="M2063.96,-333.8C2095.81,-318.76 2134.85,-300.31 2167.6,-284.85"/>
<polygon fill="#6b7280" stroke="#6b7280" points="2168.16,-286.9 2172.69,-282.44 2166.37,-283.1 2168.16,-286.9"/>
</g>
<!-- mt_260 -->
<g id="node33" class="node">
<title>mt_260</title>
<path fill="#f1f5f9" stroke="#64748b" stroke-width="2" d="M2042.53,-169.2C2042.53,-169.2 1923.48,-169.2 1923.48,-169.2 1917.48,-169.2 1911.48,-163.2 1911.48,-157.2 1911.48,-157.2 1911.48,-123.6 1911.48,-123.6 1911.48,-117.6 1917.48,-111.6 1923.48,-111.6 1923.48,-111.6 2042.53,-111.6 2042.53,-111.6 2048.53,-111.6 2054.53,-117.6 2054.53,-123.6 2054.53,-123.6 2054.53,-157.2 2054.53,-157.2 2054.53,-163.2 2048.53,-169.2 2042.53,-169.2"/>
<text xml:space="preserve" text-anchor="middle" x="1983.01" y="-143.1" font-family="Arial" font-size="9.00">mt#260</text>
<text xml:space="preserve" text-anchor="middle" x="1983.01" y="-132.3" font-family="Arial" font-size="9.00">Implement prompt templates for</text>
</g>
<!-- mt_284&#45;&gt;mt_260 -->
<g id="edge45" class="edge">
<title>mt_284&#45;&gt;mt_260</title>
<path fill="none" stroke="#6b7280" d="M1970.96,-222.2C1969.31,-208.49 1969.06,-191.94 1970.24,-177.4"/>
<polygon fill="#6b7280" stroke="#6b7280" points="1972.32,-177.69 1970.83,-171.51 1968.14,-177.27 1972.32,-177.69"/>
</g>
<!-- mt_260&#45;&gt;mt_284 -->
<g id="edge35" class="edge">
<title>mt_260&#45;&gt;mt_284</title>
<path fill="none" stroke="#6b7280" d="M1995.03,-170C1996.7,-183.7 1996.96,-200.24 1995.79,-214.8"/>
<polygon fill="#6b7280" stroke="#6b7280" points="1993.71,-214.52 1995.21,-220.7 1997.89,-214.94 1993.71,-214.52"/>
</g>
<!-- mt_260&#45;&gt;mt_327 -->
<g id="edge87" class="edge">
<title>mt_260&#45;&gt;mt_327</title>
<path fill="none" stroke="#6b7280" d="M1983.01,-110.6C1983.01,-96.89 1983.01,-80.34 1983.01,-65.8"/>
<polygon fill="#6b7280" stroke="#6b7280" points="1985.11,-65.92 1983.01,-59.92 1980.91,-65.92 1985.11,-65.92"/>
</g>
<!-- mt_253 -->
<g id="node36" class="node">
<title>mt_253</title>
<path fill="#d1fae5" stroke="#059669" stroke-width="2" d="M1574.27,-838.8C1574.27,-838.8 1457.74,-838.8 1457.74,-838.8 1451.74,-838.8 1445.74,-832.8 1445.74,-826.8 1445.74,-826.8 1445.74,-793.2 1445.74,-793.2 1445.74,-787.2 1451.74,-781.2 1457.74,-781.2 1457.74,-781.2 1574.27,-781.2 1574.27,-781.2 1580.27,-781.2 1586.27,-787.2 1586.27,-793.2 1586.27,-793.2 1586.27,-826.8 1586.27,-826.8 1586.27,-832.8 1580.27,-838.8 1574.27,-838.8"/>
<text xml:space="preserve" text-anchor="middle" x="1516.01" y="-812.7" font-family="Arial" font-size="9.00">mt#253</text>
<text xml:space="preserve" text-anchor="middle" x="1516.01" y="-801.9" font-family="Arial" font-size="9.00">Implement Task Similarity Sear</text>
</g>
<!-- mt_253&#45;&gt;mt_254 -->
<g id="edge40" class="edge">
<title>mt_253&#45;&gt;mt_254</title>
<path fill="none" stroke="#6b7280" d="M1462.15,-780.2C1434.24,-765.29 1400.08,-747.02 1371.3,-731.63"/>
<polygon fill="#6b7280" stroke="#6b7280" points="1372.48,-729.88 1366.2,-728.91 1370.5,-733.59 1372.48,-729.88"/>
</g>
<!-- mt_253&#45;&gt;mt_442 -->
<g id="edge79" class="edge">
<title>mt_253&#45;&gt;mt_442</title>
<path fill="none" stroke="#6b7280" d="M1586.96,-795.5C1653.39,-781.25 1745.54,-756.78 1767.01,-727.2 1811.18,-666.34 1795.2,-627.72 1767.01,-558 1739.28,-489.42 1674.28,-431.67 1628.74,-397.6"/>
<polygon fill="#6b7280" stroke="#6b7280" points="1630.02,-395.93 1623.95,-394.05 1627.52,-399.31 1630.02,-395.93"/>
</g>
<!-- mt_273 -->
<g id="node37" class="node">
<title>mt_273</title>
<path fill="#f1f5f9" stroke="#64748b" stroke-width="2" d="M3022.04,-838.8C3022.04,-838.8 2891.98,-838.8 2891.98,-838.8 2885.98,-838.8 2879.98,-832.8 2879.98,-826.8 2879.98,-826.8 2879.98,-793.2 2879.98,-793.2 2879.98,-787.2 2885.98,-781.2 2891.98,-781.2 2891.98,-781.2 3022.04,-781.2 3022.04,-781.2 3028.04,-781.2 3034.04,-787.2 3034.04,-793.2 3034.04,-793.2 3034.04,-826.8 3034.04,-826.8 3034.04,-832.8 3028.04,-838.8 3022.04,-838.8"/>
<text xml:space="preserve" text-anchor="middle" x="2957.01" y="-812.7" font-family="Arial" font-size="9.00">mt#273</text>
<text xml:space="preserve" text-anchor="middle" x="2957.01" y="-801.9" font-family="Arial" font-size="9.00">Implement AI&#45;Powered PR Conten</text>
</g>
<!-- mt_203 -->
<g id="node38" class="node">
<title>mt_203</title>
<path fill="#d1fae5" stroke="#059669" stroke-width="2" d="M2835.54,-950.4C2835.54,-950.4 2700.48,-950.4 2700.48,-950.4 2694.48,-950.4 2688.48,-944.4 2688.48,-938.4 2688.48,-938.4 2688.48,-904.8 2688.48,-904.8 2688.48,-898.8 2694.48,-892.8 2700.48,-892.8 2700.48,-892.8 2835.54,-892.8 2835.54,-892.8 2841.54,-892.8 2847.54,-898.8 2847.54,-904.8 2847.54,-904.8 2847.54,-938.4 2847.54,-938.4 2847.54,-944.4 2841.54,-950.4 2835.54,-950.4"/>
<text xml:space="preserve" text-anchor="middle" x="2768.01" y="-924.3" font-family="Arial" font-size="9.00">mt#203</text>
<text xml:space="preserve" text-anchor="middle" x="2768.01" y="-913.5" font-family="Arial" font-size="9.00">Improve Session PR Command Out</text>
</g>
<!-- mt_203&#45;&gt;mt_273 -->
<g id="edge42" class="edge">
<title>mt_203&#45;&gt;mt_273</title>
<path fill="none" stroke="#6b7280" d="M2817.67,-891.8C2843.28,-876.95 2874.62,-858.77 2901.09,-843.43"/>
<polygon fill="#6b7280" stroke="#6b7280" points="2901.91,-845.38 2906.05,-840.55 2899.8,-841.75 2901.91,-845.38"/>
</g>
<!-- mt_010 -->
<g id="node39" class="node">
<title>mt_010</title>
<path fill="#d1fae5" stroke="#059669" stroke-width="2" d="M3018.54,-950.4C3018.54,-950.4 2895.48,-950.4 2895.48,-950.4 2889.48,-950.4 2883.48,-944.4 2883.48,-938.4 2883.48,-938.4 2883.48,-904.8 2883.48,-904.8 2883.48,-898.8 2889.48,-892.8 2895.48,-892.8 2895.48,-892.8 3018.54,-892.8 3018.54,-892.8 3024.54,-892.8 3030.54,-898.8 3030.54,-904.8 3030.54,-904.8 3030.54,-938.4 3030.54,-938.4 3030.54,-944.4 3024.54,-950.4 3018.54,-950.4"/>
<text xml:space="preserve" text-anchor="middle" x="2957.01" y="-924.3" font-family="Arial" font-size="9.00">mt#010</text>
<text xml:space="preserve" text-anchor="middle" x="2957.01" y="-913.5" font-family="Arial" font-size="9.00">~~Enhance `git pr` Command to </text>
</g>
<!-- mt_010&#45;&gt;mt_273 -->
<g id="edge43" class="edge">
<title>mt_010&#45;&gt;mt_273</title>
<path fill="none" stroke="#6b7280" d="M2957.01,-891.8C2957.01,-878.09 2957.01,-861.54 2957.01,-847"/>
<polygon fill="#6b7280" stroke="#6b7280" points="2959.11,-847.12 2957.01,-841.12 2954.91,-847.12 2959.11,-847.12"/>
</g>
<!-- mt_025 -->
<g id="node40" class="node">
<title>mt_025</title>
<path fill="#d1fae5" stroke="#059669" stroke-width="2" d="M3211.54,-950.4C3211.54,-950.4 3078.48,-950.4 3078.48,-950.4 3072.48,-950.4 3066.48,-944.4 3066.48,-938.4 3066.48,-938.4 3066.48,-904.8 3066.48,-904.8 3066.48,-898.8 3072.48,-892.8 3078.48,-892.8 3078.48,-892.8 3211.54,-892.8 3211.54,-892.8 3217.54,-892.8 3223.54,-898.8 3223.54,-904.8 3223.54,-904.8 3223.54,-938.4 3223.54,-938.4 3223.54,-944.4 3217.54,-950.4 3211.54,-950.4"/>
<text xml:space="preserve" text-anchor="middle" x="3145.01" y="-924.3" font-family="Arial" font-size="9.00">mt#025</text>
<text xml:space="preserve" text-anchor="middle" x="3145.01" y="-913.5" font-family="Arial" font-size="9.00">Add PR Merging Commands for Se</text>
</g>
<!-- mt_025&#45;&gt;mt_273 -->
<g id="edge44" class="edge">
<title>mt_025&#45;&gt;mt_273</title>
<path fill="none" stroke="#6b7280" d="M3095.61,-891.8C3070.13,-876.95 3038.96,-858.77 3012.63,-843.43"/>
<polygon fill="#6b7280" stroke="#6b7280" points="3013.95,-841.76 3007.71,-840.56 3011.83,-845.39 3013.95,-841.76"/>
</g>
<!-- mt_277 -->
<g id="node44" class="node">
<title>mt_277</title>
<path fill="#f1f5f9" stroke="#64748b" stroke-width="2" d="M3394.03,-838.8C3394.03,-838.8 3267.99,-838.8 3267.99,-838.8 3261.99,-838.8 3255.99,-832.8 3255.99,-826.8 3255.99,-826.8 3255.99,-793.2 3255.99,-793.2 3255.99,-787.2 3261.99,-781.2 3267.99,-781.2 3267.99,-781.2 3394.03,-781.2 3394.03,-781.2 3400.03,-781.2 3406.03,-787.2 3406.03,-793.2 3406.03,-793.2 3406.03,-826.8 3406.03,-826.8 3406.03,-832.8 3400.03,-838.8 3394.03,-838.8"/>
<text xml:space="preserve" text-anchor="middle" x="3331.01" y="-812.7" font-family="Arial" font-size="9.00">mt#277</text>
<text xml:space="preserve" text-anchor="middle" x="3331.01" y="-801.9" font-family="Arial" font-size="9.00">Implement Stacked PR Workflow </text>
</g>
<!-- mt_025&#45;&gt;mt_277 -->
<g id="edge50" class="edge">
<title>mt_025&#45;&gt;mt_277</title>
<path fill="none" stroke="#6b7280" d="M3193.88,-891.8C3219.09,-876.95 3249.93,-858.77 3275.98,-843.43"/>
<polygon fill="#6b7280" stroke="#6b7280" points="3276.74,-845.42 3280.84,-840.56 3274.6,-841.8 3276.74,-845.42"/>
</g>
<!-- mt_262 -->
<g id="node41" class="node">
<title>mt_262</title>
<path fill="#f1f5f9" stroke="#64748b" stroke-width="2" d="M3660.04,-838.8C3660.04,-838.8 3547.97,-838.8 3547.97,-838.8 3541.97,-838.8 3535.97,-832.8 3535.97,-826.8 3535.97,-826.8 3535.97,-793.2 3535.97,-793.2 3535.97,-787.2 3541.97,-781.2 3547.97,-781.2 3547.97,-781.2 3660.04,-781.2 3660.04,-781.2 3666.04,-781.2 3672.04,-787.2 3672.04,-793.2 3672.04,-793.2 3672.04,-826.8 3672.04,-826.8 3672.04,-832.8 3666.04,-838.8 3660.04,-838.8"/>
<text xml:space="preserve" text-anchor="middle" x="3604.01" y="-812.7" font-family="Arial" font-size="9.00">mt#262</text>
<text xml:space="preserve" text-anchor="middle" x="3604.01" y="-801.9" font-family="Arial" font-size="9.00">Explore consolidating ESLint r</text>
</g>
<!-- mt_178 -->
<g id="node42" class="node">
<title>mt_178</title>
<path fill="#d1fae5" stroke="#059669" stroke-width="2" d="M3758.29,-950.4C3758.29,-950.4 3637.73,-950.4 3637.73,-950.4 3631.73,-950.4 3625.73,-944.4 3625.73,-938.4 3625.73,-938.4 3625.73,-904.8 3625.73,-904.8 3625.73,-898.8 3631.73,-892.8 3637.73,-892.8 3637.73,-892.8 3758.29,-892.8 3758.29,-892.8 3764.29,-892.8 3770.29,-898.8 3770.29,-904.8 3770.29,-904.8 3770.29,-938.4 3770.29,-938.4 3770.29,-944.4 3764.29,-950.4 3758.29,-950.4"/>
<text xml:space="preserve" text-anchor="middle" x="3698.01" y="-924.3" font-family="Arial" font-size="9.00">mt#178</text>
<text xml:space="preserve" text-anchor="middle" x="3698.01" y="-913.5" font-family="Arial" font-size="9.00">Establish Codemod Best Practic</text>
</g>
<!-- mt_178&#45;&gt;mt_262 -->
<g id="edge46" class="edge">
<title>mt_178&#45;&gt;mt_262</title>
<path fill="none" stroke="#6b7280" d="M3673.31,-891.8C3661.01,-877.46 3646.05,-860.01 3633.18,-845.01"/>
<polygon fill="#6b7280" stroke="#6b7280" points="3635.03,-843.94 3629.53,-840.75 3631.84,-846.67 3635.03,-843.94"/>
</g>
<!-- mt_268 -->
<g id="node43" class="node">
<title>mt_268</title>
<path fill="#f1f5f9" stroke="#64748b" stroke-width="2" d="M3857.53,-838.8C3857.53,-838.8 3720.49,-838.8 3720.49,-838.8 3714.49,-838.8 3708.49,-832.8 3708.49,-826.8 3708.49,-826.8 3708.49,-793.2 3708.49,-793.2 3708.49,-787.2 3714.49,-781.2 3720.49,-781.2 3720.49,-781.2 3857.53,-781.2 3857.53,-781.2 3863.53,-781.2 3869.53,-787.2 3869.53,-793.2 3869.53,-793.2 3869.53,-826.8 3869.53,-826.8 3869.53,-832.8 3863.53,-838.8 3857.53,-838.8"/>
<text xml:space="preserve" text-anchor="middle" x="3789.01" y="-812.7" font-family="Arial" font-size="9.00">mt#268</text>
<text xml:space="preserve" text-anchor="middle" x="3789.01" y="-801.9" font-family="Arial" font-size="9.00">Complete AST&#45;Only Codemod Fram</text>
</g>
<!-- mt_178&#45;&gt;mt_268 -->
<g id="edge47" class="edge">
<title>mt_178&#45;&gt;mt_268</title>
<path fill="none" stroke="#6b7280" d="M3721.92,-891.8C3733.83,-877.46 3748.31,-860.01 3760.77,-845.01"/>
<polygon fill="#6b7280" stroke="#6b7280" points="3762.08,-846.73 3764.29,-840.77 3758.84,-844.04 3762.08,-846.73"/>
</g>
<!-- mt_144 -->
<g id="node45" class="node">
<title>mt_144</title>
<path fill="#d1fae5" stroke="#059669" stroke-width="2" d="M3390.79,-950.4C3390.79,-950.4 3271.23,-950.4 3271.23,-950.4 3265.23,-950.4 3259.23,-944.4 3259.23,-938.4 3259.23,-938.4 3259.23,-904.8 3259.23,-904.8 3259.23,-898.8 3265.23,-892.8 3271.23,-892.8 3271.23,-892.8 3390.79,-892.8 3390.79,-892.8 3396.79,-892.8 3402.79,-898.8 3402.79,-904.8 3402.79,-904.8 3402.79,-938.4 3402.79,-938.4 3402.79,-944.4 3396.79,-950.4 3390.79,-950.4"/>
<text xml:space="preserve" text-anchor="middle" x="3331.01" y="-924.3" font-family="Arial" font-size="9.00">mt#144</text>
<text xml:space="preserve" text-anchor="middle" x="3331.01" y="-913.5" font-family="Arial" font-size="9.00">Fix Session PR and Git Prepare</text>
</g>
<!-- mt_144&#45;&gt;mt_277 -->
<g id="edge48" class="edge">
<title>mt_144&#45;&gt;mt_277</title>
<path fill="none" stroke="#6b7280" d="M3331.01,-891.8C3331.01,-878.09 3331.01,-861.54 3331.01,-847"/>
<polygon fill="#6b7280" stroke="#6b7280" points="3333.11,-847.12 3331.01,-841.12 3328.91,-847.12 3333.11,-847.12"/>
</g>
<!-- mt_174 -->
<g id="node46" class="node">
<title>mt_174</title>
<path fill="#d1fae5" stroke="#059669" stroke-width="2" d="M3577.28,-950.4C3577.28,-950.4 3450.74,-950.4 3450.74,-950.4 3444.74,-950.4 3438.74,-944.4 3438.74,-938.4 3438.74,-938.4 3438.74,-904.8 3438.74,-904.8 3438.74,-898.8 3444.74,-892.8 3450.74,-892.8 3450.74,-892.8 3577.28,-892.8 3577.28,-892.8 3583.28,-892.8 3589.28,-898.8 3589.28,-904.8 3589.28,-904.8 3589.28,-938.4 3589.28,-938.4 3589.28,-944.4 3583.28,-950.4 3577.28,-950.4"/>
<text xml:space="preserve" text-anchor="middle" x="3514.01" y="-924.3" font-family="Arial" font-size="9.00">mt#174</text>
<text xml:space="preserve" text-anchor="middle" x="3514.01" y="-913.5" font-family="Arial" font-size="9.00">Review Session PR Workflow Arc</text>
</g>
<!-- mt_174&#45;&gt;mt_277 -->
<g id="edge49" class="edge">
<title>mt_174&#45;&gt;mt_277</title>
<path fill="none" stroke="#6b7280" d="M3465.93,-891.8C3441.23,-877.01 3411.03,-858.93 3385.48,-843.62"/>
<polygon fill="#6b7280" stroke="#6b7280" points="3386.61,-841.85 3380.38,-840.57 3384.45,-845.46 3386.61,-841.85"/>
</g>
<!-- mt_307 -->
<g id="node49" class="node">
<title>mt_307</title>
<path fill="#d1fae5" stroke="#059669" stroke-width="2" d="M1029.54,-838.8C1029.54,-838.8 918.47,-838.8 918.47,-838.8 912.47,-838.8 906.47,-832.8 906.47,-826.8 906.47,-826.8 906.47,-793.2 906.47,-793.2 906.47,-787.2 912.47,-781.2 918.47,-781.2 918.47,-781.2 1029.54,-781.2 1029.54,-781.2 1035.54,-781.2 1041.54,-787.2 1041.54,-793.2 1041.54,-793.2 1041.54,-826.8 1041.54,-826.8 1041.54,-832.8 1035.54,-838.8 1029.54,-838.8"/>
<text xml:space="preserve" text-anchor="middle" x="974.01" y="-812.7" font-family="Arial" font-size="9.00">mt#307</text>
<text xml:space="preserve" text-anchor="middle" x="974.01" y="-801.9" font-family="Arial" font-size="9.00">Explore adding session lint co</text>
</g>
<!-- mt_307&#45;&gt;mt_321 -->
<g id="edge54" class="edge">
<title>mt_307&#45;&gt;mt_321</title>
<path fill="none" stroke="#6b7280" d="M974.53,-780.2C974.78,-766.49 975.09,-749.94 975.35,-735.4"/>
<polygon fill="#6b7280" stroke="#6b7280" points="977.45,-735.55 975.46,-729.52 973.25,-735.48 977.45,-735.55"/>
</g>
<!-- mt_324 -->
<g id="node50" class="node">
<title>mt_324</title>
<path fill="#f1f5f9" stroke="#64748b" stroke-width="2" d="M4126.78,-838.8C4126.78,-838.8 4007.23,-838.8 4007.23,-838.8 4001.23,-838.8 3995.23,-832.8 3995.23,-826.8 3995.23,-826.8 3995.23,-793.2 3995.23,-793.2 3995.23,-787.2 4001.23,-781.2 4007.23,-781.2 4007.23,-781.2 4126.78,-781.2 4126.78,-781.2 4132.78,-781.2 4138.78,-787.2 4138.78,-793.2 4138.78,-793.2 4138.78,-826.8 4138.78,-826.8 4138.78,-832.8 4132.78,-838.8 4126.78,-838.8"/>
<text xml:space="preserve" text-anchor="middle" x="4067.01" y="-812.7" font-family="Arial" font-size="9.00">mt#324</text>
<text xml:space="preserve" text-anchor="middle" x="4067.01" y="-801.9" font-family="Arial" font-size="9.00">Add MCP Client Registration Fu</text>
</g>
<!-- mt_047 -->
<g id="node51" class="node">
<title>mt_047</title>
<path fill="#d1fae5" stroke="#059669" stroke-width="2" d="M3944.28,-950.4C3944.28,-950.4 3821.74,-950.4 3821.74,-950.4 3815.74,-950.4 3809.74,-944.4 3809.74,-938.4 3809.74,-938.4 3809.74,-904.8 3809.74,-904.8 3809.74,-898.8 3815.74,-892.8 3821.74,-892.8 3821.74,-892.8 3944.28,-892.8 3944.28,-892.8 3950.28,-892.8 3956.28,-898.8 3956.28,-904.8 3956.28,-904.8 3956.28,-938.4 3956.28,-938.4 3956.28,-944.4 3950.28,-950.4 3944.28,-950.4"/>
<text xml:space="preserve" text-anchor="middle" x="3883.01" y="-924.3" font-family="Arial" font-size="9.00">mt#047</text>
<text xml:space="preserve" text-anchor="middle" x="3883.01" y="-913.5" font-family="Arial" font-size="9.00">Configure MCP Server in Minsky</text>
</g>
<!-- mt_047&#45;&gt;mt_324 -->
<g id="edge56" class="edge">
<title>mt_047&#45;&gt;mt_324</title>
<path fill="none" stroke="#6b7280" d="M3931.35,-891.8C3956.19,-877.01 3986.55,-858.93 4012.24,-843.62"/>
<polygon fill="#6b7280" stroke="#6b7280" points="4013.29,-845.44 4017.37,-840.57 4011.14,-841.83 4013.29,-845.44"/>
</g>
<!-- mt_282 -->
<g id="node52" class="node">
<title>mt_282</title>
<path fill="#d1fae5" stroke="#059669" stroke-width="2" d="M4129.77,-950.4C4129.77,-950.4 4004.25,-950.4 4004.25,-950.4 3998.25,-950.4 3992.25,-944.4 3992.25,-938.4 3992.25,-938.4 3992.25,-904.8 3992.25,-904.8 3992.25,-898.8 3998.25,-892.8 4004.25,-892.8 4004.25,-892.8 4129.77,-892.8 4129.77,-892.8 4135.77,-892.8 4141.77,-898.8 4141.77,-904.8 4141.77,-904.8 4141.77,-938.4 4141.77,-938.4 4141.77,-944.4 4135.77,-950.4 4129.77,-950.4"/>
<text xml:space="preserve" text-anchor="middle" x="4067.01" y="-924.3" font-family="Arial" font-size="9.00">mt#282</text>
<text xml:space="preserve" text-anchor="middle" x="4067.01" y="-913.5" font-family="Arial" font-size="9.00">Port MCP Server from FastMCP t</text>
</g>
<!-- mt_282&#45;&gt;mt_324 -->
<g id="edge57" class="edge">
<title>mt_282&#45;&gt;mt_324</title>
<path fill="none" stroke="#6b7280" d="M4067.01,-891.8C4067.01,-878.09 4067.01,-861.54 4067.01,-847"/>
<polygon fill="#6b7280" stroke="#6b7280" points="4069.11,-847.12 4067.01,-841.12 4064.91,-847.12 4069.11,-847.12"/>
</g>
<!-- mt_286 -->
<g id="node53" class="node">
<title>mt_286</title>
<path fill="#d1fae5" stroke="#059669" stroke-width="2" d="M4310.28,-950.4C4310.28,-950.4 4189.74,-950.4 4189.74,-950.4 4183.74,-950.4 4177.74,-944.4 4177.74,-938.4 4177.74,-938.4 4177.74,-904.8 4177.74,-904.8 4177.74,-898.8 4183.74,-892.8 4189.74,-892.8 4189.74,-892.8 4310.28,-892.8 4310.28,-892.8 4316.28,-892.8 4322.28,-898.8 4322.28,-904.8 4322.28,-904.8 4322.28,-938.4 4322.28,-938.4 4322.28,-944.4 4316.28,-950.4 4310.28,-950.4"/>
<text xml:space="preserve" text-anchor="middle" x="4250.01" y="-924.3" font-family="Arial" font-size="9.00">mt#286</text>
<text xml:space="preserve" text-anchor="middle" x="4250.01" y="-913.5" font-family="Arial" font-size="9.00">Fix MCP Server and CLI Issues </text>
</g>
<!-- mt_286&#45;&gt;mt_324 -->
<g id="edge58" class="edge">
<title>mt_286&#45;&gt;mt_324</title>
<path fill="none" stroke="#6b7280" d="M4201.93,-891.8C4177.23,-877.01 4147.03,-858.93 4121.48,-843.62"/>
<polygon fill="#6b7280" stroke="#6b7280" points="4122.61,-841.85 4116.38,-840.57 4120.45,-845.46 4122.61,-841.85"/>
</g>
<!-- mt_349&#45;&gt;mt_441 -->
<g id="edge65" class="edge">
<title>mt_349&#45;&gt;mt_441</title>
<path fill="none" stroke="#6b7280" d="M1858.26,-569.75C1772.07,-550.19 1626.47,-517.15 1533.38,-496.03"/>
<polygon fill="#6b7280" stroke="#6b7280" points="1534,-494.01 1527.69,-494.73 1533.07,-498.11 1534,-494.01"/>
</g>
<!-- mt_349&#45;&gt;mt_442 -->
<g id="edge72" class="edge">
<title>mt_349&#45;&gt;mt_442</title>
<path fill="none" stroke="#6b7280" d="M1916.05,-557.04C1900.43,-525.52 1871.31,-475.56 1832.01,-446.4 1782.18,-409.42 1714.88,-388.7 1662.37,-377.37"/>
<polygon fill="#6b7280" stroke="#6b7280" points="1662.85,-375.33 1656.55,-376.15 1661.98,-379.44 1662.85,-375.33"/>
</g>
<!-- mt_350 -->
<g id="node55" class="node">
<title>mt_350</title>
<path fill="#f1f5f9" stroke="#64748b" stroke-width="2" d="M4493.79,-838.8C4493.79,-838.8 4366.23,-838.8 4366.23,-838.8 4360.23,-838.8 4354.23,-832.8 4354.23,-826.8 4354.23,-826.8 4354.23,-793.2 4354.23,-793.2 4354.23,-787.2 4360.23,-781.2 4366.23,-781.2 4366.23,-781.2 4493.79,-781.2 4493.79,-781.2 4499.79,-781.2 4505.79,-787.2 4505.79,-793.2 4505.79,-793.2 4505.79,-826.8 4505.79,-826.8 4505.79,-832.8 4499.79,-838.8 4493.79,-838.8"/>
<text xml:space="preserve" text-anchor="middle" x="4430.01" y="-812.7" font-family="Arial" font-size="9.00">mt#350</text>
<text xml:space="preserve" text-anchor="middle" x="4430.01" y="-801.9" font-family="Arial" font-size="9.00">Explore Active Sessions Comman</text>
</g>
<!-- mt_229 -->
<g id="node56" class="node">
<title>mt_229</title>
<path fill="#d1fae5" stroke="#059669" stroke-width="2" d="M4489.79,-950.4C4489.79,-950.4 4370.23,-950.4 4370.23,-950.4 4364.23,-950.4 4358.23,-944.4 4358.23,-938.4 4358.23,-938.4 4358.23,-904.8 4358.23,-904.8 4358.23,-898.8 4364.23,-892.8 4370.23,-892.8 4370.23,-892.8 4489.79,-892.8 4489.79,-892.8 4495.79,-892.8 4501.79,-898.8 4501.79,-904.8 4501.79,-904.8 4501.79,-938.4 4501.79,-938.4 4501.79,-944.4 4495.79,-950.4 4489.79,-950.4"/>
<text xml:space="preserve" text-anchor="middle" x="4430.01" y="-924.3" font-family="Arial" font-size="9.00">mt#229</text>
<text xml:space="preserve" text-anchor="middle" x="4430.01" y="-913.5" font-family="Arial" font-size="9.00">Evaluate mandatory task&#45;sessio</text>
</g>
<!-- mt_229&#45;&gt;mt_350 -->
<g id="edge60" class="edge">
<title>mt_229&#45;&gt;mt_350</title>
<path fill="none" stroke="#6b7280" d="M4430.01,-891.8C4430.01,-878.09 4430.01,-861.54 4430.01,-847"/>
<polygon fill="#6b7280" stroke="#6b7280" points="4432.11,-847.12 4430.01,-841.12 4427.91,-847.12 4432.11,-847.12"/>
</g>
<!-- mt_363 -->
<g id="node58" class="node">
<title>mt_363</title>
<path fill="#f1f5f9" stroke="#64748b" stroke-width="2" d="M4766.04,-838.8C4766.04,-838.8 4643.98,-838.8 4643.98,-838.8 4637.98,-838.8 4631.98,-832.8 4631.98,-826.8 4631.98,-826.8 4631.98,-793.2 4631.98,-793.2 4631.98,-787.2 4637.98,-781.2 4643.98,-781.2 4643.98,-781.2 4766.04,-781.2 4766.04,-781.2 4772.04,-781.2 4778.04,-787.2 4778.04,-793.2 4778.04,-793.2 4778.04,-826.8 4778.04,-826.8 4778.04,-832.8 4772.04,-838.8 4766.04,-838.8"/>
<text xml:space="preserve" text-anchor="middle" x="4705.01" y="-812.7" font-family="Arial" font-size="9.00">mt#363</text>
<text xml:space="preserve" text-anchor="middle" x="4705.01" y="-801.9" font-family="Arial" font-size="9.00">Implement Linear Backend for M</text>
</g>
<!-- mt_356 -->
<g id="node59" class="node">
<title>mt_356</title>
<path fill="#d1fae5" stroke="#059669" stroke-width="2" d="M4674.03,-950.4C4674.03,-950.4 4549.99,-950.4 4549.99,-950.4 4543.99,-950.4 4537.99,-944.4 4537.99,-938.4 4537.99,-938.4 4537.99,-904.8 4537.99,-904.8 4537.99,-898.8 4543.99,-892.8 4549.99,-892.8 4549.99,-892.8 4674.03,-892.8 4674.03,-892.8 4680.03,-892.8 4686.03,-898.8 4686.03,-904.8 4686.03,-904.8 4686.03,-938.4 4686.03,-938.4 4686.03,-944.4 4680.03,-950.4 4674.03,-950.4"/>
<text xml:space="preserve" text-anchor="middle" x="4612.01" y="-924.3" font-family="Arial" font-size="9.00">mt#356</text>
<text xml:space="preserve" text-anchor="middle" x="4612.01" y="-913.5" font-family="Arial" font-size="9.00">Implement Multi&#45;Backend Task S</text>
</g>
<!-- mt_356&#45;&gt;mt_363 -->
<g id="edge62" class="edge">
<title>mt_356&#45;&gt;mt_363</title>
<path fill="none" stroke="#6b7280" d="M4636.44,-891.8C4648.62,-877.46 4663.42,-860.01 4676.15,-845.01"/>
<polygon fill="#6b7280" stroke="#6b7280" points="4677.48,-846.69 4679.76,-840.76 4674.27,-843.97 4677.48,-846.69"/>
</g>
<!-- mt_357 -->
<g id="node60" class="node">
<title>mt_357</title>
<path fill="#d1fae5" stroke="#059669" stroke-width="2" d="M4853.54,-950.4C4853.54,-950.4 4734.47,-950.4 4734.47,-950.4 4728.47,-950.4 4722.47,-944.4 4722.47,-938.4 4722.47,-938.4 4722.47,-904.8 4722.47,-904.8 4722.47,-898.8 4728.47,-892.8 4734.47,-892.8 4734.47,-892.8 4853.54,-892.8 4853.54,-892.8 4859.54,-892.8 4865.54,-898.8 4865.54,-904.8 4865.54,-904.8 4865.54,-938.4 4865.54,-938.4 4865.54,-944.4 4859.54,-950.4 4853.54,-950.4"/>
<text xml:space="preserve" text-anchor="middle" x="4794.01" y="-924.3" font-family="Arial" font-size="9.00">mt#357</text>
<text xml:space="preserve" text-anchor="middle" x="4794.01" y="-913.5" font-family="Arial" font-size="9.00">Integrate GitHub Issues Backen</text>
</g>
<!-- mt_357&#45;&gt;mt_363 -->
<g id="edge63" class="edge">
<title>mt_357&#45;&gt;mt_363</title>
<path fill="none" stroke="#6b7280" d="M4770.62,-891.8C4759.08,-877.58 4745.06,-860.32 4732.95,-845.41"/>
<polygon fill="#6b7280" stroke="#6b7280" points="4734.6,-844.11 4729.19,-840.78 4731.34,-846.76 4734.6,-844.11"/>
</g>
<!-- mt_398 -->
<g id="node61" class="node">
<title>mt_398</title>
<path fill="#f1f5f9" stroke="#64748b" stroke-width="2" d="M5036.78,-838.8C5036.78,-838.8 4921.24,-838.8 4921.24,-838.8 4915.24,-838.8 4909.24,-832.8 4909.24,-826.8 4909.24,-826.8 4909.24,-793.2 4909.24,-793.2 4909.24,-787.2 4915.24,-781.2 4921.24,-781.2 4921.24,-781.2 5036.78,-781.2 5036.78,-781.2 5042.78,-781.2 5048.78,-787.2 5048.78,-793.2 5048.78,-793.2 5048.78,-826.8 5048.78,-826.8 5048.78,-832.8 5042.78,-838.8 5036.78,-838.8"/>
<text xml:space="preserve" text-anchor="middle" x="4979.01" y="-812.7" font-family="Arial" font-size="9.00">mt#398</text>
<text xml:space="preserve" text-anchor="middle" x="4979.01" y="-801.9" font-family="Arial" font-size="9.00">Improve test mock filesystem a</text>
</g>
<!-- mt_176 -->
<g id="node62" class="node">
<title>mt_176</title>
<path fill="#d1fae5" stroke="#059669" stroke-width="2" d="M5044.3,-950.4C5044.3,-950.4 4913.72,-950.4 4913.72,-950.4 4907.72,-950.4 4901.72,-944.4 4901.72,-938.4 4901.72,-938.4 4901.72,-904.8 4901.72,-904.8 4901.72,-898.8 4907.72,-892.8 4913.72,-892.8 4913.72,-892.8 5044.3,-892.8 5044.3,-892.8 5050.3,-892.8 5056.3,-898.8 5056.3,-904.8 5056.3,-904.8 5056.3,-938.4 5056.3,-938.4 5056.3,-944.4 5050.3,-950.4 5044.3,-950.4"/>
<text xml:space="preserve" text-anchor="middle" x="4979.01" y="-924.3" font-family="Arial" font-size="9.00">mt#176</text>
<text xml:space="preserve" text-anchor="middle" x="4979.01" y="-913.5" font-family="Arial" font-size="9.00">Comprehensive Session Database</text>
</g>
<!-- mt_176&#45;&gt;mt_398 -->
<g id="edge64" class="edge">
<title>mt_176&#45;&gt;mt_398</title>
<path fill="none" stroke="#6b7280" d="M4979.01,-891.8C4979.01,-878.09 4979.01,-861.54 4979.01,-847"/>
<polygon fill="#6b7280" stroke="#6b7280" points="4981.11,-847.12 4979.01,-841.12 4976.91,-847.12 4981.11,-847.12"/>
</g>
<!-- mt_441&#45;&gt;mt_442 -->
<g id="edge71" class="edge">
<title>mt_441&#45;&gt;mt_442</title>
<path fill="none" stroke="#6b7280" d="M1481.22,-445.4C1499.06,-430.8 1520.83,-413 1539.39,-397.82"/>
<polygon fill="#6b7280" stroke="#6b7280" points="1540.55,-399.59 1543.87,-394.16 1537.89,-396.34 1540.55,-399.59"/>
</g>
<!-- mt_256 -->
<g id="node64" class="node">
<title>mt_256</title>
<path fill="#d1fae5" stroke="#059669" stroke-width="2" d="M1537.03,-615.6C1537.03,-615.6 1410.99,-615.6 1410.99,-615.6 1404.99,-615.6 1398.99,-609.6 1398.99,-603.6 1398.99,-603.6 1398.99,-570 1398.99,-570 1398.99,-564 1404.99,-558 1410.99,-558 1410.99,-558 1537.03,-558 1537.03,-558 1543.03,-558 1549.03,-564 1549.03,-570 1549.03,-570 1549.03,-603.6 1549.03,-603.6 1549.03,-609.6 1543.03,-615.6 1537.03,-615.6"/>
<text xml:space="preserve" text-anchor="middle" x="1474.01" y="-589.5" font-family="Arial" font-size="9.00">mt#256</text>
<text xml:space="preserve" text-anchor="middle" x="1474.01" y="-578.7" font-family="Arial" font-size="9.00">Implement Context&#45;Aware Tool M</text>
</g>
<!-- mt_256&#45;&gt;mt_441 -->
<g id="edge66" class="edge">
<title>mt_256&#45;&gt;mt_441</title>
<path fill="none" stroke="#6b7280" d="M1466.65,-557C1463.12,-543.16 1458.84,-526.43 1455.1,-511.8"/>
<polygon fill="#6b7280" stroke="#6b7280" points="1457.21,-511.56 1453.69,-506.27 1453.14,-512.6 1457.21,-511.56"/>
</g>
<!-- mt_256&#45;&gt;mt_442 -->
<g id="edge76" class="edge">
<title>mt_256&#45;&gt;mt_442</title>
<path fill="none" stroke="#6b7280" d="M1503.72,-557.07C1517.43,-542.34 1532.88,-523.44 1543.01,-504 1560.17,-471.04 1569.87,-429.44 1574.99,-400.3"/>
<polygon fill="#6b7280" stroke="#6b7280" points="1577.01,-400.93 1575.94,-394.66 1572.87,-400.23 1577.01,-400.93"/>
</g>
<!-- mt_082 -->
<g id="node65" class="node">
<title>mt_082</title>
<path fill="#d1fae5" stroke="#059669" stroke-width="2" d="M1737.3,-615.6C1737.3,-615.6 1596.72,-615.6 1596.72,-615.6 1590.72,-615.6 1584.72,-609.6 1584.72,-603.6 1584.72,-603.6 1584.72,-570 1584.72,-570 1584.72,-564 1590.72,-558 1596.72,-558 1596.72,-558 1737.3,-558 1737.3,-558 1743.3,-558 1749.3,-564 1749.3,-570 1749.3,-570 1749.3,-603.6 1749.3,-603.6 1749.3,-609.6 1743.3,-615.6 1737.3,-615.6"/>
<text xml:space="preserve" text-anchor="middle" x="1667.01" y="-589.5" font-family="Arial" font-size="9.00">mt#082</text>
<text xml:space="preserve" text-anchor="middle" x="1667.01" y="-578.7" font-family="Arial" font-size="9.00">Add Context Management Command</text>
</g>
<!-- mt_082&#45;&gt;mt_441 -->
<g id="edge70" class="edge">
<title>mt_082&#45;&gt;mt_441</title>
<path fill="none" stroke="#6b7280" d="M1608.94,-557C1578.74,-542.02 1541.72,-523.67 1510.61,-508.24"/>
<polygon fill="#6b7280" stroke="#6b7280" points="1511.73,-506.45 1505.43,-505.67 1509.87,-510.21 1511.73,-506.45"/>
</g>
<!-- mt_082&#45;&gt;mt_442 -->
<g id="edge74" class="edge">
<title>mt_082&#45;&gt;mt_442</title>
<path fill="none" stroke="#6b7280" d="M1655.81,-557.33C1640,-517.13 1611.14,-443.75 1593.95,-400.05"/>
<polygon fill="#6b7280" stroke="#6b7280" points="1596,-399.53 1591.85,-394.71 1592.09,-401.07 1596,-399.53"/>
</g>
<!-- mt_235 -->
<g id="node67" class="node">
<title>mt_235</title>
<path fill="#d1fae5" stroke="#059669" stroke-width="2" d="M2061.29,-504C2061.29,-504 1944.72,-504 1944.72,-504 1938.72,-504 1932.72,-498 1932.72,-492 1932.72,-492 1932.72,-458.4 1932.72,-458.4 1932.72,-452.4 1938.72,-446.4 1944.72,-446.4 1944.72,-446.4 2061.29,-446.4 2061.29,-446.4 2067.29,-446.4 2073.29,-452.4 2073.29,-458.4 2073.29,-458.4 2073.29,-492 2073.29,-492 2073.29,-498 2067.29,-504 2061.29,-504"/>
<text xml:space="preserve" text-anchor="middle" x="2003.01" y="-477.9" font-family="Arial" font-size="9.00">mt#235</text>
<text xml:space="preserve" text-anchor="middle" x="2003.01" y="-467.1" font-family="Arial" font-size="9.00">Add metadata support to tasks </text>
</g>
<!-- mt_235&#45;&gt;mt_258 -->
<g id="edge83" class="edge">
<title>mt_235&#45;&gt;mt_258</title>
<path fill="none" stroke="#6b7280" d="M2003.01,-445.4C2003.01,-431.69 2003.01,-415.14 2003.01,-400.6"/>
<polygon fill="#6b7280" stroke="#6b7280" points="2005.11,-400.72 2003.01,-394.72 2000.91,-400.72 2005.11,-400.72"/>
</g>
<!-- mt_235&#45;&gt;mt_442 -->
<g id="edge78" class="edge">
<title>mt_235&#45;&gt;mt_442</title>
<path fill="none" stroke="#6b7280" d="M1931.83,-453.51C1923.15,-451.07 1914.38,-448.65 1906.01,-446.4 1823.23,-424.16 1728.11,-400.51 1662.07,-384.39"/>
<polygon fill="#6b7280" stroke="#6b7280" points="1662.76,-382.4 1656.44,-383.02 1661.77,-386.48 1662.76,-382.4"/>
</g>
<!-- mt_190 -->
<g id="node68" class="node">
<title>mt_190</title>
<path fill="#f1f5f9" stroke="#64748b" stroke-width="2" d="M5320.79,-838.8C5320.79,-838.8 5197.23,-838.8 5197.23,-838.8 5191.23,-838.8 5185.23,-832.8 5185.23,-826.8 5185.23,-826.8 5185.23,-793.2 5185.23,-793.2 5185.23,-787.2 5191.23,-781.2 5197.23,-781.2 5197.23,-781.2 5320.79,-781.2 5320.79,-781.2 5326.79,-781.2 5332.79,-787.2 5332.79,-793.2 5332.79,-793.2 5332.79,-826.8 5332.79,-826.8 5332.79,-832.8 5326.79,-838.8 5320.79,-838.8"/>
<text xml:space="preserve" text-anchor="middle" x="5259.01" y="-812.7" font-family="Arial" font-size="9.00">mt#190</text>
<text xml:space="preserve" text-anchor="middle" x="5259.01" y="-801.9" font-family="Arial" font-size="9.00">Design Containerized Session W</text>
</g>
<!-- mt_150 -->
<g id="node69" class="node">
<title>mt_150</title>
<path fill="#d1fae5" stroke="#059669" stroke-width="2" d="M5226.05,-950.4C5226.05,-950.4 5103.97,-950.4 5103.97,-950.4 5097.97,-950.4 5091.97,-944.4 5091.97,-938.4 5091.97,-938.4 5091.97,-904.8 5091.97,-904.8 5091.97,-898.8 5097.97,-892.8 5103.97,-892.8 5103.97,-892.8 5226.05,-892.8 5226.05,-892.8 5232.05,-892.8 5238.05,-898.8 5238.05,-904.8 5238.05,-904.8 5238.05,-938.4 5238.05,-938.4 5238.05,-944.4 5232.05,-950.4 5226.05,-950.4"/>
<text xml:space="preserve" text-anchor="middle" x="5165.01" y="-924.3" font-family="Arial" font-size="9.00">mt#150</text>
<text xml:space="preserve" text-anchor="middle" x="5165.01" y="-913.5" font-family="Arial" font-size="9.00">Add &#45;&#45;body&#45;path Option and Req</text>
</g>
<!-- mt_150&#45;&gt;mt_190 -->
<g id="edge80" class="edge">
<title>mt_150&#45;&gt;mt_190</title>
<path fill="none" stroke="#6b7280" d="M5189.71,-891.8C5202.01,-877.46 5216.97,-860.01 5229.84,-845.01"/>
<polygon fill="#6b7280" stroke="#6b7280" points="5231.18,-846.67 5233.49,-840.75 5227.99,-843.94 5231.18,-846.67"/>
</g>
<!-- mt_049 -->
<g id="node70" class="node">
<title>mt_049</title>
<path fill="#d1fae5" stroke="#059669" stroke-width="2" d="M5419.54,-950.4C5419.54,-950.4 5286.48,-950.4 5286.48,-950.4 5280.48,-950.4 5274.48,-944.4 5274.48,-938.4 5274.48,-938.4 5274.48,-904.8 5274.48,-904.8 5274.48,-898.8 5280.48,-892.8 5286.48,-892.8 5286.48,-892.8 5419.54,-892.8 5419.54,-892.8 5425.54,-892.8 5431.54,-898.8 5431.54,-904.8 5431.54,-904.8 5431.54,-938.4 5431.54,-938.4 5431.54,-944.4 5425.54,-950.4 5419.54,-950.4"/>
<text xml:space="preserve" text-anchor="middle" x="5353.01" y="-924.3" font-family="Arial" font-size="9.00">mt#049</text>
<text xml:space="preserve" text-anchor="middle" x="5353.01" y="-913.5" font-family="Arial" font-size="9.00">Implement Session&#45;Scoped MCP S</text>
</g>
<!-- mt_049&#45;&gt;mt_190 -->
<g id="edge81" class="edge">
<title>mt_049&#45;&gt;mt_190</title>
<path fill="none" stroke="#6b7280" d="M5328.31,-891.8C5316.01,-877.46 5301.05,-860.01 5288.18,-845.01"/>
<polygon fill="#6b7280" stroke="#6b7280" points="5290.03,-843.94 5284.53,-840.75 5286.84,-846.67 5290.03,-843.94"/>
</g>
<!-- mt_302 -->
<g id="node71" class="node">
<title>mt_302</title>
<path fill="#f1f5f9" stroke="#64748b" stroke-width="2" d="M5605.79,-838.8C5605.79,-838.8 5482.22,-838.8 5482.22,-838.8 5476.22,-838.8 5470.22,-832.8 5470.22,-826.8 5470.22,-826.8 5470.22,-793.2 5470.22,-793.2 5470.22,-787.2 5476.22,-781.2 5482.22,-781.2 5482.22,-781.2 5605.79,-781.2 5605.79,-781.2 5611.79,-781.2 5617.79,-787.2 5617.79,-793.2 5617.79,-793.2 5617.79,-826.8 5617.79,-826.8 5617.79,-832.8 5611.79,-838.8 5605.79,-838.8"/>
<text xml:space="preserve" text-anchor="middle" x="5544.01" y="-812.7" font-family="Arial" font-size="9.00">mt#302</text>
<text xml:space="preserve" text-anchor="middle" x="5544.01" y="-801.9" font-family="Arial" font-size="9.00">Explore Exposing Rules and Doc</text>
</g>
<!-- mt_289 -->
<g id="node72" class="node">
<title>mt_289</title>
<path fill="#d1fae5" stroke="#059669" stroke-width="2" d="M5608.04,-950.4C5608.04,-950.4 5479.98,-950.4 5479.98,-950.4 5473.98,-950.4 5467.98,-944.4 5467.98,-938.4 5467.98,-938.4 5467.98,-904.8 5467.98,-904.8 5467.98,-898.8 5473.98,-892.8 5479.98,-892.8 5479.98,-892.8 5608.04,-892.8 5608.04,-892.8 5614.04,-892.8 5620.04,-898.8 5620.04,-904.8 5620.04,-904.8 5620.04,-938.4 5620.04,-938.4 5620.04,-944.4 5614.04,-950.4 5608.04,-950.4"/>
<text xml:space="preserve" text-anchor="middle" x="5544.01" y="-924.3" font-family="Arial" font-size="9.00">mt#289</text>
<text xml:space="preserve" text-anchor="middle" x="5544.01" y="-913.5" font-family="Arial" font-size="9.00">Implement Template&#45;Based Rules</text>
</g>
<!-- mt_289&#45;&gt;mt_302 -->
<g id="edge84" class="edge">
<title>mt_289&#45;&gt;mt_302</title>
<path fill="none" stroke="#6b7280" d="M5544.01,-891.8C5544.01,-878.09 5544.01,-861.54 5544.01,-847"/>
<polygon fill="#6b7280" stroke="#6b7280" points="5546.11,-847.12 5544.01,-841.12 5541.91,-847.12 5546.11,-847.12"/>
</g>
<!-- mt_454 -->
<g id="node75" class="node">
<title>mt_454</title>
<path fill="#f1f5f9" stroke="#64748b" stroke-width="2" d="M2271.26,-392.4C2271.26,-392.4 2158.75,-392.4 2158.75,-392.4 2152.75,-392.4 2146.75,-386.4 2146.75,-380.4 2146.75,-380.4 2146.75,-346.8 2146.75,-346.8 2146.75,-340.8 2152.75,-334.8 2158.75,-334.8 2158.75,-334.8 2271.26,-334.8 2271.26,-334.8 2277.26,-334.8 2283.26,-340.8 2283.26,-346.8 2283.26,-346.8 2283.26,-380.4 2283.26,-380.4 2283.26,-386.4 2277.26,-392.4 2271.26,-392.4"/>
<text xml:space="preserve" text-anchor="middle" x="2215.01" y="-366.3" font-family="Arial" font-size="9.00">mt#454</text>
<text xml:space="preserve" text-anchor="middle" x="2215.01" y="-355.5" font-family="Arial" font-size="9.00">Investigate &#39;seek human input&#39;</text>
</g>
<!-- mt_454&#45;&gt;mt_468 -->
<g id="edge89" class="edge">
<title>mt_454&#45;&gt;mt_468</title>
<path fill="none" stroke="#6b7280" d="M2220.26,-333.8C2222.79,-319.96 2225.84,-303.23 2228.51,-288.6"/>
<polygon fill="#6b7280" stroke="#6b7280" points="2230.51,-289.37 2229.52,-283.09 2226.37,-288.62 2230.51,-289.37"/>
</g>
<!-- mt_326 -->
<g id="node76" class="node">
<title>mt_326</title>
<path fill="#f1f5f9" stroke="#64748b" stroke-width="2" d="M2460.55,-392.4C2460.55,-392.4 2331.47,-392.4 2331.47,-392.4 2325.47,-392.4 2319.47,-386.4 2319.47,-380.4 2319.47,-380.4 2319.47,-346.8 2319.47,-346.8 2319.47,-340.8 2325.47,-334.8 2331.47,-334.8 2331.47,-334.8 2460.55,-334.8 2460.55,-334.8 2466.55,-334.8 2472.55,-340.8 2472.55,-346.8 2472.55,-346.8 2472.55,-380.4 2472.55,-380.4 2472.55,-386.4 2466.55,-392.4 2460.55,-392.4"/>
<text xml:space="preserve" text-anchor="middle" x="2396.01" y="-366.3" font-family="Arial" font-size="9.00">mt#326</text>
<text xml:space="preserve" text-anchor="middle" x="2396.01" y="-355.5" font-family="Arial" font-size="9.00">Explore embedding Outerbase DB</text>
</g>
<!-- mt_326&#45;&gt;mt_468 -->
<g id="edge90" class="edge">
<title>mt_326&#45;&gt;mt_468</title>
<path fill="none" stroke="#6b7280" d="M2353.71,-333.8C2332.16,-319.14 2305.86,-301.23 2283.5,-286.01"/>
<polygon fill="#6b7280" stroke="#6b7280" points="2284.7,-284.29 2278.56,-282.65 2282.34,-287.76 2284.7,-284.29"/>
</g>
</g>
</svg>
