<?xml version="1.0" encoding="UTF-8" standalone="no"?>
<!DOCTYPE svg PUBLIC "-//W3C//DTD SVG 1.1//EN"
 "http://www.w3.org/Graphics/SVG/1.1/DTD/svg11.dtd">
<!-- Generated by graphviz version 13.1.2 (0)
 -->
<!-- Title: TaskDependencies Pages: 1 -->
<svg width="5642pt" height="973pt"
 viewBox="7.00 7.00 5635.00 966.00" xmlns="http://www.w3.org/2000/svg" xmlns:xlink="http://www.w3.org/1999/xlink">
<g id="graph0" class="graph" transform="scale(1 1) rotate(0) translate(11.2 961.6)">
<title>TaskDependencies</title>
<polygon fill="white" stroke="none" points="-4,4 -4,-954.4 5624.04,-954.4 5624.04,4 -4,4"/>
<!-- mt_041 -->
<g id="node1" class="node">
<title>mt_041</title>
<path fill="#f1f5f9" stroke="#64748b" stroke-width="2" d="M128.27,-169.2C128.27,-169.2 15.74,-169.2 15.74,-169.2 9.74,-169.2 3.74,-163.2 3.74,-157.2 3.74,-157.2 3.74,-123.6 3.74,-123.6 3.74,-117.6 9.74,-111.6 15.74,-111.6 15.74,-111.6 128.27,-111.6 128.27,-111.6 134.27,-111.6 140.27,-117.6 140.27,-123.6 140.27,-123.6 140.27,-157.2 140.27,-157.2 140.27,-163.2 134.27,-169.2 128.27,-169.2"/>
<text xml:space="preserve" text-anchor="middle" x="72.01" y="-143.1" font-family="Arial" font-size="9.00">mt#041</text>
<text xml:space="preserve" text-anchor="middle" x="72.01" y="-132.3" font-family="Arial" font-size="9.00">Write Test Suite for Cursor Ru</text>
</g>
<!-- mt_067 -->
<g id="node2" class="node">
<title>mt_067</title>
<path fill="#d1fae5" stroke="#059669" stroke-width="2" d="M132.02,-57.6C132.02,-57.6 12,-57.6 12,-57.6 6,-57.6 0,-51.6 0,-45.6 0,-45.6 0,-12 0,-12 0,-6 6,0 12,0 12,0 132.02,0 132.02,0 138.02,0 144.02,-6 144.02,-12 144.02,-12 144.02,-45.6 144.02,-45.6 144.02,-51.6 138.02,-57.6 132.02,-57.6"/>
<text xml:space="preserve" text-anchor="middle" x="72.01" y="-31.5" font-family="Arial" font-size="9.00">mt#067</text>
<text xml:space="preserve" text-anchor="middle" x="72.01" y="-20.7" font-family="Arial" font-size="9.00">Refactor `minsky&#45;workflow.mdc`</text>
</g>
<!-- mt_067&#45;&gt;mt_041 -->
<g id="edge1" class="edge">
<title>mt_067&#45;&gt;mt_041</title>
<path fill="none" stroke="#6b7280" d="M72.01,-58.6C72.01,-72.31 72.01,-88.86 72.01,-103.4"/>
<polygon fill="#6b7280" stroke="#6b7280" points="69.91,-103.28 72.01,-109.28 74.11,-103.28 69.91,-103.28"/>
</g>
<!-- mt_045 -->
<g id="node3" class="node">
<title>mt_045</title>
<path fill="#f1f5f9" stroke="#64748b" stroke-width="2" d="M299.3,-169.2C299.3,-169.2 188.72,-169.2 188.72,-169.2 182.72,-169.2 176.72,-163.2 176.72,-157.2 176.72,-157.2 176.72,-123.6 176.72,-123.6 176.72,-117.6 182.72,-111.6 188.72,-111.6 188.72,-111.6 299.3,-111.6 299.3,-111.6 305.3,-111.6 311.3,-117.6 311.3,-123.6 311.3,-123.6 311.3,-157.2 311.3,-157.2 311.3,-163.2 305.3,-169.2 299.3,-169.2"/>
<text xml:space="preserve" text-anchor="middle" x="244.01" y="-143.1" font-family="Arial" font-size="9.00">mt#045</text>
<text xml:space="preserve" text-anchor="middle" x="244.01" y="-132.3" font-family="Arial" font-size="9.00">Setup Documentation Tooling</text>
</g>
<!-- mt_030 -->
<g id="node4" class="node">
<title>mt_030</title>
<path fill="#d1fae5" stroke="#059669" stroke-width="2" d="M398.3,-57.6C398.3,-57.6 281.72,-57.6 281.72,-57.6 275.72,-57.6 269.72,-51.6 269.72,-45.6 269.72,-45.6 269.72,-12 269.72,-12 269.72,-6 275.72,0 281.72,0 281.72,0 398.3,0 398.3,0 404.3,0 410.3,-6 410.3,-12 410.3,-12 410.3,-45.6 410.3,-45.6 410.3,-51.6 404.3,-57.6 398.3,-57.6"/>
<text xml:space="preserve" text-anchor="middle" x="340.01" y="-31.5" font-family="Arial" font-size="9.00">mt#030</text>
<text xml:space="preserve" text-anchor="middle" x="340.01" y="-20.7" font-family="Arial" font-size="9.00">Setup Project Tooling and Auto</text>
</g>
<!-- mt_030&#45;&gt;mt_045 -->
<g id="edge2" class="edge">
<title>mt_030&#45;&gt;mt_045</title>
<path fill="none" stroke="#6b7280" d="M314.79,-58.6C302.22,-72.94 286.94,-90.39 273.8,-105.39"/>
<polygon fill="#6b7280" stroke="#6b7280" points="272.43,-103.76 270.06,-109.66 275.59,-106.53 272.43,-103.76"/>
</g>
<!-- mt_046 -->
<g id="node5" class="node">
<title>mt_046</title>
<path fill="#f1f5f9" stroke="#64748b" stroke-width="2" d="M500.55,-169.2C500.55,-169.2 359.46,-169.2 359.46,-169.2 353.46,-169.2 347.46,-163.2 347.46,-157.2 347.46,-157.2 347.46,-123.6 347.46,-123.6 347.46,-117.6 353.46,-111.6 359.46,-111.6 359.46,-111.6 500.55,-111.6 500.55,-111.6 506.55,-111.6 512.55,-117.6 512.55,-123.6 512.55,-123.6 512.55,-157.2 512.55,-157.2 512.55,-163.2 506.55,-169.2 500.55,-169.2"/>
<text xml:space="preserve" text-anchor="middle" x="430.01" y="-143.1" font-family="Arial" font-size="9.00">mt#046</text>
<text xml:space="preserve" text-anchor="middle" x="430.01" y="-132.3" font-family="Arial" font-size="9.00">Document Dependency Management</text>
</g>
<!-- mt_030&#45;&gt;mt_046 -->
<g id="edge3" class="edge">
<title>mt_030&#45;&gt;mt_046</title>
<path fill="none" stroke="#6b7280" d="M363.65,-58.6C375.33,-72.82 389.51,-90.08 401.76,-104.99"/>
<polygon fill="#6b7280" stroke="#6b7280" points="400.13,-106.32 405.56,-109.63 403.37,-103.66 400.13,-106.32"/>
</g>
<!-- mt_090 -->
<g id="node6" class="node">
<title>mt_090</title>
<path fill="#f1f5f9" stroke="#64748b" stroke-width="2" d="M675.78,-169.2C675.78,-169.2 560.24,-169.2 560.24,-169.2 554.24,-169.2 548.24,-163.2 548.24,-157.2 548.24,-157.2 548.24,-123.6 548.24,-123.6 548.24,-117.6 554.24,-111.6 560.24,-111.6 560.24,-111.6 675.78,-111.6 675.78,-111.6 681.78,-111.6 687.78,-117.6 687.78,-123.6 687.78,-123.6 687.78,-157.2 687.78,-157.2 687.78,-163.2 681.78,-169.2 675.78,-169.2"/>
<text xml:space="preserve" text-anchor="middle" x="618.01" y="-143.1" font-family="Arial" font-size="9.00">mt#090</text>
<text xml:space="preserve" text-anchor="middle" x="618.01" y="-132.3" font-family="Arial" font-size="9.00">Prepare for Future Non&#45;Filesys</text>
</g>
<!-- mt_080 -->
<g id="node7" class="node">
<title>mt_080</title>
<path fill="#d1fae5" stroke="#059669" stroke-width="2" d="M681.79,-57.6C681.79,-57.6 554.23,-57.6 554.23,-57.6 548.23,-57.6 542.23,-51.6 542.23,-45.6 542.23,-45.6 542.23,-12 542.23,-12 542.23,-6 548.23,0 554.23,0 554.23,0 681.79,0 681.79,0 687.79,0 693.79,-6 693.79,-12 693.79,-12 693.79,-45.6 693.79,-45.6 693.79,-51.6 687.79,-57.6 681.79,-57.6"/>
<text xml:space="preserve" text-anchor="middle" x="618.01" y="-31.5" font-family="Arial" font-size="9.00">mt#080</text>
<text xml:space="preserve" text-anchor="middle" x="618.01" y="-20.7" font-family="Arial" font-size="9.00">Review Workspace and Repositor</text>
</g>
<!-- mt_080&#45;&gt;mt_090 -->
<g id="edge4" class="edge">
<title>mt_080&#45;&gt;mt_090</title>
<path fill="none" stroke="#6b7280" d="M618.01,-58.6C618.01,-72.31 618.01,-88.86 618.01,-103.4"/>
<polygon fill="#6b7280" stroke="#6b7280" points="615.91,-103.28 618.01,-109.28 620.11,-103.28 615.91,-103.28"/>
</g>
<!-- mt_162 -->
<g id="node8" class="node">
<title>mt_162</title>
<path fill="#f1f5f9" stroke="#64748b" stroke-width="2" d="M1840.3,-169.2C1840.3,-169.2 1707.72,-169.2 1707.72,-169.2 1701.72,-169.2 1695.72,-163.2 1695.72,-157.2 1695.72,-157.2 1695.72,-123.6 1695.72,-123.6 1695.72,-117.6 1701.72,-111.6 1707.72,-111.6 1707.72,-111.6 1840.3,-111.6 1840.3,-111.6 1846.3,-111.6 1852.3,-117.6 1852.3,-123.6 1852.3,-123.6 1852.3,-157.2 1852.3,-157.2 1852.3,-163.2 1846.3,-169.2 1840.3,-169.2"/>
<text xml:space="preserve" text-anchor="middle" x="1774.01" y="-143.1" font-family="Arial" font-size="9.00">mt#162</text>
<text xml:space="preserve" text-anchor="middle" x="1774.01" y="-132.3" font-family="Arial" font-size="9.00">Research and Design Comprehens</text>
</g>
<!-- mt_202 -->
<g id="node12" class="node">
<title>mt_202</title>
<path fill="#f1f5f9" stroke="#64748b" stroke-width="2" d="M1351.05,-392.4C1351.05,-392.4 1230.96,-392.4 1230.96,-392.4 1224.96,-392.4 1218.96,-386.4 1218.96,-380.4 1218.96,-380.4 1218.96,-346.8 1218.96,-346.8 1218.96,-340.8 1224.96,-334.8 1230.96,-334.8 1230.96,-334.8 1351.05,-334.8 1351.05,-334.8 1357.05,-334.8 1363.05,-340.8 1363.05,-346.8 1363.05,-346.8 1363.05,-380.4 1363.05,-380.4 1363.05,-386.4 1357.05,-392.4 1351.05,-392.4"/>
<text xml:space="preserve" text-anchor="middle" x="1291.01" y="-366.3" font-family="Arial" font-size="9.00">mt#202</text>
<text xml:space="preserve" text-anchor="middle" x="1291.01" y="-355.5" font-family="Arial" font-size="9.00">Rule Suggestion Evaluation and</text>
</g>
<!-- mt_162&#45;&gt;mt_202 -->
<g id="edge10" class="edge">
<title>mt_162&#45;&gt;mt_202</title>
<path fill="none" stroke="#6b7280" d="M1782.09,-169.97C1789.04,-201.32 1794.16,-251.12 1767.01,-280.8 1708.54,-344.7 1465.55,-315.96 1381.01,-334.8 1377.78,-335.52 1374.5,-336.3 1371.19,-337.13"/>
<polygon fill="#6b7280" stroke="#6b7280" points="1370.68,-335.09 1365.4,-338.62 1371.73,-339.15 1370.68,-335.09"/>
</g>
<!-- mt_250 -->
<g id="node13" class="node">
<title>mt_250</title>
<path fill="#f1f5f9" stroke="#64748b" stroke-width="2" d="M1551.04,-280.8C1551.04,-280.8 1430.97,-280.8 1430.97,-280.8 1424.97,-280.8 1418.97,-274.8 1418.97,-268.8 1418.97,-268.8 1418.97,-235.2 1418.97,-235.2 1418.97,-229.2 1424.97,-223.2 1430.97,-223.2 1430.97,-223.2 1551.04,-223.2 1551.04,-223.2 1557.04,-223.2 1563.04,-229.2 1563.04,-235.2 1563.04,-235.2 1563.04,-268.8 1563.04,-268.8 1563.04,-274.8 1557.04,-280.8 1551.04,-280.8"/>
<text xml:space="preserve" text-anchor="middle" x="1491.01" y="-254.7" font-family="Arial" font-size="9.00">mt#250</text>
<text xml:space="preserve" text-anchor="middle" x="1491.01" y="-243.9" font-family="Arial" font-size="9.00">Investigate and Implement Sess</text>
</g>
<!-- mt_162&#45;&gt;mt_250 -->
<g id="edge29" class="edge">
<title>mt_162&#45;&gt;mt_250</title>
<path fill="none" stroke="#6b7280" d="M1699.65,-170.2C1660.02,-185.54 1611.24,-204.44 1570.82,-220.09"/>
<polygon fill="#6b7280" stroke="#6b7280" points="1570.14,-218.1 1565.3,-222.23 1571.65,-222.02 1570.14,-218.1"/>
</g>
<!-- mt_249 -->
<g id="node9" class="node">
<title>mt_249</title>
<path fill="#d1fae5" stroke="#059669" stroke-width="2" d="M1699.79,-57.6C1699.79,-57.6 1582.22,-57.6 1582.22,-57.6 1576.22,-57.6 1570.22,-51.6 1570.22,-45.6 1570.22,-45.6 1570.22,-12 1570.22,-12 1570.22,-6 1576.22,0 1582.22,0 1582.22,0 1699.79,0 1699.79,0 1705.79,0 1711.79,-6 1711.79,-12 1711.79,-12 1711.79,-45.6 1711.79,-45.6 1711.79,-51.6 1705.79,-57.6 1699.79,-57.6"/>
<text xml:space="preserve" text-anchor="middle" x="1641.01" y="-31.5" font-family="Arial" font-size="9.00">mt#249</text>
<text xml:space="preserve" text-anchor="middle" x="1641.01" y="-20.7" font-family="Arial" font-size="9.00">Investigate and Improve Sessio</text>
</g>
<!-- mt_249&#45;&gt;mt_162 -->
<g id="edge5" class="edge">
<title>mt_249&#45;&gt;mt_162</title>
<path fill="none" stroke="#6b7280" d="M1675.95,-58.6C1693.67,-73.2 1715.27,-91 1733.69,-106.18"/>
<polygon fill="#6b7280" stroke="#6b7280" points="1732.16,-107.64 1738.13,-109.83 1734.83,-104.4 1732.16,-107.64"/>
</g>
<!-- mt_249&#45;&gt;mt_250 -->
<g id="edge30" class="edge">
<title>mt_249&#45;&gt;mt_250</title>
<path fill="none" stroke="#6b7280" d="M1639.03,-58.58C1635.74,-88.53 1627.04,-135.66 1604.01,-169.2 1590.59,-188.74 1570.91,-205.29 1551.73,-218.29"/>
<polygon fill="#6b7280" stroke="#6b7280" points="1550.91,-216.32 1547.06,-221.38 1553.22,-219.82 1550.91,-216.32"/>
</g>
<!-- mt_354 -->
<g id="node57" class="node">
<title>mt_354</title>
<path fill="#f1f5f9" stroke="#64748b" stroke-width="2" d="M1214.04,-169.2C1214.04,-169.2 1089.98,-169.2 1089.98,-169.2 1083.98,-169.2 1077.98,-163.2 1077.98,-157.2 1077.98,-157.2 1077.98,-123.6 1077.98,-123.6 1077.98,-117.6 1083.98,-111.6 1089.98,-111.6 1089.98,-111.6 1214.04,-111.6 1214.04,-111.6 1220.04,-111.6 1226.04,-117.6 1226.04,-123.6 1226.04,-123.6 1226.04,-157.2 1226.04,-157.2 1226.04,-163.2 1220.04,-169.2 1214.04,-169.2"/>
<text xml:space="preserve" text-anchor="middle" x="1152.01" y="-143.1" font-family="Arial" font-size="9.00">mt#354</text>
<text xml:space="preserve" text-anchor="middle" x="1152.01" y="-132.3" font-family="Arial" font-size="9.00">Implement Session Reapply Tool</text>
</g>
<!-- mt_249&#45;&gt;mt_354 -->
<g id="edge61" class="edge">
<title>mt_249&#45;&gt;mt_354</title>
<path fill="none" stroke="#6b7280" d="M1569.57,-42.51C1489.75,-57.17 1356.9,-82.98 1244.01,-111.6 1240.7,-112.44 1237.32,-113.32 1233.92,-114.24"/>
<polygon fill="#6b7280" stroke="#6b7280" points="1233.61,-112.15 1228.37,-115.76 1234.72,-116.2 1233.61,-112.15"/>
</g>
<!-- mt_175 -->
<g id="node10" class="node">
<title>mt_175</title>
<path fill="#f1f5f9" stroke="#64748b" stroke-width="2" d="M784.3,-280.8C784.3,-280.8 653.72,-280.8 653.72,-280.8 647.72,-280.8 641.72,-274.8 641.72,-268.8 641.72,-268.8 641.72,-235.2 641.72,-235.2 641.72,-229.2 647.72,-223.2 653.72,-223.2 653.72,-223.2 784.3,-223.2 784.3,-223.2 790.3,-223.2 796.3,-229.2 796.3,-235.2 796.3,-235.2 796.3,-268.8 796.3,-268.8 796.3,-274.8 790.3,-280.8 784.3,-280.8"/>
<text xml:space="preserve" text-anchor="middle" x="719.01" y="-254.7" font-family="Arial" font-size="9.00">mt#175</text>
<text xml:space="preserve" text-anchor="middle" x="719.01" y="-243.9" font-family="Arial" font-size="9.00">Add AI&#45;powered task management</text>
</g>
<!-- mt_237 -->
<g id="node20" class="node">
<title>mt_237</title>
<path fill="#f1f5f9" stroke="#64748b" stroke-width="2" d="M668.53,-392.4C668.53,-392.4 549.49,-392.4 549.49,-392.4 543.49,-392.4 537.49,-386.4 537.49,-380.4 537.49,-380.4 537.49,-346.8 537.49,-346.8 537.49,-340.8 543.49,-334.8 549.49,-334.8 549.49,-334.8 668.53,-334.8 668.53,-334.8 674.53,-334.8 680.53,-340.8 680.53,-346.8 680.53,-346.8 680.53,-380.4 680.53,-380.4 680.53,-386.4 674.53,-392.4 668.53,-392.4"/>
<text xml:space="preserve" text-anchor="middle" x="609.01" y="-366.3" font-family="Arial" font-size="9.00">mt#237</text>
<text xml:space="preserve" text-anchor="middle" x="609.01" y="-355.5" font-family="Arial" font-size="9.00">Implement Hierarchical Task Sy</text>
</g>
<!-- mt_175&#45;&gt;mt_237 -->
<g id="edge15" class="edge">
<title>mt_175&#45;&gt;mt_237</title>
<path fill="none" stroke="#6b7280" d="M690.11,-281.8C675.58,-296.27 657.89,-313.89 642.75,-328.98"/>
<polygon fill="#6b7280" stroke="#6b7280" points="641.56,-327.21 638.79,-332.93 644.52,-330.18 641.56,-327.21"/>
</g>
<!-- mt_239 -->
<g id="node21" class="node">
<title>mt_239</title>
<path fill="#f1f5f9" stroke="#64748b" stroke-width="2" d="M747.04,-504C747.04,-504 618.97,-504 618.97,-504 612.97,-504 606.97,-498 606.97,-492 606.97,-492 606.97,-458.4 606.97,-458.4 606.97,-452.4 612.97,-446.4 618.97,-446.4 618.97,-446.4 747.04,-446.4 747.04,-446.4 753.04,-446.4 759.04,-452.4 759.04,-458.4 759.04,-458.4 759.04,-492 759.04,-492 759.04,-498 753.04,-504 747.04,-504"/>
<text xml:space="preserve" text-anchor="middle" x="683.01" y="-477.9" font-family="Arial" font-size="9.00">mt#239</text>
<text xml:space="preserve" text-anchor="middle" x="683.01" y="-467.1" font-family="Arial" font-size="9.00">Phase 2: Implement Task Depend</text>
</g>
<!-- mt_175&#45;&gt;mt_239 -->
<g id="edge18" class="edge">
<title>mt_175&#45;&gt;mt_239</title>
<path fill="none" stroke="#6b7280" d="M715.33,-281.63C711.61,-309.86 705.48,-354.19 699.01,-392.4 696.46,-407.47 693.29,-424.02 690.44,-438.27"/>
<polygon fill="#6b7280" stroke="#6b7280" points="688.41,-437.71 689.29,-444.01 692.53,-438.54 688.41,-437.71"/>
</g>
<!-- mt_240 -->
<g id="node23" class="node">
<title>mt_240</title>
<path fill="#f1f5f9" stroke="#64748b" stroke-width="2" d="M567.06,-615.6C567.06,-615.6 440.96,-615.6 440.96,-615.6 434.96,-615.6 428.96,-609.6 428.96,-603.6 428.96,-603.6 428.96,-570 428.96,-570 428.96,-564 434.96,-558 440.96,-558 440.96,-558 567.06,-558 567.06,-558 573.06,-558 579.06,-564 579.06,-570 579.06,-570 579.06,-603.6 579.06,-603.6 579.06,-609.6 573.06,-615.6 567.06,-615.6"/>
<text xml:space="preserve" text-anchor="middle" x="504.01" y="-589.5" font-family="Arial" font-size="9.00">mt#240</text>
<text xml:space="preserve" text-anchor="middle" x="504.01" y="-578.7" font-family="Arial" font-size="9.00">Phase 3: Enhanced Planning/Exe</text>
</g>
<!-- mt_175&#45;&gt;mt_240 -->
<g id="edge22" class="edge">
<title>mt_175&#45;&gt;mt_240</title>
<path fill="none" stroke="#6b7280" d="M640.83,-272.5C560.92,-297.39 442.79,-349.37 401.01,-446.4 390.88,-469.91 389.88,-480.95 401.01,-504 410.51,-523.68 427.3,-540.07 444.6,-552.89"/>
<polygon fill="#6b7280" stroke="#6b7280" points="443.14,-554.43 449.24,-556.22 445.59,-551.02 443.14,-554.43"/>
</g>
<!-- mt_243 -->
<g id="node25" class="node">
<title>mt_243</title>
<path fill="#f1f5f9" stroke="#64748b" stroke-width="2" d="M742.55,-727.2C742.55,-727.2 623.47,-727.2 623.47,-727.2 617.47,-727.2 611.47,-721.2 611.47,-715.2 611.47,-715.2 611.47,-681.6 611.47,-681.6 611.47,-675.6 617.47,-669.6 623.47,-669.6 623.47,-669.6 742.55,-669.6 742.55,-669.6 748.55,-669.6 754.55,-675.6 754.55,-681.6 754.55,-681.6 754.55,-715.2 754.55,-715.2 754.55,-721.2 748.55,-727.2 742.55,-727.2"/>
<text xml:space="preserve" text-anchor="middle" x="683.01" y="-701.1" font-family="Arial" font-size="9.00">mt#243</text>
<text xml:space="preserve" text-anchor="middle" x="683.01" y="-690.3" font-family="Arial" font-size="9.00">Advanced Visualization and Dat</text>
</g>
<!-- mt_175&#45;&gt;mt_243 -->
<g id="edge28" class="edge">
<title>mt_175&#45;&gt;mt_243</title>
<path fill="none" stroke="#6b7280" d="M754.69,-281.74C828.95,-345.03 986.71,-500.04 906.01,-615.6 873.88,-661.6 812.92,-681.81 762.84,-690.65"/>
<polygon fill="#6b7280" stroke="#6b7280" points="762.6,-688.56 757.03,-691.62 763.29,-692.7 762.6,-688.56"/>
</g>
<!-- mt_361 -->
<g id="node34" class="node">
<title>mt_361</title>
<path fill="#f1f5f9" stroke="#64748b" stroke-width="2" d="M875.79,-615.6C875.79,-615.6 750.22,-615.6 750.22,-615.6 744.22,-615.6 738.22,-609.6 738.22,-603.6 738.22,-603.6 738.22,-570 738.22,-570 738.22,-564 744.22,-558 750.22,-558 750.22,-558 875.79,-558 875.79,-558 881.79,-558 887.79,-564 887.79,-570 887.79,-570 887.79,-603.6 887.79,-603.6 887.79,-609.6 881.79,-615.6 875.79,-615.6"/>
<text xml:space="preserve" text-anchor="middle" x="813.01" y="-589.5" font-family="Arial" font-size="9.00">mt#361</text>
<text xml:space="preserve" text-anchor="middle" x="813.01" y="-578.7" font-family="Arial" font-size="9.00">Explore Automated Session Sync</text>
</g>
<!-- mt_175&#45;&gt;mt_361 -->
<g id="edge38" class="edge">
<title>mt_175&#45;&gt;mt_361</title>
<path fill="none" stroke="#6b7280" d="M728,-281.73C739.71,-319.42 760.62,-387.65 777.01,-446.4 786.78,-481.43 797.07,-521.67 804.14,-549.88"/>
<polygon fill="#6b7280" stroke="#6b7280" points="802.09,-550.37 805.59,-555.68 806.17,-549.35 802.09,-550.37"/>
</g>
<!-- mt_160 -->
<g id="node11" class="node">
<title>mt_160</title>
<path fill="#d1fae5" stroke="#059669" stroke-width="2" d="M858.54,-169.2C858.54,-169.2 735.47,-169.2 735.47,-169.2 729.47,-169.2 723.47,-163.2 723.47,-157.2 723.47,-157.2 723.47,-123.6 723.47,-123.6 723.47,-117.6 729.47,-111.6 735.47,-111.6 735.47,-111.6 858.54,-111.6 858.54,-111.6 864.54,-111.6 870.54,-117.6 870.54,-123.6 870.54,-123.6 870.54,-157.2 870.54,-157.2 870.54,-163.2 864.54,-169.2 858.54,-169.2"/>
<text xml:space="preserve" text-anchor="middle" x="797.01" y="-143.1" font-family="Arial" font-size="9.00">mt#160</text>
<text xml:space="preserve" text-anchor="middle" x="797.01" y="-132.3" font-family="Arial" font-size="9.00">Add AI Completion Backend with</text>
</g>
<!-- mt_160&#45;&gt;mt_175 -->
<g id="edge6" class="edge">
<title>mt_160&#45;&gt;mt_175</title>
<path fill="none" stroke="#6b7280" d="M776.51,-170.2C766.39,-184.42 754.11,-201.68 743.49,-216.59"/>
<polygon fill="#6b7280" stroke="#6b7280" points="742.01,-215.06 740.24,-221.16 745.43,-217.49 742.01,-215.06"/>
</g>
<!-- mt_160&#45;&gt;mt_202 -->
<g id="edge9" class="edge">
<title>mt_160&#45;&gt;mt_202</title>
<path fill="none" stroke="#6b7280" d="M807.49,-170.04C820.93,-202.43 847.44,-254.12 888.01,-280.8 1005.96,-358.36 1063.73,-301.9 1201.01,-334.8 1204.23,-335.57 1207.5,-336.39 1210.79,-337.26"/>
<polygon fill="#6b7280" stroke="#6b7280" points="1210.24,-339.28 1216.58,-338.81 1211.33,-335.22 1210.24,-339.28"/>
</g>
<!-- mt_254 -->
<g id="node35" class="node">
<title>mt_254</title>
<path fill="#f1f5f9" stroke="#64748b" stroke-width="2" d="M1371.02,-280.8C1371.02,-280.8 1251,-280.8 1251,-280.8 1245,-280.8 1239,-274.8 1239,-268.8 1239,-268.8 1239,-235.2 1239,-235.2 1239,-229.2 1245,-223.2 1251,-223.2 1251,-223.2 1371.02,-223.2 1371.02,-223.2 1377.02,-223.2 1383.02,-229.2 1383.02,-235.2 1383.02,-235.2 1383.02,-268.8 1383.02,-268.8 1383.02,-274.8 1377.02,-280.8 1371.02,-280.8"/>
<text xml:space="preserve" text-anchor="middle" x="1311.01" y="-254.7" font-family="Arial" font-size="9.00">mt#254</text>
<text xml:space="preserve" text-anchor="middle" x="1311.01" y="-243.9" font-family="Arial" font-size="9.00">Implement Commit History Simil</text>
</g>
<!-- mt_160&#45;&gt;mt_254 -->
<g id="edge41" class="edge">
<title>mt_160&#45;&gt;mt_254</title>
<path fill="none" stroke="#6b7280" d="M871.32,-164.8C876.95,-166.36 882.56,-167.84 888.01,-169.2 1006.32,-198.63 1145.46,-223.74 1230.94,-238.11"/>
<polygon fill="#6b7280" stroke="#6b7280" points="1230.52,-240.17 1236.78,-239.09 1231.21,-236.02 1230.52,-240.17"/>
</g>
<!-- mt_321 -->
<g id="node48" class="node">
<title>mt_321</title>
<path fill="#f1f5f9" stroke="#64748b" stroke-width="2" d="M1033.78,-280.8C1033.78,-280.8 918.23,-280.8 918.23,-280.8 912.23,-280.8 906.23,-274.8 906.23,-268.8 906.23,-268.8 906.23,-235.2 906.23,-235.2 906.23,-229.2 912.23,-223.2 918.23,-223.2 918.23,-223.2 1033.78,-223.2 1033.78,-223.2 1039.78,-223.2 1045.78,-229.2 1045.78,-235.2 1045.78,-235.2 1045.78,-268.8 1045.78,-268.8 1045.78,-274.8 1039.78,-280.8 1033.78,-280.8"/>
<text xml:space="preserve" text-anchor="middle" x="976.01" y="-254.7" font-family="Arial" font-size="9.00">mt#321</text>
<text xml:space="preserve" text-anchor="middle" x="976.01" y="-243.9" font-family="Arial" font-size="9.00">AI&#45;Powered Project Analysis fo</text>
</g>
<!-- mt_160&#45;&gt;mt_321 -->
<g id="edge55" class="edge">
<title>mt_160&#45;&gt;mt_321</title>
<path fill="none" stroke="#6b7280" d="M844.04,-170.2C868.2,-184.99 897.73,-203.07 922.73,-218.38"/>
<polygon fill="#6b7280" stroke="#6b7280" points="921.48,-220.07 927.69,-221.42 923.67,-216.49 921.48,-220.07"/>
</g>
<!-- mt_441 -->
<g id="node63" class="node">
<title>mt_441</title>
<path fill="#f1f5f9" stroke="#64748b" stroke-width="2" d="M1513.29,-504C1513.29,-504 1378.72,-504 1378.72,-504 1372.72,-504 1366.72,-498 1366.72,-492 1366.72,-492 1366.72,-458.4 1366.72,-458.4 1366.72,-452.4 1372.72,-446.4 1378.72,-446.4 1378.72,-446.4 1513.29,-446.4 1513.29,-446.4 1519.29,-446.4 1525.29,-452.4 1525.29,-458.4 1525.29,-458.4 1525.29,-492 1525.29,-492 1525.29,-498 1519.29,-504 1513.29,-504"/>
<text xml:space="preserve" text-anchor="middle" x="1446.01" y="-477.9" font-family="Arial" font-size="9.00">mt#441</text>
<text xml:space="preserve" text-anchor="middle" x="1446.01" y="-467.1" font-family="Arial" font-size="9.00">Implement MCP&#45;Based Subagent S</text>
</g>
<!-- mt_202&#45;&gt;mt_441 -->
<g id="edge67" class="edge">
<title>mt_202&#45;&gt;mt_441</title>
<path fill="none" stroke="#6b7280" d="M1331.73,-393.4C1352.48,-408.06 1377.79,-425.97 1399.32,-441.19"/>
<polygon fill="#6b7280" stroke="#6b7280" points="1397.94,-442.78 1404.05,-444.53 1400.36,-439.35 1397.94,-442.78"/>
</g>
<!-- mt_442 -->
<g id="node66" class="node">
<title>mt_442</title>
<path fill="#f1f5f9" stroke="#64748b" stroke-width="2" d="M1642.28,-615.6C1642.28,-615.6 1517.73,-615.6 1517.73,-615.6 1511.73,-615.6 1505.73,-609.6 1505.73,-603.6 1505.73,-603.6 1505.73,-570 1505.73,-570 1505.73,-564 1511.73,-558 1517.73,-558 1517.73,-558 1642.28,-558 1642.28,-558 1648.28,-558 1654.28,-564 1654.28,-570 1654.28,-570 1654.28,-603.6 1654.28,-603.6 1654.28,-609.6 1648.28,-615.6 1642.28,-615.6"/>
<text xml:space="preserve" text-anchor="middle" x="1580.01" y="-589.5" font-family="Arial" font-size="9.00">mt#442</text>
<text xml:space="preserve" text-anchor="middle" x="1580.01" y="-578.7" font-family="Arial" font-size="9.00">Implement Task Routing System </text>
</g>
<!-- mt_202&#45;&gt;mt_442 -->
<g id="edge73" class="edge">
<title>mt_202&#45;&gt;mt_442</title>
<path fill="none" stroke="#6b7280" d="M1295.82,-393.36C1302.5,-424.64 1317.52,-474.16 1349.01,-504 1389.56,-542.42 1449.27,-562.95 1497.83,-573.83"/>
<polygon fill="#6b7280" stroke="#6b7280" points="1497.12,-575.82 1503.43,-575.04 1498.01,-571.72 1497.12,-575.82"/>
</g>
<!-- mt_250&#45;&gt;mt_202 -->
<g id="edge7" class="edge">
<title>mt_250&#45;&gt;mt_202</title>
<path fill="none" stroke="#6b7280" d="M1438.46,-281.8C1411.24,-296.71 1377.91,-314.98 1349.83,-330.37"/>
<polygon fill="#6b7280" stroke="#6b7280" points="1349.13,-328.35 1344.88,-333.08 1351.15,-332.04 1349.13,-328.35"/>
</g>
<!-- mt_182 -->
<g id="node14" class="node">
<title>mt_182</title>
<path fill="#d1fae5" stroke="#059669" stroke-width="2" d="M1737.05,-280.8C1737.05,-280.8 1610.97,-280.8 1610.97,-280.8 1604.97,-280.8 1598.97,-274.8 1598.97,-268.8 1598.97,-268.8 1598.97,-235.2 1598.97,-235.2 1598.97,-229.2 1604.97,-223.2 1610.97,-223.2 1610.97,-223.2 1737.05,-223.2 1737.05,-223.2 1743.05,-223.2 1749.05,-229.2 1749.05,-235.2 1749.05,-235.2 1749.05,-268.8 1749.05,-268.8 1749.05,-274.8 1743.05,-280.8 1737.05,-280.8"/>
<text xml:space="preserve" text-anchor="middle" x="1674.01" y="-254.7" font-family="Arial" font-size="9.00">mt#182</text>
<text xml:space="preserve" text-anchor="middle" x="1674.01" y="-243.9" font-family="Arial" font-size="9.00">Add AI&#45;Powered Rule Suggestion</text>
</g>
<!-- mt_182&#45;&gt;mt_202 -->
<g id="edge8" class="edge">
<title>mt_182&#45;&gt;mt_202</title>
<path fill="none" stroke="#6b7280" d="M1598.18,-275.85C1592.37,-277.54 1586.6,-279.21 1581.01,-280.8 1492.45,-305.99 1469.45,-309.21 1381.01,-334.8 1377.65,-335.77 1374.23,-336.77 1370.77,-337.8"/>
<polygon fill="#6b7280" stroke="#6b7280" points="1370.24,-335.76 1365.09,-339.49 1371.44,-339.79 1370.24,-335.76"/>
</g>
<!-- mt_232 -->
<g id="node15" class="node">
<title>mt_232</title>
<path fill="#f1f5f9" stroke="#64748b" stroke-width="2" d="M2458.78,-169.2C2458.78,-169.2 2345.24,-169.2 2345.24,-169.2 2339.24,-169.2 2333.24,-163.2 2333.24,-157.2 2333.24,-157.2 2333.24,-123.6 2333.24,-123.6 2333.24,-117.6 2339.24,-111.6 2345.24,-111.6 2345.24,-111.6 2458.78,-111.6 2458.78,-111.6 2464.78,-111.6 2470.78,-117.6 2470.78,-123.6 2470.78,-123.6 2470.78,-157.2 2470.78,-157.2 2470.78,-163.2 2464.78,-169.2 2458.78,-169.2"/>
<text xml:space="preserve" text-anchor="middle" x="2402.01" y="-143.1" font-family="Arial" font-size="9.00">mt#232</text>
<text xml:space="preserve" text-anchor="middle" x="2402.01" y="-132.3" font-family="Arial" font-size="9.00">Improve session PR conflict re</text>
</g>
<!-- mt_231 -->
<g id="node16" class="node">
<title>mt_231</title>
<path fill="#d1fae5" stroke="#059669" stroke-width="2" d="M2460.78,-57.6C2460.78,-57.6 2343.23,-57.6 2343.23,-57.6 2337.23,-57.6 2331.23,-51.6 2331.23,-45.6 2331.23,-45.6 2331.23,-12 2331.23,-12 2331.23,-6 2337.23,0 2343.23,0 2343.23,0 2460.78,0 2460.78,0 2466.78,0 2472.78,-6 2472.78,-12 2472.78,-12 2472.78,-45.6 2472.78,-45.6 2472.78,-51.6 2466.78,-57.6 2460.78,-57.6"/>
<text xml:space="preserve" text-anchor="middle" x="2402.01" y="-31.5" font-family="Arial" font-size="9.00">mt#231</text>
<text xml:space="preserve" text-anchor="middle" x="2402.01" y="-20.7" font-family="Arial" font-size="9.00">Implement session PR refresh f</text>
</g>
<!-- mt_231&#45;&gt;mt_232 -->
<g id="edge11" class="edge">
<title>mt_231&#45;&gt;mt_232</title>
<path fill="none" stroke="#6b7280" d="M2402.01,-58.6C2402.01,-72.31 2402.01,-88.86 2402.01,-103.4"/>
<polygon fill="#6b7280" stroke="#6b7280" points="2399.91,-103.28 2402.01,-109.28 2404.11,-103.28 2399.91,-103.28"/>
</g>
<!-- mt_233 -->
<g id="node17" class="node">
<title>mt_233</title>
<path fill="#f1f5f9" stroke="#64748b" stroke-width="2" d="M2637.54,-169.2C2637.54,-169.2 2520.48,-169.2 2520.48,-169.2 2514.48,-169.2 2508.48,-163.2 2508.48,-157.2 2508.48,-157.2 2508.48,-123.6 2508.48,-123.6 2508.48,-117.6 2514.48,-111.6 2520.48,-111.6 2520.48,-111.6 2637.54,-111.6 2637.54,-111.6 2643.54,-111.6 2649.54,-117.6 2649.54,-123.6 2649.54,-123.6 2649.54,-157.2 2649.54,-157.2 2649.54,-163.2 2643.54,-169.2 2637.54,-169.2"/>
<text xml:space="preserve" text-anchor="middle" x="2579.01" y="-143.1" font-family="Arial" font-size="9.00">mt#233</text>
<text xml:space="preserve" text-anchor="middle" x="2579.01" y="-132.3" font-family="Arial" font-size="9.00">Setup semantic&#45;release with co</text>
</g>
<!-- mt_234 -->
<g id="node19" class="node">
<title>mt_234</title>
<path fill="#f1f5f9" stroke="#64748b" stroke-width="2" d="M2702.54,-280.8C2702.54,-280.8 2581.48,-280.8 2581.48,-280.8 2575.48,-280.8 2569.48,-274.8 2569.48,-268.8 2569.48,-268.8 2569.48,-235.2 2569.48,-235.2 2569.48,-229.2 2575.48,-223.2 2581.48,-223.2 2581.48,-223.2 2702.54,-223.2 2702.54,-223.2 2708.54,-223.2 2714.54,-229.2 2714.54,-235.2 2714.54,-235.2 2714.54,-268.8 2714.54,-268.8 2714.54,-274.8 2708.54,-280.8 2702.54,-280.8"/>
<text xml:space="preserve" text-anchor="middle" x="2642.01" y="-254.7" font-family="Arial" font-size="9.00">mt#234</text>
<text xml:space="preserve" text-anchor="middle" x="2642.01" y="-243.9" font-family="Arial" font-size="9.00">Implement Dagger CI Pipeline w</text>
</g>
<!-- mt_233&#45;&gt;mt_234 -->
<g id="edge14" class="edge">
<title>mt_233&#45;&gt;mt_234</title>
<path fill="none" stroke="#6b7280" d="M2595.56,-170.2C2603.66,-184.29 2613.48,-201.38 2622,-216.2"/>
<polygon fill="#6b7280" stroke="#6b7280" points="2620,-216.93 2624.81,-221.08 2623.64,-214.84 2620,-216.93"/>
</g>
<!-- mt_164 -->
<g id="node18" class="node">
<title>mt_164</title>
<path fill="#d1fae5" stroke="#059669" stroke-width="2" d="M2640.79,-57.6C2640.79,-57.6 2521.22,-57.6 2521.22,-57.6 2515.22,-57.6 2509.22,-51.6 2509.22,-45.6 2509.22,-45.6 2509.22,-12 2509.22,-12 2509.22,-6 2515.22,0 2521.22,0 2521.22,0 2640.79,0 2640.79,0 2646.79,0 2652.79,-6 2652.79,-12 2652.79,-12 2652.79,-45.6 2652.79,-45.6 2652.79,-51.6 2646.79,-57.6 2640.79,-57.6"/>
<text xml:space="preserve" text-anchor="middle" x="2581.01" y="-31.5" font-family="Arial" font-size="9.00">mt#164</text>
<text xml:space="preserve" text-anchor="middle" x="2581.01" y="-20.7" font-family="Arial" font-size="9.00">Add Bun Binary Builds and GitH</text>
</g>
<!-- mt_164&#45;&gt;mt_233 -->
<g id="edge12" class="edge">
<title>mt_164&#45;&gt;mt_233</title>
<path fill="none" stroke="#6b7280" d="M2580.48,-58.6C2580.23,-72.31 2579.93,-88.86 2579.67,-103.4"/>
<polygon fill="#6b7280" stroke="#6b7280" points="2577.57,-103.25 2579.56,-109.28 2581.77,-103.32 2577.57,-103.25"/>
</g>
<!-- mt_164&#45;&gt;mt_234 -->
<g id="edge13" class="edge">
<title>mt_164&#45;&gt;mt_234</title>
<path fill="none" stroke="#6b7280" d="M2624.33,-58.47C2641.31,-72.29 2658.88,-90.48 2668.01,-111.6 2682.53,-145.18 2671.43,-186.74 2659.57,-215.7"/>
<polygon fill="#6b7280" stroke="#6b7280" points="2657.72,-214.68 2657.3,-221.02 2661.58,-216.33 2657.72,-214.68"/>
</g>
<!-- mt_237&#45;&gt;mt_239 -->
<g id="edge16" class="edge">
<title>mt_237&#45;&gt;mt_239</title>
<path fill="none" stroke="#6b7280" d="M616.4,-393.4C624.29,-407.62 635.75,-424.88 647.15,-439.79"/>
<polygon fill="#6b7280" stroke="#6b7280" points="645.4,-440.96 650.74,-444.4 648.71,-438.38 645.4,-440.96"/>
</g>
<!-- mt_237&#45;&gt;mt_240 -->
<g id="edge19" class="edge">
<title>mt_237&#45;&gt;mt_240</title>
<path fill="none" stroke="#6b7280" d="M536.69,-372.38C488.77,-381.74 430.13,-402.15 401.01,-446.4 386.93,-467.78 390.99,-480.44 401.01,-504 409.08,-522.96 423.94,-539.66 440.09,-552.94"/>
<polygon fill="#6b7280" stroke="#6b7280" points="438.42,-554.29 444.43,-556.37 441.03,-551 438.42,-554.29"/>
</g>
<!-- mt_237&#45;&gt;mt_243 -->
<g id="edge24" class="edge">
<title>mt_237&#45;&gt;mt_243</title>
<path fill="none" stroke="#6b7280" d="M536.64,-372.46C489.46,-381.76 431.21,-402.07 401.01,-446.4 383.62,-471.92 392.81,-593.27 411.01,-615.6 457.21,-672.27 541.15,-690.74 603.61,-696.24"/>
<polygon fill="#6b7280" stroke="#6b7280" points="603.07,-698.3 609.22,-696.7 603.41,-694.12 603.07,-698.3"/>
</g>
<!-- mt_237&#45;&gt;mt_441 -->
<g id="edge68" class="edge">
<title>mt_237&#45;&gt;mt_441</title>
<path fill="none" stroke="#6b7280" d="M681.46,-374.09C835.05,-394.2 1192.85,-441.05 1358.71,-462.77"/>
<polygon fill="#6b7280" stroke="#6b7280" points="1358.25,-464.83 1364.48,-463.52 1358.8,-460.66 1358.25,-464.83"/>
</g>
<!-- mt_237&#45;&gt;mt_442 -->
<g id="edge77" class="edge">
<title>mt_237&#45;&gt;mt_442</title>
<path fill="none" stroke="#6b7280" d="M681.07,-381.77C793.2,-408.41 1016.29,-461.11 1206.01,-504 1306.34,-526.68 1422.04,-551.84 1497.87,-568.18"/>
<polygon fill="#6b7280" stroke="#6b7280" points="1497.29,-570.21 1503.6,-569.42 1498.18,-566.1 1497.29,-570.21"/>
</g>
<!-- mt_239&#45;&gt;mt_237 -->
<g id="edge91" class="edge">
<title>mt_239&#45;&gt;mt_237</title>
<path fill="none" stroke="#6b7280" d="M675.72,-445.6C667.87,-431.4 656.42,-414.14 645.03,-399.21"/>
<polygon fill="#6b7280" stroke="#6b7280" points="646.77,-398.03 641.43,-394.59 643.46,-400.61 646.77,-398.03"/>
</g>
<!-- mt_239&#45;&gt;mt_240 -->
<g id="edge21" class="edge">
<title>mt_239&#45;&gt;mt_240</title>
<path fill="none" stroke="#6b7280" d="M635.98,-505C611.82,-519.79 582.29,-537.87 557.29,-553.18"/>
<polygon fill="#6b7280" stroke="#6b7280" points="556.35,-551.29 552.33,-556.22 558.54,-554.87 556.35,-551.29"/>
</g>
<!-- mt_239&#45;&gt;mt_243 -->
<g id="edge26" class="edge">
<title>mt_239&#45;&gt;mt_243</title>
<path fill="none" stroke="#6b7280" d="M683.01,-504.67C683.01,-544.71 683.01,-617.65 683.01,-661.4"/>
<polygon fill="#6b7280" stroke="#6b7280" points="680.91,-661.18 683.01,-667.18 685.11,-661.18 680.91,-661.18"/>
</g>
<!-- mt_239&#45;&gt;mt_361 -->
<g id="edge37" class="edge">
<title>mt_239&#45;&gt;mt_361</title>
<path fill="none" stroke="#6b7280" d="M717.16,-505C734.48,-519.6 755.6,-537.4 773.6,-552.58"/>
<polygon fill="#6b7280" stroke="#6b7280" points="771.98,-553.96 777.92,-556.22 774.69,-550.75 771.98,-553.96"/>
</g>
<!-- mt_238 -->
<g id="node22" class="node">
<title>mt_238</title>
<path fill="#d1fae5" stroke="#059669" stroke-width="2" d="M1171.29,-392.4C1171.29,-392.4 1048.72,-392.4 1048.72,-392.4 1042.72,-392.4 1036.72,-386.4 1036.72,-380.4 1036.72,-380.4 1036.72,-346.8 1036.72,-346.8 1036.72,-340.8 1042.72,-334.8 1048.72,-334.8 1048.72,-334.8 1171.29,-334.8 1171.29,-334.8 1177.29,-334.8 1183.29,-340.8 1183.29,-346.8 1183.29,-346.8 1183.29,-380.4 1183.29,-380.4 1183.29,-386.4 1177.29,-392.4 1171.29,-392.4"/>
<text xml:space="preserve" text-anchor="middle" x="1110.01" y="-366.3" font-family="Arial" font-size="9.00">mt#238</text>
<text xml:space="preserve" text-anchor="middle" x="1110.01" y="-355.5" font-family="Arial" font-size="9.00">Phase 1: Implement Basic Subta</text>
</g>
<!-- mt_238&#45;&gt;mt_239 -->
<g id="edge17" class="edge">
<title>mt_238&#45;&gt;mt_239</title>
<path fill="none" stroke="#6b7280" d="M1036.12,-383.57C961.16,-402.81 845.32,-432.54 766.95,-452.66"/>
<polygon fill="#6b7280" stroke="#6b7280" points="766.71,-450.55 761.42,-454.07 767.75,-454.62 766.71,-450.55"/>
</g>
<!-- mt_238&#45;&gt;mt_240 -->
<g id="edge20" class="edge">
<title>mt_238&#45;&gt;mt_240</title>
<path fill="none" stroke="#6b7280" d="M1046.95,-393.34C980.56,-423.05 872.6,-469.78 777.01,-504 714.15,-526.5 641.71,-548.01 587.25,-563.32"/>
<polygon fill="#6b7280" stroke="#6b7280" points="586.69,-561.3 581.48,-564.94 587.82,-565.34 586.69,-561.3"/>
</g>
<!-- mt_238&#45;&gt;mt_243 -->
<g id="edge25" class="edge">
<title>mt_238&#45;&gt;mt_243</title>
<path fill="none" stroke="#6b7280" d="M1114.01,-393.18C1119.54,-445.04 1122.93,-554.87 1064.01,-615.6 1023.05,-657.82 861.93,-680.43 762.8,-690.58"/>
<polygon fill="#6b7280" stroke="#6b7280" points="762.74,-688.48 756.98,-691.17 763.16,-692.66 762.74,-688.48"/>
</g>
<!-- mt_238&#45;&gt;mt_441 -->
<g id="edge69" class="edge">
<title>mt_238&#45;&gt;mt_441</title>
<path fill="none" stroke="#6b7280" d="M1184.16,-388.79C1235.78,-405.62 1304.79,-428.14 1359.01,-445.82"/>
<polygon fill="#6b7280" stroke="#6b7280" points="1358.09,-447.73 1364.44,-447.59 1359.39,-443.74 1358.09,-447.73"/>
</g>
<!-- mt_238&#45;&gt;mt_442 -->
<g id="edge75" class="edge">
<title>mt_238&#45;&gt;mt_442</title>
<path fill="none" stroke="#6b7280" d="M1142.49,-393.22C1179.35,-424.39 1242.37,-473.8 1304.01,-504 1365.98,-534.37 1441.41,-555.77 1497.74,-569.05"/>
<polygon fill="#6b7280" stroke="#6b7280" points="1497.06,-571.05 1503.38,-570.37 1498.02,-566.96 1497.06,-571.05"/>
</g>
<!-- mt_240&#45;&gt;mt_237 -->
<g id="edge92" class="edge">
<title>mt_240&#45;&gt;mt_237</title>
<path fill="none" stroke="#6b7280" d="M478.6,-557.31C463.38,-543.4 445.99,-525.11 437.01,-504 426.99,-480.44 422.93,-467.78 437.01,-446.4 458.3,-414.06 495.35,-394.45 529.78,-382.58"/>
<polygon fill="#6b7280" stroke="#6b7280" points="530.15,-384.67 535.18,-380.79 528.83,-380.69 530.15,-384.67"/>
</g>
<!-- mt_240&#45;&gt;mt_243 -->
<g id="edge27" class="edge">
<title>mt_240&#45;&gt;mt_243</title>
<path fill="none" stroke="#6b7280" d="M551.04,-616.6C575.2,-631.39 604.73,-649.47 629.73,-664.78"/>
<polygon fill="#6b7280" stroke="#6b7280" points="628.48,-666.47 634.69,-667.82 630.67,-662.89 628.48,-666.47"/>
</g>
<!-- mt_004 -->
<g id="node24" class="node">
<title>mt_004</title>
<path fill="#d1fae5" stroke="#059669" stroke-width="2" d="M558.53,-504C558.53,-504 449.49,-504 449.49,-504 443.49,-504 437.49,-498 437.49,-492 437.49,-492 437.49,-458.4 437.49,-458.4 437.49,-452.4 443.49,-446.4 449.49,-446.4 449.49,-446.4 558.53,-446.4 558.53,-446.4 564.53,-446.4 570.53,-452.4 570.53,-458.4 570.53,-458.4 570.53,-492 570.53,-492 570.53,-498 564.53,-504 558.53,-504"/>
<text xml:space="preserve" text-anchor="middle" x="504.01" y="-477.9" font-family="Arial" font-size="9.00">mt#004</text>
<text xml:space="preserve" text-anchor="middle" x="504.01" y="-467.1" font-family="Arial" font-size="9.00">Add `&#45;&#45;task` Option to `sessio</text>
</g>
<!-- mt_004&#45;&gt;mt_240 -->
<g id="edge23" class="edge">
<title>mt_004&#45;&gt;mt_240</title>
<path fill="none" stroke="#6b7280" d="M504.01,-505C504.01,-518.71 504.01,-535.26 504.01,-549.8"/>
<polygon fill="#6b7280" stroke="#6b7280" points="501.91,-549.68 504.01,-555.68 506.11,-549.68 501.91,-549.68"/>
</g>
<!-- mt_179 -->
<g id="node26" class="node">
<title>mt_179</title>
<path fill="#f1f5f9" stroke="#64748b" stroke-width="2" d="M1397.54,-169.2C1397.54,-169.2 1274.48,-169.2 1274.48,-169.2 1268.48,-169.2 1262.48,-163.2 1262.48,-157.2 1262.48,-157.2 1262.48,-123.6 1262.48,-123.6 1262.48,-117.6 1268.48,-111.6 1274.48,-111.6 1274.48,-111.6 1397.54,-111.6 1397.54,-111.6 1403.54,-111.6 1409.54,-117.6 1409.54,-123.6 1409.54,-123.6 1409.54,-157.2 1409.54,-157.2 1409.54,-163.2 1403.54,-169.2 1397.54,-169.2"/>
<text xml:space="preserve" text-anchor="middle" x="1336.01" y="-143.1" font-family="Arial" font-size="9.00">mt#179</text>
<text xml:space="preserve" text-anchor="middle" x="1336.01" y="-132.3" font-family="Arial" font-size="9.00">Investigate Embeddings/RAG for</text>
</g>
<!-- mt_179&#45;&gt;mt_250 -->
<g id="edge31" class="edge">
<title>mt_179&#45;&gt;mt_250</title>
<path fill="none" stroke="#6b7280" d="M1376.73,-170.2C1397.48,-184.86 1422.79,-202.77 1444.32,-217.99"/>
<polygon fill="#6b7280" stroke="#6b7280" points="1442.94,-219.58 1449.05,-221.33 1445.36,-216.15 1442.94,-219.58"/>
</g>
<!-- mt_179&#45;&gt;mt_254 -->
<g id="edge39" class="edge">
<title>mt_179&#45;&gt;mt_254</title>
<path fill="none" stroke="#6b7280" d="M1329.44,-170.2C1326.28,-184.04 1322.47,-200.77 1319.13,-215.4"/>
<polygon fill="#6b7280" stroke="#6b7280" points="1317.16,-214.6 1317.87,-220.92 1321.25,-215.54 1317.16,-214.6"/>
</g>
<!-- mt_158 -->
<g id="node27" class="node">
<title>mt_158</title>
<path fill="#d1fae5" stroke="#059669" stroke-width="2" d="M2025.54,-169.2C2025.54,-169.2 1900.48,-169.2 1900.48,-169.2 1894.48,-169.2 1888.48,-163.2 1888.48,-157.2 1888.48,-157.2 1888.48,-123.6 1888.48,-123.6 1888.48,-117.6 1894.48,-111.6 1900.48,-111.6 1900.48,-111.6 2025.54,-111.6 2025.54,-111.6 2031.54,-111.6 2037.54,-117.6 2037.54,-123.6 2037.54,-123.6 2037.54,-157.2 2037.54,-157.2 2037.54,-163.2 2031.54,-169.2 2025.54,-169.2"/>
<text xml:space="preserve" text-anchor="middle" x="1963.01" y="-143.1" font-family="Arial" font-size="9.00">mt#158</text>
<text xml:space="preserve" text-anchor="middle" x="1963.01" y="-132.3" font-family="Arial" font-size="9.00">Implement Session&#45;Aware Versio</text>
</g>
<!-- mt_158&#45;&gt;mt_250 -->
<g id="edge32" class="edge">
<title>mt_158&#45;&gt;mt_250</title>
<path fill="none" stroke="#6b7280" d="M1887.56,-164.68C1881.64,-166.28 1875.74,-167.81 1870.01,-169.2 1743.01,-199.95 1707.86,-191.87 1581.01,-223.2 1577.8,-223.99 1574.53,-224.84 1571.24,-225.71"/>
<polygon fill="#6b7280" stroke="#6b7280" points="1570.7,-223.68 1565.46,-227.29 1571.8,-227.74 1570.7,-223.68"/>
</g>
<!-- mt_293 -->
<g id="node47" class="node">
<title>mt_293</title>
<path fill="#f1f5f9" stroke="#64748b" stroke-width="2" d="M2205.29,-280.8C2205.29,-280.8 2090.72,-280.8 2090.72,-280.8 2084.72,-280.8 2078.72,-274.8 2078.72,-268.8 2078.72,-268.8 2078.72,-235.2 2078.72,-235.2 2078.72,-229.2 2084.72,-223.2 2090.72,-223.2 2090.72,-223.2 2205.29,-223.2 2205.29,-223.2 2211.29,-223.2 2217.29,-229.2 2217.29,-235.2 2217.29,-235.2 2217.29,-268.8 2217.29,-268.8 2217.29,-274.8 2211.29,-280.8 2205.29,-280.8"/>
<text xml:space="preserve" text-anchor="middle" x="2148.01" y="-254.7" font-family="Arial" font-size="9.00">mt#293</text>
<text xml:space="preserve" text-anchor="middle" x="2148.01" y="-243.9" font-family="Arial" font-size="9.00">Add session chat interface con</text>
</g>
<!-- mt_158&#45;&gt;mt_293 -->
<g id="edge53" class="edge">
<title>mt_158&#45;&gt;mt_293</title>
<path fill="none" stroke="#6b7280" d="M2011.62,-170.2C2036.58,-184.99 2067.11,-203.07 2092.94,-218.38"/>
<polygon fill="#6b7280" stroke="#6b7280" points="2091.87,-220.18 2098.1,-221.43 2094.01,-216.57 2091.87,-220.18"/>
</g>
<!-- mt_349 -->
<g id="node54" class="node">
<title>mt_349</title>
<path fill="#f1f5f9" stroke="#64748b" stroke-width="2" d="M1986.78,-392.4C1986.78,-392.4 1871.24,-392.4 1871.24,-392.4 1865.24,-392.4 1859.24,-386.4 1859.24,-380.4 1859.24,-380.4 1859.24,-346.8 1859.24,-346.8 1859.24,-340.8 1865.24,-334.8 1871.24,-334.8 1871.24,-334.8 1986.78,-334.8 1986.78,-334.8 1992.78,-334.8 1998.78,-340.8 1998.78,-346.8 1998.78,-346.8 1998.78,-380.4 1998.78,-380.4 1998.78,-386.4 1992.78,-392.4 1986.78,-392.4"/>
<text xml:space="preserve" text-anchor="middle" x="1929.01" y="-366.3" font-family="Arial" font-size="9.00">mt#349</text>
<text xml:space="preserve" text-anchor="middle" x="1929.01" y="-355.5" font-family="Arial" font-size="9.00">Analyze Cursor Chat History to</text>
</g>
<!-- mt_158&#45;&gt;mt_349 -->
<g id="edge59" class="edge">
<title>mt_158&#45;&gt;mt_349</title>
<path fill="none" stroke="#6b7280" d="M1958.63,-169.87C1952.48,-209.91 1941.27,-282.85 1934.54,-326.6"/>
<polygon fill="#6b7280" stroke="#6b7280" points="1932.49,-326.15 1933.65,-332.4 1936.64,-326.79 1932.49,-326.15"/>
</g>
<!-- mt_251 -->
<g id="node28" class="node">
<title>mt_251</title>
<path fill="#f1f5f9" stroke="#64748b" stroke-width="2" d="M2204.29,-57.6C2204.29,-57.6 2091.73,-57.6 2091.73,-57.6 2085.73,-57.6 2079.73,-51.6 2079.73,-45.6 2079.73,-45.6 2079.73,-12 2079.73,-12 2079.73,-6 2085.73,0 2091.73,0 2091.73,0 2204.29,0 2204.29,0 2210.29,0 2216.29,-6 2216.29,-12 2216.29,-12 2216.29,-45.6 2216.29,-45.6 2216.29,-51.6 2210.29,-57.6 2204.29,-57.6"/>
<text xml:space="preserve" text-anchor="middle" x="2148.01" y="-31.5" font-family="Arial" font-size="9.00">mt#251</text>
<text xml:space="preserve" text-anchor="middle" x="2148.01" y="-20.7" font-family="Arial" font-size="9.00">Add Mobile/Voice Interface for</text>
</g>
<!-- mt_252 -->
<g id="node29" class="node">
<title>mt_252</title>
<path fill="#f1f5f9" stroke="#64748b" stroke-width="2" d="M2210.79,-169.2C2210.79,-169.2 2085.22,-169.2 2085.22,-169.2 2079.22,-169.2 2073.22,-163.2 2073.22,-157.2 2073.22,-157.2 2073.22,-123.6 2073.22,-123.6 2073.22,-117.6 2079.22,-111.6 2085.22,-111.6 2085.22,-111.6 2210.79,-111.6 2210.79,-111.6 2216.79,-111.6 2222.79,-117.6 2222.79,-123.6 2222.79,-123.6 2222.79,-157.2 2222.79,-157.2 2222.79,-163.2 2216.79,-169.2 2210.79,-169.2"/>
<text xml:space="preserve" text-anchor="middle" x="2148.01" y="-143.1" font-family="Arial" font-size="9.00">mt#252</text>
<text xml:space="preserve" text-anchor="middle" x="2148.01" y="-132.3" font-family="Arial" font-size="9.00">Design and implement task mana</text>
</g>
<!-- mt_251&#45;&gt;mt_252 -->
<g id="edge82" class="edge">
<title>mt_251&#45;&gt;mt_252</title>
<path fill="none" stroke="#6b7280" d="M2135.96,-58.6C2134.31,-72.31 2134.06,-88.86 2135.24,-103.4"/>
<polygon fill="#6b7280" stroke="#6b7280" points="2133.14,-103.53 2135.83,-109.29 2137.32,-103.11 2133.14,-103.53"/>
</g>
<!-- mt_251&#45;&gt;mt_293 -->
<g id="edge52" class="edge">
<title>mt_251&#45;&gt;mt_293</title>
<path fill="none" stroke="#6b7280" d="M2194.74,-58.24C2212.72,-71.91 2231.26,-90.05 2241.01,-111.6 2251.56,-134.93 2251.56,-145.87 2241.01,-169.2 2232.25,-188.56 2216.4,-205.17 2200.23,-218.26"/>
<polygon fill="#6b7280" stroke="#6b7280" points="2199.36,-216.27 2195.93,-221.62 2201.95,-219.57 2199.36,-216.27"/>
</g>
<!-- mt_252&#45;&gt;mt_251 -->
<g id="edge33" class="edge">
<title>mt_252&#45;&gt;mt_251</title>
<path fill="none" stroke="#6b7280" d="M2160.03,-110.8C2161.7,-97.1 2161.96,-80.56 2160.79,-66"/>
<polygon fill="#6b7280" stroke="#6b7280" points="2162.89,-65.86 2160.21,-60.1 2158.71,-66.28 2162.89,-65.86"/>
</g>
<!-- mt_252&#45;&gt;mt_293 -->
<g id="edge51" class="edge">
<title>mt_252&#45;&gt;mt_293</title>
<path fill="none" stroke="#6b7280" d="M2148.01,-170.2C2148.01,-183.91 2148.01,-200.46 2148.01,-215"/>
<polygon fill="#6b7280" stroke="#6b7280" points="2145.91,-214.88 2148.01,-220.88 2150.11,-214.88 2145.91,-214.88"/>
</g>
<!-- mt_279 -->
<g id="node30" class="node">
<title>mt_279</title>
<path fill="#f1f5f9" stroke="#64748b" stroke-width="2" d="M1863.79,-838.8C1863.79,-838.8 1748.23,-838.8 1748.23,-838.8 1742.23,-838.8 1736.23,-832.8 1736.23,-826.8 1736.23,-826.8 1736.23,-793.2 1736.23,-793.2 1736.23,-787.2 1742.23,-781.2 1748.23,-781.2 1748.23,-781.2 1863.79,-781.2 1863.79,-781.2 1869.79,-781.2 1875.79,-787.2 1875.79,-793.2 1875.79,-793.2 1875.79,-826.8 1875.79,-826.8 1875.79,-832.8 1869.79,-838.8 1863.79,-838.8"/>
<text xml:space="preserve" text-anchor="middle" x="1806.01" y="-812.7" font-family="Arial" font-size="9.00">mt#279</text>
<text xml:space="preserve" text-anchor="middle" x="1806.01" y="-801.9" font-family="Arial" font-size="9.00">Implement multi&#45;layered agent </text>
</g>
<!-- mt_327 -->
<g id="node73" class="node">
<title>mt_327</title>
<path fill="#f1f5f9" stroke="#64748b" stroke-width="2" d="M2039.55,-950.4C2039.55,-950.4 1926.47,-950.4 1926.47,-950.4 1920.47,-950.4 1914.47,-944.4 1914.47,-938.4 1914.47,-938.4 1914.47,-904.8 1914.47,-904.8 1914.47,-898.8 1920.47,-892.8 1926.47,-892.8 1926.47,-892.8 2039.55,-892.8 2039.55,-892.8 2045.55,-892.8 2051.55,-898.8 2051.55,-904.8 2051.55,-904.8 2051.55,-938.4 2051.55,-938.4 2051.55,-944.4 2045.55,-950.4 2039.55,-950.4"/>
<text xml:space="preserve" text-anchor="middle" x="1983.01" y="-924.3" font-family="Arial" font-size="9.00">mt#327</text>
<text xml:space="preserve" text-anchor="middle" x="1983.01" y="-913.5" font-family="Arial" font-size="9.00">Analyze and architect general </text>
</g>
<!-- mt_279&#45;&gt;mt_327 -->
<g id="edge86" class="edge">
<title>mt_279&#45;&gt;mt_327</title>
<path fill="none" stroke="#6b7280" d="M1852.51,-839.8C1876.4,-854.59 1905.61,-872.67 1930.33,-887.98"/>
<polygon fill="#6b7280" stroke="#6b7280" points="1929.01,-889.64 1935.22,-891.01 1931.23,-886.07 1929.01,-889.64"/>
</g>
<!-- mt_258 -->
<g id="node31" class="node">
<title>mt_258</title>
<path fill="#f1f5f9" stroke="#64748b" stroke-width="2" d="M2059.54,-615.6C2059.54,-615.6 1946.48,-615.6 1946.48,-615.6 1940.48,-615.6 1934.48,-609.6 1934.48,-603.6 1934.48,-603.6 1934.48,-570 1934.48,-570 1934.48,-564 1940.48,-558 1946.48,-558 1946.48,-558 2059.54,-558 2059.54,-558 2065.54,-558 2071.54,-564 2071.54,-570 2071.54,-570 2071.54,-603.6 2071.54,-603.6 2071.54,-609.6 2065.54,-615.6 2059.54,-615.6"/>
<text xml:space="preserve" text-anchor="middle" x="2003.01" y="-589.5" font-family="Arial" font-size="9.00">mt#258</text>
<text xml:space="preserve" text-anchor="middle" x="2003.01" y="-578.7" font-family="Arial" font-size="9.00">Design multi&#45;agent cybernetic </text>
</g>
<!-- mt_258&#45;&gt;mt_279 -->
<g id="edge34" class="edge">
<title>mt_258&#45;&gt;mt_279</title>
<path fill="none" stroke="#6b7280" d="M1956.54,-616.59C1935.64,-630.92 1911.56,-649.48 1893.01,-669.6 1863.8,-701.29 1838.77,-744.13 1823.15,-773.91"/>
<polygon fill="#6b7280" stroke="#6b7280" points="1821.36,-772.8 1820.47,-779.09 1825.09,-774.73 1821.36,-772.8"/>
</g>
<!-- mt_284 -->
<g id="node32" class="node">
<title>mt_284</title>
<path fill="#f1f5f9" stroke="#64748b" stroke-width="2" d="M2043.28,-727.2C2043.28,-727.2 1922.73,-727.2 1922.73,-727.2 1916.73,-727.2 1910.73,-721.2 1910.73,-715.2 1910.73,-715.2 1910.73,-681.6 1910.73,-681.6 1910.73,-675.6 1916.73,-669.6 1922.73,-669.6 1922.73,-669.6 2043.28,-669.6 2043.28,-669.6 2049.28,-669.6 2055.28,-675.6 2055.28,-681.6 2055.28,-681.6 2055.28,-715.2 2055.28,-715.2 2055.28,-721.2 2049.28,-727.2 2043.28,-727.2"/>
<text xml:space="preserve" text-anchor="middle" x="1983.01" y="-701.1" font-family="Arial" font-size="9.00">mt#284</text>
<text xml:space="preserve" text-anchor="middle" x="1983.01" y="-690.3" font-family="Arial" font-size="9.00">Integrate Task Graph System wi</text>
</g>
<!-- mt_258&#45;&gt;mt_284 -->
<g id="edge36" class="edge">
<title>mt_258&#45;&gt;mt_284</title>
<path fill="none" stroke="#6b7280" d="M1997.75,-616.6C1995.23,-630.44 1992.18,-647.17 1989.5,-661.8"/>
<polygon fill="#6b7280" stroke="#6b7280" points="1987.51,-661.03 1988.5,-667.31 1991.64,-661.78 1987.51,-661.03"/>
</g>
<!-- mt_258&#45;&gt;mt_327 -->
<g id="edge85" class="edge">
<title>mt_258&#45;&gt;mt_327</title>
<path fill="none" stroke="#6b7280" d="M2036.54,-616.56C2050.68,-630.88 2065.56,-649.44 2073.01,-669.6 2099.07,-740.14 2103.43,-770.03 2073.01,-838.8 2064.64,-857.72 2049.49,-874.13 2033.99,-887.2"/>
<polygon fill="#6b7280" stroke="#6b7280" points="2032.77,-885.48 2029.44,-890.9 2035.42,-888.74 2032.77,-885.48"/>
</g>
<!-- mt_468 -->
<g id="node74" class="node">
<title>mt_468</title>
<path fill="#f1f5f9" stroke="#64748b" stroke-width="2" d="M2293.28,-727.2C2293.28,-727.2 2176.73,-727.2 2176.73,-727.2 2170.73,-727.2 2164.73,-721.2 2164.73,-715.2 2164.73,-715.2 2164.73,-681.6 2164.73,-681.6 2164.73,-675.6 2170.73,-669.6 2176.73,-669.6 2176.73,-669.6 2293.28,-669.6 2293.28,-669.6 2299.28,-669.6 2305.28,-675.6 2305.28,-681.6 2305.28,-681.6 2305.28,-715.2 2305.28,-715.2 2305.28,-721.2 2299.28,-727.2 2293.28,-727.2"/>
<text xml:space="preserve" text-anchor="middle" x="2235.01" y="-701.1" font-family="Arial" font-size="9.00">mt#468</text>
<text xml:space="preserve" text-anchor="middle" x="2235.01" y="-690.3" font-family="Arial" font-size="9.00">Implement Tool Call Supervisio</text>
</g>
<!-- mt_258&#45;&gt;mt_468 -->
<g id="edge88" class="edge">
<title>mt_258&#45;&gt;mt_468</title>
<path fill="none" stroke="#6b7280" d="M2063.96,-616.6C2095.81,-631.64 2134.85,-650.09 2167.6,-665.55"/>
<polygon fill="#6b7280" stroke="#6b7280" points="2166.37,-667.3 2172.69,-667.96 2168.16,-663.5 2166.37,-667.3"/>
</g>
<!-- mt_260 -->
<g id="node33" class="node">
<title>mt_260</title>
<path fill="#f1f5f9" stroke="#64748b" stroke-width="2" d="M2042.53,-838.8C2042.53,-838.8 1923.48,-838.8 1923.48,-838.8 1917.48,-838.8 1911.48,-832.8 1911.48,-826.8 1911.48,-826.8 1911.48,-793.2 1911.48,-793.2 1911.48,-787.2 1917.48,-781.2 1923.48,-781.2 1923.48,-781.2 2042.53,-781.2 2042.53,-781.2 2048.53,-781.2 2054.53,-787.2 2054.53,-793.2 2054.53,-793.2 2054.53,-826.8 2054.53,-826.8 2054.53,-832.8 2048.53,-838.8 2042.53,-838.8"/>
<text xml:space="preserve" text-anchor="middle" x="1983.01" y="-812.7" font-family="Arial" font-size="9.00">mt#260</text>
<text xml:space="preserve" text-anchor="middle" x="1983.01" y="-801.9" font-family="Arial" font-size="9.00">Implement prompt templates for</text>
</g>
<!-- mt_284&#45;&gt;mt_260 -->
<g id="edge45" class="edge">
<title>mt_284&#45;&gt;mt_260</title>
<path fill="none" stroke="#6b7280" d="M1970.96,-728.2C1969.31,-741.91 1969.06,-758.46 1970.24,-773"/>
<polygon fill="#6b7280" stroke="#6b7280" points="1968.14,-773.13 1970.83,-778.89 1972.32,-772.71 1968.14,-773.13"/>
</g>
<!-- mt_260&#45;&gt;mt_284 -->
<g id="edge35" class="edge">
<title>mt_260&#45;&gt;mt_284</title>
<path fill="none" stroke="#6b7280" d="M1995.03,-780.4C1996.7,-766.7 1996.96,-750.16 1995.79,-735.6"/>
<polygon fill="#6b7280" stroke="#6b7280" points="1997.89,-735.46 1995.21,-729.7 1993.71,-735.88 1997.89,-735.46"/>
</g>
<!-- mt_260&#45;&gt;mt_327 -->
<g id="edge87" class="edge">
<title>mt_260&#45;&gt;mt_327</title>
<path fill="none" stroke="#6b7280" d="M1983.01,-839.8C1983.01,-853.51 1983.01,-870.06 1983.01,-884.6"/>
<polygon fill="#6b7280" stroke="#6b7280" points="1980.91,-884.48 1983.01,-890.48 1985.11,-884.48 1980.91,-884.48"/>
</g>
<!-- mt_253 -->
<g id="node36" class="node">
<title>mt_253</title>
<path fill="#d1fae5" stroke="#059669" stroke-width="2" d="M1574.27,-169.2C1574.27,-169.2 1457.74,-169.2 1457.74,-169.2 1451.74,-169.2 1445.74,-163.2 1445.74,-157.2 1445.74,-157.2 1445.74,-123.6 1445.74,-123.6 1445.74,-117.6 1451.74,-111.6 1457.74,-111.6 1457.74,-111.6 1574.27,-111.6 1574.27,-111.6 1580.27,-111.6 1586.27,-117.6 1586.27,-123.6 1586.27,-123.6 1586.27,-157.2 1586.27,-157.2 1586.27,-163.2 1580.27,-169.2 1574.27,-169.2"/>
<text xml:space="preserve" text-anchor="middle" x="1516.01" y="-143.1" font-family="Arial" font-size="9.00">mt#253</text>
<text xml:space="preserve" text-anchor="middle" x="1516.01" y="-132.3" font-family="Arial" font-size="9.00">Implement Task Similarity Sear</text>
</g>
<!-- mt_253&#45;&gt;mt_254 -->
<g id="edge40" class="edge">
<title>mt_253&#45;&gt;mt_254</title>
<path fill="none" stroke="#6b7280" d="M1462.15,-170.2C1434.24,-185.11 1400.08,-203.38 1371.3,-218.77"/>
<polygon fill="#6b7280" stroke="#6b7280" points="1370.5,-216.81 1366.2,-221.49 1372.48,-220.52 1370.5,-216.81"/>
</g>
<!-- mt_253&#45;&gt;mt_442 -->
<g id="edge79" class="edge">
<title>mt_253&#45;&gt;mt_442</title>
<path fill="none" stroke="#6b7280" d="M1586.96,-154.9C1653.39,-169.15 1745.54,-193.62 1767.01,-223.2 1811.18,-284.06 1795.2,-322.68 1767.01,-392.4 1739.28,-460.98 1674.28,-518.73 1628.74,-552.8"/>
<polygon fill="#6b7280" stroke="#6b7280" points="1627.52,-551.09 1623.95,-556.35 1630.02,-554.47 1627.52,-551.09"/>
</g>
<!-- mt_273 -->
<g id="node37" class="node">
<title>mt_273</title>
<path fill="#f1f5f9" stroke="#64748b" stroke-width="2" d="M3022.04,-169.2C3022.04,-169.2 2891.98,-169.2 2891.98,-169.2 2885.98,-169.2 2879.98,-163.2 2879.98,-157.2 2879.98,-157.2 2879.98,-123.6 2879.98,-123.6 2879.98,-117.6 2885.98,-111.6 2891.98,-111.6 2891.98,-111.6 3022.04,-111.6 3022.04,-111.6 3028.04,-111.6 3034.04,-117.6 3034.04,-123.6 3034.04,-123.6 3034.04,-157.2 3034.04,-157.2 3034.04,-163.2 3028.04,-169.2 3022.04,-169.2"/>
<text xml:space="preserve" text-anchor="middle" x="2957.01" y="-143.1" font-family="Arial" font-size="9.00">mt#273</text>
<text xml:space="preserve" text-anchor="middle" x="2957.01" y="-132.3" font-family="Arial" font-size="9.00">Implement AI&#45;Powered PR Conten</text>
</g>
<!-- mt_203 -->
<g id="node38" class="node">
<title>mt_203</title>
<path fill="#d1fae5" stroke="#059669" stroke-width="2" d="M2835.54,-57.6C2835.54,-57.6 2700.48,-57.6 2700.48,-57.6 2694.48,-57.6 2688.48,-51.6 2688.48,-45.6 2688.48,-45.6 2688.48,-12 2688.48,-12 2688.48,-6 2694.48,0 2700.48,0 2700.48,0 2835.54,0 2835.54,0 2841.54,0 2847.54,-6 2847.54,-12 2847.54,-12 2847.54,-45.6 2847.54,-45.6 2847.54,-51.6 2841.54,-57.6 2835.54,-57.6"/>
<text xml:space="preserve" text-anchor="middle" x="2768.01" y="-31.5" font-family="Arial" font-size="9.00">mt#203</text>
<text xml:space="preserve" text-anchor="middle" x="2768.01" y="-20.7" font-family="Arial" font-size="9.00">Improve Session PR Command Out</text>
</g>
<!-- mt_203&#45;&gt;mt_273 -->
<g id="edge42" class="edge">
<title>mt_203&#45;&gt;mt_273</title>
<path fill="none" stroke="#6b7280" d="M2817.67,-58.6C2843.28,-73.45 2874.62,-91.63 2901.09,-106.97"/>
<polygon fill="#6b7280" stroke="#6b7280" points="2899.8,-108.65 2906.05,-109.85 2901.91,-105.02 2899.8,-108.65"/>
</g>
<!-- mt_010 -->
<g id="node39" class="node">
<title>mt_010</title>
<path fill="#d1fae5" stroke="#059669" stroke-width="2" d="M3018.54,-57.6C3018.54,-57.6 2895.48,-57.6 2895.48,-57.6 2889.48,-57.6 2883.48,-51.6 2883.48,-45.6 2883.48,-45.6 2883.48,-12 2883.48,-12 2883.48,-6 2889.48,0 2895.48,0 2895.48,0 3018.54,0 3018.54,0 3024.54,0 3030.54,-6 3030.54,-12 3030.54,-12 3030.54,-45.6 3030.54,-45.6 3030.54,-51.6 3024.54,-57.6 3018.54,-57.6"/>
<text xml:space="preserve" text-anchor="middle" x="2957.01" y="-31.5" font-family="Arial" font-size="9.00">mt#010</text>
<text xml:space="preserve" text-anchor="middle" x="2957.01" y="-20.7" font-family="Arial" font-size="9.00">~~Enhance `git pr` Command to </text>
</g>
<!-- mt_010&#45;&gt;mt_273 -->
<g id="edge43" class="edge">
<title>mt_010&#45;&gt;mt_273</title>
<path fill="none" stroke="#6b7280" d="M2957.01,-58.6C2957.01,-72.31 2957.01,-88.86 2957.01,-103.4"/>
<polygon fill="#6b7280" stroke="#6b7280" points="2954.91,-103.28 2957.01,-109.28 2959.11,-103.28 2954.91,-103.28"/>
</g>
<!-- mt_025 -->
<g id="node40" class="node">
<title>mt_025</title>
<path fill="#d1fae5" stroke="#059669" stroke-width="2" d="M3211.54,-57.6C3211.54,-57.6 3078.48,-57.6 3078.48,-57.6 3072.48,-57.6 3066.48,-51.6 3066.48,-45.6 3066.48,-45.6 3066.48,-12 3066.48,-12 3066.48,-6 3072.48,0 3078.48,0 3078.48,0 3211.54,0 3211.54,0 3217.54,0 3223.54,-6 3223.54,-12 3223.54,-12 3223.54,-45.6 3223.54,-45.6 3223.54,-51.6 3217.54,-57.6 3211.54,-57.6"/>
<text xml:space="preserve" text-anchor="middle" x="3145.01" y="-31.5" font-family="Arial" font-size="9.00">mt#025</text>
<text xml:space="preserve" text-anchor="middle" x="3145.01" y="-20.7" font-family="Arial" font-size="9.00">Add PR Merging Commands for Se</text>
</g>
<!-- mt_025&#45;&gt;mt_273 -->
<g id="edge44" class="edge">
<title>mt_025&#45;&gt;mt_273</title>
<path fill="none" stroke="#6b7280" d="M3095.61,-58.6C3070.13,-73.45 3038.96,-91.63 3012.63,-106.97"/>
<polygon fill="#6b7280" stroke="#6b7280" points="3011.83,-105.01 3007.71,-109.84 3013.95,-108.64 3011.83,-105.01"/>
</g>
<!-- mt_277 -->
<g id="node44" class="node">
<title>mt_277</title>
<path fill="#f1f5f9" stroke="#64748b" stroke-width="2" d="M3394.03,-169.2C3394.03,-169.2 3267.99,-169.2 3267.99,-169.2 3261.99,-169.2 3255.99,-163.2 3255.99,-157.2 3255.99,-157.2 3255.99,-123.6 3255.99,-123.6 3255.99,-117.6 3261.99,-111.6 3267.99,-111.6 3267.99,-111.6 3394.03,-111.6 3394.03,-111.6 3400.03,-111.6 3406.03,-117.6 3406.03,-123.6 3406.03,-123.6 3406.03,-157.2 3406.03,-157.2 3406.03,-163.2 3400.03,-169.2 3394.03,-169.2"/>
<text xml:space="preserve" text-anchor="middle" x="3331.01" y="-143.1" font-family="Arial" font-size="9.00">mt#277</text>
<text xml:space="preserve" text-anchor="middle" x="3331.01" y="-132.3" font-family="Arial" font-size="9.00">Implement Stacked PR Workflow </text>
</g>
<!-- mt_025&#45;&gt;mt_277 -->
<g id="edge50" class="edge">
<title>mt_025&#45;&gt;mt_277</title>
<path fill="none" stroke="#6b7280" d="M3193.88,-58.6C3219.09,-73.45 3249.93,-91.63 3275.98,-106.97"/>
<polygon fill="#6b7280" stroke="#6b7280" points="3274.6,-108.6 3280.84,-109.84 3276.74,-104.98 3274.6,-108.6"/>
</g>
<!-- mt_262 -->
<g id="node41" class="node">
<title>mt_262</title>
<path fill="#f1f5f9" stroke="#64748b" stroke-width="2" d="M3660.04,-169.2C3660.04,-169.2 3547.97,-169.2 3547.97,-169.2 3541.97,-169.2 3535.97,-163.2 3535.97,-157.2 3535.97,-157.2 3535.97,-123.6 3535.97,-123.6 3535.97,-117.6 3541.97,-111.6 3547.97,-111.6 3547.97,-111.6 3660.04,-111.6 3660.04,-111.6 3666.04,-111.6 3672.04,-117.6 3672.04,-123.6 3672.04,-123.6 3672.04,-157.2 3672.04,-157.2 3672.04,-163.2 3666.04,-169.2 3660.04,-169.2"/>
<text xml:space="preserve" text-anchor="middle" x="3604.01" y="-143.1" font-family="Arial" font-size="9.00">mt#262</text>
<text xml:space="preserve" text-anchor="middle" x="3604.01" y="-132.3" font-family="Arial" font-size="9.00">Explore consolidating ESLint r</text>
</g>
<!-- mt_178 -->
<g id="node42" class="node">
<title>mt_178</title>
<path fill="#d1fae5" stroke="#059669" stroke-width="2" d="M3758.29,-57.6C3758.29,-57.6 3637.73,-57.6 3637.73,-57.6 3631.73,-57.6 3625.73,-51.6 3625.73,-45.6 3625.73,-45.6 3625.73,-12 3625.73,-12 3625.73,-6 3631.73,0 3637.73,0 3637.73,0 3758.29,0 3758.29,0 3764.29,0 3770.29,-6 3770.29,-12 3770.29,-12 3770.29,-45.6 3770.29,-45.6 3770.29,-51.6 3764.29,-57.6 3758.29,-57.6"/>
<text xml:space="preserve" text-anchor="middle" x="3698.01" y="-31.5" font-family="Arial" font-size="9.00">mt#178</text>
<text xml:space="preserve" text-anchor="middle" x="3698.01" y="-20.7" font-family="Arial" font-size="9.00">Establish Codemod Best Practic</text>
</g>
<!-- mt_178&#45;&gt;mt_262 -->
<g id="edge46" class="edge">
<title>mt_178&#45;&gt;mt_262</title>
<path fill="none" stroke="#6b7280" d="M3673.31,-58.6C3661.01,-72.94 3646.05,-90.39 3633.18,-105.39"/>
<polygon fill="#6b7280" stroke="#6b7280" points="3631.84,-103.73 3629.53,-109.65 3635.03,-106.46 3631.84,-103.73"/>
</g>
<!-- mt_268 -->
<g id="node43" class="node">
<title>mt_268</title>
<path fill="#f1f5f9" stroke="#64748b" stroke-width="2" d="M3857.53,-169.2C3857.53,-169.2 3720.49,-169.2 3720.49,-169.2 3714.49,-169.2 3708.49,-163.2 3708.49,-157.2 3708.49,-157.2 3708.49,-123.6 3708.49,-123.6 3708.49,-117.6 3714.49,-111.6 3720.49,-111.6 3720.49,-111.6 3857.53,-111.6 3857.53,-111.6 3863.53,-111.6 3869.53,-117.6 3869.53,-123.6 3869.53,-123.6 3869.53,-157.2 3869.53,-157.2 3869.53,-163.2 3863.53,-169.2 3857.53,-169.2"/>
<text xml:space="preserve" text-anchor="middle" x="3789.01" y="-143.1" font-family="Arial" font-size="9.00">mt#268</text>
<text xml:space="preserve" text-anchor="middle" x="3789.01" y="-132.3" font-family="Arial" font-size="9.00">Complete AST&#45;Only Codemod Fram</text>
</g>
<!-- mt_178&#45;&gt;mt_268 -->
<g id="edge47" class="edge">
<title>mt_178&#45;&gt;mt_268</title>
<path fill="none" stroke="#6b7280" d="M3721.92,-58.6C3733.83,-72.94 3748.31,-90.39 3760.77,-105.39"/>
<polygon fill="#6b7280" stroke="#6b7280" points="3758.84,-106.36 3764.29,-109.63 3762.08,-103.67 3758.84,-106.36"/>
</g>
<!-- mt_144 -->
<g id="node45" class="node">
<title>mt_144</title>
<path fill="#d1fae5" stroke="#059669" stroke-width="2" d="M3390.79,-57.6C3390.79,-57.6 3271.23,-57.6 3271.23,-57.6 3265.23,-57.6 3259.23,-51.6 3259.23,-45.6 3259.23,-45.6 3259.23,-12 3259.23,-12 3259.23,-6 3265.23,0 3271.23,0 3271.23,0 3390.79,0 3390.79,0 3396.79,0 3402.79,-6 3402.79,-12 3402.79,-12 3402.79,-45.6 3402.79,-45.6 3402.79,-51.6 3396.79,-57.6 3390.79,-57.6"/>
<text xml:space="preserve" text-anchor="middle" x="3331.01" y="-31.5" font-family="Arial" font-size="9.00">mt#144</text>
<text xml:space="preserve" text-anchor="middle" x="3331.01" y="-20.7" font-family="Arial" font-size="9.00">Fix Session PR and Git Prepare</text>
</g>
<!-- mt_144&#45;&gt;mt_277 -->
<g id="edge48" class="edge">
<title>mt_144&#45;&gt;mt_277</title>
<path fill="none" stroke="#6b7280" d="M3331.01,-58.6C3331.01,-72.31 3331.01,-88.86 3331.01,-103.4"/>
<polygon fill="#6b7280" stroke="#6b7280" points="3328.91,-103.28 3331.01,-109.28 3333.11,-103.28 3328.91,-103.28"/>
</g>
<!-- mt_174 -->
<g id="node46" class="node">
<title>mt_174</title>
<path fill="#d1fae5" stroke="#059669" stroke-width="2" d="M3577.28,-57.6C3577.28,-57.6 3450.74,-57.6 3450.74,-57.6 3444.74,-57.6 3438.74,-51.6 3438.74,-45.6 3438.74,-45.6 3438.74,-12 3438.74,-12 3438.74,-6 3444.74,0 3450.74,0 3450.74,0 3577.28,0 3577.28,0 3583.28,0 3589.28,-6 3589.28,-12 3589.28,-12 3589.28,-45.6 3589.28,-45.6 3589.28,-51.6 3583.28,-57.6 3577.28,-57.6"/>
<text xml:space="preserve" text-anchor="middle" x="3514.01" y="-31.5" font-family="Arial" font-size="9.00">mt#174</text>
<text xml:space="preserve" text-anchor="middle" x="3514.01" y="-20.7" font-family="Arial" font-size="9.00">Review Session PR Workflow Arc</text>
</g>
<!-- mt_174&#45;&gt;mt_277 -->
<g id="edge49" class="edge">
<title>mt_174&#45;&gt;mt_277</title>
<path fill="none" stroke="#6b7280" d="M3465.93,-58.6C3441.23,-73.39 3411.03,-91.47 3385.48,-106.78"/>
<polygon fill="#6b7280" stroke="#6b7280" points="3384.45,-104.94 3380.38,-109.83 3386.61,-108.55 3384.45,-104.94"/>
</g>
<!-- mt_307 -->
<g id="node49" class="node">
<title>mt_307</title>
<path fill="#d1fae5" stroke="#059669" stroke-width="2" d="M1029.54,-169.2C1029.54,-169.2 918.47,-169.2 918.47,-169.2 912.47,-169.2 906.47,-163.2 906.47,-157.2 906.47,-157.2 906.47,-123.6 906.47,-123.6 906.47,-117.6 912.47,-111.6 918.47,-111.6 918.47,-111.6 1029.54,-111.6 1029.54,-111.6 1035.54,-111.6 1041.54,-117.6 1041.54,-123.6 1041.54,-123.6 1041.54,-157.2 1041.54,-157.2 1041.54,-163.2 1035.54,-169.2 1029.54,-169.2"/>
<text xml:space="preserve" text-anchor="middle" x="974.01" y="-143.1" font-family="Arial" font-size="9.00">mt#307</text>
<text xml:space="preserve" text-anchor="middle" x="974.01" y="-132.3" font-family="Arial" font-size="9.00">Explore adding session lint co</text>
</g>
<!-- mt_307&#45;&gt;mt_321 -->
<g id="edge54" class="edge">
<title>mt_307&#45;&gt;mt_321</title>
<path fill="none" stroke="#6b7280" d="M974.53,-170.2C974.78,-183.91 975.09,-200.46 975.35,-215"/>
<polygon fill="#6b7280" stroke="#6b7280" points="973.25,-214.92 975.46,-220.88 977.45,-214.85 973.25,-214.92"/>
</g>
<!-- mt_324 -->
<g id="node50" class="node">
<title>mt_324</title>
<path fill="#f1f5f9" stroke="#64748b" stroke-width="2" d="M4126.78,-169.2C4126.78,-169.2 4007.23,-169.2 4007.23,-169.2 4001.23,-169.2 3995.23,-163.2 3995.23,-157.2 3995.23,-157.2 3995.23,-123.6 3995.23,-123.6 3995.23,-117.6 4001.23,-111.6 4007.23,-111.6 4007.23,-111.6 4126.78,-111.6 4126.78,-111.6 4132.78,-111.6 4138.78,-117.6 4138.78,-123.6 4138.78,-123.6 4138.78,-157.2 4138.78,-157.2 4138.78,-163.2 4132.78,-169.2 4126.78,-169.2"/>
<text xml:space="preserve" text-anchor="middle" x="4067.01" y="-143.1" font-family="Arial" font-size="9.00">mt#324</text>
<text xml:space="preserve" text-anchor="middle" x="4067.01" y="-132.3" font-family="Arial" font-size="9.00">Add MCP Client Registration Fu</text>
</g>
<!-- mt_047 -->
<g id="node51" class="node">
<title>mt_047</title>
<path fill="#d1fae5" stroke="#059669" stroke-width="2" d="M3944.28,-57.6C3944.28,-57.6 3821.74,-57.6 3821.74,-57.6 3815.74,-57.6 3809.74,-51.6 3809.74,-45.6 3809.74,-45.6 3809.74,-12 3809.74,-12 3809.74,-6 3815.74,0 3821.74,0 3821.74,0 3944.28,0 3944.28,0 3950.28,0 3956.28,-6 3956.28,-12 3956.28,-12 3956.28,-45.6 3956.28,-45.6 3956.28,-51.6 3950.28,-57.6 3944.28,-57.6"/>
<text xml:space="preserve" text-anchor="middle" x="3883.01" y="-31.5" font-family="Arial" font-size="9.00">mt#047</text>
<text xml:space="preserve" text-anchor="middle" x="3883.01" y="-20.7" font-family="Arial" font-size="9.00">Configure MCP Server in Minsky</text>
</g>
<!-- mt_047&#45;&gt;mt_324 -->
<g id="edge56" class="edge">
<title>mt_047&#45;&gt;mt_324</title>
<path fill="none" stroke="#6b7280" d="M3931.35,-58.6C3956.19,-73.39 3986.55,-91.47 4012.24,-106.78"/>
<polygon fill="#6b7280" stroke="#6b7280" points="4011.14,-108.57 4017.37,-109.83 4013.29,-104.96 4011.14,-108.57"/>
</g>
<!-- mt_282 -->
<g id="node52" class="node">
<title>mt_282</title>
<path fill="#d1fae5" stroke="#059669" stroke-width="2" d="M4129.77,-57.6C4129.77,-57.6 4004.25,-57.6 4004.25,-57.6 3998.25,-57.6 3992.25,-51.6 3992.25,-45.6 3992.25,-45.6 3992.25,-12 3992.25,-12 3992.25,-6 3998.25,0 4004.25,0 4004.25,0 4129.77,0 4129.77,0 4135.77,0 4141.77,-6 4141.77,-12 4141.77,-12 4141.77,-45.6 4141.77,-45.6 4141.77,-51.6 4135.77,-57.6 4129.77,-57.6"/>
<text xml:space="preserve" text-anchor="middle" x="4067.01" y="-31.5" font-family="Arial" font-size="9.00">mt#282</text>
<text xml:space="preserve" text-anchor="middle" x="4067.01" y="-20.7" font-family="Arial" font-size="9.00">Port MCP Server from FastMCP t</text>
</g>
<!-- mt_282&#45;&gt;mt_324 -->
<g id="edge57" class="edge">
<title>mt_282&#45;&gt;mt_324</title>
<path fill="none" stroke="#6b7280" d="M4067.01,-58.6C4067.01,-72.31 4067.01,-88.86 4067.01,-103.4"/>
<polygon fill="#6b7280" stroke="#6b7280" points="4064.91,-103.28 4067.01,-109.28 4069.11,-103.28 4064.91,-103.28"/>
</g>
<!-- mt_286 -->
<g id="node53" class="node">
<title>mt_286</title>
<path fill="#d1fae5" stroke="#059669" stroke-width="2" d="M4310.28,-57.6C4310.28,-57.6 4189.74,-57.6 4189.74,-57.6 4183.74,-57.6 4177.74,-51.6 4177.74,-45.6 4177.74,-45.6 4177.74,-12 4177.74,-12 4177.74,-6 4183.74,0 4189.74,0 4189.74,0 4310.28,0 4310.28,0 4316.28,0 4322.28,-6 4322.28,-12 4322.28,-12 4322.28,-45.6 4322.28,-45.6 4322.28,-51.6 4316.28,-57.6 4310.28,-57.6"/>
<text xml:space="preserve" text-anchor="middle" x="4250.01" y="-31.5" font-family="Arial" font-size="9.00">mt#286</text>
<text xml:space="preserve" text-anchor="middle" x="4250.01" y="-20.7" font-family="Arial" font-size="9.00">Fix MCP Server and CLI Issues </text>
</g>
<!-- mt_286&#45;&gt;mt_324 -->
<g id="edge58" class="edge">
<title>mt_286&#45;&gt;mt_324</title>
<path fill="none" stroke="#6b7280" d="M4201.93,-58.6C4177.23,-73.39 4147.03,-91.47 4121.48,-106.78"/>
<polygon fill="#6b7280" stroke="#6b7280" points="4120.45,-104.94 4116.38,-109.83 4122.61,-108.55 4120.45,-104.94"/>
</g>
<!-- mt_349&#45;&gt;mt_441 -->
<g id="edge65" class="edge">
<title>mt_349&#45;&gt;mt_441</title>
<path fill="none" stroke="#6b7280" d="M1858.26,-380.65C1772.07,-400.21 1626.47,-433.25 1533.38,-454.37"/>
<polygon fill="#6b7280" stroke="#6b7280" points="1533.07,-452.29 1527.69,-455.67 1534,-456.39 1533.07,-452.29"/>
</g>
<!-- mt_349&#45;&gt;mt_442 -->
<g id="edge72" class="edge">
<title>mt_349&#45;&gt;mt_442</title>
<path fill="none" stroke="#6b7280" d="M1916.05,-393.36C1900.43,-424.88 1871.31,-474.84 1832.01,-504 1782.18,-540.98 1714.88,-561.7 1662.37,-573.03"/>
<polygon fill="#6b7280" stroke="#6b7280" points="1661.98,-570.96 1656.55,-574.25 1662.85,-575.07 1661.98,-570.96"/>
</g>
<!-- mt_350 -->
<g id="node55" class="node">
<title>mt_350</title>
<path fill="#f1f5f9" stroke="#64748b" stroke-width="2" d="M4493.79,-169.2C4493.79,-169.2 4366.23,-169.2 4366.23,-169.2 4360.23,-169.2 4354.23,-163.2 4354.23,-157.2 4354.23,-157.2 4354.23,-123.6 4354.23,-123.6 4354.23,-117.6 4360.23,-111.6 4366.23,-111.6 4366.23,-111.6 4493.79,-111.6 4493.79,-111.6 4499.79,-111.6 4505.79,-117.6 4505.79,-123.6 4505.79,-123.6 4505.79,-157.2 4505.79,-157.2 4505.79,-163.2 4499.79,-169.2 4493.79,-169.2"/>
<text xml:space="preserve" text-anchor="middle" x="4430.01" y="-143.1" font-family="Arial" font-size="9.00">mt#350</text>
<text xml:space="preserve" text-anchor="middle" x="4430.01" y="-132.3" font-family="Arial" font-size="9.00">Explore Active Sessions Comman</text>
</g>
<!-- mt_229 -->
<g id="node56" class="node">
<title>mt_229</title>
<path fill="#d1fae5" stroke="#059669" stroke-width="2" d="M4489.79,-57.6C4489.79,-57.6 4370.23,-57.6 4370.23,-57.6 4364.23,-57.6 4358.23,-51.6 4358.23,-45.6 4358.23,-45.6 4358.23,-12 4358.23,-12 4358.23,-6 4364.23,0 4370.23,0 4370.23,0 4489.79,0 4489.79,0 4495.79,0 4501.79,-6 4501.79,-12 4501.79,-12 4501.79,-45.6 4501.79,-45.6 4501.79,-51.6 4495.79,-57.6 4489.79,-57.6"/>
<text xml:space="preserve" text-anchor="middle" x="4430.01" y="-31.5" font-family="Arial" font-size="9.00">mt#229</text>
<text xml:space="preserve" text-anchor="middle" x="4430.01" y="-20.7" font-family="Arial" font-size="9.00">Evaluate mandatory task&#45;sessio</text>
</g>
<!-- mt_229&#45;&gt;mt_350 -->
<g id="edge60" class="edge">
<title>mt_229&#45;&gt;mt_350</title>
<path fill="none" stroke="#6b7280" d="M4430.01,-58.6C4430.01,-72.31 4430.01,-88.86 4430.01,-103.4"/>
<polygon fill="#6b7280" stroke="#6b7280" points="4427.91,-103.28 4430.01,-109.28 4432.11,-103.28 4427.91,-103.28"/>
</g>
<!-- mt_363 -->
<g id="node58" class="node">
<title>mt_363</title>
<path fill="#f1f5f9" stroke="#64748b" stroke-width="2" d="M4766.04,-169.2C4766.04,-169.2 4643.98,-169.2 4643.98,-169.2 4637.98,-169.2 4631.98,-163.2 4631.98,-157.2 4631.98,-157.2 4631.98,-123.6 4631.98,-123.6 4631.98,-117.6 4637.98,-111.6 4643.98,-111.6 4643.98,-111.6 4766.04,-111.6 4766.04,-111.6 4772.04,-111.6 4778.04,-117.6 4778.04,-123.6 4778.04,-123.6 4778.04,-157.2 4778.04,-157.2 4778.04,-163.2 4772.04,-169.2 4766.04,-169.2"/>
<text xml:space="preserve" text-anchor="middle" x="4705.01" y="-143.1" font-family="Arial" font-size="9.00">mt#363</text>
<text xml:space="preserve" text-anchor="middle" x="4705.01" y="-132.3" font-family="Arial" font-size="9.00">Implement Linear Backend for M</text>
</g>
<!-- mt_356 -->
<g id="node59" class="node">
<title>mt_356</title>
<path fill="#d1fae5" stroke="#059669" stroke-width="2" d="M4674.03,-57.6C4674.03,-57.6 4549.99,-57.6 4549.99,-57.6 4543.99,-57.6 4537.99,-51.6 4537.99,-45.6 4537.99,-45.6 4537.99,-12 4537.99,-12 4537.99,-6 4543.99,0 4549.99,0 4549.99,0 4674.03,0 4674.03,0 4680.03,0 4686.03,-6 4686.03,-12 4686.03,-12 4686.03,-45.6 4686.03,-45.6 4686.03,-51.6 4680.03,-57.6 4674.03,-57.6"/>
<text xml:space="preserve" text-anchor="middle" x="4612.01" y="-31.5" font-family="Arial" font-size="9.00">mt#356</text>
<text xml:space="preserve" text-anchor="middle" x="4612.01" y="-20.7" font-family="Arial" font-size="9.00">Implement Multi&#45;Backend Task S</text>
</g>
<!-- mt_356&#45;&gt;mt_363 -->
<g id="edge62" class="edge">
<title>mt_356&#45;&gt;mt_363</title>
<path fill="none" stroke="#6b7280" d="M4636.44,-58.6C4648.62,-72.94 4663.42,-90.39 4676.15,-105.39"/>
<polygon fill="#6b7280" stroke="#6b7280" points="4674.27,-106.43 4679.76,-109.64 4677.48,-103.71 4674.27,-106.43"/>
</g>
<!-- mt_357 -->
<g id="node60" class="node">
<title>mt_357</title>
<path fill="#d1fae5" stroke="#059669" stroke-width="2" d="M4853.54,-57.6C4853.54,-57.6 4734.47,-57.6 4734.47,-57.6 4728.47,-57.6 4722.47,-51.6 4722.47,-45.6 4722.47,-45.6 4722.47,-12 4722.47,-12 4722.47,-6 4728.47,0 4734.47,0 4734.47,0 4853.54,0 4853.54,0 4859.54,0 4865.54,-6 4865.54,-12 4865.54,-12 4865.54,-45.6 4865.54,-45.6 4865.54,-51.6 4859.54,-57.6 4853.54,-57.6"/>
<text xml:space="preserve" text-anchor="middle" x="4794.01" y="-31.5" font-family="Arial" font-size="9.00">mt#357</text>
<text xml:space="preserve" text-anchor="middle" x="4794.01" y="-20.7" font-family="Arial" font-size="9.00">Integrate GitHub Issues Backen</text>
</g>
<!-- mt_357&#45;&gt;mt_363 -->
<g id="edge63" class="edge">
<title>mt_357&#45;&gt;mt_363</title>
<path fill="none" stroke="#6b7280" d="M4770.62,-58.6C4759.08,-72.82 4745.06,-90.08 4732.95,-104.99"/>
<polygon fill="#6b7280" stroke="#6b7280" points="4731.34,-103.64 4729.19,-109.62 4734.6,-106.29 4731.34,-103.64"/>
</g>
<!-- mt_398 -->
<g id="node61" class="node">
<title>mt_398</title>
<path fill="#f1f5f9" stroke="#64748b" stroke-width="2" d="M5036.78,-169.2C5036.78,-169.2 4921.24,-169.2 4921.24,-169.2 4915.24,-169.2 4909.24,-163.2 4909.24,-157.2 4909.24,-157.2 4909.24,-123.6 4909.24,-123.6 4909.24,-117.6 4915.24,-111.6 4921.24,-111.6 4921.24,-111.6 5036.78,-111.6 5036.78,-111.6 5042.78,-111.6 5048.78,-117.6 5048.78,-123.6 5048.78,-123.6 5048.78,-157.2 5048.78,-157.2 5048.78,-163.2 5042.78,-169.2 5036.78,-169.2"/>
<text xml:space="preserve" text-anchor="middle" x="4979.01" y="-143.1" font-family="Arial" font-size="9.00">mt#398</text>
<text xml:space="preserve" text-anchor="middle" x="4979.01" y="-132.3" font-family="Arial" font-size="9.00">Improve test mock filesystem a</text>
</g>
<!-- mt_176 -->
<g id="node62" class="node">
<title>mt_176</title>
<path fill="#d1fae5" stroke="#059669" stroke-width="2" d="M5044.3,-57.6C5044.3,-57.6 4913.72,-57.6 4913.72,-57.6 4907.72,-57.6 4901.72,-51.6 4901.72,-45.6 4901.72,-45.6 4901.72,-12 4901.72,-12 4901.72,-6 4907.72,0 4913.72,0 4913.72,0 5044.3,0 5044.3,0 5050.3,0 5056.3,-6 5056.3,-12 5056.3,-12 5056.3,-45.6 5056.3,-45.6 5056.3,-51.6 5050.3,-57.6 5044.3,-57.6"/>
<text xml:space="preserve" text-anchor="middle" x="4979.01" y="-31.5" font-family="Arial" font-size="9.00">mt#176</text>
<text xml:space="preserve" text-anchor="middle" x="4979.01" y="-20.7" font-family="Arial" font-size="9.00">Comprehensive Session Database</text>
</g>
<!-- mt_176&#45;&gt;mt_398 -->
<g id="edge64" class="edge">
<title>mt_176&#45;&gt;mt_398</title>
<path fill="none" stroke="#6b7280" d="M4979.01,-58.6C4979.01,-72.31 4979.01,-88.86 4979.01,-103.4"/>
<polygon fill="#6b7280" stroke="#6b7280" points="4976.91,-103.28 4979.01,-109.28 4981.11,-103.28 4976.91,-103.28"/>
</g>
<!-- mt_441&#45;&gt;mt_442 -->
<g id="edge71" class="edge">
<title>mt_441&#45;&gt;mt_442</title>
<path fill="none" stroke="#6b7280" d="M1481.22,-505C1499.06,-519.6 1520.83,-537.4 1539.39,-552.58"/>
<polygon fill="#6b7280" stroke="#6b7280" points="1537.89,-554.06 1543.87,-556.24 1540.55,-550.81 1537.89,-554.06"/>
</g>
<!-- mt_256 -->
<g id="node64" class="node">
<title>mt_256</title>
<path fill="#d1fae5" stroke="#059669" stroke-width="2" d="M1537.03,-392.4C1537.03,-392.4 1410.99,-392.4 1410.99,-392.4 1404.99,-392.4 1398.99,-386.4 1398.99,-380.4 1398.99,-380.4 1398.99,-346.8 1398.99,-346.8 1398.99,-340.8 1404.99,-334.8 1410.99,-334.8 1410.99,-334.8 1537.03,-334.8 1537.03,-334.8 1543.03,-334.8 1549.03,-340.8 1549.03,-346.8 1549.03,-346.8 1549.03,-380.4 1549.03,-380.4 1549.03,-386.4 1543.03,-392.4 1537.03,-392.4"/>
<text xml:space="preserve" text-anchor="middle" x="1474.01" y="-366.3" font-family="Arial" font-size="9.00">mt#256</text>
<text xml:space="preserve" text-anchor="middle" x="1474.01" y="-355.5" font-family="Arial" font-size="9.00">Implement Context&#45;Aware Tool M</text>
</g>
<!-- mt_256&#45;&gt;mt_441 -->
<g id="edge66" class="edge">
<title>mt_256&#45;&gt;mt_441</title>
<path fill="none" stroke="#6b7280" d="M1466.65,-393.4C1463.12,-407.24 1458.84,-423.97 1455.1,-438.6"/>
<polygon fill="#6b7280" stroke="#6b7280" points="1453.14,-437.8 1453.69,-444.13 1457.21,-438.84 1453.14,-437.8"/>
</g>
<!-- mt_256&#45;&gt;mt_442 -->
<g id="edge76" class="edge">
<title>mt_256&#45;&gt;mt_442</title>
<path fill="none" stroke="#6b7280" d="M1503.72,-393.33C1517.43,-408.06 1532.88,-426.96 1543.01,-446.4 1560.17,-479.36 1569.87,-520.96 1574.99,-550.1"/>
<polygon fill="#6b7280" stroke="#6b7280" points="1572.87,-550.17 1575.94,-555.74 1577.01,-549.47 1572.87,-550.17"/>
</g>
<!-- mt_082 -->
<g id="node65" class="node">
<title>mt_082</title>
<path fill="#d1fae5" stroke="#059669" stroke-width="2" d="M1737.3,-392.4C1737.3,-392.4 1596.72,-392.4 1596.72,-392.4 1590.72,-392.4 1584.72,-386.4 1584.72,-380.4 1584.72,-380.4 1584.72,-346.8 1584.72,-346.8 1584.72,-340.8 1590.72,-334.8 1596.72,-334.8 1596.72,-334.8 1737.3,-334.8 1737.3,-334.8 1743.3,-334.8 1749.3,-340.8 1749.3,-346.8 1749.3,-346.8 1749.3,-380.4 1749.3,-380.4 1749.3,-386.4 1743.3,-392.4 1737.3,-392.4"/>
<text xml:space="preserve" text-anchor="middle" x="1667.01" y="-366.3" font-family="Arial" font-size="9.00">mt#082</text>
<text xml:space="preserve" text-anchor="middle" x="1667.01" y="-355.5" font-family="Arial" font-size="9.00">Add Context Management Command</text>
</g>
<!-- mt_082&#45;&gt;mt_441 -->
<g id="edge70" class="edge">
<title>mt_082&#45;&gt;mt_441</title>
<path fill="none" stroke="#6b7280" d="M1608.94,-393.4C1578.74,-408.38 1541.72,-426.73 1510.61,-442.16"/>
<polygon fill="#6b7280" stroke="#6b7280" points="1509.87,-440.19 1505.43,-444.73 1511.73,-443.95 1509.87,-440.19"/>
</g>
<!-- mt_082&#45;&gt;mt_442 -->
<g id="edge74" class="edge">
<title>mt_082&#45;&gt;mt_442</title>
<path fill="none" stroke="#6b7280" d="M1655.81,-393.07C1640,-433.27 1611.14,-506.65 1593.95,-550.35"/>
<polygon fill="#6b7280" stroke="#6b7280" points="1592.09,-549.33 1591.85,-555.69 1596,-550.87 1592.09,-549.33"/>
</g>
<!-- mt_235 -->
<g id="node67" class="node">
<title>mt_235</title>
<path fill="#d1fae5" stroke="#059669" stroke-width="2" d="M2061.29,-504C2061.29,-504 1944.72,-504 1944.72,-504 1938.72,-504 1932.72,-498 1932.72,-492 1932.72,-492 1932.72,-458.4 1932.72,-458.4 1932.72,-452.4 1938.72,-446.4 1944.72,-446.4 1944.72,-446.4 2061.29,-446.4 2061.29,-446.4 2067.29,-446.4 2073.29,-452.4 2073.29,-458.4 2073.29,-458.4 2073.29,-492 2073.29,-492 2073.29,-498 2067.29,-504 2061.29,-504"/>
<text xml:space="preserve" text-anchor="middle" x="2003.01" y="-477.9" font-family="Arial" font-size="9.00">mt#235</text>
<text xml:space="preserve" text-anchor="middle" x="2003.01" y="-467.1" font-family="Arial" font-size="9.00">Add metadata support to tasks </text>
</g>
<!-- mt_235&#45;&gt;mt_258 -->
<g id="edge83" class="edge">
<title>mt_235&#45;&gt;mt_258</title>
<path fill="none" stroke="#6b7280" d="M2003.01,-505C2003.01,-518.71 2003.01,-535.26 2003.01,-549.8"/>
<polygon fill="#6b7280" stroke="#6b7280" points="2000.91,-549.68 2003.01,-555.68 2005.11,-549.68 2000.91,-549.68"/>
</g>
<!-- mt_235&#45;&gt;mt_442 -->
<g id="edge78" class="edge">
<title>mt_235&#45;&gt;mt_442</title>
<path fill="none" stroke="#6b7280" d="M1931.83,-496.89C1923.15,-499.33 1914.38,-501.75 1906.01,-504 1823.23,-526.24 1728.11,-549.89 1662.07,-566.01"/>
<polygon fill="#6b7280" stroke="#6b7280" points="1661.77,-563.92 1656.44,-567.38 1662.76,-568 1661.77,-563.92"/>
</g>
<!-- mt_190 -->
<g id="node68" class="node">
<title>mt_190</title>
<path fill="#f1f5f9" stroke="#64748b" stroke-width="2" d="M5320.79,-169.2C5320.79,-169.2 5197.23,-169.2 5197.23,-169.2 5191.23,-169.2 5185.23,-163.2 5185.23,-157.2 5185.23,-157.2 5185.23,-123.6 5185.23,-123.6 5185.23,-117.6 5191.23,-111.6 5197.23,-111.6 5197.23,-111.6 5320.79,-111.6 5320.79,-111.6 5326.79,-111.6 5332.79,-117.6 5332.79,-123.6 5332.79,-123.6 5332.79,-157.2 5332.79,-157.2 5332.79,-163.2 5326.79,-169.2 5320.79,-169.2"/>
<text xml:space="preserve" text-anchor="middle" x="5259.01" y="-143.1" font-family="Arial" font-size="9.00">mt#190</text>
<text xml:space="preserve" text-anchor="middle" x="5259.01" y="-132.3" font-family="Arial" font-size="9.00">Design Containerized Session W</text>
</g>
<!-- mt_150 -->
<g id="node69" class="node">
<title>mt_150</title>
<path fill="#d1fae5" stroke="#059669" stroke-width="2" d="M5226.05,-57.6C5226.05,-57.6 5103.97,-57.6 5103.97,-57.6 5097.97,-57.6 5091.97,-51.6 5091.97,-45.6 5091.97,-45.6 5091.97,-12 5091.97,-12 5091.97,-6 5097.97,0 5103.97,0 5103.97,0 5226.05,0 5226.05,0 5232.05,0 5238.05,-6 5238.05,-12 5238.05,-12 5238.05,-45.6 5238.05,-45.6 5238.05,-51.6 5232.05,-57.6 5226.05,-57.6"/>
<text xml:space="preserve" text-anchor="middle" x="5165.01" y="-31.5" font-family="Arial" font-size="9.00">mt#150</text>
<text xml:space="preserve" text-anchor="middle" x="5165.01" y="-20.7" font-family="Arial" font-size="9.00">Add &#45;&#45;body&#45;path Option and Req</text>
</g>
<!-- mt_150&#45;&gt;mt_190 -->
<g id="edge80" class="edge">
<title>mt_150&#45;&gt;mt_190</title>
<path fill="none" stroke="#6b7280" d="M5189.71,-58.6C5202.01,-72.94 5216.97,-90.39 5229.84,-105.39"/>
<polygon fill="#6b7280" stroke="#6b7280" points="5227.99,-106.46 5233.49,-109.65 5231.18,-103.73 5227.99,-106.46"/>
</g>
<!-- mt_049 -->
<g id="node70" class="node">
<title>mt_049</title>
<path fill="#d1fae5" stroke="#059669" stroke-width="2" d="M5419.54,-57.6C5419.54,-57.6 5286.48,-57.6 5286.48,-57.6 5280.48,-57.6 5274.48,-51.6 5274.48,-45.6 5274.48,-45.6 5274.48,-12 5274.48,-12 5274.48,-6 5280.48,0 5286.48,0 5286.48,0 5419.54,0 5419.54,0 5425.54,0 5431.54,-6 5431.54,-12 5431.54,-12 5431.54,-45.6 5431.54,-45.6 5431.54,-51.6 5425.54,-57.6 5419.54,-57.6"/>
<text xml:space="preserve" text-anchor="middle" x="5353.01" y="-31.5" font-family="Arial" font-size="9.00">mt#049</text>
<text xml:space="preserve" text-anchor="middle" x="5353.01" y="-20.7" font-family="Arial" font-size="9.00">Implement Session&#45;Scoped MCP S</text>
</g>
<!-- mt_049&#45;&gt;mt_190 -->
<g id="edge81" class="edge">
<title>mt_049&#45;&gt;mt_190</title>
<path fill="none" stroke="#6b7280" d="M5328.31,-58.6C5316.01,-72.94 5301.05,-90.39 5288.18,-105.39"/>
<polygon fill="#6b7280" stroke="#6b7280" points="5286.84,-103.73 5284.53,-109.65 5290.03,-106.46 5286.84,-103.73"/>
</g>
<!-- mt_302 -->
<g id="node71" class="node">
<title>mt_302</title>
<path fill="#f1f5f9" stroke="#64748b" stroke-width="2" d="M5605.79,-169.2C5605.79,-169.2 5482.22,-169.2 5482.22,-169.2 5476.22,-169.2 5470.22,-163.2 5470.22,-157.2 5470.22,-157.2 5470.22,-123.6 5470.22,-123.6 5470.22,-117.6 5476.22,-111.6 5482.22,-111.6 5482.22,-111.6 5605.79,-111.6 5605.79,-111.6 5611.79,-111.6 5617.79,-117.6 5617.79,-123.6 5617.79,-123.6 5617.79,-157.2 5617.79,-157.2 5617.79,-163.2 5611.79,-169.2 5605.79,-169.2"/>
<text xml:space="preserve" text-anchor="middle" x="5544.01" y="-143.1" font-family="Arial" font-size="9.00">mt#302</text>
<text xml:space="preserve" text-anchor="middle" x="5544.01" y="-132.3" font-family="Arial" font-size="9.00">Explore Exposing Rules and Doc</text>
</g>
<!-- mt_289 -->
<g id="node72" class="node">
<title>mt_289</title>
<path fill="#d1fae5" stroke="#059669" stroke-width="2" d="M5608.04,-57.6C5608.04,-57.6 5479.98,-57.6 5479.98,-57.6 5473.98,-57.6 5467.98,-51.6 5467.98,-45.6 5467.98,-45.6 5467.98,-12 5467.98,-12 5467.98,-6 5473.98,0 5479.98,0 5479.98,0 5608.04,0 5608.04,0 5614.04,0 5620.04,-6 5620.04,-12 5620.04,-12 5620.04,-45.6 5620.04,-45.6 5620.04,-51.6 5614.04,-57.6 5608.04,-57.6"/>
<text xml:space="preserve" text-anchor="middle" x="5544.01" y="-31.5" font-family="Arial" font-size="9.00">mt#289</text>
<text xml:space="preserve" text-anchor="middle" x="5544.01" y="-20.7" font-family="Arial" font-size="9.00">Implement Template&#45;Based Rules</text>
</g>
<!-- mt_289&#45;&gt;mt_302 -->
<g id="edge84" class="edge">
<title>mt_289&#45;&gt;mt_302</title>
<path fill="none" stroke="#6b7280" d="M5544.01,-58.6C5544.01,-72.31 5544.01,-88.86 5544.01,-103.4"/>
<polygon fill="#6b7280" stroke="#6b7280" points="5541.91,-103.28 5544.01,-109.28 5546.11,-103.28 5541.91,-103.28"/>
</g>
<!-- mt_454 -->
<g id="node75" class="node">
<title>mt_454</title>
<path fill="#f1f5f9" stroke="#64748b" stroke-width="2" d="M2271.26,-615.6C2271.26,-615.6 2158.75,-615.6 2158.75,-615.6 2152.75,-615.6 2146.75,-609.6 2146.75,-603.6 2146.75,-603.6 2146.75,-570 2146.75,-570 2146.75,-564 2152.75,-558 2158.75,-558 2158.75,-558 2271.26,-558 2271.26,-558 2277.26,-558 2283.26,-564 2283.26,-570 2283.26,-570 2283.26,-603.6 2283.26,-603.6 2283.26,-609.6 2277.26,-615.6 2271.26,-615.6"/>
<text xml:space="preserve" text-anchor="middle" x="2215.01" y="-589.5" font-family="Arial" font-size="9.00">mt#454</text>
<text xml:space="preserve" text-anchor="middle" x="2215.01" y="-578.7" font-family="Arial" font-size="9.00">Investigate &#39;seek human input&#39;</text>
</g>
<!-- mt_454&#45;&gt;mt_468 -->
<g id="edge89" class="edge">
<title>mt_454&#45;&gt;mt_468</title>
<path fill="none" stroke="#6b7280" d="M2220.26,-616.6C2222.79,-630.44 2225.84,-647.17 2228.51,-661.8"/>
<polygon fill="#6b7280" stroke="#6b7280" points="2226.37,-661.78 2229.52,-667.31 2230.51,-661.03 2226.37,-661.78"/>
</g>
<!-- mt_326 -->
<g id="node76" class="node">
<title>mt_326</title>
<path fill="#f1f5f9" stroke="#64748b" stroke-width="2" d="M2460.55,-615.6C2460.55,-615.6 2331.47,-615.6 2331.47,-615.6 2325.47,-615.6 2319.47,-609.6 2319.47,-603.6 2319.47,-603.6 2319.47,-570 2319.47,-570 2319.47,-564 2325.47,-558 2331.47,-558 2331.47,-558 2460.55,-558 2460.55,-558 2466.55,-558 2472.55,-564 2472.55,-570 2472.55,-570 2472.55,-603.6 2472.55,-603.6 2472.55,-609.6 2466.55,-615.6 2460.55,-615.6"/>
<text xml:space="preserve" text-anchor="middle" x="2396.01" y="-589.5" font-family="Arial" font-size="9.00">mt#326</text>
<text xml:space="preserve" text-anchor="middle" x="2396.01" y="-578.7" font-family="Arial" font-size="9.00">Explore embedding Outerbase DB</text>
</g>
<!-- mt_326&#45;&gt;mt_468 -->
<g id="edge90" class="edge">
<title>mt_326&#45;&gt;mt_468</title>
<path fill="none" stroke="#6b7280" d="M2353.71,-616.6C2332.16,-631.26 2305.86,-649.17 2283.5,-664.39"/>
<polygon fill="#6b7280" stroke="#6b7280" points="2282.34,-662.64 2278.56,-667.75 2284.7,-666.11 2282.34,-662.64"/>
</g>
</g>
</svg>
