<?xml version="1.0" encoding="UTF-8" standalone="no"?>
<!DOCTYPE svg PUBLIC "-//W3C//DTD SVG 1.1//EN"
 "http://www.w3.org/Graphics/SVG/1.1/DTD/svg11.dtd">
<!-- Generated by graphviz version 13.1.2 (0)
 -->
<!-- Title: TaskDependencies Pages: 1 -->
<svg width="6129pt" height="764pt"
 viewBox="0.00 0.00 6129.00 764.00" xmlns="http://www.w3.org/2000/svg" xmlns:xlink="http://www.w3.org/1999/xlink">
<g id="graph0" class="graph" transform="scale(1 1) rotate(0) translate(4 760)">
<title>TaskDependencies</title>
<!-- mt_041 -->
<g id="node1" class="node">
<title>mt_041</title>
<path fill="#e2e8f0" stroke="#64748b" stroke-width="2" d="M142.08,-126C142.08,-126 16.16,-126 16.16,-126 10.16,-126 4.16,-120 4.16,-114 4.16,-114 4.16,-102 4.16,-102 4.16,-96 10.16,-90 16.16,-90 16.16,-90 142.08,-90 142.08,-90 148.08,-90 154.08,-96 154.08,-102 154.08,-102 154.08,-114 154.08,-114 154.08,-120 148.08,-126 142.08,-126"/>
<text xml:space="preserve" text-anchor="middle" x="79.12" y="-111" font-family="Arial" font-size="10.00">mt#041</text>
<text xml:space="preserve" text-anchor="middle" x="79.12" y="-99" font-family="Arial" font-size="10.00">Write Test Suite for Cursor Ru</text>
</g>
<!-- mt_067 -->
<g id="node2" class="node">
<title>mt_067</title>
<path fill="#34d399" stroke="#059669" stroke-width="2" d="M146.24,-36C146.24,-36 12,-36 12,-36 6,-36 0,-30 0,-24 0,-24 0,-12 0,-12 0,-6 6,0 12,0 12,0 146.24,0 146.24,0 152.24,0 158.24,-6 158.24,-12 158.24,-12 158.24,-24 158.24,-24 158.24,-30 152.24,-36 146.24,-36"/>
<text xml:space="preserve" text-anchor="middle" x="79.12" y="-21" font-family="Arial" font-size="10.00">mt#067</text>
<text xml:space="preserve" text-anchor="middle" x="79.12" y="-9" font-family="Arial" font-size="10.00">Refactor `minsky&#45;workflow.mdc`</text>
</g>
<!-- mt_067&#45;&gt;mt_041 -->
<g id="edge1" class="edge">
<title>mt_067&#45;&gt;mt_041</title>
<path fill="none" stroke="#4a5568" stroke-width="2" d="M79.12,-36.81C79.12,-49.21 79.12,-65.98 79.12,-80.02"/>
<polygon fill="#4a5568" stroke="#4a5568" stroke-width="2" points="76.32,-78.19 79.12,-86.19 81.92,-78.19 76.32,-78.19"/>
</g>
<!-- mt_045 -->
<g id="node3" class="node">
<title>mt_045</title>
<path fill="#e2e8f0" stroke="#64748b" stroke-width="2" d="M325.99,-126C325.99,-126 202.25,-126 202.25,-126 196.25,-126 190.25,-120 190.25,-114 190.25,-114 190.25,-102 190.25,-102 190.25,-96 196.25,-90 202.25,-90 202.25,-90 325.99,-90 325.99,-90 331.99,-90 337.99,-96 337.99,-102 337.99,-102 337.99,-114 337.99,-114 337.99,-120 331.99,-126 325.99,-126"/>
<text xml:space="preserve" text-anchor="middle" x="264.12" y="-111" font-family="Arial" font-size="10.00">mt#045</text>
<text xml:space="preserve" text-anchor="middle" x="264.12" y="-99" font-family="Arial" font-size="10.00">Setup Documentation Tooling</text>
</g>
<!-- mt_030 -->
<g id="node4" class="node">
<title>mt_030</title>
<path fill="#34d399" stroke="#059669" stroke-width="2" d="M433.33,-36C433.33,-36 302.91,-36 302.91,-36 296.91,-36 290.91,-30 290.91,-24 290.91,-24 290.91,-12 290.91,-12 290.91,-6 296.91,0 302.91,0 302.91,0 433.33,0 433.33,0 439.33,0 445.33,-6 445.33,-12 445.33,-12 445.33,-24 445.33,-24 445.33,-30 439.33,-36 433.33,-36"/>
<text xml:space="preserve" text-anchor="middle" x="368.12" y="-21" font-family="Arial" font-size="10.00">mt#030</text>
<text xml:space="preserve" text-anchor="middle" x="368.12" y="-9" font-family="Arial" font-size="10.00">Setup Project Tooling and Auto</text>
</g>
<!-- mt_030&#45;&gt;mt_045 -->
<g id="edge2" class="edge">
<title>mt_030&#45;&gt;mt_045</title>
<path fill="none" stroke="#4a5568" stroke-width="2" d="M347.07,-36.81C331.29,-50.17 309.51,-68.59 292.23,-83.21"/>
<polygon fill="#4a5568" stroke="#4a5568" stroke-width="2" points="291.74,-79.96 287.45,-87.26 295.36,-84.23 291.74,-79.96"/>
</g>
<!-- mt_046 -->
<g id="node5" class="node">
<title>mt_046</title>
<path fill="#e2e8f0" stroke="#64748b" stroke-width="2" d="M543.95,-126C543.95,-126 386.29,-126 386.29,-126 380.29,-126 374.29,-120 374.29,-114 374.29,-114 374.29,-102 374.29,-102 374.29,-96 380.29,-90 386.29,-90 386.29,-90 543.95,-90 543.95,-90 549.95,-90 555.95,-96 555.95,-102 555.95,-102 555.95,-114 555.95,-114 555.95,-120 549.95,-126 543.95,-126"/>
<text xml:space="preserve" text-anchor="middle" x="465.12" y="-111" font-family="Arial" font-size="10.00">mt#046</text>
<text xml:space="preserve" text-anchor="middle" x="465.12" y="-99" font-family="Arial" font-size="10.00">Document Dependency Management</text>
</g>
<!-- mt_030&#45;&gt;mt_046 -->
<g id="edge3" class="edge">
<title>mt_030&#45;&gt;mt_046</title>
<path fill="none" stroke="#4a5568" stroke-width="2" d="M387.75,-36.81C402.48,-50.17 422.78,-68.59 438.9,-83.21"/>
<polygon fill="#4a5568" stroke="#4a5568" stroke-width="2" points="435.47,-83.88 443.28,-87.18 439.23,-79.74 435.47,-83.88"/>
</g>
<!-- mt_090 -->
<g id="node6" class="node">
<title>mt_090</title>
<path fill="#e2e8f0" stroke="#64748b" stroke-width="2" d="M732.76,-126C732.76,-126 603.49,-126 603.49,-126 597.49,-126 591.49,-120 591.49,-114 591.49,-114 591.49,-102 591.49,-102 591.49,-96 597.49,-90 603.49,-90 603.49,-90 732.76,-90 732.76,-90 738.76,-90 744.76,-96 744.76,-102 744.76,-102 744.76,-114 744.76,-114 744.76,-120 738.76,-126 732.76,-126"/>
<text xml:space="preserve" text-anchor="middle" x="668.12" y="-111" font-family="Arial" font-size="10.00">mt#090</text>
<text xml:space="preserve" text-anchor="middle" x="668.12" y="-99" font-family="Arial" font-size="10.00">Prepare for Future Non&#45;Filesys</text>
</g>
<!-- mt_080 -->
<g id="node7" class="node">
<title>mt_080</title>
<path fill="#34d399" stroke="#059669" stroke-width="2" d="M739.43,-36C739.43,-36 596.81,-36 596.81,-36 590.81,-36 584.81,-30 584.81,-24 584.81,-24 584.81,-12 584.81,-12 584.81,-6 590.81,0 596.81,0 596.81,0 739.43,0 739.43,0 745.43,0 751.43,-6 751.43,-12 751.43,-12 751.43,-24 751.43,-24 751.43,-30 745.43,-36 739.43,-36"/>
<text xml:space="preserve" text-anchor="middle" x="668.12" y="-21" font-family="Arial" font-size="10.00">mt#080</text>
<text xml:space="preserve" text-anchor="middle" x="668.12" y="-9" font-family="Arial" font-size="10.00">Review Workspace and Repositor</text>
</g>
<!-- mt_080&#45;&gt;mt_090 -->
<g id="edge4" class="edge">
<title>mt_080&#45;&gt;mt_090</title>
<path fill="none" stroke="#4a5568" stroke-width="2" d="M668.12,-36.81C668.12,-49.21 668.12,-65.98 668.12,-80.02"/>
<polygon fill="#4a5568" stroke="#4a5568" stroke-width="2" points="665.32,-78.19 668.12,-86.19 670.92,-78.19 665.32,-78.19"/>
</g>
<!-- mt_162 -->
<g id="node8" class="node">
<title>mt_162</title>
<path fill="#e2e8f0" stroke="#64748b" stroke-width="2" d="M2184.22,-126C2184.22,-126 2036.02,-126 2036.02,-126 2030.02,-126 2024.02,-120 2024.02,-114 2024.02,-114 2024.02,-102 2024.02,-102 2024.02,-96 2030.02,-90 2036.02,-90 2036.02,-90 2184.22,-90 2184.22,-90 2190.22,-90 2196.22,-96 2196.22,-102 2196.22,-102 2196.22,-114 2196.22,-114 2196.22,-120 2190.22,-126 2184.22,-126"/>
<text xml:space="preserve" text-anchor="middle" x="2110.12" y="-111" font-family="Arial" font-size="10.00">mt#162</text>
<text xml:space="preserve" text-anchor="middle" x="2110.12" y="-99" font-family="Arial" font-size="10.00">Research and Design Comprehens</text>
</g>
<!-- mt_202 -->
<g id="node12" class="node">
<title>mt_202</title>
<path fill="#e2e8f0" stroke="#64748b" stroke-width="2" d="M1762.28,-306C1762.28,-306 1627.96,-306 1627.96,-306 1621.96,-306 1615.96,-300 1615.96,-294 1615.96,-294 1615.96,-282 1615.96,-282 1615.96,-276 1621.96,-270 1627.96,-270 1627.96,-270 1762.28,-270 1762.28,-270 1768.28,-270 1774.28,-276 1774.28,-282 1774.28,-282 1774.28,-294 1774.28,-294 1774.28,-300 1768.28,-306 1762.28,-306"/>
<text xml:space="preserve" text-anchor="middle" x="1695.12" y="-291" font-family="Arial" font-size="10.00">mt#202</text>
<text xml:space="preserve" text-anchor="middle" x="1695.12" y="-279" font-family="Arial" font-size="10.00">Rule Suggestion Evaluation and</text>
</g>
<!-- mt_162&#45;&gt;mt_202 -->
<g id="edge10" class="edge">
<title>mt_162&#45;&gt;mt_202</title>
<path fill="none" stroke="#4a5568" stroke-width="2" d="M2089.3,-126.69C2060.63,-150.22 2006.55,-191.67 1954.12,-216 1900.06,-241.08 1835.41,-258.82 1784.23,-270.29"/>
<polygon fill="#4a5568" stroke="#4a5568" stroke-width="2" points="1785.33,-267.18 1778.12,-271.64 1786.53,-272.65 1785.33,-267.18"/>
</g>
<!-- mt_250 -->
<g id="node13" class="node">
<title>mt_250</title>
<path fill="#e2e8f0" stroke="#64748b" stroke-width="2" d="M1924.27,-216C1924.27,-216 1789.97,-216 1789.97,-216 1783.97,-216 1777.97,-210 1777.97,-204 1777.97,-204 1777.97,-192 1777.97,-192 1777.97,-186 1783.97,-180 1789.97,-180 1789.97,-180 1924.27,-180 1924.27,-180 1930.27,-180 1936.27,-186 1936.27,-192 1936.27,-192 1936.27,-204 1936.27,-204 1936.27,-210 1930.27,-216 1924.27,-216"/>
<text xml:space="preserve" text-anchor="middle" x="1857.12" y="-201" font-family="Arial" font-size="10.00">mt#250</text>
<text xml:space="preserve" text-anchor="middle" x="1857.12" y="-189" font-family="Arial" font-size="10.00">Investigate and Implement Sess</text>
</g>
<!-- mt_162&#45;&gt;mt_250 -->
<g id="edge29" class="edge">
<title>mt_162&#45;&gt;mt_250</title>
<path fill="none" stroke="#4a5568" stroke-width="2" d="M2058.62,-126.91C2017.75,-141.13 1960.53,-161.03 1917.51,-176"/>
<polygon fill="#4a5568" stroke="#4a5568" stroke-width="2" points="1918.05,-172.84 1911.41,-178.12 1919.89,-178.13 1918.05,-172.84"/>
</g>
<!-- mt_249 -->
<g id="node9" class="node">
<title>mt_249</title>
<path fill="#34d399" stroke="#059669" stroke-width="2" d="M2034.88,-36C2034.88,-36 1903.36,-36 1903.36,-36 1897.36,-36 1891.36,-30 1891.36,-24 1891.36,-24 1891.36,-12 1891.36,-12 1891.36,-6 1897.36,0 1903.36,0 1903.36,0 2034.88,0 2034.88,0 2040.88,0 2046.88,-6 2046.88,-12 2046.88,-12 2046.88,-24 2046.88,-24 2046.88,-30 2040.88,-36 2034.88,-36"/>
<text xml:space="preserve" text-anchor="middle" x="1969.12" y="-21" font-family="Arial" font-size="10.00">mt#249</text>
<text xml:space="preserve" text-anchor="middle" x="1969.12" y="-9" font-family="Arial" font-size="10.00">Investigate and Improve Sessio</text>
</g>
<!-- mt_249&#45;&gt;mt_162 -->
<g id="edge5" class="edge">
<title>mt_249&#45;&gt;mt_162</title>
<path fill="none" stroke="#4a5568" stroke-width="2" d="M1997.65,-36.81C2019.54,-50.47 2049.9,-69.42 2073.56,-84.18"/>
<polygon fill="#4a5568" stroke="#4a5568" stroke-width="2" points="2070.79,-85.76 2079.06,-87.62 2073.76,-81 2070.79,-85.76"/>
</g>
<!-- mt_249&#45;&gt;mt_250 -->
<g id="edge30" class="edge">
<title>mt_249&#45;&gt;mt_250</title>
<path fill="none" stroke="#4a5568" stroke-width="2" d="M1965.7,-36.82C1960.85,-59.05 1950.45,-97.59 1932.12,-126 1920.51,-144 1903.41,-160.66 1888.46,-173.31"/>
<polygon fill="#4a5568" stroke="#4a5568" stroke-width="2" points="1888.06,-170.01 1883.67,-177.26 1891.62,-174.33 1888.06,-170.01"/>
</g>
<!-- mt_354 -->
<g id="node57" class="node">
<title>mt_354</title>
<path fill="#e2e8f0" stroke="#64748b" stroke-width="2" d="M1504.49,-126C1504.49,-126 1365.75,-126 1365.75,-126 1359.75,-126 1353.75,-120 1353.75,-114 1353.75,-114 1353.75,-102 1353.75,-102 1353.75,-96 1359.75,-90 1365.75,-90 1365.75,-90 1504.49,-90 1504.49,-90 1510.49,-90 1516.49,-96 1516.49,-102 1516.49,-102 1516.49,-114 1516.49,-114 1516.49,-120 1510.49,-126 1504.49,-126"/>
<text xml:space="preserve" text-anchor="middle" x="1435.12" y="-111" font-family="Arial" font-size="10.00">mt#354</text>
<text xml:space="preserve" text-anchor="middle" x="1435.12" y="-99" font-family="Arial" font-size="10.00">Implement Session Reapply Tool</text>
</g>
<!-- mt_249&#45;&gt;mt_354 -->
<g id="edge61" class="edge">
<title>mt_249&#45;&gt;mt_354</title>
<path fill="none" stroke="#4a5568" stroke-width="2" d="M1890.5,-31.63C1803.36,-45.68 1658.64,-69.15 1534.12,-90 1531.63,-90.42 1529.1,-90.84 1526.55,-91.27"/>
<polygon fill="#4a5568" stroke="#4a5568" stroke-width="2" points="1527.63,-88.25 1520.21,-92.34 1528.56,-93.77 1527.63,-88.25"/>
</g>
<!-- mt_175 -->
<g id="node10" class="node">
<title>mt_175</title>
<path fill="#e2e8f0" stroke="#64748b" stroke-width="2" d="M478.11,-216C478.11,-216 332.13,-216 332.13,-216 326.13,-216 320.13,-210 320.13,-204 320.13,-204 320.13,-192 320.13,-192 320.13,-186 326.13,-180 332.13,-180 332.13,-180 478.11,-180 478.11,-180 484.11,-180 490.11,-186 490.11,-192 490.11,-192 490.11,-204 490.11,-204 490.11,-210 484.11,-216 478.11,-216"/>
<text xml:space="preserve" text-anchor="middle" x="405.12" y="-201" font-family="Arial" font-size="10.00">mt#175</text>
<text xml:space="preserve" text-anchor="middle" x="405.12" y="-189" font-family="Arial" font-size="10.00">Add AI&#45;powered task management</text>
</g>
<!-- mt_237 -->
<g id="node20" class="node">
<title>mt_237</title>
<path fill="#e2e8f0" stroke="#64748b" stroke-width="2" d="M471.7,-306C471.7,-306 338.54,-306 338.54,-306 332.54,-306 326.54,-300 326.54,-294 326.54,-294 326.54,-282 326.54,-282 326.54,-276 332.54,-270 338.54,-270 338.54,-270 471.7,-270 471.7,-270 477.7,-270 483.7,-276 483.7,-282 483.7,-282 483.7,-294 483.7,-294 483.7,-300 477.7,-306 471.7,-306"/>
<text xml:space="preserve" text-anchor="middle" x="405.12" y="-291" font-family="Arial" font-size="10.00">mt#237</text>
<text xml:space="preserve" text-anchor="middle" x="405.12" y="-279" font-family="Arial" font-size="10.00">Implement Hierarchical Task Sy</text>
</g>
<!-- mt_175&#45;&gt;mt_237 -->
<g id="edge15" class="edge">
<title>mt_175&#45;&gt;mt_237</title>
<path fill="none" stroke="#4a5568" stroke-width="2" d="M405.12,-216.81C405.12,-229.21 405.12,-245.98 405.12,-260.02"/>
<polygon fill="#4a5568" stroke="#4a5568" stroke-width="2" points="402.32,-258.19 405.12,-266.19 407.92,-258.19 402.32,-258.19"/>
</g>
<!-- mt_239 -->
<g id="node21" class="node">
<title>mt_239</title>
<path fill="#e2e8f0" stroke="#64748b" stroke-width="2" d="M481.72,-396C481.72,-396 338.52,-396 338.52,-396 332.52,-396 326.52,-390 326.52,-384 326.52,-384 326.52,-372 326.52,-372 326.52,-366 332.52,-360 338.52,-360 338.52,-360 481.72,-360 481.72,-360 487.72,-360 493.72,-366 493.72,-372 493.72,-372 493.72,-384 493.72,-384 493.72,-390 487.72,-396 481.72,-396"/>
<text xml:space="preserve" text-anchor="middle" x="410.12" y="-381" font-family="Arial" font-size="10.00">mt#239</text>
<text xml:space="preserve" text-anchor="middle" x="410.12" y="-369" font-family="Arial" font-size="10.00">Phase 2: Implement Task Depend</text>
</g>
<!-- mt_175&#45;&gt;mt_239 -->
<g id="edge18" class="edge">
<title>mt_175&#45;&gt;mt_239</title>
<path fill="none" stroke="#4a5568" stroke-width="2" d="M271.12,-289C267.58,-321.32 294.67,-342.29 325.85,-355.63"/>
<polygon fill="#4a5568" stroke="#4a5568" stroke-width="2" points="323.01,-357.5 331.48,-357.89 325.1,-352.31 323.01,-357.5"/>
</g>
<!-- mt_240 -->
<g id="node23" class="node">
<title>mt_240</title>
<path fill="#e2e8f0" stroke="#64748b" stroke-width="2" d="M713.62,-486C713.62,-486 572.62,-486 572.62,-486 566.62,-486 560.62,-480 560.62,-474 560.62,-474 560.62,-462 560.62,-462 560.62,-456 566.62,-450 572.62,-450 572.62,-450 713.62,-450 713.62,-450 719.62,-450 725.62,-456 725.62,-462 725.62,-462 725.62,-474 725.62,-474 725.62,-480 719.62,-486 713.62,-486"/>
<text xml:space="preserve" text-anchor="middle" x="643.12" y="-471" font-family="Arial" font-size="10.00">mt#240</text>
<text xml:space="preserve" text-anchor="middle" x="643.12" y="-459" font-family="Arial" font-size="10.00">Phase 3: Enhanced Planning/Exe</text>
</g>
<!-- mt_175&#45;&gt;mt_240 -->
<g id="edge22" class="edge">
<title>mt_175&#45;&gt;mt_240</title>
<path fill="none" stroke="#4a5568" stroke-width="2" d="M271.12,-289C269.37,-307.01 291.09,-299.88 308.12,-306 396.39,-337.7 428.58,-317.37 512.12,-360 554.2,-381.47 595.13,-418.21 619.73,-442.55"/>
<polygon fill="#4a5568" stroke="#4a5568" stroke-width="2" points="616.46,-443.23 624.09,-446.92 620.42,-439.28 616.46,-443.23"/>
</g>
<!-- mt_243 -->
<g id="node25" class="node">
<title>mt_243</title>
<path fill="#e2e8f0" stroke="#64748b" stroke-width="2" d="M636.72,-576C636.72,-576 503.52,-576 503.52,-576 497.52,-576 491.52,-570 491.52,-564 491.52,-564 491.52,-552 491.52,-552 491.52,-546 497.52,-540 503.52,-540 503.52,-540 636.72,-540 636.72,-540 642.72,-540 648.72,-546 648.72,-552 648.72,-552 648.72,-564 648.72,-564 648.72,-570 642.72,-576 636.72,-576"/>
<text xml:space="preserve" text-anchor="middle" x="570.12" y="-561" font-family="Arial" font-size="10.00">mt#243</text>
<text xml:space="preserve" text-anchor="middle" x="570.12" y="-549" font-family="Arial" font-size="10.00">Advanced Visualization and Dat</text>
</g>
<!-- mt_175&#45;&gt;mt_243 -->
<g id="edge28" class="edge">
<title>mt_175&#45;&gt;mt_243</title>
<path fill="none" stroke="#4a5568" stroke-width="2" d="M271.12,-289C265.84,-339.83 221.68,-332.19 197.12,-377"/>
<path fill="none" stroke="#4a5568" stroke-width="2" d="M339.74,-216.89C307.52,-230.08 274.76,-251.98 271.12,-287"/>
<path fill="none" stroke="#4a5568" stroke-width="2" d="M197.12,-379C133.94,-494.29 352.28,-535.73 481.52,-549.98"/>
<polygon fill="#4a5568" stroke="#4a5568" stroke-width="2" points="479.4,-552.56 487.65,-550.63 480,-547 479.4,-552.56"/>
</g>
<!-- mt_361 -->
<g id="node34" class="node">
<title>mt_361</title>
<path fill="#e2e8f0" stroke="#64748b" stroke-width="2" d="M413.33,-486C413.33,-486 272.91,-486 272.91,-486 266.91,-486 260.91,-480 260.91,-474 260.91,-474 260.91,-462 260.91,-462 260.91,-456 266.91,-450 272.91,-450 272.91,-450 413.33,-450 413.33,-450 419.33,-450 425.33,-456 425.33,-462 425.33,-462 425.33,-474 425.33,-474 425.33,-480 419.33,-486 413.33,-486"/>
<text xml:space="preserve" text-anchor="middle" x="343.12" y="-471" font-family="Arial" font-size="10.00">mt#361</text>
<text xml:space="preserve" text-anchor="middle" x="343.12" y="-459" font-family="Arial" font-size="10.00">Explore Automated Session Sync</text>
</g>
<!-- mt_175&#45;&gt;mt_361 -->
<g id="edge38" class="edge">
<title>mt_175&#45;&gt;mt_361</title>
<path fill="none" stroke="#4a5568" stroke-width="2" d="M271.12,-289C264.81,-346.67 300.36,-408.2 323.77,-441.69"/>
<polygon fill="#4a5568" stroke="#4a5568" stroke-width="2" points="320.44,-441.85 327.37,-446.72 324.99,-438.59 320.44,-441.85"/>
</g>
<!-- mt_160 -->
<g id="node11" class="node">
<title>mt_160</title>
<path fill="#34d399" stroke="#059669" stroke-width="2" d="M1120.94,-126C1120.94,-126 983.3,-126 983.3,-126 977.3,-126 971.3,-120 971.3,-114 971.3,-114 971.3,-102 971.3,-102 971.3,-96 977.3,-90 983.3,-90 983.3,-90 1120.94,-90 1120.94,-90 1126.94,-90 1132.94,-96 1132.94,-102 1132.94,-102 1132.94,-114 1132.94,-114 1132.94,-120 1126.94,-126 1120.94,-126"/>
<text xml:space="preserve" text-anchor="middle" x="1052.12" y="-111" font-family="Arial" font-size="10.00">mt#160</text>
<text xml:space="preserve" text-anchor="middle" x="1052.12" y="-99" font-family="Arial" font-size="10.00">Add AI Completion Backend with</text>
</g>
<!-- mt_160&#45;&gt;mt_175 -->
<g id="edge6" class="edge">
<title>mt_160&#45;&gt;mt_175</title>
<path fill="none" stroke="#4a5568" stroke-width="2" d="M970.32,-123.32C964.5,-124.25 958.73,-125.16 953.12,-126 794.57,-149.87 609.48,-172.84 500.07,-185.9"/>
<polygon fill="#4a5568" stroke="#4a5568" stroke-width="2" points="501.32,-182.93 493.71,-186.66 501.98,-188.49 501.32,-182.93"/>
</g>
<!-- mt_160&#45;&gt;mt_202 -->
<g id="edge9" class="edge">
<title>mt_160&#45;&gt;mt_202</title>
<path fill="none" stroke="#4a5568" stroke-width="2" d="M1048.12,-126.63C1043.87,-150.49 1040.6,-192.73 1064.12,-216 1148.92,-299.88 1479.97,-253.69 1598.12,-270 1600.61,-270.34 1603.14,-270.71 1605.69,-271.08"/>
<polygon fill="#4a5568" stroke="#4a5568" stroke-width="2" points="1603.68,-273.61 1612.01,-272.04 1604.52,-268.07 1603.68,-273.61"/>
</g>
<!-- mt_254 -->
<g id="node35" class="node">
<title>mt_254</title>
<path fill="#e2e8f0" stroke="#64748b" stroke-width="2" d="M1228.24,-216C1228.24,-216 1094,-216 1094,-216 1088,-216 1082,-210 1082,-204 1082,-204 1082,-192 1082,-192 1082,-186 1088,-180 1094,-180 1094,-180 1228.24,-180 1228.24,-180 1234.24,-180 1240.24,-186 1240.24,-192 1240.24,-192 1240.24,-204 1240.24,-204 1240.24,-210 1234.24,-216 1228.24,-216"/>
<text xml:space="preserve" text-anchor="middle" x="1161.12" y="-201" font-family="Arial" font-size="10.00">mt#254</text>
<text xml:space="preserve" text-anchor="middle" x="1161.12" y="-189" font-family="Arial" font-size="10.00">Implement Commit History Simil</text>
</g>
<!-- mt_160&#45;&gt;mt_254 -->
<g id="edge41" class="edge">
<title>mt_160&#45;&gt;mt_254</title>
<path fill="none" stroke="#4a5568" stroke-width="2" d="M1074.18,-126.81C1090.87,-140.29 1113.95,-158.92 1132.14,-173.6"/>
<polygon fill="#4a5568" stroke="#4a5568" stroke-width="2" points="1128.76,-174.47 1136.74,-177.32 1132.27,-170.11 1128.76,-174.47"/>
</g>
<!-- mt_321 -->
<g id="node48" class="node">
<title>mt_321</title>
<path fill="#e2e8f0" stroke="#64748b" stroke-width="2" d="M1417.76,-216C1417.76,-216 1288.48,-216 1288.48,-216 1282.48,-216 1276.48,-210 1276.48,-204 1276.48,-204 1276.48,-192 1276.48,-192 1276.48,-186 1282.48,-180 1288.48,-180 1288.48,-180 1417.76,-180 1417.76,-180 1423.76,-180 1429.76,-186 1429.76,-192 1429.76,-192 1429.76,-204 1429.76,-204 1429.76,-210 1423.76,-216 1417.76,-216"/>
<text xml:space="preserve" text-anchor="middle" x="1353.12" y="-201" font-family="Arial" font-size="10.00">mt#321</text>
<text xml:space="preserve" text-anchor="middle" x="1353.12" y="-189" font-family="Arial" font-size="10.00">AI&#45;Powered Project Analysis fo</text>
</g>
<!-- mt_160&#45;&gt;mt_321 -->
<g id="edge55" class="edge">
<title>mt_160&#45;&gt;mt_321</title>
<path fill="none" stroke="#4a5568" stroke-width="2" d="M1113.4,-126.91C1162.45,-141.25 1231.29,-161.38 1282.62,-176.39"/>
<polygon fill="#4a5568" stroke="#4a5568" stroke-width="2" points="1280.3,-178.63 1288.77,-178.19 1281.88,-173.25 1280.3,-178.63"/>
</g>
<!-- mt_441 -->
<g id="node63" class="node">
<title>mt_441</title>
<path fill="#e2e8f0" stroke="#64748b" stroke-width="2" d="M1355.33,-396C1355.33,-396 1204.91,-396 1204.91,-396 1198.91,-396 1192.91,-390 1192.91,-384 1192.91,-384 1192.91,-372 1192.91,-372 1192.91,-366 1198.91,-360 1204.91,-360 1204.91,-360 1355.33,-360 1355.33,-360 1361.33,-360 1367.33,-366 1367.33,-372 1367.33,-372 1367.33,-384 1367.33,-384 1367.33,-390 1361.33,-396 1355.33,-396"/>
<text xml:space="preserve" text-anchor="middle" x="1280.12" y="-381" font-family="Arial" font-size="10.00">mt#441</text>
<text xml:space="preserve" text-anchor="middle" x="1280.12" y="-369" font-family="Arial" font-size="10.00">Implement MCP&#45;Based Subagent S</text>
</g>
<!-- mt_202&#45;&gt;mt_441 -->
<g id="edge67" class="edge">
<title>mt_202&#45;&gt;mt_441</title>
<path fill="none" stroke="#4a5568" stroke-width="2" d="M1615.1,-305.97C1546.21,-320.58 1446.71,-341.67 1374.05,-357.08"/>
<polygon fill="#4a5568" stroke="#4a5568" stroke-width="2" points="1375.09,-354 1367.85,-358.4 1376.25,-359.48 1375.09,-354"/>
</g>
<!-- mt_442 -->
<g id="node66" class="node">
<title>mt_442</title>
<path fill="#e2e8f0" stroke="#64748b" stroke-width="2" d="M1423.76,-486C1423.76,-486 1284.48,-486 1284.48,-486 1278.48,-486 1272.48,-480 1272.48,-474 1272.48,-474 1272.48,-462 1272.48,-462 1272.48,-456 1278.48,-450 1284.48,-450 1284.48,-450 1423.76,-450 1423.76,-450 1429.76,-450 1435.76,-456 1435.76,-462 1435.76,-462 1435.76,-474 1435.76,-474 1435.76,-480 1429.76,-486 1423.76,-486"/>
<text xml:space="preserve" text-anchor="middle" x="1354.12" y="-471" font-family="Arial" font-size="10.00">mt#442</text>
<text xml:space="preserve" text-anchor="middle" x="1354.12" y="-459" font-family="Arial" font-size="10.00">Implement Task Routing System </text>
</g>
<!-- mt_202&#45;&gt;mt_442 -->
<g id="edge73" class="edge">
<title>mt_202&#45;&gt;mt_442</title>
<path fill="none" stroke="#4a5568" stroke-width="2" d="M1630.53,-306.92C1575.51,-323.8 1503.17,-350.39 1489.12,-377"/>
</g>
<!-- mt_250&#45;&gt;mt_202 -->
<g id="edge7" class="edge">
<title>mt_250&#45;&gt;mt_202</title>
<path fill="none" stroke="#4a5568" stroke-width="2" d="M1824.34,-216.81C1798.95,-230.6 1763.63,-249.79 1736.33,-264.62"/>
<polygon fill="#4a5568" stroke="#4a5568" stroke-width="2" points="1736.49,-261.34 1730.79,-267.62 1739.16,-266.26 1736.49,-261.34"/>
</g>
<!-- mt_182 -->
<g id="node14" class="node">
<title>mt_182</title>
<path fill="#34d399" stroke="#059669" stroke-width="2" d="M1729.61,-216C1729.61,-216 1588.63,-216 1588.63,-216 1582.63,-216 1576.63,-210 1576.63,-204 1576.63,-204 1576.63,-192 1576.63,-192 1576.63,-186 1582.63,-180 1588.63,-180 1588.63,-180 1729.61,-180 1729.61,-180 1735.61,-180 1741.61,-186 1741.61,-192 1741.61,-192 1741.61,-204 1741.61,-204 1741.61,-210 1735.61,-216 1729.61,-216"/>
<text xml:space="preserve" text-anchor="middle" x="1659.12" y="-201" font-family="Arial" font-size="10.00">mt#182</text>
<text xml:space="preserve" text-anchor="middle" x="1659.12" y="-189" font-family="Arial" font-size="10.00">Add AI&#45;Powered Rule Suggestion</text>
</g>
<!-- mt_182&#45;&gt;mt_202 -->
<g id="edge8" class="edge">
<title>mt_182&#45;&gt;mt_202</title>
<path fill="none" stroke="#4a5568" stroke-width="2" d="M1666.41,-216.81C1671.53,-229.33 1678.47,-246.31 1684.25,-260.43"/>
<polygon fill="#4a5568" stroke="#4a5568" stroke-width="2" points="1681.08,-260.07 1686.7,-266.42 1686.26,-257.95 1681.08,-260.07"/>
</g>
<!-- mt_232 -->
<g id="node15" class="node">
<title>mt_232</title>
<path fill="#e2e8f0" stroke="#64748b" stroke-width="2" d="M2645.65,-126C2645.65,-126 2518.6,-126 2518.6,-126 2512.6,-126 2506.6,-120 2506.6,-114 2506.6,-114 2506.6,-102 2506.6,-102 2506.6,-96 2512.6,-90 2518.6,-90 2518.6,-90 2645.65,-90 2645.65,-90 2651.65,-90 2657.65,-96 2657.65,-102 2657.65,-102 2657.65,-114 2657.65,-114 2657.65,-120 2651.65,-126 2645.65,-126"/>
<text xml:space="preserve" text-anchor="middle" x="2582.12" y="-111" font-family="Arial" font-size="10.00">mt#232</text>
<text xml:space="preserve" text-anchor="middle" x="2582.12" y="-99" font-family="Arial" font-size="10.00">Improve session PR conflict re</text>
</g>
<!-- mt_231 -->
<g id="node16" class="node">
<title>mt_231</title>
<path fill="#34d399" stroke="#059669" stroke-width="2" d="M2647.87,-36C2647.87,-36 2516.37,-36 2516.37,-36 2510.37,-36 2504.37,-30 2504.37,-24 2504.37,-24 2504.37,-12 2504.37,-12 2504.37,-6 2510.37,0 2516.37,0 2516.37,0 2647.87,0 2647.87,0 2653.87,0 2659.87,-6 2659.87,-12 2659.87,-12 2659.87,-24 2659.87,-24 2659.87,-30 2653.87,-36 2647.87,-36"/>
<text xml:space="preserve" text-anchor="middle" x="2582.12" y="-21" font-family="Arial" font-size="10.00">mt#231</text>
<text xml:space="preserve" text-anchor="middle" x="2582.12" y="-9" font-family="Arial" font-size="10.00">Implement session PR refresh f</text>
</g>
<!-- mt_231&#45;&gt;mt_232 -->
<g id="edge11" class="edge">
<title>mt_231&#45;&gt;mt_232</title>
<path fill="none" stroke="#4a5568" stroke-width="2" d="M2582.12,-36.81C2582.12,-49.21 2582.12,-65.98 2582.12,-80.02"/>
<polygon fill="#4a5568" stroke="#4a5568" stroke-width="2" points="2579.32,-78.19 2582.12,-86.19 2584.92,-78.19 2579.32,-78.19"/>
</g>
<!-- mt_233 -->
<g id="node17" class="node">
<title>mt_233</title>
<path fill="#e2e8f0" stroke="#64748b" stroke-width="2" d="M2870.6,-126C2870.6,-126 2739.64,-126 2739.64,-126 2733.64,-126 2727.64,-120 2727.64,-114 2727.64,-114 2727.64,-102 2727.64,-102 2727.64,-96 2733.64,-90 2739.64,-90 2739.64,-90 2870.6,-90 2870.6,-90 2876.6,-90 2882.6,-96 2882.6,-102 2882.6,-102 2882.6,-114 2882.6,-114 2882.6,-120 2876.6,-126 2870.6,-126"/>
<text xml:space="preserve" text-anchor="middle" x="2805.12" y="-111" font-family="Arial" font-size="10.00">mt#233</text>
<text xml:space="preserve" text-anchor="middle" x="2805.12" y="-99" font-family="Arial" font-size="10.00">Setup semantic&#45;release with co</text>
</g>
<!-- mt_234 -->
<g id="node19" class="node">
<title>mt_234</title>
<path fill="#e2e8f0" stroke="#64748b" stroke-width="2" d="M2938.82,-216C2938.82,-216 2803.42,-216 2803.42,-216 2797.42,-216 2791.42,-210 2791.42,-204 2791.42,-204 2791.42,-192 2791.42,-192 2791.42,-186 2797.42,-180 2803.42,-180 2803.42,-180 2938.82,-180 2938.82,-180 2944.82,-180 2950.82,-186 2950.82,-192 2950.82,-192 2950.82,-204 2950.82,-204 2950.82,-210 2944.82,-216 2938.82,-216"/>
<text xml:space="preserve" text-anchor="middle" x="2871.12" y="-201" font-family="Arial" font-size="10.00">mt#234</text>
<text xml:space="preserve" text-anchor="middle" x="2871.12" y="-189" font-family="Arial" font-size="10.00">Implement Dagger CI Pipeline w</text>
</g>
<!-- mt_233&#45;&gt;mt_234 -->
<g id="edge14" class="edge">
<title>mt_233&#45;&gt;mt_234</title>
<path fill="none" stroke="#4a5568" stroke-width="2" d="M2818.48,-126.81C2828.14,-139.69 2841.33,-157.28 2852.09,-171.63"/>
<polygon fill="#4a5568" stroke="#4a5568" stroke-width="2" points="2848.93,-172.08 2855.97,-176.8 2853.41,-168.72 2848.93,-172.08"/>
</g>
<!-- mt_164 -->
<g id="node18" class="node">
<title>mt_164</title>
<path fill="#34d399" stroke="#059669" stroke-width="2" d="M2905.99,-36C2905.99,-36 2772.25,-36 2772.25,-36 2766.25,-36 2760.25,-30 2760.25,-24 2760.25,-24 2760.25,-12 2760.25,-12 2760.25,-6 2766.25,0 2772.25,0 2772.25,0 2905.99,0 2905.99,0 2911.99,0 2917.99,-6 2917.99,-12 2917.99,-12 2917.99,-24 2917.99,-24 2917.99,-30 2911.99,-36 2905.99,-36"/>
<text xml:space="preserve" text-anchor="middle" x="2839.12" y="-21" font-family="Arial" font-size="10.00">mt#164</text>
<text xml:space="preserve" text-anchor="middle" x="2839.12" y="-9" font-family="Arial" font-size="10.00">Add Bun Binary Builds and GitH</text>
</g>
<!-- mt_164&#45;&gt;mt_233 -->
<g id="edge12" class="edge">
<title>mt_164&#45;&gt;mt_233</title>
<path fill="none" stroke="#4a5568" stroke-width="2" d="M2832.24,-36.81C2827.4,-49.33 2820.84,-66.31 2815.39,-80.43"/>
<polygon fill="#4a5568" stroke="#4a5568" stroke-width="2" points="2813.35,-77.92 2813.08,-86.39 2818.58,-79.94 2813.35,-77.92"/>
</g>
<!-- mt_164&#45;&gt;mt_234 -->
<g id="edge13" class="edge">
<title>mt_164&#45;&gt;mt_234</title>
<path fill="none" stroke="#4a5568" stroke-width="2" d="M2861.09,-36.94C2875.21,-49.98 2892.33,-68.97 2900.12,-90 2910.16,-117.08 2898.46,-149.19 2887.06,-171.12"/>
<polygon fill="#4a5568" stroke="#4a5568" stroke-width="2" points="2885.43,-168.26 2884.04,-176.62 2890.34,-170.95 2885.43,-168.26"/>
</g>
<!-- mt_237&#45;&gt;mt_239 -->
<g id="edge16" class="edge">
<title>mt_237&#45;&gt;mt_239</title>
<path fill="none" stroke="#4a5568" stroke-width="2" d="M406.66,-316.01C407.27,-326.76 407.97,-339.11 408.58,-349.87"/>
<polygon fill="#4a5568" stroke="#4a5568" stroke-width="2" points="409.55,-317.66 406.3,-309.83 403.96,-317.98 409.55,-317.66"/>
<polygon fill="#4a5568" stroke="#4a5568" stroke-width="2" points="405.69,-348.37 408.94,-356.2 411.28,-348.05 405.69,-348.37"/>
</g>
<!-- mt_237&#45;&gt;mt_240 -->
<g id="edge19" class="edge">
<title>mt_237&#45;&gt;mt_240</title>
<path fill="none" stroke="#4a5568" stroke-width="2" d="M493.98,-293.78C590.05,-301.02 734.05,-318.62 768.12,-360 795.93,-393.77 745.74,-425.42 700.92,-445.41"/>
<polygon fill="#4a5568" stroke="#4a5568" stroke-width="2" points="495.75,-291.1 487.57,-293.31 495.34,-296.68 495.75,-291.1"/>
<polygon fill="#4a5568" stroke="#4a5568" stroke-width="2" points="701.35,-442.17 695.12,-447.92 703.57,-447.31 701.35,-442.17"/>
</g>
<!-- mt_237&#45;&gt;mt_243 -->
<g id="edge24" class="edge">
<title>mt_237&#45;&gt;mt_243</title>
<path fill="none" stroke="#4a5568" stroke-width="2" d="M340.09,-306.92C284.66,-323.8 211.7,-350.39 197.12,-377"/>
</g>
<!-- mt_237&#45;&gt;mt_441 -->
<g id="edge68" class="edge">
<title>mt_237&#45;&gt;mt_441</title>
<path fill="none" stroke="#4a5568" stroke-width="2" d="M484.31,-296.96C644.8,-313.1 1007.92,-349.62 1182.63,-367.2"/>
<polygon fill="#4a5568" stroke="#4a5568" stroke-width="2" points="1180.83,-369.83 1189.07,-367.84 1181.39,-364.26 1180.83,-369.83"/>
</g>
<!-- mt_237&#45;&gt;mt_442 -->
<g id="edge77" class="edge">
<title>mt_237&#45;&gt;mt_442</title>
<path fill="none" stroke="#4a5568" stroke-width="2" d="M484.58,-290.02C594.17,-294 795.99,-310.69 953.12,-377"/>
<path fill="none" stroke="#4a5568" stroke-width="2" d="M953.12,-379C1054.39,-421.74 1179.17,-444.92 1262.39,-456.6"/>
<polygon fill="#4a5568" stroke="#4a5568" stroke-width="2" points="1260.26,-459.13 1268.57,-457.45 1261.03,-453.58 1260.26,-459.13"/>
</g>
<!-- mt_239&#45;&gt;mt_240 -->
<g id="edge21" class="edge">
<title>mt_239&#45;&gt;mt_240</title>
<path fill="none" stroke="#4a5568" stroke-width="2" d="M457.55,-396.91C495.03,-411.07 547.44,-430.86 587.01,-445.81"/>
<polygon fill="#4a5568" stroke="#4a5568" stroke-width="2" points="584.45,-447.83 592.92,-448.04 586.43,-442.6 584.45,-447.83"/>
</g>
<!-- mt_239&#45;&gt;mt_243 -->
<g id="edge26" class="edge">
<title>mt_239&#45;&gt;mt_243</title>
<path fill="none" stroke="#4a5568" stroke-width="2" d="M426.05,-396.72C454.72,-428.62 515.1,-495.79 547.86,-532.23"/>
<polygon fill="#4a5568" stroke="#4a5568" stroke-width="2" points="544.57,-532.76 552,-536.84 548.73,-529.02 544.57,-532.76"/>
</g>
<!-- mt_239&#45;&gt;mt_361 -->
<g id="edge37" class="edge">
<title>mt_239&#45;&gt;mt_361</title>
<path fill="none" stroke="#4a5568" stroke-width="2" d="M396.56,-396.81C386.66,-409.81 373.11,-427.61 362.13,-442.03"/>
<polygon fill="#4a5568" stroke="#4a5568" stroke-width="2" points="361.11,-438.75 358.49,-446.81 365.57,-442.14 361.11,-438.75"/>
</g>
<!-- mt_238 -->
<g id="node22" class="node">
<title>mt_238</title>
<path fill="#34d399" stroke="#059669" stroke-width="2" d="M885.66,-306C885.66,-306 748.58,-306 748.58,-306 742.58,-306 736.58,-300 736.58,-294 736.58,-294 736.58,-282 736.58,-282 736.58,-276 742.58,-270 748.58,-270 748.58,-270 885.66,-270 885.66,-270 891.66,-270 897.66,-276 897.66,-282 897.66,-282 897.66,-294 897.66,-294 897.66,-300 891.66,-306 885.66,-306"/>
<text xml:space="preserve" text-anchor="middle" x="817.12" y="-291" font-family="Arial" font-size="10.00">mt#238</text>
<text xml:space="preserve" text-anchor="middle" x="817.12" y="-279" font-family="Arial" font-size="10.00">Phase 1: Implement Basic Subta</text>
</g>
<!-- mt_238&#45;&gt;mt_239 -->
<g id="edge17" class="edge">
<title>mt_238&#45;&gt;mt_239</title>
<path fill="none" stroke="#4a5568" stroke-width="2" d="M735.74,-306.6C668.22,-321.2 572.24,-341.95 501.98,-357.14"/>
<polygon fill="#4a5568" stroke="#4a5568" stroke-width="2" points="503.3,-353.99 496.07,-358.42 504.48,-359.46 503.3,-353.99"/>
</g>
<!-- mt_238&#45;&gt;mt_240 -->
<g id="edge20" class="edge">
<title>mt_238&#45;&gt;mt_240</title>
<path fill="none" stroke="#4a5568" stroke-width="2" d="M841.72,-306.88C860.89,-323.18 883.59,-348.95 879.12,-377"/>
<path fill="none" stroke="#4a5568" stroke-width="2" d="M879.12,-379C874.14,-410.24 799.4,-434.28 735.34,-449.28"/>
<polygon fill="#4a5568" stroke="#4a5568" stroke-width="2" points="736.51,-446.14 729.33,-450.66 737.76,-451.6 736.51,-446.14"/>
</g>
<!-- mt_238&#45;&gt;mt_243 -->
<g id="edge25" class="edge">
<title>mt_238&#45;&gt;mt_243</title>
<path fill="none" stroke="#4a5568" stroke-width="2" d="M879.12,-379C863.38,-477.81 744.37,-522.8 658.74,-542.55"/>
<polygon fill="#4a5568" stroke="#4a5568" stroke-width="2" points="659.68,-539.47 652.48,-543.95 660.9,-544.93 659.68,-539.47"/>
</g>
<!-- mt_238&#45;&gt;mt_441 -->
<g id="edge69" class="edge">
<title>mt_238&#45;&gt;mt_441</title>
<path fill="none" stroke="#4a5568" stroke-width="2" d="M898.56,-304.48C977.85,-319.55 1098.39,-342.46 1182.71,-358.49"/>
<polygon fill="#4a5568" stroke="#4a5568" stroke-width="2" points="1180.68,-360.95 1189.06,-359.69 1181.72,-355.45 1180.68,-360.95"/>
</g>
<!-- mt_238&#45;&gt;mt_442 -->
<g id="edge75" class="edge">
<title>mt_238&#45;&gt;mt_442</title>
<path fill="none" stroke="#4a5568" stroke-width="2" d="M839.31,-306.89C865.16,-326.85 909.85,-358.74 953.12,-377"/>
</g>
<!-- mt_240&#45;&gt;mt_243 -->
<g id="edge27" class="edge">
<title>mt_240&#45;&gt;mt_243</title>
<path fill="none" stroke="#4a5568" stroke-width="2" d="M628.35,-486.81C617.56,-499.81 602.8,-517.61 590.84,-532.03"/>
<polygon fill="#4a5568" stroke="#4a5568" stroke-width="2" points="589.76,-528.94 586.8,-536.89 594.07,-532.52 589.76,-528.94"/>
</g>
<!-- mt_004 -->
<g id="node24" class="node">
<title>mt_004</title>
<path fill="#34d399" stroke="#059669" stroke-width="2" d="M738.14,-396C738.14,-396 616.1,-396 616.1,-396 610.1,-396 604.1,-390 604.1,-384 604.1,-384 604.1,-372 604.1,-372 604.1,-366 610.1,-360 616.1,-360 616.1,-360 738.14,-360 738.14,-360 744.14,-360 750.14,-366 750.14,-372 750.14,-372 750.14,-384 750.14,-384 750.14,-390 744.14,-396 738.14,-396"/>
<text xml:space="preserve" text-anchor="middle" x="677.12" y="-381" font-family="Arial" font-size="10.00">mt#004</text>
<text xml:space="preserve" text-anchor="middle" x="677.12" y="-369" font-family="Arial" font-size="10.00">Add `&#45;&#45;task` Option to `sessio</text>
</g>
<!-- mt_004&#45;&gt;mt_240 -->
<g id="edge23" class="edge">
<title>mt_004&#45;&gt;mt_240</title>
<path fill="none" stroke="#4a5568" stroke-width="2" d="M670.24,-396.81C665.4,-409.33 658.84,-426.31 653.39,-440.43"/>
<polygon fill="#4a5568" stroke="#4a5568" stroke-width="2" points="651.35,-437.92 651.08,-446.39 656.58,-439.94 651.35,-437.92"/>
</g>
<!-- mt_179 -->
<g id="node26" class="node">
<title>mt_179</title>
<path fill="#e2e8f0" stroke="#64748b" stroke-width="2" d="M1701.94,-126C1701.94,-126 1564.31,-126 1564.31,-126 1558.31,-126 1552.31,-120 1552.31,-114 1552.31,-114 1552.31,-102 1552.31,-102 1552.31,-96 1558.31,-90 1564.31,-90 1564.31,-90 1701.94,-90 1701.94,-90 1707.94,-90 1713.94,-96 1713.94,-102 1713.94,-102 1713.94,-114 1713.94,-114 1713.94,-120 1707.94,-126 1701.94,-126"/>
<text xml:space="preserve" text-anchor="middle" x="1633.12" y="-111" font-family="Arial" font-size="10.00">mt#179</text>
<text xml:space="preserve" text-anchor="middle" x="1633.12" y="-99" font-family="Arial" font-size="10.00">Investigate Embeddings/RAG for</text>
</g>
<!-- mt_179&#45;&gt;mt_250 -->
<g id="edge31" class="edge">
<title>mt_179&#45;&gt;mt_250</title>
<path fill="none" stroke="#4a5568" stroke-width="2" d="M1678.72,-126.91C1714.75,-141.07 1765.14,-160.86 1803.18,-175.81"/>
<polygon fill="#4a5568" stroke="#4a5568" stroke-width="2" points="1800.3,-177.68 1808.77,-178 1802.35,-172.47 1800.3,-177.68"/>
</g>
<!-- mt_179&#45;&gt;mt_254 -->
<g id="edge39" class="edge">
<title>mt_179&#45;&gt;mt_254</title>
<path fill="none" stroke="#4a5568" stroke-width="2" d="M1551.44,-124.23C1467.43,-139.89 1336.96,-164.22 1250.31,-180.37"/>
<polygon fill="#4a5568" stroke="#4a5568" stroke-width="2" points="1251.34,-177.33 1243.99,-181.55 1252.37,-182.84 1251.34,-177.33"/>
</g>
<!-- mt_158 -->
<g id="node27" class="node">
<title>mt_158</title>
<path fill="#34d399" stroke="#059669" stroke-width="2" d="M1902.04,-126C1902.04,-126 1762.2,-126 1762.2,-126 1756.2,-126 1750.2,-120 1750.2,-114 1750.2,-114 1750.2,-102 1750.2,-102 1750.2,-96 1756.2,-90 1762.2,-90 1762.2,-90 1902.04,-90 1902.04,-90 1908.04,-90 1914.04,-96 1914.04,-102 1914.04,-102 1914.04,-114 1914.04,-114 1914.04,-120 1908.04,-126 1902.04,-126"/>
<text xml:space="preserve" text-anchor="middle" x="1832.12" y="-111" font-family="Arial" font-size="10.00">mt#158</text>
<text xml:space="preserve" text-anchor="middle" x="1832.12" y="-99" font-family="Arial" font-size="10.00">Implement Session&#45;Aware Versio</text>
</g>
<!-- mt_158&#45;&gt;mt_250 -->
<g id="edge32" class="edge">
<title>mt_158&#45;&gt;mt_250</title>
<path fill="none" stroke="#4a5568" stroke-width="2" d="M1837.18,-126.81C1840.74,-139.33 1845.56,-156.31 1849.57,-170.43"/>
<polygon fill="#4a5568" stroke="#4a5568" stroke-width="2" points="1846.36,-169.38 1851.24,-176.31 1851.75,-167.85 1846.36,-169.38"/>
</g>
<!-- mt_293 -->
<g id="node47" class="node">
<title>mt_293</title>
<path fill="#e2e8f0" stroke="#64748b" stroke-width="2" d="M2378.22,-216C2378.22,-216 2250.02,-216 2250.02,-216 2244.02,-216 2238.02,-210 2238.02,-204 2238.02,-204 2238.02,-192 2238.02,-192 2238.02,-186 2244.02,-180 2250.02,-180 2250.02,-180 2378.22,-180 2378.22,-180 2384.22,-180 2390.22,-186 2390.22,-192 2390.22,-192 2390.22,-204 2390.22,-204 2390.22,-210 2384.22,-216 2378.22,-216"/>
<text xml:space="preserve" text-anchor="middle" x="2314.12" y="-201" font-family="Arial" font-size="10.00">mt#293</text>
<text xml:space="preserve" text-anchor="middle" x="2314.12" y="-189" font-family="Arial" font-size="10.00">Add session chat interface con</text>
</g>
<!-- mt_158&#45;&gt;mt_293 -->
<g id="edge53" class="edge">
<title>mt_158&#45;&gt;mt_293</title>
<path fill="none" stroke="#4a5568" stroke-width="2" d="M1914.98,-124.13C2002.33,-140.07 2139.29,-165.08 2227.89,-181.26"/>
<polygon fill="#4a5568" stroke="#4a5568" stroke-width="2" points="2225.76,-183.71 2234.14,-182.4 2226.77,-178.21 2225.76,-183.71"/>
</g>
<!-- mt_349 -->
<g id="node54" class="node">
<title>mt_349</title>
<path fill="#e2e8f0" stroke="#64748b" stroke-width="2" d="M1149.76,-306C1149.76,-306 1020.49,-306 1020.49,-306 1014.49,-306 1008.49,-300 1008.49,-294 1008.49,-294 1008.49,-282 1008.49,-282 1008.49,-276 1014.49,-270 1020.49,-270 1020.49,-270 1149.76,-270 1149.76,-270 1155.76,-270 1161.76,-276 1161.76,-282 1161.76,-282 1161.76,-294 1161.76,-294 1161.76,-300 1155.76,-306 1149.76,-306"/>
<text xml:space="preserve" text-anchor="middle" x="1085.12" y="-291" font-family="Arial" font-size="10.00">mt#349</text>
<text xml:space="preserve" text-anchor="middle" x="1085.12" y="-279" font-family="Arial" font-size="10.00">Analyze Cursor Chat History to</text>
</g>
<!-- mt_158&#45;&gt;mt_349 -->
<g id="edge59" class="edge">
<title>mt_158&#45;&gt;mt_349</title>
<path fill="none" stroke="#4a5568" stroke-width="2" d="M1758.22,-126.96C1703.11,-140.66 1626.11,-160.44 1559.12,-180 1509.34,-194.53 1498.33,-203 1448.12,-216 1397.04,-229.23 1261.92,-254.74 1171.73,-271.3"/>
<polygon fill="#4a5568" stroke="#4a5568" stroke-width="2" points="1172.95,-268.23 1165.58,-272.43 1173.96,-273.74 1172.95,-268.23"/>
</g>
<!-- mt_251 -->
<g id="node28" class="node">
<title>mt_251</title>
<path fill="#e2e8f0" stroke="#64748b" stroke-width="2" d="M2416.1,-36C2416.1,-36 2290.14,-36 2290.14,-36 2284.14,-36 2278.14,-30 2278.14,-24 2278.14,-24 2278.14,-12 2278.14,-12 2278.14,-6 2284.14,0 2290.14,0 2290.14,0 2416.1,0 2416.1,0 2422.1,0 2428.1,-6 2428.1,-12 2428.1,-12 2428.1,-24 2428.1,-24 2428.1,-30 2422.1,-36 2416.1,-36"/>
<text xml:space="preserve" text-anchor="middle" x="2353.12" y="-21" font-family="Arial" font-size="10.00">mt#251</text>
<text xml:space="preserve" text-anchor="middle" x="2353.12" y="-9" font-family="Arial" font-size="10.00">Add Mobile/Voice Interface for</text>
</g>
<!-- mt_252 -->
<g id="node29" class="node">
<title>mt_252</title>
<path fill="#e2e8f0" stroke="#64748b" stroke-width="2" d="M2384.32,-126C2384.32,-126 2243.92,-126 2243.92,-126 2237.92,-126 2231.92,-120 2231.92,-114 2231.92,-114 2231.92,-102 2231.92,-102 2231.92,-96 2237.92,-90 2243.92,-90 2243.92,-90 2384.32,-90 2384.32,-90 2390.32,-90 2396.32,-96 2396.32,-102 2396.32,-102 2396.32,-114 2396.32,-114 2396.32,-120 2390.32,-126 2384.32,-126"/>
<text xml:space="preserve" text-anchor="middle" x="2314.12" y="-111" font-family="Arial" font-size="10.00">mt#252</text>
<text xml:space="preserve" text-anchor="middle" x="2314.12" y="-99" font-family="Arial" font-size="10.00">Design and implement task mana</text>
</g>
<!-- mt_251&#45;&gt;mt_252 -->
<g id="edge82" class="edge">
<title>mt_251&#45;&gt;mt_252</title>
<path fill="none" stroke="#4a5568" stroke-width="2" d="M2341.51,-45.2C2336.54,-56.41 2330.75,-69.47 2325.78,-80.69"/>
<polygon fill="#4a5568" stroke="#4a5568" stroke-width="2" points="2343.32,-48.02 2344,-39.58 2338.2,-45.76 2343.32,-48.02"/>
<polygon fill="#4a5568" stroke="#4a5568" stroke-width="2" points="2323.91,-78 2323.23,-86.45 2329.03,-80.27 2323.91,-78"/>
</g>
<!-- mt_251&#45;&gt;mt_293 -->
<g id="edge52" class="edge">
<title>mt_251&#45;&gt;mt_293</title>
<path fill="none" stroke="#4a5568" stroke-width="2" d="M2375.63,-36.92C2399.18,-57.97 2430.6,-94.08 2414.12,-126 2403.35,-146.86 2383.31,-162.92 2363.98,-174.45"/>
<polygon fill="#4a5568" stroke="#4a5568" stroke-width="2" points="2363.97,-171.23 2358.4,-177.61 2366.74,-176.1 2363.97,-171.23"/>
</g>
<!-- mt_252&#45;&gt;mt_293 -->
<g id="edge51" class="edge">
<title>mt_252&#45;&gt;mt_293</title>
<path fill="none" stroke="#4a5568" stroke-width="2" d="M2314.12,-126.81C2314.12,-139.21 2314.12,-155.98 2314.12,-170.02"/>
<polygon fill="#4a5568" stroke="#4a5568" stroke-width="2" points="2311.32,-168.19 2314.12,-176.19 2316.92,-168.19 2311.32,-168.19"/>
</g>
<!-- mt_279 -->
<g id="node30" class="node">
<title>mt_279</title>
<path fill="#e2e8f0" stroke="#64748b" stroke-width="2" d="M1589.76,-666C1589.76,-666 1460.48,-666 1460.48,-666 1454.48,-666 1448.48,-660 1448.48,-654 1448.48,-654 1448.48,-642 1448.48,-642 1448.48,-636 1454.48,-630 1460.48,-630 1460.48,-630 1589.76,-630 1589.76,-630 1595.76,-630 1601.76,-636 1601.76,-642 1601.76,-642 1601.76,-654 1601.76,-654 1601.76,-660 1595.76,-666 1589.76,-666"/>
<text xml:space="preserve" text-anchor="middle" x="1525.12" y="-651" font-family="Arial" font-size="10.00">mt#279</text>
<text xml:space="preserve" text-anchor="middle" x="1525.12" y="-639" font-family="Arial" font-size="10.00">Implement multi&#45;layered agent </text>
</g>
<!-- mt_327 -->
<g id="node73" class="node">
<title>mt_327</title>
<path fill="#e2e8f0" stroke="#64748b" stroke-width="2" d="M1588.38,-756C1588.38,-756 1461.86,-756 1461.86,-756 1455.86,-756 1449.86,-750 1449.86,-744 1449.86,-744 1449.86,-732 1449.86,-732 1449.86,-726 1455.86,-720 1461.86,-720 1461.86,-720 1588.38,-720 1588.38,-720 1594.38,-720 1600.38,-726 1600.38,-732 1600.38,-732 1600.38,-744 1600.38,-744 1600.38,-750 1594.38,-756 1588.38,-756"/>
<text xml:space="preserve" text-anchor="middle" x="1525.12" y="-741" font-family="Arial" font-size="10.00">mt#327</text>
<text xml:space="preserve" text-anchor="middle" x="1525.12" y="-729" font-family="Arial" font-size="10.00">Analyze and architect general </text>
</g>
<!-- mt_279&#45;&gt;mt_327 -->
<g id="edge86" class="edge">
<title>mt_279&#45;&gt;mt_327</title>
<path fill="none" stroke="#4a5568" stroke-width="2" d="M1525.12,-666.81C1525.12,-679.21 1525.12,-695.98 1525.12,-710.02"/>
<polygon fill="#4a5568" stroke="#4a5568" stroke-width="2" points="1522.32,-708.19 1525.12,-716.19 1527.92,-708.19 1522.32,-708.19"/>
</g>
<!-- mt_258 -->
<g id="node31" class="node">
<title>mt_258</title>
<path fill="#e2e8f0" stroke="#64748b" stroke-width="2" d="M1684.37,-486C1684.37,-486 1557.87,-486 1557.87,-486 1551.87,-486 1545.87,-480 1545.87,-474 1545.87,-474 1545.87,-462 1545.87,-462 1545.87,-456 1551.87,-450 1557.87,-450 1557.87,-450 1684.37,-450 1684.37,-450 1690.37,-450 1696.37,-456 1696.37,-462 1696.37,-462 1696.37,-474 1696.37,-474 1696.37,-480 1690.37,-486 1684.37,-486"/>
<text xml:space="preserve" text-anchor="middle" x="1621.12" y="-471" font-family="Arial" font-size="10.00">mt#258</text>
<text xml:space="preserve" text-anchor="middle" x="1621.12" y="-459" font-family="Arial" font-size="10.00">Design multi&#45;agent cybernetic </text>
</g>
<!-- mt_258&#45;&gt;mt_279 -->
<g id="edge34" class="edge">
<title>mt_258&#45;&gt;mt_279</title>
<path fill="none" stroke="#4a5568" stroke-width="2" d="M1393.12,-559C1384,-590.58 1412.07,-611.84 1444.64,-625.54"/>
<polygon fill="#4a5568" stroke="#4a5568" stroke-width="2" points="1442.17,-627.57 1450.64,-627.92 1444.23,-622.37 1442.17,-627.57"/>
</g>
<!-- mt_284 -->
<g id="node32" class="node">
<title>mt_284</title>
<path fill="#e2e8f0" stroke="#64748b" stroke-width="2" d="M1688.54,-576C1688.54,-576 1553.7,-576 1553.7,-576 1547.7,-576 1541.7,-570 1541.7,-564 1541.7,-564 1541.7,-552 1541.7,-552 1541.7,-546 1547.7,-540 1553.7,-540 1553.7,-540 1688.54,-540 1688.54,-540 1694.54,-540 1700.54,-546 1700.54,-552 1700.54,-552 1700.54,-564 1700.54,-564 1700.54,-570 1694.54,-576 1688.54,-576"/>
<text xml:space="preserve" text-anchor="middle" x="1621.12" y="-561" font-family="Arial" font-size="10.00">mt#284</text>
<text xml:space="preserve" text-anchor="middle" x="1621.12" y="-549" font-family="Arial" font-size="10.00">Integrate Task Graph System wi</text>
</g>
<!-- mt_258&#45;&gt;mt_284 -->
<g id="edge36" class="edge">
<title>mt_258&#45;&gt;mt_284</title>
<path fill="none" stroke="#4a5568" stroke-width="2" d="M1621.12,-486.81C1621.12,-499.21 1621.12,-515.98 1621.12,-530.02"/>
<polygon fill="#4a5568" stroke="#4a5568" stroke-width="2" points="1618.32,-528.19 1621.12,-536.19 1623.92,-528.19 1618.32,-528.19"/>
</g>
<!-- mt_258&#45;&gt;mt_327 -->
<g id="edge85" class="edge">
<title>mt_258&#45;&gt;mt_327</title>
<path fill="none" stroke="#4a5568" stroke-width="2" d="M1545,-470.35C1485.77,-476.22 1410.74,-495.95 1393.12,-557"/>
<path fill="none" stroke="#4a5568" stroke-width="2" d="M1393.12,-559C1379.16,-607.34 1400.44,-625.37 1430.12,-666 1444.36,-685.49 1465.49,-702.02 1484.2,-714.22"/>
<polygon fill="#4a5568" stroke="#4a5568" stroke-width="2" points="1481.23,-715.65 1489.49,-717.56 1484.22,-710.92 1481.23,-715.65"/>
</g>
<!-- mt_468 -->
<g id="node74" class="node">
<title>mt_468</title>
<path fill="#e2e8f0" stroke="#64748b" stroke-width="2" d="M1879.31,-576C1879.31,-576 1748.93,-576 1748.93,-576 1742.93,-576 1736.93,-570 1736.93,-564 1736.93,-564 1736.93,-552 1736.93,-552 1736.93,-546 1742.93,-540 1748.93,-540 1748.93,-540 1879.31,-540 1879.31,-540 1885.31,-540 1891.31,-546 1891.31,-552 1891.31,-552 1891.31,-564 1891.31,-564 1891.31,-570 1885.31,-576 1879.31,-576"/>
<text xml:space="preserve" text-anchor="middle" x="1814.12" y="-561" font-family="Arial" font-size="10.00">mt#468</text>
<text xml:space="preserve" text-anchor="middle" x="1814.12" y="-549" font-family="Arial" font-size="10.00">Implement Tool Call Supervisio</text>
</g>
<!-- mt_258&#45;&gt;mt_468 -->
<g id="edge88" class="edge">
<title>mt_258&#45;&gt;mt_468</title>
<path fill="none" stroke="#4a5568" stroke-width="2" d="M1660.18,-486.81C1690.81,-500.78 1733.6,-520.28 1766.29,-535.19"/>
<polygon fill="#4a5568" stroke="#4a5568" stroke-width="2" points="1763.6,-537.04 1772.04,-537.81 1765.92,-531.95 1763.6,-537.04"/>
</g>
<!-- mt_260 -->
<g id="node33" class="node">
<title>mt_260</title>
<path fill="#e2e8f0" stroke="#64748b" stroke-width="2" d="M1782.7,-666C1782.7,-666 1649.54,-666 1649.54,-666 1643.54,-666 1637.54,-660 1637.54,-654 1637.54,-654 1637.54,-642 1637.54,-642 1637.54,-636 1643.54,-630 1649.54,-630 1649.54,-630 1782.7,-630 1782.7,-630 1788.7,-630 1794.7,-636 1794.7,-642 1794.7,-642 1794.7,-654 1794.7,-654 1794.7,-660 1788.7,-666 1782.7,-666"/>
<text xml:space="preserve" text-anchor="middle" x="1716.12" y="-651" font-family="Arial" font-size="10.00">mt#260</text>
<text xml:space="preserve" text-anchor="middle" x="1716.12" y="-639" font-family="Arial" font-size="10.00">Implement prompt templates for</text>
</g>
<!-- mt_284&#45;&gt;mt_260 -->
<g id="edge45" class="edge">
<title>mt_284&#45;&gt;mt_260</title>
<path fill="none" stroke="#4a5568" stroke-width="2" d="M1647.26,-583.21C1660.64,-595.61 1676.89,-610.66 1690.24,-623.02"/>
<polygon fill="#4a5568" stroke="#4a5568" stroke-width="2" points="1650.34,-582.25 1642.57,-578.87 1646.53,-586.36 1650.34,-582.25"/>
<polygon fill="#4a5568" stroke="#4a5568" stroke-width="2" points="1686.93,-623.78 1694.7,-627.16 1690.74,-619.67 1686.93,-623.78"/>
</g>
<!-- mt_260&#45;&gt;mt_327 -->
<g id="edge87" class="edge">
<title>mt_260&#45;&gt;mt_327</title>
<path fill="none" stroke="#4a5568" stroke-width="2" d="M1677.47,-666.81C1647.15,-680.78 1604.81,-700.28 1572.46,-715.19"/>
<polygon fill="#4a5568" stroke="#4a5568" stroke-width="2" points="1572.89,-711.91 1566.79,-717.8 1575.23,-717 1572.89,-711.91"/>
</g>
<!-- mt_253 -->
<g id="node36" class="node">
<title>mt_253</title>
<path fill="#34d399" stroke="#059669" stroke-width="2" d="M923.31,-126C923.31,-126 792.94,-126 792.94,-126 786.94,-126 780.94,-120 780.94,-114 780.94,-114 780.94,-102 780.94,-102 780.94,-96 786.94,-90 792.94,-90 792.94,-90 923.31,-90 923.31,-90 929.31,-90 935.31,-96 935.31,-102 935.31,-102 935.31,-114 935.31,-114 935.31,-120 929.31,-126 923.31,-126"/>
<text xml:space="preserve" text-anchor="middle" x="858.12" y="-111" font-family="Arial" font-size="10.00">mt#253</text>
<text xml:space="preserve" text-anchor="middle" x="858.12" y="-99" font-family="Arial" font-size="10.00">Implement Task Similarity Sear</text>
</g>
<!-- mt_253&#45;&gt;mt_254 -->
<g id="edge40" class="edge">
<title>mt_253&#45;&gt;mt_254</title>
<path fill="none" stroke="#4a5568" stroke-width="2" d="M919.8,-126.91C969.18,-141.25 1038.48,-161.38 1090.16,-176.39"/>
<polygon fill="#4a5568" stroke="#4a5568" stroke-width="2" points="1087.9,-178.65 1096.36,-178.19 1089.46,-173.27 1087.9,-178.65"/>
</g>
<!-- mt_253&#45;&gt;mt_442 -->
<g id="edge79" class="edge">
<title>mt_253&#45;&gt;mt_442</title>
<path fill="none" stroke="#4a5568" stroke-width="2" d="M864.63,-126.84C875.44,-156.51 897.73,-217.89 916.12,-270 932.87,-317.45 906.76,-357.44 953.12,-377"/>
</g>
<!-- mt_273 -->
<g id="node37" class="node">
<title>mt_273</title>
<path fill="#e2e8f0" stroke="#64748b" stroke-width="2" d="M3317.82,-126C3317.82,-126 3172.42,-126 3172.42,-126 3166.42,-126 3160.42,-120 3160.42,-114 3160.42,-114 3160.42,-102 3160.42,-102 3160.42,-96 3166.42,-90 3172.42,-90 3172.42,-90 3317.82,-90 3317.82,-90 3323.82,-90 3329.82,-96 3329.82,-102 3329.82,-102 3329.82,-114 3329.82,-114 3329.82,-120 3323.82,-126 3317.82,-126"/>
<text xml:space="preserve" text-anchor="middle" x="3245.12" y="-111" font-family="Arial" font-size="10.00">mt#273</text>
<text xml:space="preserve" text-anchor="middle" x="3245.12" y="-99" font-family="Arial" font-size="10.00">Implement AI&#45;Powered PR Conten</text>
</g>
<!-- mt_203 -->
<g id="node38" class="node">
<title>mt_203</title>
<path fill="#34d399" stroke="#059669" stroke-width="2" d="M3116.6,-36C3116.6,-36 2965.65,-36 2965.65,-36 2959.65,-36 2953.65,-30 2953.65,-24 2953.65,-24 2953.65,-12 2953.65,-12 2953.65,-6 2959.65,0 2965.65,0 2965.65,0 3116.6,0 3116.6,0 3122.6,0 3128.6,-6 3128.6,-12 3128.6,-12 3128.6,-24 3128.6,-24 3128.6,-30 3122.6,-36 3116.6,-36"/>
<text xml:space="preserve" text-anchor="middle" x="3041.12" y="-21" font-family="Arial" font-size="10.00">mt#203</text>
<text xml:space="preserve" text-anchor="middle" x="3041.12" y="-9" font-family="Arial" font-size="10.00">Improve Session PR Command Out</text>
</g>
<!-- mt_203&#45;&gt;mt_273 -->
<g id="edge42" class="edge">
<title>mt_203&#45;&gt;mt_273</title>
<path fill="none" stroke="#4a5568" stroke-width="2" d="M3082.4,-36.81C3114.92,-50.84 3160.39,-70.45 3195,-85.38"/>
<polygon fill="#4a5568" stroke="#4a5568" stroke-width="2" points="3192.32,-87.27 3200.77,-87.87 3194.53,-82.13 3192.32,-87.27"/>
</g>
<!-- mt_010 -->
<g id="node39" class="node">
<title>mt_010</title>
<path fill="#34d399" stroke="#059669" stroke-width="2" d="M3313.94,-36C3313.94,-36 3176.31,-36 3176.31,-36 3170.31,-36 3164.31,-30 3164.31,-24 3164.31,-24 3164.31,-12 3164.31,-12 3164.31,-6 3170.31,0 3176.31,0 3176.31,0 3313.94,0 3313.94,0 3319.94,0 3325.94,-6 3325.94,-12 3325.94,-12 3325.94,-24 3325.94,-24 3325.94,-30 3319.94,-36 3313.94,-36"/>
<text xml:space="preserve" text-anchor="middle" x="3245.12" y="-21" font-family="Arial" font-size="10.00">mt#010</text>
<text xml:space="preserve" text-anchor="middle" x="3245.12" y="-9" font-family="Arial" font-size="10.00">~~Enhance `git pr` Command to </text>
</g>
<!-- mt_010&#45;&gt;mt_273 -->
<g id="edge43" class="edge">
<title>mt_010&#45;&gt;mt_273</title>
<path fill="none" stroke="#4a5568" stroke-width="2" d="M3245.12,-36.81C3245.12,-49.21 3245.12,-65.98 3245.12,-80.02"/>
<polygon fill="#4a5568" stroke="#4a5568" stroke-width="2" points="3242.32,-78.19 3245.12,-86.19 3247.92,-78.19 3242.32,-78.19"/>
</g>
<!-- mt_025 -->
<g id="node40" class="node">
<title>mt_025</title>
<path fill="#34d399" stroke="#059669" stroke-width="2" d="M3522.49,-36C3522.49,-36 3373.75,-36 3373.75,-36 3367.75,-36 3361.75,-30 3361.75,-24 3361.75,-24 3361.75,-12 3361.75,-12 3361.75,-6 3367.75,0 3373.75,0 3373.75,0 3522.49,0 3522.49,0 3528.49,0 3534.49,-6 3534.49,-12 3534.49,-12 3534.49,-24 3534.49,-24 3534.49,-30 3528.49,-36 3522.49,-36"/>
<text xml:space="preserve" text-anchor="middle" x="3448.12" y="-21" font-family="Arial" font-size="10.00">mt#025</text>
<text xml:space="preserve" text-anchor="middle" x="3448.12" y="-9" font-family="Arial" font-size="10.00">Add PR Merging Commands for Se</text>
</g>
<!-- mt_025&#45;&gt;mt_273 -->
<g id="edge44" class="edge">
<title>mt_025&#45;&gt;mt_273</title>
<path fill="none" stroke="#4a5568" stroke-width="2" d="M3407.04,-36.81C3374.68,-50.84 3329.43,-70.45 3295,-85.38"/>
<polygon fill="#4a5568" stroke="#4a5568" stroke-width="2" points="3295.49,-82.11 3289.26,-87.86 3297.72,-87.25 3295.49,-82.11"/>
</g>
<!-- mt_277 -->
<g id="node44" class="node">
<title>mt_277</title>
<path fill="#e2e8f0" stroke="#64748b" stroke-width="2" d="M3719.59,-126C3719.59,-126 3578.65,-126 3578.65,-126 3572.65,-126 3566.65,-120 3566.65,-114 3566.65,-114 3566.65,-102 3566.65,-102 3566.65,-96 3572.65,-90 3578.65,-90 3578.65,-90 3719.59,-90 3719.59,-90 3725.59,-90 3731.59,-96 3731.59,-102 3731.59,-102 3731.59,-114 3731.59,-114 3731.59,-120 3725.59,-126 3719.59,-126"/>
<text xml:space="preserve" text-anchor="middle" x="3649.12" y="-111" font-family="Arial" font-size="10.00">mt#277</text>
<text xml:space="preserve" text-anchor="middle" x="3649.12" y="-99" font-family="Arial" font-size="10.00">Implement Stacked PR Workflow </text>
</g>
<!-- mt_025&#45;&gt;mt_277 -->
<g id="edge50" class="edge">
<title>mt_025&#45;&gt;mt_277</title>
<path fill="none" stroke="#4a5568" stroke-width="2" d="M3488.8,-36.81C3520.84,-50.84 3565.64,-70.45 3599.74,-85.38"/>
<polygon fill="#4a5568" stroke="#4a5568" stroke-width="2" points="3596.94,-87.21 3605.39,-87.85 3599.18,-82.08 3596.94,-87.21"/>
</g>
<!-- mt_262 -->
<g id="node41" class="node">
<title>mt_262</title>
<path fill="#e2e8f0" stroke="#64748b" stroke-width="2" d="M4006.82,-126C4006.82,-126 3881.42,-126 3881.42,-126 3875.42,-126 3869.42,-120 3869.42,-114 3869.42,-114 3869.42,-102 3869.42,-102 3869.42,-96 3875.42,-90 3881.42,-90 3881.42,-90 4006.82,-90 4006.82,-90 4012.82,-90 4018.82,-96 4018.82,-102 4018.82,-102 4018.82,-114 4018.82,-114 4018.82,-120 4012.82,-126 4006.82,-126"/>
<text xml:space="preserve" text-anchor="middle" x="3944.12" y="-111" font-family="Arial" font-size="10.00">mt#262</text>
<text xml:space="preserve" text-anchor="middle" x="3944.12" y="-99" font-family="Arial" font-size="10.00">Explore consolidating ESLint r</text>
</g>
<!-- mt_178 -->
<g id="node42" class="node">
<title>mt_178</title>
<path fill="#34d399" stroke="#059669" stroke-width="2" d="M4112.54,-36C4112.54,-36 3977.7,-36 3977.7,-36 3971.7,-36 3965.7,-30 3965.7,-24 3965.7,-24 3965.7,-12 3965.7,-12 3965.7,-6 3971.7,0 3977.7,0 3977.7,0 4112.54,0 4112.54,0 4118.54,0 4124.54,-6 4124.54,-12 4124.54,-12 4124.54,-24 4124.54,-24 4124.54,-30 4118.54,-36 4112.54,-36"/>
<text xml:space="preserve" text-anchor="middle" x="4045.12" y="-21" font-family="Arial" font-size="10.00">mt#178</text>
<text xml:space="preserve" text-anchor="middle" x="4045.12" y="-9" font-family="Arial" font-size="10.00">Establish Codemod Best Practic</text>
</g>
<!-- mt_178&#45;&gt;mt_262 -->
<g id="edge46" class="edge">
<title>mt_178&#45;&gt;mt_262</title>
<path fill="none" stroke="#4a5568" stroke-width="2" d="M4024.68,-36.81C4009.35,-50.17 3988.2,-68.59 3971.42,-83.21"/>
<polygon fill="#4a5568" stroke="#4a5568" stroke-width="2" points="3971,-79.86 3966.81,-87.23 3974.68,-84.09 3971,-79.86"/>
</g>
<!-- mt_268 -->
<g id="node43" class="node">
<title>mt_268</title>
<path fill="#e2e8f0" stroke="#64748b" stroke-width="2" d="M4219.7,-126C4219.7,-126 4066.54,-126 4066.54,-126 4060.54,-126 4054.54,-120 4054.54,-114 4054.54,-114 4054.54,-102 4054.54,-102 4054.54,-96 4060.54,-90 4066.54,-90 4066.54,-90 4219.7,-90 4219.7,-90 4225.7,-90 4231.7,-96 4231.7,-102 4231.7,-102 4231.7,-114 4231.7,-114 4231.7,-120 4225.7,-126 4219.7,-126"/>
<text xml:space="preserve" text-anchor="middle" x="4143.12" y="-111" font-family="Arial" font-size="10.00">mt#268</text>
<text xml:space="preserve" text-anchor="middle" x="4143.12" y="-99" font-family="Arial" font-size="10.00">Complete AST&#45;Only Codemod Fram</text>
</g>
<!-- mt_178&#45;&gt;mt_268 -->
<g id="edge47" class="edge">
<title>mt_178&#45;&gt;mt_268</title>
<path fill="none" stroke="#4a5568" stroke-width="2" d="M4064.95,-36.81C4079.83,-50.17 4100.35,-68.59 4116.63,-83.21"/>
<polygon fill="#4a5568" stroke="#4a5568" stroke-width="2" points="4113.24,-83.93 4121.07,-87.2 4116.98,-79.77 4113.24,-83.93"/>
</g>
<!-- mt_144 -->
<g id="node45" class="node">
<title>mt_144</title>
<path fill="#34d399" stroke="#059669" stroke-width="2" d="M3715.98,-36C3715.98,-36 3582.26,-36 3582.26,-36 3576.26,-36 3570.26,-30 3570.26,-24 3570.26,-24 3570.26,-12 3570.26,-12 3570.26,-6 3576.26,0 3582.26,0 3582.26,0 3715.98,0 3715.98,0 3721.98,0 3727.98,-6 3727.98,-12 3727.98,-12 3727.98,-24 3727.98,-24 3727.98,-30 3721.98,-36 3715.98,-36"/>
<text xml:space="preserve" text-anchor="middle" x="3649.12" y="-21" font-family="Arial" font-size="10.00">mt#144</text>
<text xml:space="preserve" text-anchor="middle" x="3649.12" y="-9" font-family="Arial" font-size="10.00">Fix Session PR and Git Prepare</text>
</g>
<!-- mt_144&#45;&gt;mt_277 -->
<g id="edge48" class="edge">
<title>mt_144&#45;&gt;mt_277</title>
<path fill="none" stroke="#4a5568" stroke-width="2" d="M3649.12,-36.81C3649.12,-49.21 3649.12,-65.98 3649.12,-80.02"/>
<polygon fill="#4a5568" stroke="#4a5568" stroke-width="2" points="3646.32,-78.19 3649.12,-86.19 3651.92,-78.19 3646.32,-78.19"/>
</g>
<!-- mt_174 -->
<g id="node46" class="node">
<title>mt_174</title>
<path fill="#34d399" stroke="#059669" stroke-width="2" d="M3917.86,-36C3917.86,-36 3776.38,-36 3776.38,-36 3770.38,-36 3764.38,-30 3764.38,-24 3764.38,-24 3764.38,-12 3764.38,-12 3764.38,-6 3770.38,0 3776.38,0 3776.38,0 3917.86,0 3917.86,0 3923.86,0 3929.86,-6 3929.86,-12 3929.86,-12 3929.86,-24 3929.86,-24 3929.86,-30 3923.86,-36 3917.86,-36"/>
<text xml:space="preserve" text-anchor="middle" x="3847.12" y="-21" font-family="Arial" font-size="10.00">mt#174</text>
<text xml:space="preserve" text-anchor="middle" x="3847.12" y="-9" font-family="Arial" font-size="10.00">Review Session PR Workflow Arc</text>
</g>
<!-- mt_174&#45;&gt;mt_277 -->
<g id="edge49" class="edge">
<title>mt_174&#45;&gt;mt_277</title>
<path fill="none" stroke="#4a5568" stroke-width="2" d="M3807.05,-36.81C3775.49,-50.84 3731.36,-70.45 3697.77,-85.38"/>
<polygon fill="#4a5568" stroke="#4a5568" stroke-width="2" points="3698.41,-82.03 3692.23,-87.84 3700.68,-87.15 3698.41,-82.03"/>
</g>
<!-- mt_307 -->
<g id="node49" class="node">
<title>mt_307</title>
<path fill="#34d399" stroke="#059669" stroke-width="2" d="M1305.27,-126C1305.27,-126 1180.97,-126 1180.97,-126 1174.97,-126 1168.97,-120 1168.97,-114 1168.97,-114 1168.97,-102 1168.97,-102 1168.97,-96 1174.97,-90 1180.97,-90 1180.97,-90 1305.27,-90 1305.27,-90 1311.27,-90 1317.27,-96 1317.27,-102 1317.27,-102 1317.27,-114 1317.27,-114 1317.27,-120 1311.27,-126 1305.27,-126"/>
<text xml:space="preserve" text-anchor="middle" x="1243.12" y="-111" font-family="Arial" font-size="10.00">mt#307</text>
<text xml:space="preserve" text-anchor="middle" x="1243.12" y="-99" font-family="Arial" font-size="10.00">Explore adding session lint co</text>
</g>
<!-- mt_307&#45;&gt;mt_321 -->
<g id="edge54" class="edge">
<title>mt_307&#45;&gt;mt_321</title>
<path fill="none" stroke="#4a5568" stroke-width="2" d="M1265.38,-126.81C1282.23,-140.29 1305.52,-158.92 1323.87,-173.6"/>
<polygon fill="#4a5568" stroke="#4a5568" stroke-width="2" points="1320.53,-174.52 1328.53,-177.33 1324.03,-170.14 1320.53,-174.52"/>
</g>
<!-- mt_324 -->
<g id="node50" class="node">
<title>mt_324</title>
<path fill="#e2e8f0" stroke="#64748b" stroke-width="2" d="M4509.98,-126C4509.98,-126 4376.26,-126 4376.26,-126 4370.26,-126 4364.26,-120 4364.26,-114 4364.26,-114 4364.26,-102 4364.26,-102 4364.26,-96 4370.26,-90 4376.26,-90 4376.26,-90 4509.98,-90 4509.98,-90 4515.98,-90 4521.98,-96 4521.98,-102 4521.98,-102 4521.98,-114 4521.98,-114 4521.98,-120 4515.98,-126 4509.98,-126"/>
<text xml:space="preserve" text-anchor="middle" x="4443.12" y="-111" font-family="Arial" font-size="10.00">mt#324</text>
<text xml:space="preserve" text-anchor="middle" x="4443.12" y="-99" font-family="Arial" font-size="10.00">Add MCP Client Registration Fu</text>
</g>
<!-- mt_047 -->
<g id="node51" class="node">
<title>mt_047</title>
<path fill="#34d399" stroke="#059669" stroke-width="2" d="M4312.64,-36C4312.64,-36 4175.6,-36 4175.6,-36 4169.6,-36 4163.6,-30 4163.6,-24 4163.6,-24 4163.6,-12 4163.6,-12 4163.6,-6 4169.6,0 4175.6,0 4175.6,0 4312.64,0 4312.64,0 4318.64,0 4324.64,-6 4324.64,-12 4324.64,-12 4324.64,-24 4324.64,-24 4324.64,-30 4318.64,-36 4312.64,-36"/>
<text xml:space="preserve" text-anchor="middle" x="4244.12" y="-21" font-family="Arial" font-size="10.00">mt#047</text>
<text xml:space="preserve" text-anchor="middle" x="4244.12" y="-9" font-family="Arial" font-size="10.00">Configure MCP Server in Minsky</text>
</g>
<!-- mt_047&#45;&gt;mt_324 -->
<g id="edge56" class="edge">
<title>mt_047&#45;&gt;mt_324</title>
<path fill="none" stroke="#4a5568" stroke-width="2" d="M4284.39,-36.81C4316.11,-50.84 4360.47,-70.45 4394.23,-85.38"/>
<polygon fill="#4a5568" stroke="#4a5568" stroke-width="2" points="4391.35,-87.17 4399.8,-87.84 4393.62,-82.05 4391.35,-87.17"/>
</g>
<!-- mt_282 -->
<g id="node52" class="node">
<title>mt_282</title>
<path fill="#34d399" stroke="#059669" stroke-width="2" d="M4513.3,-36C4513.3,-36 4372.94,-36 4372.94,-36 4366.94,-36 4360.94,-30 4360.94,-24 4360.94,-24 4360.94,-12 4360.94,-12 4360.94,-6 4366.94,0 4372.94,0 4372.94,0 4513.3,0 4513.3,0 4519.3,0 4525.3,-6 4525.3,-12 4525.3,-12 4525.3,-24 4525.3,-24 4525.3,-30 4519.3,-36 4513.3,-36"/>
<text xml:space="preserve" text-anchor="middle" x="4443.12" y="-21" font-family="Arial" font-size="10.00">mt#282</text>
<text xml:space="preserve" text-anchor="middle" x="4443.12" y="-9" font-family="Arial" font-size="10.00">Port MCP Server from FastMCP t</text>
</g>
<!-- mt_282&#45;&gt;mt_324 -->
<g id="edge57" class="edge">
<title>mt_282&#45;&gt;mt_324</title>
<path fill="none" stroke="#4a5568" stroke-width="2" d="M4443.12,-36.81C4443.12,-49.21 4443.12,-65.98 4443.12,-80.02"/>
<polygon fill="#4a5568" stroke="#4a5568" stroke-width="2" points="4440.32,-78.19 4443.12,-86.19 4445.92,-78.19 4440.32,-78.19"/>
</g>
<!-- mt_286 -->
<g id="node53" class="node">
<title>mt_286</title>
<path fill="#34d399" stroke="#059669" stroke-width="2" d="M4708.53,-36C4708.53,-36 4573.71,-36 4573.71,-36 4567.71,-36 4561.71,-30 4561.71,-24 4561.71,-24 4561.71,-12 4561.71,-12 4561.71,-6 4567.71,0 4573.71,0 4573.71,0 4708.53,0 4708.53,0 4714.53,0 4720.53,-6 4720.53,-12 4720.53,-12 4720.53,-24 4720.53,-24 4720.53,-30 4714.53,-36 4708.53,-36"/>
<text xml:space="preserve" text-anchor="middle" x="4641.12" y="-21" font-family="Arial" font-size="10.00">mt#286</text>
<text xml:space="preserve" text-anchor="middle" x="4641.12" y="-9" font-family="Arial" font-size="10.00">Fix MCP Server and CLI Issues </text>
</g>
<!-- mt_286&#45;&gt;mt_324 -->
<g id="edge58" class="edge">
<title>mt_286&#45;&gt;mt_324</title>
<path fill="none" stroke="#4a5568" stroke-width="2" d="M4601.05,-36.81C4569.49,-50.84 4525.36,-70.45 4491.77,-85.38"/>
<polygon fill="#4a5568" stroke="#4a5568" stroke-width="2" points="4492.41,-82.03 4486.23,-87.84 4494.68,-87.15 4492.41,-82.03"/>
</g>
<!-- mt_349&#45;&gt;mt_441 -->
<g id="edge65" class="edge">
<title>mt_349&#45;&gt;mt_441</title>
<path fill="none" stroke="#4a5568" stroke-width="2" d="M1124.58,-306.81C1155.54,-320.78 1198.76,-340.28 1231.79,-355.19"/>
<polygon fill="#4a5568" stroke="#4a5568" stroke-width="2" points="1229.18,-357.08 1237.62,-357.82 1231.48,-351.98 1229.18,-357.08"/>
</g>
<!-- mt_349&#45;&gt;mt_442 -->
<g id="edge72" class="edge">
<title>mt_349&#45;&gt;mt_442</title>
<path fill="none" stroke="#4a5568" stroke-width="2" d="M1033.46,-306.85C980.24,-326.92 910.62,-359.06 953.12,-377"/>
</g>
<!-- mt_350 -->
<g id="node55" class="node">
<title>mt_350</title>
<path fill="#e2e8f0" stroke="#64748b" stroke-width="2" d="M4906.43,-126C4906.43,-126 4763.81,-126 4763.81,-126 4757.81,-126 4751.81,-120 4751.81,-114 4751.81,-114 4751.81,-102 4751.81,-102 4751.81,-96 4757.81,-90 4763.81,-90 4763.81,-90 4906.43,-90 4906.43,-90 4912.43,-90 4918.43,-96 4918.43,-102 4918.43,-102 4918.43,-114 4918.43,-114 4918.43,-120 4912.43,-126 4906.43,-126"/>
<text xml:space="preserve" text-anchor="middle" x="4835.12" y="-111" font-family="Arial" font-size="10.00">mt#350</text>
<text xml:space="preserve" text-anchor="middle" x="4835.12" y="-99" font-family="Arial" font-size="10.00">Explore Active Sessions Comman</text>
</g>
<!-- mt_229 -->
<g id="node56" class="node">
<title>mt_229</title>
<path fill="#34d399" stroke="#059669" stroke-width="2" d="M4901.99,-36C4901.99,-36 4768.25,-36 4768.25,-36 4762.25,-36 4756.25,-30 4756.25,-24 4756.25,-24 4756.25,-12 4756.25,-12 4756.25,-6 4762.25,0 4768.25,0 4768.25,0 4901.99,0 4901.99,0 4907.99,0 4913.99,-6 4913.99,-12 4913.99,-12 4913.99,-24 4913.99,-24 4913.99,-30 4907.99,-36 4901.99,-36"/>
<text xml:space="preserve" text-anchor="middle" x="4835.12" y="-21" font-family="Arial" font-size="10.00">mt#229</text>
<text xml:space="preserve" text-anchor="middle" x="4835.12" y="-9" font-family="Arial" font-size="10.00">Evaluate mandatory task&#45;sessio</text>
</g>
<!-- mt_229&#45;&gt;mt_350 -->
<g id="edge60" class="edge">
<title>mt_229&#45;&gt;mt_350</title>
<path fill="none" stroke="#4a5568" stroke-width="2" d="M4835.12,-36.81C4835.12,-49.21 4835.12,-65.98 4835.12,-80.02"/>
<polygon fill="#4a5568" stroke="#4a5568" stroke-width="2" points="4832.32,-78.19 4835.12,-86.19 4837.92,-78.19 4832.32,-78.19"/>
</g>
<!-- mt_363 -->
<g id="node58" class="node">
<title>mt_363</title>
<path fill="#e2e8f0" stroke="#64748b" stroke-width="2" d="M5199.38,-126C5199.38,-126 5062.86,-126 5062.86,-126 5056.86,-126 5050.86,-120 5050.86,-114 5050.86,-114 5050.86,-102 5050.86,-102 5050.86,-96 5056.86,-90 5062.86,-90 5062.86,-90 5199.38,-90 5199.38,-90 5205.38,-90 5211.38,-96 5211.38,-102 5211.38,-102 5211.38,-114 5211.38,-114 5211.38,-120 5205.38,-126 5199.38,-126"/>
<text xml:space="preserve" text-anchor="middle" x="5131.12" y="-111" font-family="Arial" font-size="10.00">mt#363</text>
<text xml:space="preserve" text-anchor="middle" x="5131.12" y="-99" font-family="Arial" font-size="10.00">Implement Linear Backend for M</text>
</g>
<!-- mt_356 -->
<g id="node59" class="node">
<title>mt_356</title>
<path fill="#34d399" stroke="#059669" stroke-width="2" d="M5100.48,-36C5100.48,-36 4961.76,-36 4961.76,-36 4955.76,-36 4949.76,-30 4949.76,-24 4949.76,-24 4949.76,-12 4949.76,-12 4949.76,-6 4955.76,0 4961.76,0 4961.76,0 5100.48,0 5100.48,0 5106.48,0 5112.48,-6 5112.48,-12 5112.48,-12 5112.48,-24 5112.48,-24 5112.48,-30 5106.48,-36 5100.48,-36"/>
<text xml:space="preserve" text-anchor="middle" x="5031.12" y="-21" font-family="Arial" font-size="10.00">mt#356</text>
<text xml:space="preserve" text-anchor="middle" x="5031.12" y="-9" font-family="Arial" font-size="10.00">Implement Multi&#45;Backend Task S</text>
</g>
<!-- mt_356&#45;&gt;mt_363 -->
<g id="edge62" class="edge">
<title>mt_356&#45;&gt;mt_363</title>
<path fill="none" stroke="#4a5568" stroke-width="2" d="M5051.36,-36.81C5066.54,-50.17 5087.47,-68.59 5104.09,-83.21"/>
<polygon fill="#4a5568" stroke="#4a5568" stroke-width="2" points="5100.79,-84.04 5108.64,-87.22 5104.49,-79.83 5100.79,-84.04"/>
</g>
<!-- mt_357 -->
<g id="node60" class="node">
<title>mt_357</title>
<path fill="#34d399" stroke="#059669" stroke-width="2" d="M5293.71,-36C5293.71,-36 5160.53,-36 5160.53,-36 5154.53,-36 5148.53,-30 5148.53,-24 5148.53,-24 5148.53,-12 5148.53,-12 5148.53,-6 5154.53,0 5160.53,0 5160.53,0 5293.71,0 5293.71,0 5299.71,0 5305.71,-6 5305.71,-12 5305.71,-12 5305.71,-24 5305.71,-24 5305.71,-30 5299.71,-36 5293.71,-36"/>
<text xml:space="preserve" text-anchor="middle" x="5227.12" y="-21" font-family="Arial" font-size="10.00">mt#357</text>
<text xml:space="preserve" text-anchor="middle" x="5227.12" y="-9" font-family="Arial" font-size="10.00">Integrate GitHub Issues Backen</text>
</g>
<!-- mt_357&#45;&gt;mt_363 -->
<g id="edge63" class="edge">
<title>mt_357&#45;&gt;mt_363</title>
<path fill="none" stroke="#4a5568" stroke-width="2" d="M5207.69,-36.81C5193.25,-50.05 5173.38,-68.26 5157.5,-82.82"/>
<polygon fill="#4a5568" stroke="#4a5568" stroke-width="2" points="5156.76,-79.7 5152.75,-87.17 5160.54,-83.83 5156.76,-79.7"/>
</g>
<!-- mt_398 -->
<g id="node61" class="node">
<title>mt_398</title>
<path fill="#e2e8f0" stroke="#64748b" stroke-width="2" d="M5491.75,-126C5491.75,-126 5362.49,-126 5362.49,-126 5356.49,-126 5350.49,-120 5350.49,-114 5350.49,-114 5350.49,-102 5350.49,-102 5350.49,-96 5356.49,-90 5362.49,-90 5362.49,-90 5491.75,-90 5491.75,-90 5497.75,-90 5503.75,-96 5503.75,-102 5503.75,-102 5503.75,-114 5503.75,-114 5503.75,-120 5497.75,-126 5491.75,-126"/>
<text xml:space="preserve" text-anchor="middle" x="5427.12" y="-111" font-family="Arial" font-size="10.00">mt#398</text>
<text xml:space="preserve" text-anchor="middle" x="5427.12" y="-99" font-family="Arial" font-size="10.00">Improve test mock filesystem a</text>
</g>
<!-- mt_176 -->
<g id="node62" class="node">
<title>mt_176</title>
<path fill="#34d399" stroke="#059669" stroke-width="2" d="M5500.11,-36C5500.11,-36 5354.13,-36 5354.13,-36 5348.13,-36 5342.13,-30 5342.13,-24 5342.13,-24 5342.13,-12 5342.13,-12 5342.13,-6 5348.13,0 5354.13,0 5354.13,0 5500.11,0 5500.11,0 5506.11,0 5512.11,-6 5512.11,-12 5512.11,-12 5512.11,-24 5512.11,-24 5512.11,-30 5506.11,-36 5500.11,-36"/>
<text xml:space="preserve" text-anchor="middle" x="5427.12" y="-21" font-family="Arial" font-size="10.00">mt#176</text>
<text xml:space="preserve" text-anchor="middle" x="5427.12" y="-9" font-family="Arial" font-size="10.00">Comprehensive Session Database</text>
</g>
<!-- mt_176&#45;&gt;mt_398 -->
<g id="edge64" class="edge">
<title>mt_176&#45;&gt;mt_398</title>
<path fill="none" stroke="#4a5568" stroke-width="2" d="M5427.12,-36.81C5427.12,-49.21 5427.12,-65.98 5427.12,-80.02"/>
<polygon fill="#4a5568" stroke="#4a5568" stroke-width="2" points="5424.32,-78.19 5427.12,-86.19 5429.92,-78.19 5424.32,-78.19"/>
</g>
<!-- mt_441&#45;&gt;mt_442 -->
<g id="edge71" class="edge">
<title>mt_441&#45;&gt;mt_442</title>
<path fill="none" stroke="#4a5568" stroke-width="2" d="M1295.1,-396.81C1306.03,-409.81 1321,-427.61 1333.12,-442.03"/>
<polygon fill="#4a5568" stroke="#4a5568" stroke-width="2" points="1329.93,-442.58 1337.22,-446.9 1334.21,-438.98 1329.93,-442.58"/>
</g>
<!-- mt_256 -->
<g id="node64" class="node">
<title>mt_256</title>
<path fill="#34d399" stroke="#059669" stroke-width="2" d="M1350.59,-306C1350.59,-306 1209.65,-306 1209.65,-306 1203.65,-306 1197.65,-300 1197.65,-294 1197.65,-294 1197.65,-282 1197.65,-282 1197.65,-276 1203.65,-270 1209.65,-270 1209.65,-270 1350.59,-270 1350.59,-270 1356.59,-270 1362.59,-276 1362.59,-282 1362.59,-282 1362.59,-294 1362.59,-294 1362.59,-300 1356.59,-306 1350.59,-306"/>
<text xml:space="preserve" text-anchor="middle" x="1280.12" y="-291" font-family="Arial" font-size="10.00">mt#256</text>
<text xml:space="preserve" text-anchor="middle" x="1280.12" y="-279" font-family="Arial" font-size="10.00">Implement Context&#45;Aware Tool M</text>
</g>
<!-- mt_256&#45;&gt;mt_441 -->
<g id="edge66" class="edge">
<title>mt_256&#45;&gt;mt_441</title>
<path fill="none" stroke="#4a5568" stroke-width="2" d="M1280.12,-306.81C1280.12,-319.21 1280.12,-335.98 1280.12,-350.02"/>
<polygon fill="#4a5568" stroke="#4a5568" stroke-width="2" points="1277.32,-348.19 1280.12,-356.19 1282.92,-348.19 1277.32,-348.19"/>
</g>
<!-- mt_256&#45;&gt;mt_442 -->
<g id="edge76" class="edge">
<title>mt_256&#45;&gt;mt_442</title>
<path fill="none" stroke="#4a5568" stroke-width="2" d="M1489.12,-379C1473.01,-409.51 1441.09,-431.05 1412.33,-445.18"/>
<polygon fill="#4a5568" stroke="#4a5568" stroke-width="2" points="1412.7,-441.9 1406.67,-447.85 1415.1,-446.97 1412.7,-441.9"/>
<path fill="none" stroke="#4a5568" stroke-width="2" d="M1359.64,-306.93C1424.51,-323.71 1503.3,-350.15 1489.12,-377"/>
</g>
<!-- mt_082 -->
<g id="node65" class="node">
<title>mt_082</title>
<path fill="#34d399" stroke="#059669" stroke-width="2" d="M1567.66,-306C1567.66,-306 1410.58,-306 1410.58,-306 1404.58,-306 1398.58,-300 1398.58,-294 1398.58,-294 1398.58,-282 1398.58,-282 1398.58,-276 1404.58,-270 1410.58,-270 1410.58,-270 1567.66,-270 1567.66,-270 1573.66,-270 1579.66,-276 1579.66,-282 1579.66,-282 1579.66,-294 1579.66,-294 1579.66,-300 1573.66,-306 1567.66,-306"/>
<text xml:space="preserve" text-anchor="middle" x="1489.12" y="-291" font-family="Arial" font-size="10.00">mt#082</text>
<text xml:space="preserve" text-anchor="middle" x="1489.12" y="-279" font-family="Arial" font-size="10.00">Add Context Management Command</text>
</g>
<!-- mt_082&#45;&gt;mt_441 -->
<g id="edge70" class="edge">
<title>mt_082&#45;&gt;mt_441</title>
<path fill="none" stroke="#4a5568" stroke-width="2" d="M1446.57,-306.91C1413.24,-320.95 1366.73,-340.53 1331.35,-355.43"/>
<polygon fill="#4a5568" stroke="#4a5568" stroke-width="2" points="1331.68,-352.25 1325.4,-357.94 1333.86,-357.41 1331.68,-352.25"/>
</g>
<!-- mt_082&#45;&gt;mt_442 -->
<g id="edge74" class="edge">
<title>mt_082&#45;&gt;mt_442</title>
<path fill="none" stroke="#4a5568" stroke-width="2" d="M1493.72,-306.68C1497.57,-325.32 1500.75,-354.98 1489.12,-377"/>
</g>
<!-- mt_235 -->
<g id="node67" class="node">
<title>mt_235</title>
<path fill="#34d399" stroke="#059669" stroke-width="2" d="M1686.33,-396C1686.33,-396 1555.91,-396 1555.91,-396 1549.91,-396 1543.91,-390 1543.91,-384 1543.91,-384 1543.91,-372 1543.91,-372 1543.91,-366 1549.91,-360 1555.91,-360 1555.91,-360 1686.33,-360 1686.33,-360 1692.33,-360 1698.33,-366 1698.33,-372 1698.33,-372 1698.33,-384 1698.33,-384 1698.33,-390 1692.33,-396 1686.33,-396"/>
<text xml:space="preserve" text-anchor="middle" x="1621.12" y="-381" font-family="Arial" font-size="10.00">mt#235</text>
<text xml:space="preserve" text-anchor="middle" x="1621.12" y="-369" font-family="Arial" font-size="10.00">Add metadata support to tasks </text>
</g>
<!-- mt_235&#45;&gt;mt_258 -->
<g id="edge83" class="edge">
<title>mt_235&#45;&gt;mt_258</title>
<path fill="none" stroke="#4a5568" stroke-width="2" d="M1621.12,-396.81C1621.12,-409.21 1621.12,-425.98 1621.12,-440.02"/>
<polygon fill="#4a5568" stroke="#4a5568" stroke-width="2" points="1618.32,-438.19 1621.12,-446.19 1623.92,-438.19 1618.32,-438.19"/>
</g>
<!-- mt_235&#45;&gt;mt_442 -->
<g id="edge78" class="edge">
<title>mt_235&#45;&gt;mt_442</title>
<path fill="none" stroke="#4a5568" stroke-width="2" d="M1566.77,-396.91C1523.46,-411.19 1462.75,-431.2 1417.28,-446.18"/>
<polygon fill="#4a5568" stroke="#4a5568" stroke-width="2" points="1417.99,-443 1411.27,-448.16 1419.75,-448.32 1417.99,-443"/>
</g>
<!-- mt_190 -->
<g id="node68" class="node">
<title>mt_190</title>
<path fill="#e2e8f0" stroke="#64748b" stroke-width="2" d="M5799.21,-126C5799.21,-126 5661.03,-126 5661.03,-126 5655.03,-126 5649.03,-120 5649.03,-114 5649.03,-114 5649.03,-102 5649.03,-102 5649.03,-96 5655.03,-90 5661.03,-90 5661.03,-90 5799.21,-90 5799.21,-90 5805.21,-90 5811.21,-96 5811.21,-102 5811.21,-102 5811.21,-114 5811.21,-114 5811.21,-120 5805.21,-126 5799.21,-126"/>
<text xml:space="preserve" text-anchor="middle" x="5730.12" y="-111" font-family="Arial" font-size="10.00">mt#190</text>
<text xml:space="preserve" text-anchor="middle" x="5730.12" y="-99" font-family="Arial" font-size="10.00">Design Containerized Session W</text>
</g>
<!-- mt_150 -->
<g id="node69" class="node">
<title>mt_150</title>
<path fill="#34d399" stroke="#059669" stroke-width="2" d="M5696.39,-36C5696.39,-36 5559.85,-36 5559.85,-36 5553.85,-36 5547.85,-30 5547.85,-24 5547.85,-24 5547.85,-12 5547.85,-12 5547.85,-6 5553.85,0 5559.85,0 5559.85,0 5696.39,0 5696.39,0 5702.39,0 5708.39,-6 5708.39,-12 5708.39,-12 5708.39,-24 5708.39,-24 5708.39,-30 5702.39,-36 5696.39,-36"/>
<text xml:space="preserve" text-anchor="middle" x="5628.12" y="-21" font-family="Arial" font-size="10.00">mt#150</text>
<text xml:space="preserve" text-anchor="middle" x="5628.12" y="-9" font-family="Arial" font-size="10.00">Add &#45;&#45;body&#45;path Option and Req</text>
</g>
<!-- mt_150&#45;&gt;mt_190 -->
<g id="edge80" class="edge">
<title>mt_150&#45;&gt;mt_190</title>
<path fill="none" stroke="#4a5568" stroke-width="2" d="M5648.76,-36.81C5664.25,-50.17 5685.6,-68.59 5702.55,-83.21"/>
<polygon fill="#4a5568" stroke="#4a5568" stroke-width="2" points="5699.33,-84.14 5707.22,-87.24 5702.99,-79.9 5699.33,-84.14"/>
</g>
<!-- mt_049 -->
<g id="node70" class="node">
<title>mt_049</title>
<path fill="#34d399" stroke="#059669" stroke-width="2" d="M5905.49,-36C5905.49,-36 5756.75,-36 5756.75,-36 5750.75,-36 5744.75,-30 5744.75,-24 5744.75,-24 5744.75,-12 5744.75,-12 5744.75,-6 5750.75,0 5756.75,0 5756.75,0 5905.49,0 5905.49,0 5911.49,0 5917.49,-6 5917.49,-12 5917.49,-12 5917.49,-24 5917.49,-24 5917.49,-30 5911.49,-36 5905.49,-36"/>
<text xml:space="preserve" text-anchor="middle" x="5831.12" y="-21" font-family="Arial" font-size="10.00">mt#049</text>
<text xml:space="preserve" text-anchor="middle" x="5831.12" y="-9" font-family="Arial" font-size="10.00">Implement Session&#45;Scoped MCP S</text>
</g>
<!-- mt_049&#45;&gt;mt_190 -->
<g id="edge81" class="edge">
<title>mt_049&#45;&gt;mt_190</title>
<path fill="none" stroke="#4a5568" stroke-width="2" d="M5810.68,-36.81C5795.35,-50.17 5774.2,-68.59 5757.42,-83.21"/>
<polygon fill="#4a5568" stroke="#4a5568" stroke-width="2" points="5757,-79.86 5752.81,-87.23 5760.68,-84.09 5757,-79.86"/>
</g>
<!-- mt_302 -->
<g id="node71" class="node">
<title>mt_302</title>
<path fill="#e2e8f0" stroke="#64748b" stroke-width="2" d="M6106.22,-126C6106.22,-126 5968.02,-126 5968.02,-126 5962.02,-126 5956.02,-120 5956.02,-114 5956.02,-114 5956.02,-102 5956.02,-102 5956.02,-96 5962.02,-90 5968.02,-90 5968.02,-90 6106.22,-90 6106.22,-90 6112.22,-90 6118.22,-96 6118.22,-102 6118.22,-102 6118.22,-114 6118.22,-114 6118.22,-120 6112.22,-126 6106.22,-126"/>
<text xml:space="preserve" text-anchor="middle" x="6037.12" y="-111" font-family="Arial" font-size="10.00">mt#302</text>
<text xml:space="preserve" text-anchor="middle" x="6037.12" y="-99" font-family="Arial" font-size="10.00">Explore Exposing Rules and Doc</text>
</g>
<!-- mt_289 -->
<g id="node72" class="node">
<title>mt_289</title>
<path fill="#34d399" stroke="#059669" stroke-width="2" d="M6108.71,-36C6108.71,-36 5965.53,-36 5965.53,-36 5959.53,-36 5953.53,-30 5953.53,-24 5953.53,-24 5953.53,-12 5953.53,-12 5953.53,-6 5959.53,0 5965.53,0 5965.53,0 6108.71,0 6108.71,0 6114.71,0 6120.71,-6 6120.71,-12 6120.71,-12 6120.71,-24 6120.71,-24 6120.71,-30 6114.71,-36 6108.71,-36"/>
<text xml:space="preserve" text-anchor="middle" x="6037.12" y="-21" font-family="Arial" font-size="10.00">mt#289</text>
<text xml:space="preserve" text-anchor="middle" x="6037.12" y="-9" font-family="Arial" font-size="10.00">Implement Template&#45;Based Rules</text>
</g>
<!-- mt_289&#45;&gt;mt_302 -->
<g id="edge84" class="edge">
<title>mt_289&#45;&gt;mt_302</title>
<path fill="none" stroke="#4a5568" stroke-width="2" d="M6037.12,-36.81C6037.12,-49.21 6037.12,-65.98 6037.12,-80.02"/>
<polygon fill="#4a5568" stroke="#4a5568" stroke-width="2" points="6034.32,-78.19 6037.12,-86.19 6039.92,-78.19 6034.32,-78.19"/>
</g>
<!-- mt_454 -->
<g id="node75" class="node">
<title>mt_454</title>
<path fill="#e2e8f0" stroke="#64748b" stroke-width="2" d="M1873.07,-486C1873.07,-486 1747.17,-486 1747.17,-486 1741.17,-486 1735.17,-480 1735.17,-474 1735.17,-474 1735.17,-462 1735.17,-462 1735.17,-456 1741.17,-450 1747.17,-450 1747.17,-450 1873.07,-450 1873.07,-450 1879.07,-450 1885.07,-456 1885.07,-462 1885.07,-462 1885.07,-474 1885.07,-474 1885.07,-480 1879.07,-486 1873.07,-486"/>
<text xml:space="preserve" text-anchor="middle" x="1810.12" y="-471" font-family="Arial" font-size="10.00">mt#454</text>
<text xml:space="preserve" text-anchor="middle" x="1810.12" y="-459" font-family="Arial" font-size="10.00">Investigate &#39;seek human input&#39;</text>
</g>
<!-- mt_454&#45;&gt;mt_468 -->
<g id="edge89" class="edge">
<title>mt_454&#45;&gt;mt_468</title>
<path fill="none" stroke="#4a5568" stroke-width="2" d="M1810.93,-486.81C1811.49,-499.21 1812.26,-515.98 1812.89,-530.02"/>
<polygon fill="#4a5568" stroke="#4a5568" stroke-width="2" points="1810.01,-528.33 1813.17,-536.19 1815.61,-528.08 1810.01,-528.33"/>
</g>
<!-- mt_326 -->
<g id="node76" class="node">
<title>mt_326</title>
<path fill="#e2e8f0" stroke="#64748b" stroke-width="2" d="M2077.28,-486C2077.28,-486 1932.97,-486 1932.97,-486 1926.97,-486 1920.97,-480 1920.97,-474 1920.97,-474 1920.97,-462 1920.97,-462 1920.97,-456 1926.97,-450 1932.97,-450 1932.97,-450 2077.28,-450 2077.28,-450 2083.28,-450 2089.28,-456 2089.28,-462 2089.28,-462 2089.28,-474 2089.28,-474 2089.28,-480 2083.28,-486 2077.28,-486"/>
<text xml:space="preserve" text-anchor="middle" x="2005.12" y="-471" font-family="Arial" font-size="10.00">mt#326</text>
<text xml:space="preserve" text-anchor="middle" x="2005.12" y="-459" font-family="Arial" font-size="10.00">Explore embedding Outerbase DB</text>
</g>
<!-- mt_326&#45;&gt;mt_468 -->
<g id="edge90" class="edge">
<title>mt_326&#45;&gt;mt_468</title>
<path fill="none" stroke="#4a5568" stroke-width="2" d="M1966.47,-486.81C1936.15,-500.78 1893.81,-520.28 1861.46,-535.19"/>
<polygon fill="#4a5568" stroke="#4a5568" stroke-width="2" points="1861.89,-531.91 1855.79,-537.8 1864.23,-537 1861.89,-531.91"/>
</g>
</g>
</svg>
