<?xml version="1.0" encoding="UTF-8" standalone="no"?>
<!DOCTYPE svg PUBLIC "-//W3C//DTD SVG 1.1//EN"
 "http://www.w3.org/Graphics/SVG/1.1/DTD/svg11.dtd">
<!-- Generated by graphviz version 13.1.2 (0)
 -->
<!-- Title: TaskDependencies Pages: 1 -->
<svg width="5192pt" height="771pt"
 viewBox="4.00 4.00 5188.00 768.00" xmlns="http://www.w3.org/2000/svg" xmlns:xlink="http://www.w3.org/1999/xlink">
<g id="graph0" class="graph" transform="scale(1 1) rotate(0) translate(7.6 763.6)">
<title>TaskDependencies</title>
<!-- mt_041 -->
<g id="node1" class="node">
<title>mt_041</title>
<path fill="#e5e7eb" stroke="#374151" stroke-width="2" d="M114.46,-126C114.46,-126 15.33,-126 15.33,-126 9.33,-126 3.33,-120 3.33,-114 3.33,-114 3.33,-102 3.33,-102 3.33,-96 9.33,-90 15.33,-90 15.33,-90 114.46,-90 114.46,-90 120.46,-90 126.46,-96 126.46,-102 126.46,-102 126.46,-114 126.46,-114 126.46,-120 120.46,-126 114.46,-126"/>
<text xml:space="preserve" text-anchor="middle" x="64.9" y="-110.4" font-family="Arial" font-size="8.00">mt#041</text>
<text xml:space="preserve" text-anchor="middle" x="64.9" y="-100.8" font-family="Arial" font-size="8.00">Write Test Suite for Cursor Ru</text>
</g>
<!-- mt_067 -->
<g id="node2" class="node">
<title>mt_067</title>
<path fill="#bbf7d0" stroke="#16a34a" stroke-width="2" d="M117.79,-36C117.79,-36 12,-36 12,-36 6,-36 0,-30 0,-24 0,-24 0,-12 0,-12 0,-6 6,0 12,0 12,0 117.79,0 117.79,0 123.79,0 129.79,-6 129.79,-12 129.79,-12 129.79,-24 129.79,-24 129.79,-30 123.79,-36 117.79,-36"/>
<text xml:space="preserve" text-anchor="middle" x="64.9" y="-20.4" font-family="Arial" font-size="8.00">mt#067</text>
<text xml:space="preserve" text-anchor="middle" x="64.9" y="-10.8" font-family="Arial" font-size="8.00">Refactor `minsky&#45;workflow.mdc`</text>
</g>
<!-- mt_067&#45;&gt;mt_041 -->
<g id="edge1" class="edge">
<title>mt_067&#45;&gt;mt_041</title>
<path fill="none" stroke="#374151" d="M64.9,-36.81C64.9,-50.05 64.9,-68.26 64.9,-82.82"/>
<polygon fill="#374151" stroke="#374151" points="63.15,-82.7 64.9,-87.7 66.65,-82.7 63.15,-82.7"/>
</g>
<!-- mt_045 -->
<g id="node3" class="node">
<title>mt_045</title>
<path fill="#e5e7eb" stroke="#374151" stroke-width="2" d="M271.6,-126C271.6,-126 174.2,-126 174.2,-126 168.2,-126 162.2,-120 162.2,-114 162.2,-114 162.2,-102 162.2,-102 162.2,-96 168.2,-90 174.2,-90 174.2,-90 271.6,-90 271.6,-90 277.6,-90 283.6,-96 283.6,-102 283.6,-102 283.6,-114 283.6,-114 283.6,-120 277.6,-126 271.6,-126"/>
<text xml:space="preserve" text-anchor="middle" x="222.9" y="-110.4" font-family="Arial" font-size="8.00">mt#045</text>
<text xml:space="preserve" text-anchor="middle" x="222.9" y="-100.8" font-family="Arial" font-size="8.00">Setup Documentation Tooling</text>
</g>
<!-- mt_030 -->
<g id="node4" class="node">
<title>mt_030</title>
<path fill="#bbf7d0" stroke="#16a34a" stroke-width="2" d="M363.27,-36C363.27,-36 260.53,-36 260.53,-36 254.53,-36 248.53,-30 248.53,-24 248.53,-24 248.53,-12 248.53,-12 248.53,-6 254.53,0 260.53,0 260.53,0 363.27,0 363.27,0 369.27,0 375.27,-6 375.27,-12 375.27,-12 375.27,-24 375.27,-24 375.27,-30 369.27,-36 363.27,-36"/>
<text xml:space="preserve" text-anchor="middle" x="311.9" y="-20.4" font-family="Arial" font-size="8.00">mt#030</text>
<text xml:space="preserve" text-anchor="middle" x="311.9" y="-10.8" font-family="Arial" font-size="8.00">Setup Project Tooling and Auto</text>
</g>
<!-- mt_030&#45;&gt;mt_045 -->
<g id="edge2" class="edge">
<title>mt_030&#45;&gt;mt_045</title>
<path fill="none" stroke="#374151" d="M293.89,-36.81C279.89,-50.64 260.4,-69.91 245.39,-84.76"/>
<polygon fill="#374151" stroke="#374151" points="244.28,-83.39 241.96,-88.15 246.74,-85.88 244.28,-83.39"/>
</g>
<!-- mt_046 -->
<g id="node5" class="node">
<title>mt_046</title>
<path fill="#e5e7eb" stroke="#374151" stroke-width="2" d="M456.16,-126C456.16,-126 331.63,-126 331.63,-126 325.63,-126 319.63,-120 319.63,-114 319.63,-114 319.63,-102 319.63,-102 319.63,-96 325.63,-90 331.63,-90 331.63,-90 456.16,-90 456.16,-90 462.16,-90 468.16,-96 468.16,-102 468.16,-102 468.16,-114 468.16,-114 468.16,-120 462.16,-126 456.16,-126"/>
<text xml:space="preserve" text-anchor="middle" x="393.9" y="-110.4" font-family="Arial" font-size="8.00">mt#046</text>
<text xml:space="preserve" text-anchor="middle" x="393.9" y="-100.8" font-family="Arial" font-size="8.00">Document Dependency Management</text>
</g>
<!-- mt_030&#45;&gt;mt_046 -->
<g id="edge3" class="edge">
<title>mt_030&#45;&gt;mt_046</title>
<path fill="none" stroke="#374151" d="M328.49,-36.81C341.38,-50.64 359.34,-69.91 373.18,-84.76"/>
<polygon fill="#374151" stroke="#374151" points="371.61,-85.65 376.3,-88.11 374.17,-83.26 371.61,-85.65"/>
</g>
<!-- mt_090 -->
<g id="node6" class="node">
<title>mt_090</title>
<path fill="#e5e7eb" stroke="#374151" stroke-width="2" d="M617.8,-126C617.8,-126 515.99,-126 515.99,-126 509.99,-126 503.99,-120 503.99,-114 503.99,-114 503.99,-102 503.99,-102 503.99,-96 509.99,-90 515.99,-90 515.99,-90 617.8,-90 617.8,-90 623.8,-90 629.8,-96 629.8,-102 629.8,-102 629.8,-114 629.8,-114 629.8,-120 623.8,-126 617.8,-126"/>
<text xml:space="preserve" text-anchor="middle" x="566.9" y="-110.4" font-family="Arial" font-size="8.00">mt#090</text>
<text xml:space="preserve" text-anchor="middle" x="566.9" y="-100.8" font-family="Arial" font-size="8.00">Prepare for Future Non&#45;Filesys</text>
</g>
<!-- mt_080 -->
<g id="node7" class="node">
<title>mt_080</title>
<path fill="#bbf7d0" stroke="#16a34a" stroke-width="2" d="M623.14,-36C623.14,-36 510.65,-36 510.65,-36 504.65,-36 498.65,-30 498.65,-24 498.65,-24 498.65,-12 498.65,-12 498.65,-6 504.65,0 510.65,0 510.65,0 623.14,0 623.14,0 629.14,0 635.14,-6 635.14,-12 635.14,-12 635.14,-24 635.14,-24 635.14,-30 629.14,-36 623.14,-36"/>
<text xml:space="preserve" text-anchor="middle" x="566.9" y="-20.4" font-family="Arial" font-size="8.00">mt#080</text>
<text xml:space="preserve" text-anchor="middle" x="566.9" y="-10.8" font-family="Arial" font-size="8.00">Review Workspace and Repositor</text>
</g>
<!-- mt_080&#45;&gt;mt_090 -->
<g id="edge4" class="edge">
<title>mt_080&#45;&gt;mt_090</title>
<path fill="none" stroke="#374151" d="M566.9,-36.81C566.9,-50.05 566.9,-68.26 566.9,-82.82"/>
<polygon fill="#374151" stroke="#374151" points="565.15,-82.7 566.9,-87.7 568.65,-82.7 565.15,-82.7"/>
</g>
<!-- mt_162 -->
<g id="node8" class="node">
<title>mt_162</title>
<path fill="#e5e7eb" stroke="#374151" stroke-width="2" d="M1695.38,-126C1695.38,-126 1578.42,-126 1578.42,-126 1572.42,-126 1566.42,-120 1566.42,-114 1566.42,-114 1566.42,-102 1566.42,-102 1566.42,-96 1572.42,-90 1578.42,-90 1578.42,-90 1695.38,-90 1695.38,-90 1701.38,-90 1707.38,-96 1707.38,-102 1707.38,-102 1707.38,-114 1707.38,-114 1707.38,-120 1701.38,-126 1695.38,-126"/>
<text xml:space="preserve" text-anchor="middle" x="1636.9" y="-110.4" font-family="Arial" font-size="8.00">mt#162</text>
<text xml:space="preserve" text-anchor="middle" x="1636.9" y="-100.8" font-family="Arial" font-size="8.00">Research and Design Comprehens</text>
</g>
<!-- mt_202 -->
<g id="node12" class="node">
<title>mt_202</title>
<path fill="#e5e7eb" stroke="#374151" stroke-width="2" d="M1239.83,-306C1239.83,-306 1133.97,-306 1133.97,-306 1127.97,-306 1121.97,-300 1121.97,-294 1121.97,-294 1121.97,-282 1121.97,-282 1121.97,-276 1127.97,-270 1133.97,-270 1133.97,-270 1239.83,-270 1239.83,-270 1245.83,-270 1251.83,-276 1251.83,-282 1251.83,-282 1251.83,-294 1251.83,-294 1251.83,-300 1245.83,-306 1239.83,-306"/>
<text xml:space="preserve" text-anchor="middle" x="1186.9" y="-290.4" font-family="Arial" font-size="8.00">mt#202</text>
<text xml:space="preserve" text-anchor="middle" x="1186.9" y="-280.8" font-family="Arial" font-size="8.00">Rule Suggestion Evaluation and</text>
</g>
<!-- mt_162&#45;&gt;mt_202 -->
<g id="edge10" class="edge">
<title>mt_162&#45;&gt;mt_202</title>
<path fill="none" stroke="#374151" d="M1640.99,-126.85C1645.27,-150.56 1648.57,-192.21 1625.9,-216 1570.69,-273.92 1348.67,-255.97 1269.9,-270 1266.28,-270.64 1262.58,-271.33 1258.84,-272.03"/>
<polygon fill="#374151" stroke="#374151" points="1258.6,-270.29 1254.02,-272.95 1259.26,-273.73 1258.6,-270.29"/>
</g>
<!-- mt_250 -->
<g id="node13" class="node">
<title>mt_250</title>
<path fill="#e5e7eb" stroke="#374151" stroke-width="2" d="M1423.82,-216C1423.82,-216 1317.98,-216 1317.98,-216 1311.98,-216 1305.98,-210 1305.98,-204 1305.98,-204 1305.98,-192 1305.98,-192 1305.98,-186 1311.98,-180 1317.98,-180 1317.98,-180 1423.82,-180 1423.82,-180 1429.82,-180 1435.82,-186 1435.82,-192 1435.82,-192 1435.82,-204 1435.82,-204 1435.82,-210 1429.82,-216 1423.82,-216"/>
<text xml:space="preserve" text-anchor="middle" x="1370.9" y="-200.4" font-family="Arial" font-size="8.00">mt#250</text>
<text xml:space="preserve" text-anchor="middle" x="1370.9" y="-190.8" font-family="Arial" font-size="8.00">Investigate and Implement Sess</text>
</g>
<!-- mt_162&#45;&gt;mt_250 -->
<g id="edge29" class="edge">
<title>mt_162&#45;&gt;mt_250</title>
<path fill="none" stroke="#374151" d="M1582.75,-126.91C1538.7,-141.49 1476.59,-162.03 1431.01,-177.11"/>
<polygon fill="#374151" stroke="#374151" points="1430.6,-175.4 1426.41,-178.64 1431.7,-178.73 1430.6,-175.4"/>
</g>
<!-- mt_249 -->
<g id="node9" class="node">
<title>mt_249</title>
<path fill="#bbf7d0" stroke="#16a34a" stroke-width="2" d="M1563.71,-36C1563.71,-36 1460.09,-36 1460.09,-36 1454.09,-36 1448.09,-30 1448.09,-24 1448.09,-24 1448.09,-12 1448.09,-12 1448.09,-6 1454.09,0 1460.09,0 1460.09,0 1563.71,0 1563.71,0 1569.71,0 1575.71,-6 1575.71,-12 1575.71,-12 1575.71,-24 1575.71,-24 1575.71,-30 1569.71,-36 1563.71,-36"/>
<text xml:space="preserve" text-anchor="middle" x="1511.9" y="-20.4" font-family="Arial" font-size="8.00">mt#249</text>
<text xml:space="preserve" text-anchor="middle" x="1511.9" y="-10.8" font-family="Arial" font-size="8.00">Investigate and Improve Sessio</text>
</g>
<!-- mt_249&#45;&gt;mt_162 -->
<g id="edge5" class="edge">
<title>mt_249&#45;&gt;mt_162</title>
<path fill="none" stroke="#374151" d="M1537.19,-36.81C1557.18,-50.88 1585.16,-70.58 1606.39,-85.53"/>
<polygon fill="#374151" stroke="#374151" points="1605.3,-86.9 1610.4,-88.35 1607.32,-84.04 1605.3,-86.9"/>
</g>
<!-- mt_249&#45;&gt;mt_250 -->
<g id="edge30" class="edge">
<title>mt_249&#45;&gt;mt_250</title>
<path fill="none" stroke="#374151" d="M1509.26,-36.93C1505.18,-59.61 1495.54,-98.98 1474.9,-126 1458.94,-146.89 1435.02,-163.82 1414.15,-175.9"/>
<polygon fill="#374151" stroke="#374151" points="1413.44,-174.29 1409.95,-178.28 1415.16,-177.34 1413.44,-174.29"/>
</g>
<!-- mt_354 -->
<g id="node57" class="node">
<title>mt_354</title>
<path fill="#e5e7eb" stroke="#374151" stroke-width="2" d="M1113.59,-126C1113.59,-126 1004.2,-126 1004.2,-126 998.2,-126 992.2,-120 992.2,-114 992.2,-114 992.2,-102 992.2,-102 992.2,-96 998.2,-90 1004.2,-90 1004.2,-90 1113.59,-90 1113.59,-90 1119.59,-90 1125.59,-96 1125.59,-102 1125.59,-102 1125.59,-114 1125.59,-114 1125.59,-120 1119.59,-126 1113.59,-126"/>
<text xml:space="preserve" text-anchor="middle" x="1058.9" y="-110.4" font-family="Arial" font-size="8.00">mt#354</text>
<text xml:space="preserve" text-anchor="middle" x="1058.9" y="-100.8" font-family="Arial" font-size="8.00">Implement Session Reapply Tool</text>
</g>
<!-- mt_249&#45;&gt;mt_354 -->
<g id="edge61" class="edge">
<title>mt_249&#45;&gt;mt_354</title>
<path fill="none" stroke="#374151" d="M1447.39,-31.31C1373.89,-45.36 1250.2,-69.11 1143.9,-90 1140.12,-90.74 1136.24,-91.51 1132.33,-92.28"/>
<polygon fill="#374151" stroke="#374151" points="1132.21,-90.52 1127.65,-93.21 1132.89,-93.95 1132.21,-90.52"/>
</g>
<!-- mt_175 -->
<g id="node10" class="node">
<title>mt_175</title>
<path fill="#e5e7eb" stroke="#374151" stroke-width="2" d="M709.49,-216C709.49,-216 594.31,-216 594.31,-216 588.31,-216 582.31,-210 582.31,-204 582.31,-204 582.31,-192 582.31,-192 582.31,-186 588.31,-180 594.31,-180 594.31,-180 709.49,-180 709.49,-180 715.49,-180 721.49,-186 721.49,-192 721.49,-192 721.49,-204 721.49,-204 721.49,-210 715.49,-216 709.49,-216"/>
<text xml:space="preserve" text-anchor="middle" x="651.9" y="-200.4" font-family="Arial" font-size="8.00">mt#175</text>
<text xml:space="preserve" text-anchor="middle" x="651.9" y="-190.8" font-family="Arial" font-size="8.00">Add AI&#45;powered task management</text>
</g>
<!-- mt_237 -->
<g id="node20" class="node">
<title>mt_237</title>
<path fill="#e5e7eb" stroke="#374151" stroke-width="2" d="M585.36,-306C585.36,-306 480.44,-306 480.44,-306 474.44,-306 468.44,-300 468.44,-294 468.44,-294 468.44,-282 468.44,-282 468.44,-276 474.44,-270 480.44,-270 480.44,-270 585.36,-270 585.36,-270 591.36,-270 597.36,-276 597.36,-282 597.36,-282 597.36,-294 597.36,-294 597.36,-300 591.36,-306 585.36,-306"/>
<text xml:space="preserve" text-anchor="middle" x="532.9" y="-290.4" font-family="Arial" font-size="8.00">mt#237</text>
<text xml:space="preserve" text-anchor="middle" x="532.9" y="-280.8" font-family="Arial" font-size="8.00">Implement Hierarchical Task Sy</text>
</g>
<!-- mt_175&#45;&gt;mt_237 -->
<g id="edge15" class="edge">
<title>mt_175&#45;&gt;mt_237</title>
<path fill="none" stroke="#374151" d="M627.82,-216.81C608.78,-230.88 582.15,-250.58 561.93,-265.53"/>
<polygon fill="#374151" stroke="#374151" points="561.14,-263.94 558.16,-268.32 563.22,-266.75 561.14,-263.94"/>
</g>
<!-- mt_239 -->
<g id="node21" class="node">
<title>mt_239</title>
<path fill="#e5e7eb" stroke="#374151" stroke-width="2" d="M659.37,-396C659.37,-396 546.42,-396 546.42,-396 540.42,-396 534.42,-390 534.42,-384 534.42,-384 534.42,-372 534.42,-372 534.42,-366 540.42,-360 546.42,-360 546.42,-360 659.37,-360 659.37,-360 665.37,-360 671.37,-366 671.37,-372 671.37,-372 671.37,-384 671.37,-384 671.37,-390 665.37,-396 659.37,-396"/>
<text xml:space="preserve" text-anchor="middle" x="602.9" y="-380.4" font-family="Arial" font-size="8.00">mt#239</text>
<text xml:space="preserve" text-anchor="middle" x="602.9" y="-370.8" font-family="Arial" font-size="8.00">Phase 2: Implement Task Depend</text>
</g>
<!-- mt_175&#45;&gt;mt_239 -->
<g id="edge18" class="edge">
<title>mt_175&#45;&gt;mt_239</title>
<path fill="none" stroke="#374151" d="M647.02,-216.72C638.16,-248.89 619.44,-316.92 609.47,-353.14"/>
<polygon fill="#374151" stroke="#374151" points="607.87,-352.34 608.23,-357.63 611.24,-353.27 607.87,-352.34"/>
</g>
<!-- mt_240 -->
<g id="node23" class="node">
<title>mt_240</title>
<path fill="#e5e7eb" stroke="#374151" stroke-width="2" d="M494.5,-486C494.5,-486 383.3,-486 383.3,-486 377.3,-486 371.3,-480 371.3,-474 371.3,-474 371.3,-462 371.3,-462 371.3,-456 377.3,-450 383.3,-450 383.3,-450 494.5,-450 494.5,-450 500.5,-450 506.5,-456 506.5,-462 506.5,-462 506.5,-474 506.5,-474 506.5,-480 500.5,-486 494.5,-486"/>
<text xml:space="preserve" text-anchor="middle" x="438.9" y="-470.4" font-family="Arial" font-size="8.00">mt#240</text>
<text xml:space="preserve" text-anchor="middle" x="438.9" y="-460.8" font-family="Arial" font-size="8.00">Phase 3: Enhanced Planning/Exe</text>
</g>
<!-- mt_175&#45;&gt;mt_240 -->
<g id="edge22" class="edge">
<title>mt_175&#45;&gt;mt_240</title>
<path fill="none" stroke="#374151" d="M581.5,-210.9C504.89,-228.28 387.72,-269.06 345.9,-360 339.21,-374.54 338.8,-381.66 345.9,-396 356.52,-417.47 377.08,-434.22 396.18,-446.05"/>
<polygon fill="#374151" stroke="#374151" points="395.03,-447.4 400.22,-448.48 396.84,-444.4 395.03,-447.4"/>
</g>
<!-- mt_243 -->
<g id="node25" class="node">
<title>mt_243</title>
<path fill="#e5e7eb" stroke="#374151" stroke-width="2" d="M655.38,-576C655.38,-576 550.42,-576 550.42,-576 544.42,-576 538.42,-570 538.42,-564 538.42,-564 538.42,-552 538.42,-552 538.42,-546 544.42,-540 550.42,-540 550.42,-540 655.38,-540 655.38,-540 661.38,-540 667.38,-546 667.38,-552 667.38,-552 667.38,-564 667.38,-564 667.38,-570 661.38,-576 655.38,-576"/>
<text xml:space="preserve" text-anchor="middle" x="602.9" y="-560.4" font-family="Arial" font-size="8.00">mt#243</text>
<text xml:space="preserve" text-anchor="middle" x="602.9" y="-550.8" font-family="Arial" font-size="8.00">Advanced Visualization and Dat</text>
</g>
<!-- mt_175&#45;&gt;mt_243 -->
<g id="edge28" class="edge">
<title>mt_175&#45;&gt;mt_243</title>
<path fill="none" stroke="#374151" d="M675.97,-216.98C735.31,-263.5 879,-390.79 810.9,-486 780.09,-529.07 721.56,-546.31 674.42,-553.06"/>
<polygon fill="#374151" stroke="#374151" points="674.37,-551.3 669.64,-553.71 674.83,-554.77 674.37,-551.3"/>
</g>
<!-- mt_361 -->
<g id="node34" class="node">
<title>mt_361</title>
<path fill="#e5e7eb" stroke="#374151" stroke-width="2" d="M781.26,-486C781.26,-486 670.53,-486 670.53,-486 664.53,-486 658.53,-480 658.53,-474 658.53,-474 658.53,-462 658.53,-462 658.53,-456 664.53,-450 670.53,-450 670.53,-450 781.26,-450 781.26,-450 787.26,-450 793.26,-456 793.26,-462 793.26,-462 793.26,-474 793.26,-474 793.26,-480 787.26,-486 781.26,-486"/>
<text xml:space="preserve" text-anchor="middle" x="725.9" y="-470.4" font-family="Arial" font-size="8.00">mt#361</text>
<text xml:space="preserve" text-anchor="middle" x="725.9" y="-460.8" font-family="Arial" font-size="8.00">Explore Automated Session Sync</text>
</g>
<!-- mt_175&#45;&gt;mt_361 -->
<g id="edge38" class="edge">
<title>mt_175&#45;&gt;mt_361</title>
<path fill="none" stroke="#374151" d="M656.75,-216.58C669.64,-263.25 704.71,-390.26 719.34,-443.26"/>
<polygon fill="#374151" stroke="#374151" points="717.6,-443.54 720.62,-447.89 720.98,-442.61 717.6,-443.54"/>
</g>
<!-- mt_160 -->
<g id="node11" class="node">
<title>mt_160</title>
<path fill="#bbf7d0" stroke="#16a34a" stroke-width="2" d="M786.15,-126C786.15,-126 677.64,-126 677.64,-126 671.64,-126 665.64,-120 665.64,-114 665.64,-114 665.64,-102 665.64,-102 665.64,-96 671.64,-90 677.64,-90 677.64,-90 786.15,-90 786.15,-90 792.15,-90 798.15,-96 798.15,-102 798.15,-102 798.15,-114 798.15,-114 798.15,-120 792.15,-126 786.15,-126"/>
<text xml:space="preserve" text-anchor="middle" x="731.9" y="-110.4" font-family="Arial" font-size="8.00">mt#160</text>
<text xml:space="preserve" text-anchor="middle" x="731.9" y="-100.8" font-family="Arial" font-size="8.00">Add AI Completion Backend with</text>
</g>
<!-- mt_160&#45;&gt;mt_175 -->
<g id="edge6" class="edge">
<title>mt_160&#45;&gt;mt_175</title>
<path fill="none" stroke="#374151" d="M715.71,-126.81C703.13,-140.64 685.61,-159.91 672.11,-174.76"/>
<polygon fill="#374151" stroke="#374151" points="671.15,-173.22 669.08,-178.1 673.74,-175.58 671.15,-173.22"/>
</g>
<!-- mt_160&#45;&gt;mt_202 -->
<g id="edge9" class="edge">
<title>mt_160&#45;&gt;mt_202</title>
<path fill="none" stroke="#374151" d="M740.21,-126.68C752.62,-150.99 778.39,-194.21 813.9,-216 925.63,-284.58 975.23,-244.85 1103.9,-270 1107.5,-270.71 1111.2,-271.43 1114.92,-272.18"/>
<polygon fill="#374151" stroke="#374151" points="1114.49,-273.88 1119.74,-273.14 1115.18,-270.44 1114.49,-273.88"/>
</g>
<!-- mt_254 -->
<g id="node35" class="node">
<title>mt_254</title>
<path fill="#e5e7eb" stroke="#374151" stroke-width="2" d="M1257.79,-216C1257.79,-216 1152,-216 1152,-216 1146,-216 1140,-210 1140,-204 1140,-204 1140,-192 1140,-192 1140,-186 1146,-180 1152,-180 1152,-180 1257.79,-180 1257.79,-180 1263.79,-180 1269.79,-186 1269.79,-192 1269.79,-192 1269.79,-204 1269.79,-204 1269.79,-210 1263.79,-216 1257.79,-216"/>
<text xml:space="preserve" text-anchor="middle" x="1204.9" y="-200.4" font-family="Arial" font-size="8.00">mt#254</text>
<text xml:space="preserve" text-anchor="middle" x="1204.9" y="-190.8" font-family="Arial" font-size="8.00">Implement Commit History Simil</text>
</g>
<!-- mt_160&#45;&gt;mt_254 -->
<g id="edge41" class="edge">
<title>mt_160&#45;&gt;mt_254</title>
<path fill="none" stroke="#374151" d="M798.81,-122.66C804.59,-123.81 810.34,-124.93 815.9,-126 926.44,-147.27 1054.97,-170.42 1133.09,-184.32"/>
<polygon fill="#374151" stroke="#374151" points="1132.37,-185.97 1137.6,-185.12 1132.99,-182.52 1132.37,-185.97"/>
</g>
<!-- mt_321 -->
<g id="node48" class="node">
<title>mt_321</title>
<path fill="#e5e7eb" stroke="#374151" stroke-width="2" d="M945.81,-216C945.81,-216 843.98,-216 843.98,-216 837.98,-216 831.98,-210 831.98,-204 831.98,-204 831.98,-192 831.98,-192 831.98,-186 837.98,-180 843.98,-180 843.98,-180 945.81,-180 945.81,-180 951.81,-180 957.81,-186 957.81,-192 957.81,-192 957.81,-204 957.81,-204 957.81,-210 951.81,-216 945.81,-216"/>
<text xml:space="preserve" text-anchor="middle" x="894.9" y="-200.4" font-family="Arial" font-size="8.00">mt#321</text>
<text xml:space="preserve" text-anchor="middle" x="894.9" y="-190.8" font-family="Arial" font-size="8.00">AI&#45;Powered Project Analysis fo</text>
</g>
<!-- mt_160&#45;&gt;mt_321 -->
<g id="edge55" class="edge">
<title>mt_160&#45;&gt;mt_321</title>
<path fill="none" stroke="#374151" d="M764.88,-126.81C791.31,-141.07 828.43,-161.12 856.25,-176.13"/>
<polygon fill="#374151" stroke="#374151" points="855.12,-177.51 860.35,-178.35 856.78,-174.43 855.12,-177.51"/>
</g>
<!-- mt_441 -->
<g id="node63" class="node">
<title>mt_441</title>
<path fill="#e5e7eb" stroke="#374151" stroke-width="2" d="M1386.26,-396C1386.26,-396 1267.53,-396 1267.53,-396 1261.53,-396 1255.53,-390 1255.53,-384 1255.53,-384 1255.53,-372 1255.53,-372 1255.53,-366 1261.53,-360 1267.53,-360 1267.53,-360 1386.26,-360 1386.26,-360 1392.26,-360 1398.26,-366 1398.26,-372 1398.26,-372 1398.26,-384 1398.26,-384 1398.26,-390 1392.26,-396 1386.26,-396"/>
<text xml:space="preserve" text-anchor="middle" x="1326.9" y="-380.4" font-family="Arial" font-size="8.00">mt#441</text>
<text xml:space="preserve" text-anchor="middle" x="1326.9" y="-370.8" font-family="Arial" font-size="8.00">Implement MCP&#45;Based Subagent S</text>
</g>
<!-- mt_202&#45;&gt;mt_441 -->
<g id="edge67" class="edge">
<title>mt_202&#45;&gt;mt_441</title>
<path fill="none" stroke="#374151" d="M1215.23,-306.81C1237.81,-321 1269.49,-340.91 1293.34,-355.91"/>
<polygon fill="#374151" stroke="#374151" points="1292.16,-357.23 1297.33,-358.41 1294.02,-354.27 1292.16,-357.23"/>
</g>
<!-- mt_442 -->
<g id="node66" class="node">
<title>mt_442</title>
<path fill="#e5e7eb" stroke="#374151" stroke-width="2" d="M1507.81,-486C1507.81,-486 1397.99,-486 1397.99,-486 1391.99,-486 1385.99,-480 1385.99,-474 1385.99,-474 1385.99,-462 1385.99,-462 1385.99,-456 1391.99,-450 1397.99,-450 1397.99,-450 1507.81,-450 1507.81,-450 1513.81,-450 1519.81,-456 1519.81,-462 1519.81,-462 1519.81,-474 1519.81,-474 1519.81,-480 1513.81,-486 1507.81,-486"/>
<text xml:space="preserve" text-anchor="middle" x="1452.9" y="-470.4" font-family="Arial" font-size="8.00">mt#442</text>
<text xml:space="preserve" text-anchor="middle" x="1452.9" y="-460.8" font-family="Arial" font-size="8.00">Implement Task Routing System </text>
</g>
<!-- mt_202&#45;&gt;mt_442 -->
<g id="edge73" class="edge">
<title>mt_202&#45;&gt;mt_442</title>
<path fill="none" stroke="#374151" d="M1190.77,-306.8C1196.81,-330.46 1210.73,-372.05 1237.9,-396 1277.18,-430.63 1333.81,-448.45 1379.09,-457.57"/>
<polygon fill="#374151" stroke="#374151" points="1378.67,-459.27 1383.92,-458.51 1379.34,-455.84 1378.67,-459.27"/>
</g>
<!-- mt_250&#45;&gt;mt_202 -->
<g id="edge7" class="edge">
<title>mt_250&#45;&gt;mt_202</title>
<path fill="none" stroke="#374151" d="M1333.66,-216.81C1303.71,-231.13 1261.58,-251.28 1230.13,-266.32"/>
<polygon fill="#374151" stroke="#374151" points="1229.51,-264.68 1225.76,-268.41 1231.02,-267.84 1229.51,-264.68"/>
</g>
<!-- mt_182 -->
<g id="node14" class="node">
<title>mt_182</title>
<path fill="#bbf7d0" stroke="#16a34a" stroke-width="2" d="M1595.49,-216C1595.49,-216 1484.3,-216 1484.3,-216 1478.3,-216 1472.3,-210 1472.3,-204 1472.3,-204 1472.3,-192 1472.3,-192 1472.3,-186 1478.3,-180 1484.3,-180 1484.3,-180 1595.49,-180 1595.49,-180 1601.49,-180 1607.49,-186 1607.49,-192 1607.49,-192 1607.49,-204 1607.49,-204 1607.49,-210 1601.49,-216 1595.49,-216"/>
<text xml:space="preserve" text-anchor="middle" x="1539.9" y="-200.4" font-family="Arial" font-size="8.00">mt#182</text>
<text xml:space="preserve" text-anchor="middle" x="1539.9" y="-190.8" font-family="Arial" font-size="8.00">Add AI&#45;Powered Rule Suggestion</text>
</g>
<!-- mt_182&#45;&gt;mt_202 -->
<g id="edge8" class="edge">
<title>mt_182&#45;&gt;mt_202</title>
<path fill="none" stroke="#374151" d="M1471.42,-216.07C1410.36,-231.29 1321.27,-253.5 1259.11,-269"/>
<polygon fill="#374151" stroke="#374151" points="1258.69,-267.3 1254.27,-270.21 1259.54,-270.69 1258.69,-267.3"/>
</g>
<!-- mt_232 -->
<g id="node15" class="node">
<title>mt_232</title>
<path fill="#e5e7eb" stroke="#374151" stroke-width="2" d="M2269.92,-126C2269.92,-126 2169.88,-126 2169.88,-126 2163.88,-126 2157.88,-120 2157.88,-114 2157.88,-114 2157.88,-102 2157.88,-102 2157.88,-96 2163.88,-90 2169.88,-90 2169.88,-90 2269.92,-90 2269.92,-90 2275.92,-90 2281.92,-96 2281.92,-102 2281.92,-102 2281.92,-114 2281.92,-114 2281.92,-120 2275.92,-126 2269.92,-126"/>
<text xml:space="preserve" text-anchor="middle" x="2219.9" y="-110.4" font-family="Arial" font-size="8.00">mt#232</text>
<text xml:space="preserve" text-anchor="middle" x="2219.9" y="-100.8" font-family="Arial" font-size="8.00">Improve session PR conflict re</text>
</g>
<!-- mt_231 -->
<g id="node16" class="node">
<title>mt_231</title>
<path fill="#bbf7d0" stroke="#16a34a" stroke-width="2" d="M2271.7,-36C2271.7,-36 2168.1,-36 2168.1,-36 2162.1,-36 2156.1,-30 2156.1,-24 2156.1,-24 2156.1,-12 2156.1,-12 2156.1,-6 2162.1,0 2168.1,0 2168.1,0 2271.7,0 2271.7,0 2277.7,0 2283.7,-6 2283.7,-12 2283.7,-12 2283.7,-24 2283.7,-24 2283.7,-30 2277.7,-36 2271.7,-36"/>
<text xml:space="preserve" text-anchor="middle" x="2219.9" y="-20.4" font-family="Arial" font-size="8.00">mt#231</text>
<text xml:space="preserve" text-anchor="middle" x="2219.9" y="-10.8" font-family="Arial" font-size="8.00">Implement session PR refresh f</text>
</g>
<!-- mt_231&#45;&gt;mt_232 -->
<g id="edge11" class="edge">
<title>mt_231&#45;&gt;mt_232</title>
<path fill="none" stroke="#374151" d="M2219.9,-36.81C2219.9,-50.05 2219.9,-68.26 2219.9,-82.82"/>
<polygon fill="#374151" stroke="#374151" points="2218.15,-82.7 2219.9,-87.7 2221.65,-82.7 2218.15,-82.7"/>
</g>
<!-- mt_233 -->
<g id="node17" class="node">
<title>mt_233</title>
<path fill="#e5e7eb" stroke="#374151" stroke-width="2" d="M2434.48,-126C2434.48,-126 2331.31,-126 2331.31,-126 2325.31,-126 2319.31,-120 2319.31,-114 2319.31,-114 2319.31,-102 2319.31,-102 2319.31,-96 2325.31,-90 2331.31,-90 2331.31,-90 2434.48,-90 2434.48,-90 2440.48,-90 2446.48,-96 2446.48,-102 2446.48,-102 2446.48,-114 2446.48,-114 2446.48,-120 2440.48,-126 2434.48,-126"/>
<text xml:space="preserve" text-anchor="middle" x="2382.9" y="-110.4" font-family="Arial" font-size="8.00">mt#233</text>
<text xml:space="preserve" text-anchor="middle" x="2382.9" y="-100.8" font-family="Arial" font-size="8.00">Setup semantic&#45;release with co</text>
</g>
<!-- mt_234 -->
<g id="node19" class="node">
<title>mt_234</title>
<path fill="#e5e7eb" stroke="#374151" stroke-width="2" d="M2495.26,-216C2495.26,-216 2388.54,-216 2388.54,-216 2382.54,-216 2376.54,-210 2376.54,-204 2376.54,-204 2376.54,-192 2376.54,-192 2376.54,-186 2382.54,-180 2388.54,-180 2388.54,-180 2495.26,-180 2495.26,-180 2501.26,-180 2507.26,-186 2507.26,-192 2507.26,-192 2507.26,-204 2507.26,-204 2507.26,-210 2501.26,-216 2495.26,-216"/>
<text xml:space="preserve" text-anchor="middle" x="2441.9" y="-200.4" font-family="Arial" font-size="8.00">mt#234</text>
<text xml:space="preserve" text-anchor="middle" x="2441.9" y="-190.8" font-family="Arial" font-size="8.00">Implement Dagger CI Pipeline w</text>
</g>
<!-- mt_233&#45;&gt;mt_234 -->
<g id="edge14" class="edge">
<title>mt_233&#45;&gt;mt_234</title>
<path fill="none" stroke="#374151" d="M2394.84,-126.81C2403.95,-140.41 2416.59,-159.25 2426.47,-173.99"/>
<polygon fill="#374151" stroke="#374151" points="2424.89,-174.78 2429.13,-177.96 2427.8,-172.83 2424.89,-174.78"/>
</g>
<!-- mt_164 -->
<g id="node18" class="node">
<title>mt_164</title>
<path fill="#bbf7d0" stroke="#16a34a" stroke-width="2" d="M2436.59,-36C2436.59,-36 2331.2,-36 2331.2,-36 2325.2,-36 2319.2,-30 2319.2,-24 2319.2,-24 2319.2,-12 2319.2,-12 2319.2,-6 2325.2,0 2331.2,0 2331.2,0 2436.59,0 2436.59,0 2442.59,0 2448.59,-6 2448.59,-12 2448.59,-12 2448.59,-24 2448.59,-24 2448.59,-30 2442.59,-36 2436.59,-36"/>
<text xml:space="preserve" text-anchor="middle" x="2383.9" y="-20.4" font-family="Arial" font-size="8.00">mt#164</text>
<text xml:space="preserve" text-anchor="middle" x="2383.9" y="-10.8" font-family="Arial" font-size="8.00">Add Bun Binary Builds and GitH</text>
</g>
<!-- mt_164&#45;&gt;mt_233 -->
<g id="edge12" class="edge">
<title>mt_164&#45;&gt;mt_233</title>
<path fill="none" stroke="#374151" d="M2383.69,-36.81C2383.54,-50.05 2383.34,-68.26 2383.17,-82.82"/>
<polygon fill="#374151" stroke="#374151" points="2381.42,-82.69 2383.12,-87.7 2384.92,-82.73 2381.42,-82.69"/>
</g>
<!-- mt_164&#45;&gt;mt_234 -->
<g id="edge13" class="edge">
<title>mt_164&#45;&gt;mt_234</title>
<path fill="none" stroke="#374151" d="M2414.91,-36.73C2433.17,-49.07 2454.63,-67.35 2464.9,-90 2477.21,-117.17 2465.77,-151.25 2455.09,-173.55"/>
<polygon fill="#374151" stroke="#374151" points="2453.59,-172.62 2452.93,-177.88 2456.73,-174.18 2453.59,-172.62"/>
</g>
<!-- mt_237&#45;&gt;mt_239 -->
<g id="edge16" class="edge">
<title>mt_237&#45;&gt;mt_239</title>
<path fill="none" stroke="#374151" d="M535.96,-306.81C544.07,-320.64 559.12,-339.91 573.3,-354.76"/>
<polygon fill="#374151" stroke="#374151" points="571.85,-355.79 576.6,-358.14 574.35,-353.34 571.85,-355.79"/>
</g>
<!-- mt_237&#45;&gt;mt_240 -->
<g id="edge19" class="edge">
<title>mt_237&#45;&gt;mt_240</title>
<path fill="none" stroke="#374151" d="M467.45,-294.87C423.54,-302.51 369.66,-319.99 342.9,-360 322.51,-390.47 357.79,-424.5 391.64,-445.83"/>
<polygon fill="#374151" stroke="#374151" points="390.59,-447.23 395.77,-448.35 392.41,-444.25 390.59,-447.23"/>
</g>
<!-- mt_237&#45;&gt;mt_243 -->
<g id="edge24" class="edge">
<title>mt_237&#45;&gt;mt_243</title>
<path fill="none" stroke="#374151" d="M467.68,-295.21C425.33,-303.01 373.11,-320.56 345.9,-360 331.28,-381.19 326.81,-454.12 352.9,-486 375.53,-513.65 465.86,-534.27 531.45,-545.97"/>
<polygon fill="#374151" stroke="#374151" points="531,-547.66 536.22,-546.81 531.6,-544.22 531,-547.66"/>
</g>
<!-- mt_237&#45;&gt;mt_441 -->
<g id="edge68" class="edge">
<title>mt_237&#45;&gt;mt_441</title>
<path fill="none" stroke="#374151" d="M598.21,-296.24C743.19,-312.31 1091.43,-350.9 1248.14,-368.27"/>
<polygon fill="#374151" stroke="#374151" points="1247.88,-370 1253.04,-368.81 1248.26,-366.52 1247.88,-370"/>
</g>
<!-- mt_237&#45;&gt;mt_442 -->
<g id="edge77" class="edge">
<title>mt_237&#45;&gt;mt_442</title>
<path fill="none" stroke="#374151" d="M598.32,-301.66C764.68,-333.85 1203.05,-418.66 1378.63,-452.63"/>
<polygon fill="#374151" stroke="#374151" points="1378.29,-454.35 1383.53,-453.58 1378.95,-450.91 1378.29,-454.35"/>
</g>
<!-- mt_239&#45;&gt;mt_237 -->
<g id="edge91" class="edge">
<title>mt_239&#45;&gt;mt_237</title>
<path fill="none" stroke="#374151" d="M599.84,-359.22C591.75,-345.39 576.7,-326.12 562.52,-311.27"/>
<polygon fill="#374151" stroke="#374151" points="563.97,-310.24 559.22,-307.89 561.46,-312.69 563.97,-310.24"/>
</g>
<!-- mt_239&#45;&gt;mt_240 -->
<g id="edge21" class="edge">
<title>mt_239&#45;&gt;mt_240</title>
<path fill="none" stroke="#374151" d="M569.71,-396.81C543.12,-411.07 505.77,-431.12 477.78,-446.13"/>
<polygon fill="#374151" stroke="#374151" points="477.23,-444.45 473.65,-448.35 478.88,-447.53 477.23,-444.45"/>
</g>
<!-- mt_239&#45;&gt;mt_243 -->
<g id="edge26" class="edge">
<title>mt_239&#45;&gt;mt_243</title>
<path fill="none" stroke="#374151" d="M602.9,-396.72C602.9,-428.76 602.9,-496.35 602.9,-532.69"/>
<polygon fill="#374151" stroke="#374151" points="601.15,-532.58 602.9,-537.58 604.65,-532.58 601.15,-532.58"/>
</g>
<!-- mt_239&#45;&gt;mt_361 -->
<g id="edge37" class="edge">
<title>mt_239&#45;&gt;mt_361</title>
<path fill="none" stroke="#374151" d="M627.79,-396.81C647.46,-410.88 674.99,-430.58 695.88,-445.53"/>
<polygon fill="#374151" stroke="#374151" points="694.73,-446.85 699.81,-448.34 696.76,-444.01 694.73,-446.85"/>
</g>
<!-- mt_238 -->
<g id="node22" class="node">
<title>mt_238</title>
<path fill="#bbf7d0" stroke="#16a34a" stroke-width="2" d="M1073.93,-306C1073.93,-306 965.87,-306 965.87,-306 959.87,-306 953.87,-300 953.87,-294 953.87,-294 953.87,-282 953.87,-282 953.87,-276 959.87,-270 965.87,-270 965.87,-270 1073.93,-270 1073.93,-270 1079.93,-270 1085.93,-276 1085.93,-282 1085.93,-282 1085.93,-294 1085.93,-294 1085.93,-300 1079.93,-306 1073.93,-306"/>
<text xml:space="preserve" text-anchor="middle" x="1019.9" y="-290.4" font-family="Arial" font-size="8.00">mt#238</text>
<text xml:space="preserve" text-anchor="middle" x="1019.9" y="-280.8" font-family="Arial" font-size="8.00">Phase 1: Implement Basic Subta</text>
</g>
<!-- mt_238&#45;&gt;mt_239 -->
<g id="edge17" class="edge">
<title>mt_238&#45;&gt;mt_239</title>
<path fill="none" stroke="#374151" d="M952.9,-303.14C877.84,-318.98 756.47,-344.59 678.19,-361.11"/>
<polygon fill="#374151" stroke="#374151" points="678.17,-359.33 673.64,-362.07 678.89,-362.75 678.17,-359.33"/>
</g>
<!-- mt_238&#45;&gt;mt_240 -->
<g id="edge20" class="edge">
<title>mt_238&#45;&gt;mt_240</title>
<path fill="none" stroke="#374151" d="M966.48,-306.92C901.2,-328.67 787.28,-366.14 688.9,-396 629.05,-414.16 560.72,-433.47 510.63,-447.36"/>
<polygon fill="#374151" stroke="#374151" points="510.43,-445.6 506.08,-448.63 511.36,-448.98 510.43,-445.6"/>
</g>
<!-- mt_238&#45;&gt;mt_243 -->
<g id="edge25" class="edge">
<title>mt_238&#45;&gt;mt_243</title>
<path fill="none" stroke="#374151" d="M1021.77,-306.73C1024.79,-345.35 1025.98,-437.47 975.9,-486 933.85,-526.73 770.62,-545.12 674.59,-552.56"/>
<polygon fill="#374151" stroke="#374151" points="674.72,-550.8 669.87,-552.92 674.99,-554.29 674.72,-550.8"/>
</g>
<!-- mt_238&#45;&gt;mt_441 -->
<g id="edge69" class="edge">
<title>mt_238&#45;&gt;mt_441</title>
<path fill="none" stroke="#374151" d="M1082.39,-306.91C1133.46,-321.55 1205.55,-342.22 1258.22,-357.32"/>
<polygon fill="#374151" stroke="#374151" points="1257.48,-358.92 1262.77,-358.62 1258.45,-355.56 1257.48,-358.92"/>
</g>
<!-- mt_238&#45;&gt;mt_442 -->
<g id="edge75" class="edge">
<title>mt_238&#45;&gt;mt_442</title>
<path fill="none" stroke="#374151" d="M1045.6,-306.99C1079.88,-330.29 1143.07,-370.88 1201.9,-396 1259.53,-420.61 1328.19,-439.36 1379.12,-451.39"/>
<polygon fill="#374151" stroke="#374151" points="1378.5,-453.04 1383.77,-452.48 1379.3,-449.64 1378.5,-453.04"/>
</g>
<!-- mt_240&#45;&gt;mt_237 -->
<g id="edge92" class="edge">
<title>mt_240&#45;&gt;mt_237</title>
<path fill="none" stroke="#374151" d="M422.88,-449.14C397.72,-428.15 357.42,-392.1 378.9,-360 398.01,-331.43 430.95,-314.34 461.63,-304.13"/>
<polygon fill="#374151" stroke="#374151" points="462.06,-305.83 466.29,-302.64 460.99,-302.5 462.06,-305.83"/>
</g>
<!-- mt_240&#45;&gt;mt_243 -->
<g id="edge27" class="edge">
<title>mt_240&#45;&gt;mt_243</title>
<path fill="none" stroke="#374151" d="M472.08,-486.81C498.67,-501.07 536.02,-521.12 564.01,-536.13"/>
<polygon fill="#374151" stroke="#374151" points="562.91,-537.53 568.14,-538.35 564.56,-534.45 562.91,-537.53"/>
</g>
<!-- mt_004 -->
<g id="node24" class="node">
<title>mt_004</title>
<path fill="#bbf7d0" stroke="#16a34a" stroke-width="2" d="M486.91,-396C486.91,-396 390.88,-396 390.88,-396 384.88,-396 378.88,-390 378.88,-384 378.88,-384 378.88,-372 378.88,-372 378.88,-366 384.88,-360 390.88,-360 390.88,-360 486.91,-360 486.91,-360 492.91,-360 498.91,-366 498.91,-372 498.91,-372 498.91,-384 498.91,-384 498.91,-390 492.91,-396 486.91,-396"/>
<text xml:space="preserve" text-anchor="middle" x="438.9" y="-380.4" font-family="Arial" font-size="8.00">mt#004</text>
<text xml:space="preserve" text-anchor="middle" x="438.9" y="-370.8" font-family="Arial" font-size="8.00">Add `&#45;&#45;task` Option to `sessio</text>
</g>
<!-- mt_004&#45;&gt;mt_240 -->
<g id="edge23" class="edge">
<title>mt_004&#45;&gt;mt_240</title>
<path fill="none" stroke="#374151" d="M438.9,-396.81C438.9,-410.05 438.9,-428.26 438.9,-442.82"/>
<polygon fill="#374151" stroke="#374151" points="437.15,-442.7 438.9,-447.7 440.65,-442.7 437.15,-442.7"/>
</g>
<!-- mt_179 -->
<g id="node26" class="node">
<title>mt_179</title>
<path fill="#e5e7eb" stroke="#374151" stroke-width="2" d="M1282.15,-126C1282.15,-126 1173.64,-126 1173.64,-126 1167.64,-126 1161.64,-120 1161.64,-114 1161.64,-114 1161.64,-102 1161.64,-102 1161.64,-96 1167.64,-90 1173.64,-90 1173.64,-90 1282.15,-90 1282.15,-90 1288.15,-90 1294.15,-96 1294.15,-102 1294.15,-102 1294.15,-114 1294.15,-114 1294.15,-120 1288.15,-126 1282.15,-126"/>
<text xml:space="preserve" text-anchor="middle" x="1227.9" y="-110.4" font-family="Arial" font-size="8.00">mt#179</text>
<text xml:space="preserve" text-anchor="middle" x="1227.9" y="-100.8" font-family="Arial" font-size="8.00">Investigate Embeddings/RAG for</text>
</g>
<!-- mt_179&#45;&gt;mt_250 -->
<g id="edge31" class="edge">
<title>mt_179&#45;&gt;mt_250</title>
<path fill="none" stroke="#374151" d="M1256.83,-126.81C1279.9,-141 1312.26,-160.91 1336.62,-175.91"/>
<polygon fill="#374151" stroke="#374151" points="1335.54,-177.3 1340.71,-178.43 1337.37,-174.31 1335.54,-177.3"/>
</g>
<!-- mt_179&#45;&gt;mt_254 -->
<g id="edge39" class="edge">
<title>mt_179&#45;&gt;mt_254</title>
<path fill="none" stroke="#374151" d="M1223.24,-126.81C1219.75,-140.17 1214.94,-158.59 1211.11,-173.21"/>
<polygon fill="#374151" stroke="#374151" points="1209.5,-172.47 1209.93,-177.75 1212.88,-173.36 1209.5,-172.47"/>
</g>
<!-- mt_158 -->
<g id="node27" class="node">
<title>mt_158</title>
<path fill="#bbf7d0" stroke="#16a34a" stroke-width="2" d="M1866.03,-126C1866.03,-126 1755.76,-126 1755.76,-126 1749.76,-126 1743.76,-120 1743.76,-114 1743.76,-114 1743.76,-102 1743.76,-102 1743.76,-96 1749.76,-90 1755.76,-90 1755.76,-90 1866.03,-90 1866.03,-90 1872.03,-90 1878.03,-96 1878.03,-102 1878.03,-102 1878.03,-114 1878.03,-114 1878.03,-120 1872.03,-126 1866.03,-126"/>
<text xml:space="preserve" text-anchor="middle" x="1810.9" y="-110.4" font-family="Arial" font-size="8.00">mt#158</text>
<text xml:space="preserve" text-anchor="middle" x="1810.9" y="-100.8" font-family="Arial" font-size="8.00">Implement Session&#45;Aware Versio</text>
</g>
<!-- mt_158&#45;&gt;mt_250 -->
<g id="edge32" class="edge">
<title>mt_158&#45;&gt;mt_250</title>
<path fill="none" stroke="#374151" d="M1742.95,-122.47C1655.44,-139.82 1508.17,-169.04 1453.9,-180 1450.29,-180.73 1446.6,-181.47 1442.88,-182.23"/>
<polygon fill="#374151" stroke="#374151" points="1442.62,-180.5 1438.07,-183.21 1443.32,-183.93 1442.62,-180.5"/>
</g>
<!-- mt_293 -->
<g id="node47" class="node">
<title>mt_293</title>
<path fill="#e5e7eb" stroke="#374151" stroke-width="2" d="M2031.37,-216C2031.37,-216 1930.42,-216 1930.42,-216 1924.42,-216 1918.42,-210 1918.42,-204 1918.42,-204 1918.42,-192 1918.42,-192 1918.42,-186 1924.42,-180 1930.42,-180 1930.42,-180 2031.37,-180 2031.37,-180 2037.37,-180 2043.37,-186 2043.37,-192 2043.37,-192 2043.37,-204 2043.37,-204 2043.37,-210 2037.37,-216 2031.37,-216"/>
<text xml:space="preserve" text-anchor="middle" x="1980.9" y="-200.4" font-family="Arial" font-size="8.00">mt#293</text>
<text xml:space="preserve" text-anchor="middle" x="1980.9" y="-190.8" font-family="Arial" font-size="8.00">Add session chat interface con</text>
</g>
<!-- mt_158&#45;&gt;mt_293 -->
<g id="edge53" class="edge">
<title>mt_158&#45;&gt;mt_293</title>
<path fill="none" stroke="#374151" d="M1845.3,-126.81C1872.86,-141.07 1911.58,-161.12 1940.59,-176.13"/>
<polygon fill="#374151" stroke="#374151" points="1939.67,-177.63 1944.91,-178.37 1941.27,-174.52 1939.67,-177.63"/>
</g>
<!-- mt_349 -->
<g id="node54" class="node">
<title>mt_349</title>
<path fill="#e5e7eb" stroke="#374151" stroke-width="2" d="M1831.8,-306C1831.8,-306 1729.99,-306 1729.99,-306 1723.99,-306 1717.99,-300 1717.99,-294 1717.99,-294 1717.99,-282 1717.99,-282 1717.99,-276 1723.99,-270 1729.99,-270 1729.99,-270 1831.8,-270 1831.8,-270 1837.8,-270 1843.8,-276 1843.8,-282 1843.8,-282 1843.8,-294 1843.8,-294 1843.8,-300 1837.8,-306 1831.8,-306"/>
<text xml:space="preserve" text-anchor="middle" x="1780.9" y="-290.4" font-family="Arial" font-size="8.00">mt#349</text>
<text xml:space="preserve" text-anchor="middle" x="1780.9" y="-280.8" font-family="Arial" font-size="8.00">Analyze Cursor Chat History to</text>
</g>
<!-- mt_158&#45;&gt;mt_349 -->
<g id="edge59" class="edge">
<title>mt_158&#45;&gt;mt_349</title>
<path fill="none" stroke="#374151" d="M1807.91,-126.72C1802.51,-158.76 1791.12,-226.35 1784.99,-262.69"/>
<polygon fill="#374151" stroke="#374151" points="1783.27,-262.38 1784.17,-267.6 1786.72,-262.96 1783.27,-262.38"/>
</g>
<!-- mt_251 -->
<g id="node28" class="node">
<title>mt_251</title>
<path fill="#e5e7eb" stroke="#374151" stroke-width="2" d="M2030.48,-36C2030.48,-36 1931.31,-36 1931.31,-36 1925.31,-36 1919.31,-30 1919.31,-24 1919.31,-24 1919.31,-12 1919.31,-12 1919.31,-6 1925.31,0 1931.31,0 1931.31,0 2030.48,0 2030.48,0 2036.48,0 2042.48,-6 2042.48,-12 2042.48,-12 2042.48,-24 2042.48,-24 2042.48,-30 2036.48,-36 2030.48,-36"/>
<text xml:space="preserve" text-anchor="middle" x="1980.9" y="-20.4" font-family="Arial" font-size="8.00">mt#251</text>
<text xml:space="preserve" text-anchor="middle" x="1980.9" y="-10.8" font-family="Arial" font-size="8.00">Add Mobile/Voice Interface for</text>
</g>
<!-- mt_252 -->
<g id="node29" class="node">
<title>mt_252</title>
<path fill="#e5e7eb" stroke="#374151" stroke-width="2" d="M2036.26,-126C2036.26,-126 1925.53,-126 1925.53,-126 1919.53,-126 1913.53,-120 1913.53,-114 1913.53,-114 1913.53,-102 1913.53,-102 1913.53,-96 1919.53,-90 1925.53,-90 1925.53,-90 2036.26,-90 2036.26,-90 2042.26,-90 2048.26,-96 2048.26,-102 2048.26,-102 2048.26,-114 2048.26,-114 2048.26,-120 2042.26,-126 2036.26,-126"/>
<text xml:space="preserve" text-anchor="middle" x="1980.9" y="-110.4" font-family="Arial" font-size="8.00">mt#252</text>
<text xml:space="preserve" text-anchor="middle" x="1980.9" y="-100.8" font-family="Arial" font-size="8.00">Design and implement task mana</text>
</g>
<!-- mt_251&#45;&gt;mt_252 -->
<g id="edge82" class="edge">
<title>mt_251&#45;&gt;mt_252</title>
<path fill="none" stroke="#374151" d="M1969.8,-36.81C1967.02,-50.05 1966.65,-68.26 1968.7,-82.82"/>
<polygon fill="#374151" stroke="#374151" points="1966.97,-83.1 1969.55,-87.73 1970.42,-82.5 1966.97,-83.1"/>
</g>
<!-- mt_251&#45;&gt;mt_293 -->
<g id="edge52" class="edge">
<title>mt_251&#45;&gt;mt_293</title>
<path fill="none" stroke="#374151" d="M2014.27,-36.93C2033.22,-49.13 2055.23,-67.18 2065.9,-90 2072.67,-104.49 2072.67,-111.51 2065.9,-126 2056.23,-146.68 2037.25,-163.45 2019.67,-175.48"/>
<polygon fill="#374151" stroke="#374151" points="2018.73,-174.01 2015.53,-178.23 2020.66,-176.92 2018.73,-174.01"/>
</g>
<!-- mt_252&#45;&gt;mt_251 -->
<g id="edge33" class="edge">
<title>mt_252&#45;&gt;mt_251</title>
<path fill="none" stroke="#374151" d="M1991.99,-89.22C1994.77,-75.99 1995.14,-57.77 1993.1,-43.21"/>
<polygon fill="#374151" stroke="#374151" points="1994.83,-42.93 1992.25,-38.3 1991.38,-43.52 1994.83,-42.93"/>
</g>
<!-- mt_252&#45;&gt;mt_293 -->
<g id="edge51" class="edge">
<title>mt_252&#45;&gt;mt_293</title>
<path fill="none" stroke="#374151" d="M1980.9,-126.81C1980.9,-140.05 1980.9,-158.26 1980.9,-172.82"/>
<polygon fill="#374151" stroke="#374151" points="1979.15,-172.7 1980.9,-177.7 1982.65,-172.7 1979.15,-172.7"/>
</g>
<!-- mt_279 -->
<g id="node30" class="node">
<title>mt_279</title>
<path fill="#e5e7eb" stroke="#374151" stroke-width="2" d="M1722.81,-666C1722.81,-666 1620.98,-666 1620.98,-666 1614.98,-666 1608.98,-660 1608.98,-654 1608.98,-654 1608.98,-642 1608.98,-642 1608.98,-636 1614.98,-630 1620.98,-630 1620.98,-630 1722.81,-630 1722.81,-630 1728.81,-630 1734.81,-636 1734.81,-642 1734.81,-642 1734.81,-654 1734.81,-654 1734.81,-660 1728.81,-666 1722.81,-666"/>
<text xml:space="preserve" text-anchor="middle" x="1671.9" y="-650.4" font-family="Arial" font-size="8.00">mt#279</text>
<text xml:space="preserve" text-anchor="middle" x="1671.9" y="-640.8" font-family="Arial" font-size="8.00">Implement multi&#45;layered agent </text>
</g>
<!-- mt_327 -->
<g id="node73" class="node">
<title>mt_327</title>
<path fill="#e5e7eb" stroke="#374151" stroke-width="2" d="M1884.71,-756C1884.71,-756 1785.09,-756 1785.09,-756 1779.09,-756 1773.09,-750 1773.09,-744 1773.09,-744 1773.09,-732 1773.09,-732 1773.09,-726 1779.09,-720 1785.09,-720 1785.09,-720 1884.71,-720 1884.71,-720 1890.71,-720 1896.71,-726 1896.71,-732 1896.71,-732 1896.71,-744 1896.71,-744 1896.71,-750 1890.71,-756 1884.71,-756"/>
<text xml:space="preserve" text-anchor="middle" x="1834.9" y="-740.4" font-family="Arial" font-size="8.00">mt#327</text>
<text xml:space="preserve" text-anchor="middle" x="1834.9" y="-730.8" font-family="Arial" font-size="8.00">Analyze and architect general </text>
</g>
<!-- mt_279&#45;&gt;mt_327 -->
<g id="edge86" class="edge">
<title>mt_279&#45;&gt;mt_327</title>
<path fill="none" stroke="#374151" d="M1704.88,-666.81C1731.31,-681.07 1768.43,-701.12 1796.25,-716.13"/>
<polygon fill="#374151" stroke="#374151" points="1795.12,-717.51 1800.35,-718.35 1796.78,-714.43 1795.12,-717.51"/>
</g>
<!-- mt_258 -->
<g id="node31" class="node">
<title>mt_258</title>
<path fill="#e5e7eb" stroke="#374151" stroke-width="2" d="M1904.7,-486C1904.7,-486 1805.09,-486 1805.09,-486 1799.09,-486 1793.09,-480 1793.09,-474 1793.09,-474 1793.09,-462 1793.09,-462 1793.09,-456 1799.09,-450 1805.09,-450 1805.09,-450 1904.7,-450 1904.7,-450 1910.7,-450 1916.7,-456 1916.7,-462 1916.7,-462 1916.7,-474 1916.7,-474 1916.7,-480 1910.7,-486 1904.7,-486"/>
<text xml:space="preserve" text-anchor="middle" x="1854.9" y="-470.4" font-family="Arial" font-size="8.00">mt#258</text>
<text xml:space="preserve" text-anchor="middle" x="1854.9" y="-460.8" font-family="Arial" font-size="8.00">Design multi&#45;agent cybernetic </text>
</g>
<!-- mt_258&#45;&gt;mt_279 -->
<g id="edge34" class="edge">
<title>mt_258&#45;&gt;mt_279</title>
<path fill="none" stroke="#374151" d="M1823.65,-486.82C1802.15,-499.93 1773.65,-519.07 1751.9,-540 1725.13,-565.76 1700.54,-601.17 1685.88,-624.07"/>
<polygon fill="#374151" stroke="#374151" points="1684.56,-622.89 1683.36,-628.05 1687.52,-624.76 1684.56,-622.89"/>
</g>
<!-- mt_284 -->
<g id="node32" class="node">
<title>mt_284</title>
<path fill="#e5e7eb" stroke="#374151" stroke-width="2" d="M1888.03,-576C1888.03,-576 1781.76,-576 1781.76,-576 1775.76,-576 1769.76,-570 1769.76,-564 1769.76,-564 1769.76,-552 1769.76,-552 1769.76,-546 1775.76,-540 1781.76,-540 1781.76,-540 1888.03,-540 1888.03,-540 1894.03,-540 1900.03,-546 1900.03,-552 1900.03,-552 1900.03,-564 1900.03,-564 1900.03,-570 1894.03,-576 1888.03,-576"/>
<text xml:space="preserve" text-anchor="middle" x="1834.9" y="-560.4" font-family="Arial" font-size="8.00">mt#284</text>
<text xml:space="preserve" text-anchor="middle" x="1834.9" y="-550.8" font-family="Arial" font-size="8.00">Integrate Task Graph System wi</text>
</g>
<!-- mt_258&#45;&gt;mt_284 -->
<g id="edge36" class="edge">
<title>mt_258&#45;&gt;mt_284</title>
<path fill="none" stroke="#374151" d="M1850.85,-486.81C1847.81,-500.17 1843.63,-518.59 1840.3,-533.21"/>
<polygon fill="#374151" stroke="#374151" points="1838.67,-532.48 1839.27,-537.74 1842.09,-533.25 1838.67,-532.48"/>
</g>
<!-- mt_258&#45;&gt;mt_327 -->
<g id="edge85" class="edge">
<title>mt_258&#45;&gt;mt_327</title>
<path fill="none" stroke="#374151" d="M1877.57,-486.8C1892.15,-499.77 1909.82,-518.74 1917.9,-540 1925.18,-559.19 1933.6,-629.96 1916.9,-666 1907.42,-686.44 1888.9,-703.28 1871.85,-715.42"/>
<polygon fill="#374151" stroke="#374151" points="1870.98,-713.89 1867.86,-718.18 1872.97,-716.77 1870.98,-713.89"/>
</g>
<!-- mt_468 -->
<g id="node74" class="node">
<title>mt_468</title>
<path fill="#e5e7eb" stroke="#374151" stroke-width="2" d="M2124.25,-576C2124.25,-576 2021.54,-576 2021.54,-576 2015.54,-576 2009.54,-570 2009.54,-564 2009.54,-564 2009.54,-552 2009.54,-552 2009.54,-546 2015.54,-540 2021.54,-540 2021.54,-540 2124.25,-540 2124.25,-540 2130.25,-540 2136.25,-546 2136.25,-552 2136.25,-552 2136.25,-564 2136.25,-564 2136.25,-570 2130.25,-576 2124.25,-576"/>
<text xml:space="preserve" text-anchor="middle" x="2072.9" y="-560.4" font-family="Arial" font-size="8.00">mt#468</text>
<text xml:space="preserve" text-anchor="middle" x="2072.9" y="-550.8" font-family="Arial" font-size="8.00">Implement Tool Call Supervisio</text>
</g>
<!-- mt_258&#45;&gt;mt_468 -->
<g id="edge88" class="edge">
<title>mt_258&#45;&gt;mt_468</title>
<path fill="none" stroke="#374151" d="M1899.27,-486.91C1935.08,-501.37 1985.45,-521.7 2022.72,-536.74"/>
<polygon fill="#374151" stroke="#374151" points="2021.89,-538.3 2027.18,-538.54 2023.2,-535.05 2021.89,-538.3"/>
</g>
<!-- mt_260 -->
<g id="node33" class="node">
<title>mt_260</title>
<path fill="#e5e7eb" stroke="#374151" stroke-width="2" d="M1887.36,-666C1887.36,-666 1782.43,-666 1782.43,-666 1776.43,-666 1770.43,-660 1770.43,-654 1770.43,-654 1770.43,-642 1770.43,-642 1770.43,-636 1776.43,-630 1782.43,-630 1782.43,-630 1887.36,-630 1887.36,-630 1893.36,-630 1899.36,-636 1899.36,-642 1899.36,-642 1899.36,-654 1899.36,-654 1899.36,-660 1893.36,-666 1887.36,-666"/>
<text xml:space="preserve" text-anchor="middle" x="1834.9" y="-650.4" font-family="Arial" font-size="8.00">mt#260</text>
<text xml:space="preserve" text-anchor="middle" x="1834.9" y="-640.8" font-family="Arial" font-size="8.00">Implement prompt templates for</text>
</g>
<!-- mt_284&#45;&gt;mt_260 -->
<g id="edge45" class="edge">
<title>mt_284&#45;&gt;mt_260</title>
<path fill="none" stroke="#374151" d="M1823.8,-576.81C1821.02,-590.05 1820.65,-608.26 1822.7,-622.82"/>
<polygon fill="#374151" stroke="#374151" points="1820.97,-623.1 1823.55,-627.73 1824.42,-622.5 1820.97,-623.1"/>
</g>
<!-- mt_260&#45;&gt;mt_284 -->
<g id="edge35" class="edge">
<title>mt_260&#45;&gt;mt_284</title>
<path fill="none" stroke="#374151" d="M1845.99,-629.22C1848.77,-615.99 1849.14,-597.77 1847.1,-583.21"/>
<polygon fill="#374151" stroke="#374151" points="1848.83,-582.93 1846.25,-578.3 1845.38,-583.52 1848.83,-582.93"/>
</g>
<!-- mt_260&#45;&gt;mt_327 -->
<g id="edge87" class="edge">
<title>mt_260&#45;&gt;mt_327</title>
<path fill="none" stroke="#374151" d="M1834.9,-666.81C1834.9,-680.05 1834.9,-698.26 1834.9,-712.82"/>
<polygon fill="#374151" stroke="#374151" points="1833.15,-712.7 1834.9,-717.7 1836.65,-712.7 1833.15,-712.7"/>
</g>
<!-- mt_253 -->
<g id="node36" class="node">
<title>mt_253</title>
<path fill="#bbf7d0" stroke="#16a34a" stroke-width="2" d="M1445.24,-126C1445.24,-126 1342.55,-126 1342.55,-126 1336.55,-126 1330.55,-120 1330.55,-114 1330.55,-114 1330.55,-102 1330.55,-102 1330.55,-96 1336.55,-90 1342.55,-90 1342.55,-90 1445.24,-90 1445.24,-90 1451.24,-90 1457.24,-96 1457.24,-102 1457.24,-102 1457.24,-114 1457.24,-114 1457.24,-120 1451.24,-126 1445.24,-126"/>
<text xml:space="preserve" text-anchor="middle" x="1393.9" y="-110.4" font-family="Arial" font-size="8.00">mt#253</text>
<text xml:space="preserve" text-anchor="middle" x="1393.9" y="-100.8" font-family="Arial" font-size="8.00">Implement Task Similarity Sear</text>
</g>
<!-- mt_253&#45;&gt;mt_254 -->
<g id="edge40" class="edge">
<title>mt_253&#45;&gt;mt_254</title>
<path fill="none" stroke="#374151" d="M1355.65,-126.81C1324.88,-141.13 1281.61,-161.28 1249.31,-176.32"/>
<polygon fill="#374151" stroke="#374151" points="1248.58,-174.73 1244.78,-178.43 1250.05,-177.9 1248.58,-174.73"/>
</g>
<!-- mt_253&#45;&gt;mt_442 -->
<g id="edge79" class="edge">
<title>mt_253&#45;&gt;mt_442</title>
<path fill="none" stroke="#374151" d="M1457.99,-119.87C1519.44,-131.75 1605.76,-152.78 1625.9,-180 1659.2,-225.02 1648.25,-254.66 1625.9,-306 1598.31,-369.36 1532.13,-419.04 1490.09,-445.62"/>
<polygon fill="#374151" stroke="#374151" points="1489.18,-444.12 1485.86,-448.25 1491.03,-447.09 1489.18,-444.12"/>
</g>
<!-- mt_273 -->
<g id="node37" class="node">
<title>mt_273</title>
<path fill="#e5e7eb" stroke="#374151" stroke-width="2" d="M2787.26,-126C2787.26,-126 2672.54,-126 2672.54,-126 2666.54,-126 2660.54,-120 2660.54,-114 2660.54,-114 2660.54,-102 2660.54,-102 2660.54,-96 2666.54,-90 2672.54,-90 2672.54,-90 2787.26,-90 2787.26,-90 2793.26,-90 2799.26,-96 2799.26,-102 2799.26,-102 2799.26,-114 2799.26,-114 2799.26,-120 2793.26,-126 2787.26,-126"/>
<text xml:space="preserve" text-anchor="middle" x="2729.9" y="-110.4" font-family="Arial" font-size="8.00">mt#273</text>
<text xml:space="preserve" text-anchor="middle" x="2729.9" y="-100.8" font-family="Arial" font-size="8.00">Implement AI&#45;Powered PR Conten</text>
</g>
<!-- mt_203 -->
<g id="node38" class="node">
<title>mt_203</title>
<path fill="#bbf7d0" stroke="#16a34a" stroke-width="2" d="M2615.48,-36C2615.48,-36 2496.32,-36 2496.32,-36 2490.32,-36 2484.32,-30 2484.32,-24 2484.32,-24 2484.32,-12 2484.32,-12 2484.32,-6 2490.32,0 2496.32,0 2496.32,0 2615.48,0 2615.48,0 2621.48,0 2627.48,-6 2627.48,-12 2627.48,-12 2627.48,-24 2627.48,-24 2627.48,-30 2621.48,-36 2615.48,-36"/>
<text xml:space="preserve" text-anchor="middle" x="2555.9" y="-20.4" font-family="Arial" font-size="8.00">mt#203</text>
<text xml:space="preserve" text-anchor="middle" x="2555.9" y="-10.8" font-family="Arial" font-size="8.00">Improve Session PR Command Out</text>
</g>
<!-- mt_203&#45;&gt;mt_273 -->
<g id="edge42" class="edge">
<title>mt_203&#45;&gt;mt_273</title>
<path fill="none" stroke="#374151" d="M2591.11,-36.81C2619.32,-51.07 2658.95,-71.12 2688.64,-86.13"/>
<polygon fill="#374151" stroke="#374151" points="2687.84,-87.69 2693.09,-88.38 2689.42,-84.57 2687.84,-87.69"/>
</g>
<!-- mt_010 -->
<g id="node39" class="node">
<title>mt_010</title>
<path fill="#bbf7d0" stroke="#16a34a" stroke-width="2" d="M2784.15,-36C2784.15,-36 2675.64,-36 2675.64,-36 2669.64,-36 2663.64,-30 2663.64,-24 2663.64,-24 2663.64,-12 2663.64,-12 2663.64,-6 2669.64,0 2675.64,0 2675.64,0 2784.15,0 2784.15,0 2790.15,0 2796.15,-6 2796.15,-12 2796.15,-12 2796.15,-24 2796.15,-24 2796.15,-30 2790.15,-36 2784.15,-36"/>
<text xml:space="preserve" text-anchor="middle" x="2729.9" y="-20.4" font-family="Arial" font-size="8.00">mt#010</text>
<text xml:space="preserve" text-anchor="middle" x="2729.9" y="-10.8" font-family="Arial" font-size="8.00">~~Enhance `git pr` Command to </text>
</g>
<!-- mt_010&#45;&gt;mt_273 -->
<g id="edge43" class="edge">
<title>mt_010&#45;&gt;mt_273</title>
<path fill="none" stroke="#374151" d="M2729.9,-36.81C2729.9,-50.05 2729.9,-68.26 2729.9,-82.82"/>
<polygon fill="#374151" stroke="#374151" points="2728.15,-82.7 2729.9,-87.7 2731.65,-82.7 2728.15,-82.7"/>
</g>
<!-- mt_025 -->
<g id="node40" class="node">
<title>mt_025</title>
<path fill="#bbf7d0" stroke="#16a34a" stroke-width="2" d="M2961.59,-36C2961.59,-36 2844.2,-36 2844.2,-36 2838.2,-36 2832.2,-30 2832.2,-24 2832.2,-24 2832.2,-12 2832.2,-12 2832.2,-6 2838.2,0 2844.2,0 2844.2,0 2961.59,0 2961.59,0 2967.59,0 2973.59,-6 2973.59,-12 2973.59,-12 2973.59,-24 2973.59,-24 2973.59,-30 2967.59,-36 2961.59,-36"/>
<text xml:space="preserve" text-anchor="middle" x="2902.9" y="-20.4" font-family="Arial" font-size="8.00">mt#025</text>
<text xml:space="preserve" text-anchor="middle" x="2902.9" y="-10.8" font-family="Arial" font-size="8.00">Add PR Merging Commands for Se</text>
</g>
<!-- mt_025&#45;&gt;mt_273 -->
<g id="edge44" class="edge">
<title>mt_025&#45;&gt;mt_273</title>
<path fill="none" stroke="#374151" d="M2867.89,-36.81C2839.84,-51.07 2800.44,-71.12 2770.92,-86.13"/>
<polygon fill="#374151" stroke="#374151" points="2770.16,-84.55 2766.5,-88.38 2771.75,-87.67 2770.16,-84.55"/>
</g>
<!-- mt_277 -->
<g id="node44" class="node">
<title>mt_277</title>
<path fill="#e5e7eb" stroke="#374151" stroke-width="2" d="M3129.47,-126C3129.47,-126 3018.32,-126 3018.32,-126 3012.32,-126 3006.32,-120 3006.32,-114 3006.32,-114 3006.32,-102 3006.32,-102 3006.32,-96 3012.32,-90 3018.32,-90 3018.32,-90 3129.47,-90 3129.47,-90 3135.47,-90 3141.47,-96 3141.47,-102 3141.47,-102 3141.47,-114 3141.47,-114 3141.47,-120 3135.47,-126 3129.47,-126"/>
<text xml:space="preserve" text-anchor="middle" x="3073.9" y="-110.4" font-family="Arial" font-size="8.00">mt#277</text>
<text xml:space="preserve" text-anchor="middle" x="3073.9" y="-100.8" font-family="Arial" font-size="8.00">Implement Stacked PR Workflow </text>
</g>
<!-- mt_025&#45;&gt;mt_277 -->
<g id="edge50" class="edge">
<title>mt_025&#45;&gt;mt_277</title>
<path fill="none" stroke="#374151" d="M2937.5,-36.81C2965.22,-51.07 3004.17,-71.12 3033.35,-86.13"/>
<polygon fill="#374151" stroke="#374151" points="3032.46,-87.64 3037.7,-88.37 3034.06,-84.53 3032.46,-87.64"/>
</g>
<!-- mt_262 -->
<g id="node41" class="node">
<title>mt_262</title>
<path fill="#e5e7eb" stroke="#374151" stroke-width="2" d="M3457.26,-126C3457.26,-126 3358.53,-126 3358.53,-126 3352.53,-126 3346.53,-120 3346.53,-114 3346.53,-114 3346.53,-102 3346.53,-102 3346.53,-96 3352.53,-90 3358.53,-90 3358.53,-90 3457.26,-90 3457.26,-90 3463.26,-90 3469.26,-96 3469.26,-102 3469.26,-102 3469.26,-114 3469.26,-114 3469.26,-120 3463.26,-126 3457.26,-126"/>
<text xml:space="preserve" text-anchor="middle" x="3407.9" y="-110.4" font-family="Arial" font-size="8.00">mt#262</text>
<text xml:space="preserve" text-anchor="middle" x="3407.9" y="-100.8" font-family="Arial" font-size="8.00">Explore consolidating ESLint r</text>
</g>
<!-- mt_178 -->
<g id="node42" class="node">
<title>mt_178</title>
<path fill="#bbf7d0" stroke="#16a34a" stroke-width="2" d="M3464.03,-36C3464.03,-36 3357.76,-36 3357.76,-36 3351.76,-36 3345.76,-30 3345.76,-24 3345.76,-24 3345.76,-12 3345.76,-12 3345.76,-6 3351.76,0 3357.76,0 3357.76,0 3464.03,0 3464.03,0 3470.03,0 3476.03,-6 3476.03,-12 3476.03,-12 3476.03,-24 3476.03,-24 3476.03,-30 3470.03,-36 3464.03,-36"/>
<text xml:space="preserve" text-anchor="middle" x="3410.9" y="-20.4" font-family="Arial" font-size="8.00">mt#178</text>
<text xml:space="preserve" text-anchor="middle" x="3410.9" y="-10.8" font-family="Arial" font-size="8.00">Establish Codemod Best Practic</text>
</g>
<!-- mt_178&#45;&gt;mt_262 -->
<g id="edge46" class="edge">
<title>mt_178&#45;&gt;mt_262</title>
<path fill="none" stroke="#374151" d="M3410.29,-36.81C3409.84,-50.05 3409.22,-68.26 3408.72,-82.82"/>
<polygon fill="#374151" stroke="#374151" points="3406.98,-82.65 3408.55,-87.71 3410.47,-82.77 3406.98,-82.65"/>
</g>
<!-- mt_268 -->
<g id="node43" class="node">
<title>mt_268</title>
<path fill="#e5e7eb" stroke="#374151" stroke-width="2" d="M3638.36,-126C3638.36,-126 3517.43,-126 3517.43,-126 3511.43,-126 3505.43,-120 3505.43,-114 3505.43,-114 3505.43,-102 3505.43,-102 3505.43,-96 3511.43,-90 3517.43,-90 3517.43,-90 3638.36,-90 3638.36,-90 3644.36,-90 3650.36,-96 3650.36,-102 3650.36,-102 3650.36,-114 3650.36,-114 3650.36,-120 3644.36,-126 3638.36,-126"/>
<text xml:space="preserve" text-anchor="middle" x="3577.9" y="-110.4" font-family="Arial" font-size="8.00">mt#268</text>
<text xml:space="preserve" text-anchor="middle" x="3577.9" y="-100.8" font-family="Arial" font-size="8.00">Complete AST&#45;Only Codemod Fram</text>
</g>
<!-- mt_178&#45;&gt;mt_268 -->
<g id="edge47" class="edge">
<title>mt_178&#45;&gt;mt_268</title>
<path fill="none" stroke="#374151" d="M3444.69,-36.81C3471.76,-51.07 3509.8,-71.12 3538.3,-86.13"/>
<polygon fill="#374151" stroke="#374151" points="3537.29,-87.58 3542.53,-88.36 3538.92,-84.48 3537.29,-87.58"/>
</g>
<!-- mt_144 -->
<g id="node45" class="node">
<title>mt_144</title>
<path fill="#bbf7d0" stroke="#16a34a" stroke-width="2" d="M3126.59,-36C3126.59,-36 3021.21,-36 3021.21,-36 3015.21,-36 3009.21,-30 3009.21,-24 3009.21,-24 3009.21,-12 3009.21,-12 3009.21,-6 3015.21,0 3021.21,0 3021.21,0 3126.59,0 3126.59,0 3132.59,0 3138.59,-6 3138.59,-12 3138.59,-12 3138.59,-24 3138.59,-24 3138.59,-30 3132.59,-36 3126.59,-36"/>
<text xml:space="preserve" text-anchor="middle" x="3073.9" y="-20.4" font-family="Arial" font-size="8.00">mt#144</text>
<text xml:space="preserve" text-anchor="middle" x="3073.9" y="-10.8" font-family="Arial" font-size="8.00">Fix Session PR and Git Prepare</text>
</g>
<!-- mt_144&#45;&gt;mt_277 -->
<g id="edge48" class="edge">
<title>mt_144&#45;&gt;mt_277</title>
<path fill="none" stroke="#374151" d="M3073.9,-36.81C3073.9,-50.05 3073.9,-68.26 3073.9,-82.82"/>
<polygon fill="#374151" stroke="#374151" points="3072.15,-82.7 3073.9,-87.7 3075.65,-82.7 3072.15,-82.7"/>
</g>
<!-- mt_174 -->
<g id="node46" class="node">
<title>mt_174</title>
<path fill="#bbf7d0" stroke="#16a34a" stroke-width="2" d="M3297.69,-36C3297.69,-36 3186.1,-36 3186.1,-36 3180.1,-36 3174.1,-30 3174.1,-24 3174.1,-24 3174.1,-12 3174.1,-12 3174.1,-6 3180.1,0 3186.1,0 3186.1,0 3297.69,0 3297.69,0 3303.69,0 3309.69,-6 3309.69,-12 3309.69,-12 3309.69,-24 3309.69,-24 3309.69,-30 3303.69,-36 3297.69,-36"/>
<text xml:space="preserve" text-anchor="middle" x="3241.9" y="-20.4" font-family="Arial" font-size="8.00">mt#174</text>
<text xml:space="preserve" text-anchor="middle" x="3241.9" y="-10.8" font-family="Arial" font-size="8.00">Review Session PR Workflow Arc</text>
</g>
<!-- mt_174&#45;&gt;mt_277 -->
<g id="edge49" class="edge">
<title>mt_174&#45;&gt;mt_277</title>
<path fill="none" stroke="#374151" d="M3207.9,-36.81C3180.66,-51.07 3142.4,-71.12 3113.73,-86.13"/>
<polygon fill="#374151" stroke="#374151" points="3113.09,-84.49 3109.47,-88.37 3114.71,-87.6 3113.09,-84.49"/>
</g>
<!-- mt_307 -->
<g id="node49" class="node">
<title>mt_307</title>
<path fill="#bbf7d0" stroke="#16a34a" stroke-width="2" d="M943.82,-126C943.82,-126 845.98,-126 845.98,-126 839.98,-126 833.98,-120 833.98,-114 833.98,-114 833.98,-102 833.98,-102 833.98,-96 839.98,-90 845.98,-90 845.98,-90 943.82,-90 943.82,-90 949.82,-90 955.82,-96 955.82,-102 955.82,-102 955.82,-114 955.82,-114 955.82,-120 949.82,-126 943.82,-126"/>
<text xml:space="preserve" text-anchor="middle" x="894.9" y="-110.4" font-family="Arial" font-size="8.00">mt#307</text>
<text xml:space="preserve" text-anchor="middle" x="894.9" y="-100.8" font-family="Arial" font-size="8.00">Explore adding session lint co</text>
</g>
<!-- mt_307&#45;&gt;mt_321 -->
<g id="edge54" class="edge">
<title>mt_307&#45;&gt;mt_321</title>
<path fill="none" stroke="#374151" d="M894.9,-126.81C894.9,-140.05 894.9,-158.26 894.9,-172.82"/>
<polygon fill="#374151" stroke="#374151" points="893.15,-172.7 894.9,-177.7 896.65,-172.7 893.15,-172.7"/>
</g>
<!-- mt_324 -->
<g id="node50" class="node">
<title>mt_324</title>
<path fill="#e5e7eb" stroke="#374151" stroke-width="2" d="M3803.59,-126C3803.59,-126 3698.21,-126 3698.21,-126 3692.21,-126 3686.21,-120 3686.21,-114 3686.21,-114 3686.21,-102 3686.21,-102 3686.21,-96 3692.21,-90 3698.21,-90 3698.21,-90 3803.59,-90 3803.59,-90 3809.59,-90 3815.59,-96 3815.59,-102 3815.59,-102 3815.59,-114 3815.59,-114 3815.59,-120 3809.59,-126 3803.59,-126"/>
<text xml:space="preserve" text-anchor="middle" x="3750.9" y="-110.4" font-family="Arial" font-size="8.00">mt#324</text>
<text xml:space="preserve" text-anchor="middle" x="3750.9" y="-100.8" font-family="Arial" font-size="8.00">Add MCP Client Registration Fu</text>
</g>
<!-- mt_047 -->
<g id="node51" class="node">
<title>mt_047</title>
<path fill="#bbf7d0" stroke="#16a34a" stroke-width="2" d="M3635.91,-36C3635.91,-36 3527.88,-36 3527.88,-36 3521.88,-36 3515.88,-30 3515.88,-24 3515.88,-24 3515.88,-12 3515.88,-12 3515.88,-6 3521.88,0 3527.88,0 3527.88,0 3635.91,0 3635.91,0 3641.91,0 3647.91,-6 3647.91,-12 3647.91,-12 3647.91,-24 3647.91,-24 3647.91,-30 3641.91,-36 3635.91,-36"/>
<text xml:space="preserve" text-anchor="middle" x="3581.9" y="-20.4" font-family="Arial" font-size="8.00">mt#047</text>
<text xml:space="preserve" text-anchor="middle" x="3581.9" y="-10.8" font-family="Arial" font-size="8.00">Configure MCP Server in Minsky</text>
</g>
<!-- mt_047&#45;&gt;mt_324 -->
<g id="edge56" class="edge">
<title>mt_047&#45;&gt;mt_324</title>
<path fill="none" stroke="#374151" d="M3616.1,-36.81C3643.49,-51.07 3681.98,-71.12 3710.82,-86.13"/>
<polygon fill="#374151" stroke="#374151" points="3709.87,-87.61 3715.12,-88.37 3711.49,-84.51 3709.87,-87.61"/>
</g>
<!-- mt_282 -->
<g id="node52" class="node">
<title>mt_282</title>
<path fill="#bbf7d0" stroke="#16a34a" stroke-width="2" d="M3806.24,-36C3806.24,-36 3695.55,-36 3695.55,-36 3689.55,-36 3683.55,-30 3683.55,-24 3683.55,-24 3683.55,-12 3683.55,-12 3683.55,-6 3689.55,0 3695.55,0 3695.55,0 3806.24,0 3806.24,0 3812.24,0 3818.24,-6 3818.24,-12 3818.24,-12 3818.24,-24 3818.24,-24 3818.24,-30 3812.24,-36 3806.24,-36"/>
<text xml:space="preserve" text-anchor="middle" x="3750.9" y="-20.4" font-family="Arial" font-size="8.00">mt#282</text>
<text xml:space="preserve" text-anchor="middle" x="3750.9" y="-10.8" font-family="Arial" font-size="8.00">Port MCP Server from FastMCP t</text>
</g>
<!-- mt_282&#45;&gt;mt_324 -->
<g id="edge57" class="edge">
<title>mt_282&#45;&gt;mt_324</title>
<path fill="none" stroke="#374151" d="M3750.9,-36.81C3750.9,-50.05 3750.9,-68.26 3750.9,-82.82"/>
<polygon fill="#374151" stroke="#374151" points="3749.15,-82.7 3750.9,-87.7 3752.65,-82.7 3749.15,-82.7"/>
</g>
<!-- mt_286 -->
<g id="node53" class="node">
<title>mt_286</title>
<path fill="#bbf7d0" stroke="#16a34a" stroke-width="2" d="M3972.03,-36C3972.03,-36 3865.77,-36 3865.77,-36 3859.77,-36 3853.77,-30 3853.77,-24 3853.77,-24 3853.77,-12 3853.77,-12 3853.77,-6 3859.77,0 3865.77,0 3865.77,0 3972.03,0 3972.03,0 3978.03,0 3984.03,-6 3984.03,-12 3984.03,-12 3984.03,-24 3984.03,-24 3984.03,-30 3978.03,-36 3972.03,-36"/>
<text xml:space="preserve" text-anchor="middle" x="3918.9" y="-20.4" font-family="Arial" font-size="8.00">mt#286</text>
<text xml:space="preserve" text-anchor="middle" x="3918.9" y="-10.8" font-family="Arial" font-size="8.00">Fix MCP Server and CLI Issues </text>
</g>
<!-- mt_286&#45;&gt;mt_324 -->
<g id="edge58" class="edge">
<title>mt_286&#45;&gt;mt_324</title>
<path fill="none" stroke="#374151" d="M3884.9,-36.81C3857.66,-51.07 3819.4,-71.12 3790.73,-86.13"/>
<polygon fill="#374151" stroke="#374151" points="3790.09,-84.49 3786.47,-88.37 3791.71,-87.6 3790.09,-84.49"/>
</g>
<!-- mt_349&#45;&gt;mt_441 -->
<g id="edge65" class="edge">
<title>mt_349&#45;&gt;mt_441</title>
<path fill="none" stroke="#374151" d="M1717.29,-301.33C1635.55,-317.17 1493.67,-344.67 1405.33,-361.8"/>
<polygon fill="#374151" stroke="#374151" points="1405.12,-360.05 1400.55,-362.72 1405.79,-363.49 1405.12,-360.05"/>
</g>
<!-- mt_349&#45;&gt;mt_442 -->
<g id="edge72" class="edge">
<title>mt_349&#45;&gt;mt_442</title>
<path fill="none" stroke="#374151" d="M1770.49,-306.95C1755.76,-330.78 1726.62,-372.56 1690.9,-396 1641.37,-428.5 1576.46,-446.56 1526.94,-456.33"/>
<polygon fill="#374151" stroke="#374151" points="1526.74,-454.58 1522.16,-457.25 1527.4,-458.02 1526.74,-454.58"/>
</g>
<!-- mt_350 -->
<g id="node55" class="node">
<title>mt_350</title>
<path fill="#e5e7eb" stroke="#374151" stroke-width="2" d="M4141.14,-126C4141.14,-126 4028.65,-126 4028.65,-126 4022.65,-126 4016.65,-120 4016.65,-114 4016.65,-114 4016.65,-102 4016.65,-102 4016.65,-96 4022.65,-90 4028.65,-90 4028.65,-90 4141.14,-90 4141.14,-90 4147.14,-90 4153.14,-96 4153.14,-102 4153.14,-102 4153.14,-114 4153.14,-114 4153.14,-120 4147.14,-126 4141.14,-126"/>
<text xml:space="preserve" text-anchor="middle" x="4084.9" y="-110.4" font-family="Arial" font-size="8.00">mt#350</text>
<text xml:space="preserve" text-anchor="middle" x="4084.9" y="-100.8" font-family="Arial" font-size="8.00">Explore Active Sessions Comman</text>
</g>
<!-- mt_229 -->
<g id="node56" class="node">
<title>mt_229</title>
<path fill="#bbf7d0" stroke="#16a34a" stroke-width="2" d="M4137.59,-36C4137.59,-36 4032.2,-36 4032.2,-36 4026.2,-36 4020.2,-30 4020.2,-24 4020.2,-24 4020.2,-12 4020.2,-12 4020.2,-6 4026.2,0 4032.2,0 4032.2,0 4137.59,0 4137.59,0 4143.59,0 4149.59,-6 4149.59,-12 4149.59,-12 4149.59,-24 4149.59,-24 4149.59,-30 4143.59,-36 4137.59,-36"/>
<text xml:space="preserve" text-anchor="middle" x="4084.9" y="-20.4" font-family="Arial" font-size="8.00">mt#229</text>
<text xml:space="preserve" text-anchor="middle" x="4084.9" y="-10.8" font-family="Arial" font-size="8.00">Evaluate mandatory task&#45;sessio</text>
</g>
<!-- mt_229&#45;&gt;mt_350 -->
<g id="edge60" class="edge">
<title>mt_229&#45;&gt;mt_350</title>
<path fill="none" stroke="#374151" d="M4084.9,-36.81C4084.9,-50.05 4084.9,-68.26 4084.9,-82.82"/>
<polygon fill="#374151" stroke="#374151" points="4083.15,-82.7 4084.9,-87.7 4086.65,-82.7 4083.15,-82.7"/>
</g>
<!-- mt_363 -->
<g id="node58" class="node">
<title>mt_363</title>
<path fill="#e5e7eb" stroke="#374151" stroke-width="2" d="M4390.7,-126C4390.7,-126 4283.09,-126 4283.09,-126 4277.09,-126 4271.09,-120 4271.09,-114 4271.09,-114 4271.09,-102 4271.09,-102 4271.09,-96 4277.09,-90 4283.09,-90 4283.09,-90 4390.7,-90 4390.7,-90 4396.7,-90 4402.7,-96 4402.7,-102 4402.7,-102 4402.7,-114 4402.7,-114 4402.7,-120 4396.7,-126 4390.7,-126"/>
<text xml:space="preserve" text-anchor="middle" x="4336.9" y="-110.4" font-family="Arial" font-size="8.00">mt#363</text>
<text xml:space="preserve" text-anchor="middle" x="4336.9" y="-100.8" font-family="Arial" font-size="8.00">Implement Linear Backend for M</text>
</g>
<!-- mt_356 -->
<g id="node59" class="node">
<title>mt_356</title>
<path fill="#bbf7d0" stroke="#16a34a" stroke-width="2" d="M4306.58,-36C4306.58,-36 4197.21,-36 4197.21,-36 4191.21,-36 4185.21,-30 4185.21,-24 4185.21,-24 4185.21,-12 4185.21,-12 4185.21,-6 4191.21,0 4197.21,0 4197.21,0 4306.58,0 4306.58,0 4312.58,0 4318.58,-6 4318.58,-12 4318.58,-12 4318.58,-24 4318.58,-24 4318.58,-30 4312.58,-36 4306.58,-36"/>
<text xml:space="preserve" text-anchor="middle" x="4251.9" y="-20.4" font-family="Arial" font-size="8.00">mt#356</text>
<text xml:space="preserve" text-anchor="middle" x="4251.9" y="-10.8" font-family="Arial" font-size="8.00">Implement Multi&#45;Backend Task S</text>
</g>
<!-- mt_356&#45;&gt;mt_363 -->
<g id="edge62" class="edge">
<title>mt_356&#45;&gt;mt_363</title>
<path fill="none" stroke="#374151" d="M4269.1,-36.81C4282.46,-50.64 4301.07,-69.91 4315.42,-84.76"/>
<polygon fill="#374151" stroke="#374151" points="4313.94,-85.75 4318.67,-88.13 4316.45,-83.32 4313.94,-85.75"/>
</g>
<!-- mt_357 -->
<g id="node60" class="node">
<title>mt_357</title>
<path fill="#bbf7d0" stroke="#16a34a" stroke-width="2" d="M4471.37,-36C4471.37,-36 4366.42,-36 4366.42,-36 4360.42,-36 4354.42,-30 4354.42,-24 4354.42,-24 4354.42,-12 4354.42,-12 4354.42,-6 4360.42,0 4366.42,0 4366.42,0 4471.37,0 4471.37,0 4477.37,0 4483.37,-6 4483.37,-12 4483.37,-12 4483.37,-24 4483.37,-24 4483.37,-30 4477.37,-36 4471.37,-36"/>
<text xml:space="preserve" text-anchor="middle" x="4418.9" y="-20.4" font-family="Arial" font-size="8.00">mt#357</text>
<text xml:space="preserve" text-anchor="middle" x="4418.9" y="-10.8" font-family="Arial" font-size="8.00">Integrate GitHub Issues Backen</text>
</g>
<!-- mt_357&#45;&gt;mt_363 -->
<g id="edge63" class="edge">
<title>mt_357&#45;&gt;mt_363</title>
<path fill="none" stroke="#374151" d="M4402.3,-36.81C4389.41,-50.64 4371.45,-69.91 4357.62,-84.76"/>
<polygon fill="#374151" stroke="#374151" points="4356.63,-83.26 4354.5,-88.11 4359.19,-85.65 4356.63,-83.26"/>
</g>
<!-- mt_398 -->
<g id="node61" class="node">
<title>mt_398</title>
<path fill="#e5e7eb" stroke="#374151" stroke-width="2" d="M4639.8,-126C4639.8,-126 4537.99,-126 4537.99,-126 4531.99,-126 4525.99,-120 4525.99,-114 4525.99,-114 4525.99,-102 4525.99,-102 4525.99,-96 4531.99,-90 4537.99,-90 4537.99,-90 4639.8,-90 4639.8,-90 4645.8,-90 4651.8,-96 4651.8,-102 4651.8,-102 4651.8,-114 4651.8,-114 4651.8,-120 4645.8,-126 4639.8,-126"/>
<text xml:space="preserve" text-anchor="middle" x="4588.9" y="-110.4" font-family="Arial" font-size="8.00">mt#398</text>
<text xml:space="preserve" text-anchor="middle" x="4588.9" y="-100.8" font-family="Arial" font-size="8.00">Improve test mock filesystem a</text>
</g>
<!-- mt_176 -->
<g id="node62" class="node">
<title>mt_176</title>
<path fill="#bbf7d0" stroke="#16a34a" stroke-width="2" d="M4646.49,-36C4646.49,-36 4531.31,-36 4531.31,-36 4525.31,-36 4519.31,-30 4519.31,-24 4519.31,-24 4519.31,-12 4519.31,-12 4519.31,-6 4525.31,0 4531.31,0 4531.31,0 4646.49,0 4646.49,0 4652.49,0 4658.49,-6 4658.49,-12 4658.49,-12 4658.49,-24 4658.49,-24 4658.49,-30 4652.49,-36 4646.49,-36"/>
<text xml:space="preserve" text-anchor="middle" x="4588.9" y="-20.4" font-family="Arial" font-size="8.00">mt#176</text>
<text xml:space="preserve" text-anchor="middle" x="4588.9" y="-10.8" font-family="Arial" font-size="8.00">Comprehensive Session Database</text>
</g>
<!-- mt_176&#45;&gt;mt_398 -->
<g id="edge64" class="edge">
<title>mt_176&#45;&gt;mt_398</title>
<path fill="none" stroke="#374151" d="M4588.9,-36.81C4588.9,-50.05 4588.9,-68.26 4588.9,-82.82"/>
<polygon fill="#374151" stroke="#374151" points="4587.15,-82.7 4588.9,-87.7 4590.65,-82.7 4587.15,-82.7"/>
</g>
<!-- mt_441&#45;&gt;mt_442 -->
<g id="edge71" class="edge">
<title>mt_441&#45;&gt;mt_442</title>
<path fill="none" stroke="#374151" d="M1352.39,-396.81C1372.55,-410.88 1400.75,-430.58 1422.15,-445.53"/>
<polygon fill="#374151" stroke="#374151" points="1421.09,-446.92 1426.2,-448.35 1423.1,-444.05 1421.09,-446.92"/>
</g>
<!-- mt_256 -->
<g id="node64" class="node">
<title>mt_256</title>
<path fill="#bbf7d0" stroke="#16a34a" stroke-width="2" d="M1411.47,-306C1411.47,-306 1300.32,-306 1300.32,-306 1294.32,-306 1288.32,-300 1288.32,-294 1288.32,-294 1288.32,-282 1288.32,-282 1288.32,-276 1294.32,-270 1300.32,-270 1300.32,-270 1411.47,-270 1411.47,-270 1417.47,-270 1423.47,-276 1423.47,-282 1423.47,-282 1423.47,-294 1423.47,-294 1423.47,-300 1417.47,-306 1411.47,-306"/>
<text xml:space="preserve" text-anchor="middle" x="1355.9" y="-290.4" font-family="Arial" font-size="8.00">mt#256</text>
<text xml:space="preserve" text-anchor="middle" x="1355.9" y="-280.8" font-family="Arial" font-size="8.00">Implement Context&#45;Aware Tool M</text>
</g>
<!-- mt_256&#45;&gt;mt_441 -->
<g id="edge66" class="edge">
<title>mt_256&#45;&gt;mt_441</title>
<path fill="none" stroke="#374151" d="M1350.03,-306.81C1345.63,-320.17 1339.55,-338.59 1334.74,-353.21"/>
<polygon fill="#374151" stroke="#374151" points="1333.13,-352.48 1333.23,-357.78 1336.46,-353.58 1333.13,-352.48"/>
</g>
<!-- mt_256&#45;&gt;mt_442 -->
<g id="edge76" class="edge">
<title>mt_256&#45;&gt;mt_442</title>
<path fill="none" stroke="#374151" d="M1374.25,-306.85C1387.34,-320.42 1404.56,-340.08 1415.9,-360 1431.02,-386.59 1441.43,-420.4 1447.27,-442.82"/>
<polygon fill="#374151" stroke="#374151" points="1445.57,-443.22 1448.49,-447.64 1448.96,-442.36 1445.57,-443.22"/>
</g>
<!-- mt_082 -->
<g id="node65" class="node">
<title>mt_082</title>
<path fill="#bbf7d0" stroke="#16a34a" stroke-width="2" d="M1595.93,-306C1595.93,-306 1471.86,-306 1471.86,-306 1465.86,-306 1459.86,-300 1459.86,-294 1459.86,-294 1459.86,-282 1459.86,-282 1459.86,-276 1465.86,-270 1471.86,-270 1471.86,-270 1595.93,-270 1595.93,-270 1601.93,-270 1607.93,-276 1607.93,-282 1607.93,-282 1607.93,-294 1607.93,-294 1607.93,-300 1601.93,-306 1595.93,-306"/>
<text xml:space="preserve" text-anchor="middle" x="1533.9" y="-290.4" font-family="Arial" font-size="8.00">mt#082</text>
<text xml:space="preserve" text-anchor="middle" x="1533.9" y="-280.8" font-family="Arial" font-size="8.00">Add Context Management Command</text>
</g>
<!-- mt_082&#45;&gt;mt_441 -->
<g id="edge70" class="edge">
<title>mt_082&#45;&gt;mt_441</title>
<path fill="none" stroke="#374151" d="M1491.76,-306.91C1457.76,-321.37 1409.93,-341.7 1374.55,-356.74"/>
<polygon fill="#374151" stroke="#374151" points="1374.29,-354.95 1370.37,-358.52 1375.66,-358.17 1374.29,-354.95"/>
</g>
<!-- mt_082&#45;&gt;mt_442 -->
<g id="edge74" class="edge">
<title>mt_082&#45;&gt;mt_442</title>
<path fill="none" stroke="#374151" d="M1525.83,-306.72C1511.13,-339.02 1479.98,-407.48 1463.55,-443.58"/>
<polygon fill="#374151" stroke="#374151" points="1462.15,-442.44 1461.67,-447.71 1465.34,-443.89 1462.15,-442.44"/>
</g>
<!-- mt_235 -->
<g id="node67" class="node">
<title>mt_235</title>
<path fill="#bbf7d0" stroke="#16a34a" stroke-width="2" d="M1906.26,-396C1906.26,-396 1803.53,-396 1803.53,-396 1797.53,-396 1791.53,-390 1791.53,-384 1791.53,-384 1791.53,-372 1791.53,-372 1791.53,-366 1797.53,-360 1803.53,-360 1803.53,-360 1906.26,-360 1906.26,-360 1912.26,-360 1918.26,-366 1918.26,-372 1918.26,-372 1918.26,-384 1918.26,-384 1918.26,-390 1912.26,-396 1906.26,-396"/>
<text xml:space="preserve" text-anchor="middle" x="1854.9" y="-380.4" font-family="Arial" font-size="8.00">mt#235</text>
<text xml:space="preserve" text-anchor="middle" x="1854.9" y="-370.8" font-family="Arial" font-size="8.00">Add metadata support to tasks </text>
</g>
<!-- mt_235&#45;&gt;mt_258 -->
<g id="edge83" class="edge">
<title>mt_235&#45;&gt;mt_258</title>
<path fill="none" stroke="#374151" d="M1854.9,-396.81C1854.9,-410.05 1854.9,-428.26 1854.9,-442.82"/>
<polygon fill="#374151" stroke="#374151" points="1853.15,-442.7 1854.9,-447.7 1856.65,-442.7 1853.15,-442.7"/>
</g>
<!-- mt_235&#45;&gt;mt_442 -->
<g id="edge78" class="edge">
<title>mt_235&#45;&gt;mt_442</title>
<path fill="none" stroke="#374151" d="M1790.75,-393.04C1718.85,-408.78 1602.44,-434.26 1526.78,-450.83"/>
<polygon fill="#374151" stroke="#374151" points="1526.49,-449.1 1521.98,-451.88 1527.24,-452.52 1526.49,-449.1"/>
</g>
<!-- mt_190 -->
<g id="node68" class="node">
<title>mt_190</title>
<path fill="#e5e7eb" stroke="#374151" stroke-width="2" d="M4901.37,-126C4901.37,-126 4792.42,-126 4792.42,-126 4786.42,-126 4780.42,-120 4780.42,-114 4780.42,-114 4780.42,-102 4780.42,-102 4780.42,-96 4786.42,-90 4792.42,-90 4792.42,-90 4901.37,-90 4901.37,-90 4907.37,-90 4913.37,-96 4913.37,-102 4913.37,-102 4913.37,-114 4913.37,-114 4913.37,-120 4907.37,-126 4901.37,-126"/>
<text xml:space="preserve" text-anchor="middle" x="4846.9" y="-110.4" font-family="Arial" font-size="8.00">mt#190</text>
<text xml:space="preserve" text-anchor="middle" x="4846.9" y="-100.8" font-family="Arial" font-size="8.00">Design Containerized Session W</text>
</g>
<!-- mt_150 -->
<g id="node69" class="node">
<title>mt_150</title>
<path fill="#bbf7d0" stroke="#16a34a" stroke-width="2" d="M4813.71,-36C4813.71,-36 4706.08,-36 4706.08,-36 4700.08,-36 4694.08,-30 4694.08,-24 4694.08,-24 4694.08,-12 4694.08,-12 4694.08,-6 4700.08,0 4706.08,0 4706.08,0 4813.71,0 4813.71,0 4819.71,0 4825.71,-6 4825.71,-12 4825.71,-12 4825.71,-24 4825.71,-24 4825.71,-30 4819.71,-36 4813.71,-36"/>
<text xml:space="preserve" text-anchor="middle" x="4759.9" y="-20.4" font-family="Arial" font-size="8.00">mt#150</text>
<text xml:space="preserve" text-anchor="middle" x="4759.9" y="-10.8" font-family="Arial" font-size="8.00">Add &#45;&#45;body&#45;path Option and Req</text>
</g>
<!-- mt_150&#45;&gt;mt_190 -->
<g id="edge80" class="edge">
<title>mt_150&#45;&gt;mt_190</title>
<path fill="none" stroke="#374151" d="M4777.5,-36.81C4791.18,-50.64 4810.23,-69.91 4824.91,-84.76"/>
<polygon fill="#374151" stroke="#374151" points="4823.49,-85.82 4828.25,-88.14 4825.98,-83.36 4823.49,-85.82"/>
</g>
<!-- mt_049 -->
<g id="node70" class="node">
<title>mt_049</title>
<path fill="#bbf7d0" stroke="#16a34a" stroke-width="2" d="M4991.59,-36C4991.59,-36 4874.2,-36 4874.2,-36 4868.2,-36 4862.2,-30 4862.2,-24 4862.2,-24 4862.2,-12 4862.2,-12 4862.2,-6 4868.2,0 4874.2,0 4874.2,0 4991.59,0 4991.59,0 4997.59,0 5003.59,-6 5003.59,-12 5003.59,-12 5003.59,-24 5003.59,-24 5003.59,-30 4997.59,-36 4991.59,-36"/>
<text xml:space="preserve" text-anchor="middle" x="4932.9" y="-20.4" font-family="Arial" font-size="8.00">mt#049</text>
<text xml:space="preserve" text-anchor="middle" x="4932.9" y="-10.8" font-family="Arial" font-size="8.00">Implement Session&#45;Scoped MCP S</text>
</g>
<!-- mt_049&#45;&gt;mt_190 -->
<g id="edge81" class="edge">
<title>mt_049&#45;&gt;mt_190</title>
<path fill="none" stroke="#374151" d="M4915.49,-36.81C4901.97,-50.64 4883.14,-69.91 4868.63,-84.76"/>
<polygon fill="#374151" stroke="#374151" points="4867.57,-83.34 4865.33,-88.14 4870.08,-85.78 4867.57,-83.34"/>
</g>
<!-- mt_302 -->
<g id="node71" class="node">
<title>mt_302</title>
<path fill="#e5e7eb" stroke="#374151" stroke-width="2" d="M5162.37,-126C5162.37,-126 5053.42,-126 5053.42,-126 5047.42,-126 5041.42,-120 5041.42,-114 5041.42,-114 5041.42,-102 5041.42,-102 5041.42,-96 5047.42,-90 5053.42,-90 5053.42,-90 5162.37,-90 5162.37,-90 5168.37,-90 5174.37,-96 5174.37,-102 5174.37,-102 5174.37,-114 5174.37,-114 5174.37,-120 5168.37,-126 5162.37,-126"/>
<text xml:space="preserve" text-anchor="middle" x="5107.9" y="-110.4" font-family="Arial" font-size="8.00">mt#302</text>
<text xml:space="preserve" text-anchor="middle" x="5107.9" y="-100.8" font-family="Arial" font-size="8.00">Explore Exposing Rules and Doc</text>
</g>
<!-- mt_289 -->
<g id="node72" class="node">
<title>mt_289</title>
<path fill="#bbf7d0" stroke="#16a34a" stroke-width="2" d="M5164.37,-36C5164.37,-36 5051.43,-36 5051.43,-36 5045.43,-36 5039.43,-30 5039.43,-24 5039.43,-24 5039.43,-12 5039.43,-12 5039.43,-6 5045.43,0 5051.43,0 5051.43,0 5164.37,0 5164.37,0 5170.37,0 5176.37,-6 5176.37,-12 5176.37,-12 5176.37,-24 5176.37,-24 5176.37,-30 5170.37,-36 5164.37,-36"/>
<text xml:space="preserve" text-anchor="middle" x="5107.9" y="-20.4" font-family="Arial" font-size="8.00">mt#289</text>
<text xml:space="preserve" text-anchor="middle" x="5107.9" y="-10.8" font-family="Arial" font-size="8.00">Implement Template&#45;Based Rules</text>
</g>
<!-- mt_289&#45;&gt;mt_302 -->
<g id="edge84" class="edge">
<title>mt_289&#45;&gt;mt_302</title>
<path fill="none" stroke="#374151" d="M5107.9,-36.81C5107.9,-50.05 5107.9,-68.26 5107.9,-82.82"/>
<polygon fill="#374151" stroke="#374151" points="5106.15,-82.7 5107.9,-87.7 5109.65,-82.7 5106.15,-82.7"/>
</g>
<!-- mt_454 -->
<g id="node75" class="node">
<title>mt_454</title>
<path fill="#e5e7eb" stroke="#374151" stroke-width="2" d="M2102.46,-486C2102.46,-486 2003.34,-486 2003.34,-486 1997.34,-486 1991.34,-480 1991.34,-474 1991.34,-474 1991.34,-462 1991.34,-462 1991.34,-456 1997.34,-450 2003.34,-450 2003.34,-450 2102.46,-450 2102.46,-450 2108.46,-450 2114.46,-456 2114.46,-462 2114.46,-462 2114.46,-474 2114.46,-474 2114.46,-480 2108.46,-486 2102.46,-486"/>
<text xml:space="preserve" text-anchor="middle" x="2052.9" y="-470.4" font-family="Arial" font-size="8.00">mt#454</text>
<text xml:space="preserve" text-anchor="middle" x="2052.9" y="-460.8" font-family="Arial" font-size="8.00">Investigate &#39;seek human input&#39;</text>
</g>
<!-- mt_454&#45;&gt;mt_468 -->
<g id="edge89" class="edge">
<title>mt_454&#45;&gt;mt_468</title>
<path fill="none" stroke="#374151" d="M2056.94,-486.81C2059.98,-500.17 2064.17,-518.59 2067.49,-533.21"/>
<polygon fill="#374151" stroke="#374151" points="2065.71,-533.25 2068.52,-537.74 2069.12,-532.48 2065.71,-533.25"/>
</g>
<!-- mt_326 -->
<g id="node76" class="node">
<title>mt_326</title>
<path fill="#e5e7eb" stroke="#374151" stroke-width="2" d="M2275.82,-486C2275.82,-486 2161.97,-486 2161.97,-486 2155.97,-486 2149.97,-480 2149.97,-474 2149.97,-474 2149.97,-462 2149.97,-462 2149.97,-456 2155.97,-450 2161.97,-450 2161.97,-450 2275.82,-450 2275.82,-450 2281.82,-450 2287.82,-456 2287.82,-462 2287.82,-462 2287.82,-474 2287.82,-474 2287.82,-480 2281.82,-486 2275.82,-486"/>
<text xml:space="preserve" text-anchor="middle" x="2218.9" y="-470.4" font-family="Arial" font-size="8.00">mt#326</text>
<text xml:space="preserve" text-anchor="middle" x="2218.9" y="-460.8" font-family="Arial" font-size="8.00">Explore embedding Outerbase DB</text>
</g>
<!-- mt_326&#45;&gt;mt_468 -->
<g id="edge90" class="edge">
<title>mt_326&#45;&gt;mt_468</title>
<path fill="none" stroke="#374151" d="M2189.35,-486.81C2165.88,-500.96 2132.98,-520.78 2108.14,-535.76"/>
<polygon fill="#374151" stroke="#374151" points="2107.32,-534.21 2103.94,-538.29 2109.13,-537.2 2107.32,-534.21"/>
</g>
</g>
</svg>
