<svg xmlns="http://www.w3.org/2000/svg" viewBox="0 0 1280 640" width="1280" height="640">
  <rect width="1280" height="640" fill="#080808"/>

  <g transform="translate(90, 175) scale(0.567)">
    <path fill-rule="evenodd" fill="#00BFD8" d="
      M 155,445
      C 30,360 16,105 256,22
      C 496,105 482,360 357,445
      C 362,410 387,300 360,200
      Q 345,268 256,350
      Q 167,268 152,200
      C 125,300 150,410 155,445
      Z
      M 256,71 Q 391,175 256,279 Q 121,175 256,71 Z
      M 225,175 a 31,31 0 1,0 62,0 a 31,31 0 1,0 -62,0 Z
    "/>
  </g>

  <text x="460" y="240"
        font-family="'JetBrains Mono', 'SF Mono', Menlo, Consolas, monospace"
        font-size="20" font-weight="400" fill="#00BFD8" letter-spacing="3.5">PRINCIPAL SUBSTRATE</text>

  <text x="455" y="370"
        font-family="Geist, -apple-system, BlinkMacSystemFont, 'Segoe UI', Helvetica, Arial, sans-serif"
        font-size="144" font-weight="400" fill="#EEEEEE" letter-spacing="-5">Minsky</text>

  <text x="459" y="432"
        font-family="Geist, -apple-system, BlinkMacSystemFont, 'Segoe UI', Helvetica, Arial, sans-serif"
        font-size="30" font-weight="300" fill="#BBBBBB" letter-spacing="-0.3">The cyberbrain for software organizations.</text>
</svg>
